G04 EAGLE Gerber RS-274X export*
G75*
%MOMM*%
%FSLAX34Y34*%
%LPD*%
%INBottom Copper*%
%IPPOS*%
%AMOC8*
5,1,8,0,0,1.08239X$1,22.5*%
G01*
%ADD10C,1.778000*%
%ADD11C,1.409600*%
%ADD12C,1.879600*%
%ADD13C,1.625600*%
%ADD14C,2.032000*%
%ADD15R,1.651000X1.651000*%
%ADD16C,1.651000*%
%ADD17P,1.814519X8X292.500000*%
%ADD18C,1.422400*%
%ADD19C,0.254000*%
%ADD20C,0.245000*%
%ADD21C,0.203200*%

G36*
X1215800Y3064D02*
X1215800Y3064D01*
X1215919Y3071D01*
X1215957Y3084D01*
X1215998Y3089D01*
X1216108Y3132D01*
X1216221Y3169D01*
X1216256Y3191D01*
X1216293Y3206D01*
X1216389Y3275D01*
X1216490Y3339D01*
X1216518Y3369D01*
X1216551Y3392D01*
X1216627Y3484D01*
X1216708Y3571D01*
X1216728Y3606D01*
X1216753Y3637D01*
X1216804Y3745D01*
X1216862Y3849D01*
X1216872Y3889D01*
X1216889Y3925D01*
X1216911Y4042D01*
X1216941Y4157D01*
X1216945Y4217D01*
X1216949Y4237D01*
X1216947Y4258D01*
X1216951Y4318D01*
X1216951Y855682D01*
X1216936Y855800D01*
X1216929Y855919D01*
X1216916Y855957D01*
X1216911Y855998D01*
X1216868Y856108D01*
X1216831Y856221D01*
X1216809Y856256D01*
X1216794Y856293D01*
X1216725Y856389D01*
X1216661Y856490D01*
X1216631Y856518D01*
X1216608Y856551D01*
X1216516Y856627D01*
X1216429Y856708D01*
X1216394Y856728D01*
X1216363Y856753D01*
X1216255Y856804D01*
X1216151Y856862D01*
X1216111Y856872D01*
X1216075Y856889D01*
X1215958Y856911D01*
X1215843Y856941D01*
X1215783Y856945D01*
X1215763Y856949D01*
X1215742Y856947D01*
X1215682Y856951D01*
X4318Y856951D01*
X4200Y856936D01*
X4081Y856929D01*
X4043Y856916D01*
X4002Y856911D01*
X3892Y856868D01*
X3779Y856831D01*
X3744Y856809D01*
X3707Y856794D01*
X3611Y856725D01*
X3510Y856661D01*
X3482Y856631D01*
X3449Y856608D01*
X3373Y856516D01*
X3292Y856429D01*
X3272Y856394D01*
X3247Y856363D01*
X3196Y856255D01*
X3138Y856151D01*
X3128Y856111D01*
X3111Y856075D01*
X3089Y855958D01*
X3059Y855843D01*
X3055Y855783D01*
X3051Y855763D01*
X3053Y855742D01*
X3049Y855682D01*
X3049Y4318D01*
X3064Y4200D01*
X3071Y4081D01*
X3084Y4043D01*
X3089Y4002D01*
X3132Y3892D01*
X3169Y3779D01*
X3191Y3744D01*
X3206Y3707D01*
X3275Y3611D01*
X3339Y3510D01*
X3369Y3482D01*
X3392Y3449D01*
X3484Y3373D01*
X3571Y3292D01*
X3606Y3272D01*
X3637Y3247D01*
X3745Y3196D01*
X3849Y3138D01*
X3889Y3128D01*
X3925Y3111D01*
X4042Y3089D01*
X4157Y3059D01*
X4217Y3055D01*
X4237Y3051D01*
X4258Y3053D01*
X4318Y3049D01*
X1215682Y3049D01*
X1215800Y3064D01*
G37*
%LPC*%
G36*
X907011Y13681D02*
X907011Y13681D01*
X862481Y58211D01*
X862481Y77685D01*
X862469Y77784D01*
X862466Y77883D01*
X862449Y77941D01*
X862441Y78001D01*
X862405Y78093D01*
X862377Y78188D01*
X862347Y78240D01*
X862324Y78297D01*
X862266Y78377D01*
X862216Y78462D01*
X862150Y78537D01*
X862138Y78554D01*
X862128Y78562D01*
X862110Y78583D01*
X857983Y82710D01*
X857905Y82770D01*
X857832Y82838D01*
X857779Y82867D01*
X857732Y82904D01*
X857641Y82944D01*
X857554Y82992D01*
X857495Y83007D01*
X857440Y83031D01*
X857342Y83046D01*
X857246Y83071D01*
X857146Y83077D01*
X857126Y83081D01*
X857113Y83079D01*
X857085Y83081D01*
X520496Y83081D01*
X520464Y83077D01*
X520432Y83080D01*
X520272Y83061D01*
X518999Y82834D01*
X518971Y82853D01*
X518841Y82921D01*
X518714Y82992D01*
X518701Y82995D01*
X518689Y83001D01*
X518546Y83035D01*
X518406Y83071D01*
X518388Y83072D01*
X518380Y83074D01*
X518363Y83074D01*
X518245Y83081D01*
X518211Y83081D01*
X517297Y83996D01*
X517271Y84015D01*
X517251Y84040D01*
X517125Y84140D01*
X494571Y99853D01*
X494442Y99921D01*
X494314Y99992D01*
X494301Y99995D01*
X494289Y100001D01*
X494147Y100035D01*
X494006Y100071D01*
X493988Y100072D01*
X493980Y100074D01*
X493963Y100074D01*
X493845Y100081D01*
X493811Y100081D01*
X492897Y100996D01*
X492871Y101015D01*
X492851Y101040D01*
X492725Y101140D01*
X491663Y101879D01*
X491657Y101913D01*
X491614Y102052D01*
X491573Y102192D01*
X491567Y102204D01*
X491563Y102216D01*
X491486Y102340D01*
X491412Y102466D01*
X491400Y102480D01*
X491395Y102487D01*
X491383Y102498D01*
X491305Y102587D01*
X491281Y102611D01*
X491281Y103904D01*
X491277Y103936D01*
X491280Y103968D01*
X491261Y104128D01*
X491034Y105401D01*
X491053Y105429D01*
X491121Y105559D01*
X491192Y105686D01*
X491195Y105699D01*
X491201Y105711D01*
X491235Y105854D01*
X491271Y105994D01*
X491272Y106012D01*
X491274Y106020D01*
X491274Y106037D01*
X491281Y106155D01*
X491281Y117469D01*
X491278Y117498D01*
X491280Y117527D01*
X491258Y117655D01*
X491241Y117784D01*
X491231Y117811D01*
X491226Y117841D01*
X491172Y117959D01*
X491124Y118080D01*
X491107Y118104D01*
X491095Y118131D01*
X491014Y118232D01*
X490938Y118337D01*
X490915Y118356D01*
X490896Y118379D01*
X490793Y118457D01*
X490693Y118540D01*
X490666Y118553D01*
X490642Y118570D01*
X490498Y118641D01*
X488550Y119448D01*
X485048Y122950D01*
X483153Y127524D01*
X483153Y132476D01*
X485048Y137050D01*
X488550Y140552D01*
X493124Y142447D01*
X498076Y142447D01*
X502650Y140552D01*
X506152Y137050D01*
X507327Y134213D01*
X507396Y134092D01*
X507461Y133969D01*
X507475Y133954D01*
X507485Y133936D01*
X507582Y133836D01*
X507675Y133734D01*
X507692Y133722D01*
X507706Y133708D01*
X507825Y133635D01*
X507941Y133559D01*
X507960Y133552D01*
X507977Y133542D01*
X508110Y133501D01*
X508242Y133456D01*
X508262Y133454D01*
X508281Y133448D01*
X508420Y133441D01*
X508559Y133430D01*
X508579Y133434D01*
X508599Y133433D01*
X508735Y133461D01*
X508872Y133485D01*
X508891Y133493D01*
X508910Y133497D01*
X509036Y133558D01*
X509162Y133615D01*
X509178Y133628D01*
X509196Y133637D01*
X509302Y133727D01*
X509410Y133814D01*
X509423Y133830D01*
X509438Y133843D01*
X509518Y133957D01*
X509602Y134068D01*
X509614Y134093D01*
X509621Y134103D01*
X509628Y134122D01*
X509673Y134213D01*
X510848Y137050D01*
X514350Y140552D01*
X518924Y142447D01*
X523876Y142447D01*
X528450Y140552D01*
X531952Y137050D01*
X533847Y132476D01*
X533847Y127524D01*
X531952Y122950D01*
X528450Y119448D01*
X523876Y117553D01*
X518924Y117553D01*
X514350Y119448D01*
X510848Y122950D01*
X509673Y125787D01*
X509604Y125908D01*
X509539Y126031D01*
X509525Y126046D01*
X509515Y126064D01*
X509418Y126164D01*
X509325Y126266D01*
X509308Y126278D01*
X509294Y126292D01*
X509176Y126365D01*
X509059Y126441D01*
X509040Y126448D01*
X509023Y126458D01*
X508890Y126499D01*
X508758Y126544D01*
X508738Y126546D01*
X508719Y126552D01*
X508580Y126559D01*
X508441Y126570D01*
X508421Y126566D01*
X508401Y126567D01*
X508265Y126539D01*
X508128Y126515D01*
X508110Y126507D01*
X508090Y126503D01*
X507964Y126442D01*
X507838Y126385D01*
X507822Y126372D01*
X507804Y126363D01*
X507698Y126273D01*
X507590Y126186D01*
X507577Y126170D01*
X507562Y126157D01*
X507482Y126043D01*
X507398Y125932D01*
X507386Y125907D01*
X507379Y125897D01*
X507372Y125878D01*
X507327Y125787D01*
X506152Y122950D01*
X502650Y119448D01*
X500702Y118641D01*
X500677Y118627D01*
X500649Y118617D01*
X500539Y118548D01*
X500426Y118484D01*
X500405Y118463D01*
X500380Y118447D01*
X500291Y118353D01*
X500198Y118262D01*
X500182Y118237D01*
X500162Y118216D01*
X500099Y118102D01*
X500031Y117991D01*
X500023Y117963D01*
X500008Y117937D01*
X499976Y117811D01*
X499938Y117687D01*
X499936Y117658D01*
X499929Y117629D01*
X499919Y117469D01*
X499919Y107317D01*
X499925Y107266D01*
X499923Y107214D01*
X499945Y107108D01*
X499959Y107002D01*
X499978Y106953D01*
X499988Y106902D01*
X500036Y106806D01*
X500076Y106706D01*
X500106Y106664D01*
X500129Y106617D01*
X500199Y106536D01*
X500262Y106449D01*
X500303Y106416D01*
X500336Y106376D01*
X500462Y106276D01*
X521029Y91947D01*
X521158Y91879D01*
X521286Y91808D01*
X521299Y91805D01*
X521311Y91799D01*
X521453Y91765D01*
X521594Y91729D01*
X521612Y91728D01*
X521620Y91726D01*
X521637Y91726D01*
X521755Y91719D01*
X609600Y91719D01*
X609733Y91736D01*
X609867Y91747D01*
X609891Y91755D01*
X609915Y91759D01*
X610040Y91808D01*
X610168Y91853D01*
X610188Y91867D01*
X610211Y91876D01*
X610320Y91955D01*
X610432Y92030D01*
X610448Y92048D01*
X610468Y92062D01*
X610554Y92166D01*
X610644Y92266D01*
X610655Y92288D01*
X610671Y92307D01*
X610728Y92429D01*
X610791Y92549D01*
X610796Y92573D01*
X610807Y92595D01*
X610832Y92727D01*
X610862Y92859D01*
X610862Y92883D01*
X610866Y92907D01*
X610858Y93042D01*
X610855Y93176D01*
X610848Y93200D01*
X610847Y93225D01*
X610805Y93353D01*
X610769Y93483D01*
X610756Y93504D01*
X610749Y93527D01*
X610677Y93641D01*
X610609Y93758D01*
X610592Y93775D01*
X610579Y93796D01*
X610480Y93889D01*
X610386Y93984D01*
X610365Y93997D01*
X610347Y94014D01*
X610229Y94079D01*
X610114Y94149D01*
X610081Y94161D01*
X610068Y94168D01*
X610048Y94173D01*
X609963Y94204D01*
X609547Y94328D01*
X609445Y94345D01*
X609345Y94371D01*
X609255Y94377D01*
X609233Y94380D01*
X609219Y94379D01*
X609184Y94381D01*
X608211Y94381D01*
X607945Y94647D01*
X607887Y94693D01*
X607834Y94746D01*
X607761Y94790D01*
X607694Y94842D01*
X607626Y94871D01*
X607562Y94910D01*
X607411Y94966D01*
X597147Y98028D01*
X597045Y98045D01*
X596945Y98071D01*
X596855Y98077D01*
X596833Y98080D01*
X596819Y98079D01*
X596784Y98081D01*
X595811Y98081D01*
X595546Y98347D01*
X595487Y98393D01*
X595434Y98446D01*
X595361Y98490D01*
X595294Y98542D01*
X595226Y98571D01*
X595162Y98610D01*
X595011Y98666D01*
X594651Y98773D01*
X594188Y99629D01*
X594128Y99713D01*
X594076Y99802D01*
X594016Y99870D01*
X594003Y99888D01*
X593992Y99897D01*
X593969Y99923D01*
X593281Y100611D01*
X593281Y100987D01*
X593272Y101061D01*
X593273Y101135D01*
X593252Y101218D01*
X593241Y101302D01*
X593214Y101372D01*
X593196Y101444D01*
X593129Y101590D01*
X592950Y101921D01*
X593228Y102853D01*
X593245Y102955D01*
X593271Y103055D01*
X593277Y103145D01*
X593280Y103167D01*
X593279Y103181D01*
X593281Y103216D01*
X593281Y117469D01*
X593278Y117498D01*
X593280Y117527D01*
X593258Y117655D01*
X593241Y117784D01*
X593231Y117811D01*
X593226Y117841D01*
X593172Y117959D01*
X593124Y118080D01*
X593107Y118104D01*
X593095Y118131D01*
X593014Y118232D01*
X592938Y118337D01*
X592915Y118356D01*
X592896Y118379D01*
X592793Y118457D01*
X592693Y118540D01*
X592666Y118553D01*
X592642Y118570D01*
X592498Y118641D01*
X590550Y119448D01*
X587048Y122950D01*
X585153Y127524D01*
X585153Y132476D01*
X587048Y137050D01*
X590550Y140552D01*
X595124Y142447D01*
X600076Y142447D01*
X604650Y140552D01*
X608152Y137050D01*
X608827Y135420D01*
X608896Y135299D01*
X608961Y135176D01*
X608975Y135161D01*
X608985Y135143D01*
X609082Y135043D01*
X609175Y134941D01*
X609192Y134930D01*
X609206Y134915D01*
X609325Y134842D01*
X609441Y134766D01*
X609460Y134759D01*
X609477Y134749D01*
X609610Y134708D01*
X609742Y134663D01*
X609762Y134661D01*
X609781Y134655D01*
X609920Y134648D01*
X610059Y134637D01*
X610079Y134641D01*
X610099Y134640D01*
X610235Y134668D01*
X610372Y134692D01*
X610391Y134700D01*
X610410Y134704D01*
X610536Y134765D01*
X610662Y134822D01*
X610678Y134835D01*
X610696Y134844D01*
X610802Y134934D01*
X610910Y135021D01*
X610923Y135037D01*
X610938Y135050D01*
X611018Y135164D01*
X611102Y135275D01*
X611114Y135300D01*
X611121Y135310D01*
X611128Y135329D01*
X611173Y135420D01*
X611848Y137051D01*
X615350Y140552D01*
X619924Y142447D01*
X624876Y142447D01*
X629450Y140552D01*
X632952Y137050D01*
X634847Y132476D01*
X634847Y127524D01*
X632952Y122950D01*
X629450Y119448D01*
X624876Y117553D01*
X619924Y117553D01*
X615350Y119448D01*
X611848Y122949D01*
X611173Y124580D01*
X611104Y124701D01*
X611039Y124824D01*
X611025Y124839D01*
X611015Y124857D01*
X610918Y124957D01*
X610825Y125059D01*
X610808Y125071D01*
X610794Y125085D01*
X610676Y125158D01*
X610559Y125234D01*
X610540Y125241D01*
X610523Y125251D01*
X610390Y125292D01*
X610258Y125337D01*
X610238Y125339D01*
X610219Y125345D01*
X610080Y125352D01*
X609941Y125363D01*
X609921Y125359D01*
X609901Y125360D01*
X609765Y125332D01*
X609628Y125308D01*
X609609Y125300D01*
X609590Y125296D01*
X609465Y125235D01*
X609338Y125178D01*
X609322Y125165D01*
X609304Y125156D01*
X609198Y125066D01*
X609090Y124979D01*
X609077Y124963D01*
X609062Y124950D01*
X608982Y124836D01*
X608898Y124725D01*
X608886Y124700D01*
X608879Y124690D01*
X608872Y124670D01*
X608827Y124580D01*
X608152Y122950D01*
X604650Y119448D01*
X602702Y118641D01*
X602677Y118627D01*
X602649Y118617D01*
X602539Y118548D01*
X602426Y118484D01*
X602405Y118463D01*
X602380Y118447D01*
X602291Y118353D01*
X602198Y118262D01*
X602182Y118237D01*
X602162Y118216D01*
X602099Y118102D01*
X602031Y117991D01*
X602023Y117963D01*
X602008Y117937D01*
X601976Y117811D01*
X601938Y117687D01*
X601936Y117658D01*
X601929Y117629D01*
X601919Y117469D01*
X601919Y106564D01*
X601931Y106470D01*
X601933Y106376D01*
X601950Y106313D01*
X601959Y106249D01*
X601993Y106161D01*
X602019Y106070D01*
X602052Y106013D01*
X602076Y105953D01*
X602131Y105876D01*
X602179Y105794D01*
X602224Y105748D01*
X602262Y105695D01*
X602335Y105635D01*
X602402Y105568D01*
X602457Y105534D01*
X602507Y105493D01*
X602593Y105452D01*
X602674Y105404D01*
X602779Y105365D01*
X602795Y105357D01*
X602805Y105355D01*
X602825Y105348D01*
X610453Y103072D01*
X610555Y103055D01*
X610655Y103029D01*
X610745Y103023D01*
X610767Y103020D01*
X610781Y103021D01*
X610816Y103019D01*
X869741Y103019D01*
X869757Y103021D01*
X869799Y103020D01*
X871575Y103101D01*
X872832Y101843D01*
X872845Y101833D01*
X872874Y101804D01*
X879411Y95837D01*
X879468Y95796D01*
X879520Y95748D01*
X879598Y95705D01*
X879671Y95653D01*
X879737Y95628D01*
X879798Y95594D01*
X879800Y95594D01*
X881064Y94330D01*
X881077Y94319D01*
X881106Y94290D01*
X882419Y93091D01*
X882419Y91313D01*
X882421Y91297D01*
X882420Y91255D01*
X882502Y89462D01*
X882486Y89401D01*
X882454Y89318D01*
X882447Y89248D01*
X882429Y89180D01*
X882419Y89019D01*
X882419Y67007D01*
X882431Y66908D01*
X882434Y66809D01*
X882451Y66751D01*
X882459Y66691D01*
X882495Y66599D01*
X882523Y66504D01*
X882553Y66452D01*
X882576Y66395D01*
X882634Y66315D01*
X882684Y66230D01*
X882750Y66155D01*
X882762Y66138D01*
X882772Y66130D01*
X882790Y66109D01*
X914709Y34190D01*
X914787Y34130D01*
X914860Y34062D01*
X914913Y34033D01*
X914960Y33996D01*
X915051Y33956D01*
X915138Y33908D01*
X915197Y33893D01*
X915252Y33869D01*
X915350Y33854D01*
X915446Y33829D01*
X915546Y33823D01*
X915566Y33819D01*
X915579Y33821D01*
X915607Y33819D01*
X1139709Y33819D01*
X1139808Y33831D01*
X1139907Y33834D01*
X1139965Y33851D01*
X1140025Y33859D01*
X1140117Y33895D01*
X1140212Y33923D01*
X1140264Y33953D01*
X1140321Y33976D01*
X1140401Y34034D01*
X1140486Y34084D01*
X1140561Y34150D01*
X1140578Y34162D01*
X1140586Y34172D01*
X1140607Y34190D01*
X1185310Y78893D01*
X1185370Y78971D01*
X1185438Y79044D01*
X1185467Y79097D01*
X1185504Y79144D01*
X1185544Y79235D01*
X1185592Y79322D01*
X1185607Y79381D01*
X1185631Y79436D01*
X1185646Y79534D01*
X1185671Y79630D01*
X1185677Y79730D01*
X1185681Y79750D01*
X1185679Y79763D01*
X1185681Y79791D01*
X1185681Y813672D01*
X1185669Y813773D01*
X1185665Y813874D01*
X1185649Y813930D01*
X1185641Y813987D01*
X1185604Y814082D01*
X1185575Y814179D01*
X1185546Y814229D01*
X1185524Y814283D01*
X1185465Y814365D01*
X1185413Y814453D01*
X1185350Y814523D01*
X1185338Y814540D01*
X1185327Y814549D01*
X1185306Y814573D01*
X1164393Y835313D01*
X1164316Y835372D01*
X1164246Y835438D01*
X1164191Y835469D01*
X1164141Y835507D01*
X1164052Y835545D01*
X1163968Y835592D01*
X1163906Y835607D01*
X1163848Y835632D01*
X1163753Y835647D01*
X1163660Y835671D01*
X1163553Y835678D01*
X1163534Y835681D01*
X1163523Y835680D01*
X1163499Y835681D01*
X1161407Y835681D01*
X1161268Y835664D01*
X1161128Y835650D01*
X1161111Y835644D01*
X1161092Y835641D01*
X1160961Y835590D01*
X1160829Y835542D01*
X1160814Y835531D01*
X1160796Y835524D01*
X1160683Y835442D01*
X1160566Y835363D01*
X1160554Y835349D01*
X1160539Y835338D01*
X1160449Y835229D01*
X1160357Y835124D01*
X1160348Y835107D01*
X1160336Y835093D01*
X1160276Y834966D01*
X1160213Y834840D01*
X1160208Y834822D01*
X1160201Y834805D01*
X1160174Y834667D01*
X1160144Y834530D01*
X1160144Y834511D01*
X1160141Y834493D01*
X1160149Y834353D01*
X1160154Y834212D01*
X1160159Y834194D01*
X1160161Y834175D01*
X1160204Y834042D01*
X1160243Y833907D01*
X1160253Y833890D01*
X1160259Y833873D01*
X1160334Y833754D01*
X1160405Y833633D01*
X1160423Y833614D01*
X1160429Y833604D01*
X1160433Y833600D01*
X1160433Y833599D01*
X1160445Y833589D01*
X1160512Y833512D01*
X1176411Y817688D01*
X1176446Y817662D01*
X1178050Y816058D01*
X1178051Y816057D01*
X1178052Y816056D01*
X1179319Y814795D01*
X1179319Y813007D01*
X1179319Y813006D01*
X1179319Y813004D01*
X1179324Y810776D01*
X1179323Y810754D01*
X1179319Y810733D01*
X1179321Y810721D01*
X1179319Y810693D01*
X1179319Y83415D01*
X1134425Y38521D01*
X917253Y38521D01*
X885083Y70691D01*
X885083Y98283D01*
X885071Y98382D01*
X885068Y98481D01*
X885051Y98539D01*
X885043Y98599D01*
X885007Y98691D01*
X884979Y98786D01*
X884949Y98838D01*
X884926Y98895D01*
X884868Y98975D01*
X884818Y99060D01*
X884752Y99135D01*
X884740Y99152D01*
X884730Y99160D01*
X884712Y99181D01*
X878583Y105310D01*
X878505Y105370D01*
X878432Y105438D01*
X878379Y105467D01*
X878332Y105504D01*
X878241Y105544D01*
X878154Y105592D01*
X878095Y105607D01*
X878040Y105631D01*
X877942Y105646D01*
X877846Y105671D01*
X877746Y105677D01*
X877726Y105681D01*
X877713Y105679D01*
X877685Y105681D01*
X708211Y105681D01*
X697183Y116709D01*
X696670Y117223D01*
X696662Y117228D01*
X696656Y117236D01*
X696537Y117326D01*
X696418Y117418D01*
X696410Y117421D01*
X696402Y117427D01*
X696258Y117498D01*
X691550Y119448D01*
X688048Y122950D01*
X686153Y127524D01*
X686153Y132476D01*
X688048Y137050D01*
X691550Y140552D01*
X696124Y142447D01*
X701076Y142447D01*
X705650Y140552D01*
X709152Y137050D01*
X710327Y134212D01*
X710396Y134092D01*
X710461Y133969D01*
X710475Y133954D01*
X710485Y133936D01*
X710582Y133836D01*
X710675Y133733D01*
X710692Y133722D01*
X710706Y133708D01*
X710825Y133635D01*
X710941Y133559D01*
X710960Y133552D01*
X710977Y133542D01*
X711110Y133501D01*
X711242Y133456D01*
X711262Y133454D01*
X711281Y133448D01*
X711420Y133441D01*
X711559Y133430D01*
X711579Y133434D01*
X711599Y133433D01*
X711735Y133461D01*
X711872Y133485D01*
X711891Y133493D01*
X711910Y133497D01*
X712036Y133558D01*
X712162Y133615D01*
X712178Y133628D01*
X712196Y133637D01*
X712302Y133727D01*
X712410Y133814D01*
X712423Y133830D01*
X712438Y133843D01*
X712518Y133957D01*
X712602Y134068D01*
X712614Y134093D01*
X712621Y134103D01*
X712628Y134122D01*
X712673Y134212D01*
X713848Y137050D01*
X717350Y140552D01*
X721924Y142447D01*
X726876Y142447D01*
X731450Y140552D01*
X734952Y137050D01*
X736847Y132476D01*
X736847Y127524D01*
X734952Y122950D01*
X731450Y119448D01*
X726876Y117553D01*
X721924Y117553D01*
X717350Y119448D01*
X713848Y122950D01*
X712673Y125788D01*
X712604Y125908D01*
X712539Y126031D01*
X712525Y126046D01*
X712515Y126064D01*
X712418Y126164D01*
X712325Y126267D01*
X712308Y126278D01*
X712294Y126292D01*
X712176Y126365D01*
X712059Y126441D01*
X712040Y126448D01*
X712023Y126458D01*
X711890Y126499D01*
X711758Y126544D01*
X711738Y126546D01*
X711719Y126552D01*
X711580Y126559D01*
X711441Y126570D01*
X711421Y126566D01*
X711401Y126567D01*
X711265Y126539D01*
X711128Y126515D01*
X711109Y126507D01*
X711090Y126503D01*
X710965Y126442D01*
X710838Y126385D01*
X710822Y126372D01*
X710804Y126363D01*
X710698Y126273D01*
X710590Y126186D01*
X710577Y126170D01*
X710562Y126157D01*
X710482Y126043D01*
X710398Y125932D01*
X710386Y125907D01*
X710379Y125897D01*
X710372Y125878D01*
X710327Y125788D01*
X709152Y122950D01*
X707052Y120850D01*
X706979Y120756D01*
X706901Y120667D01*
X706882Y120631D01*
X706858Y120599D01*
X706810Y120489D01*
X706756Y120384D01*
X706747Y120344D01*
X706731Y120307D01*
X706712Y120189D01*
X706686Y120073D01*
X706688Y120033D01*
X706681Y119993D01*
X706692Y119874D01*
X706696Y119755D01*
X706707Y119717D01*
X706711Y119676D01*
X706751Y119564D01*
X706785Y119450D01*
X706805Y119415D01*
X706819Y119377D01*
X706886Y119278D01*
X706946Y119176D01*
X706986Y119131D01*
X706997Y119114D01*
X707013Y119100D01*
X707052Y119055D01*
X711417Y114690D01*
X711495Y114630D01*
X711568Y114562D01*
X711621Y114533D01*
X711668Y114496D01*
X711759Y114456D01*
X711846Y114408D01*
X711905Y114393D01*
X711960Y114369D01*
X712058Y114354D01*
X712154Y114329D01*
X712254Y114323D01*
X712274Y114319D01*
X712287Y114321D01*
X712315Y114319D01*
X881789Y114319D01*
X893721Y102387D01*
X893721Y74795D01*
X893733Y74696D01*
X893736Y74597D01*
X893753Y74539D01*
X893761Y74479D01*
X893797Y74387D01*
X893825Y74292D01*
X893855Y74240D01*
X893878Y74183D01*
X893936Y74103D01*
X893986Y74018D01*
X894052Y73943D01*
X894064Y73926D01*
X894074Y73918D01*
X894092Y73897D01*
X920459Y47530D01*
X920537Y47470D01*
X920610Y47402D01*
X920663Y47373D01*
X920710Y47336D01*
X920801Y47296D01*
X920888Y47248D01*
X920947Y47233D01*
X921002Y47209D01*
X921100Y47194D01*
X921196Y47169D01*
X921296Y47163D01*
X921316Y47159D01*
X921329Y47161D01*
X921357Y47159D01*
X923269Y47159D01*
X923407Y47176D01*
X923546Y47189D01*
X923565Y47196D01*
X923585Y47199D01*
X923714Y47250D01*
X923845Y47297D01*
X923862Y47308D01*
X923881Y47316D01*
X923993Y47397D01*
X924108Y47475D01*
X924122Y47491D01*
X924138Y47502D01*
X924227Y47610D01*
X924319Y47714D01*
X924328Y47732D01*
X924341Y47747D01*
X924400Y47873D01*
X924463Y47997D01*
X924468Y48017D01*
X924476Y48035D01*
X924502Y48171D01*
X924533Y48307D01*
X924532Y48328D01*
X924536Y48347D01*
X924527Y48486D01*
X924523Y48625D01*
X924518Y48645D01*
X924516Y48665D01*
X924474Y48797D01*
X924435Y48931D01*
X924425Y48948D01*
X924418Y48967D01*
X924344Y49085D01*
X924273Y49205D01*
X924255Y49226D01*
X924248Y49236D01*
X924233Y49250D01*
X924167Y49325D01*
X897681Y75811D01*
X897681Y105685D01*
X897669Y105784D01*
X897666Y105883D01*
X897649Y105941D01*
X897641Y106001D01*
X897605Y106093D01*
X897577Y106188D01*
X897547Y106240D01*
X897524Y106297D01*
X897466Y106377D01*
X897416Y106462D01*
X897350Y106537D01*
X897338Y106554D01*
X897328Y106562D01*
X897310Y106583D01*
X887283Y116610D01*
X887205Y116670D01*
X887132Y116738D01*
X887079Y116767D01*
X887032Y116804D01*
X886941Y116844D01*
X886854Y116892D01*
X886795Y116907D01*
X886740Y116931D01*
X886642Y116946D01*
X886546Y116971D01*
X886446Y116977D01*
X886426Y116981D01*
X886413Y116979D01*
X886385Y116981D01*
X807511Y116981D01*
X806407Y118085D01*
X806384Y118103D01*
X806365Y118126D01*
X806259Y118200D01*
X806156Y118280D01*
X806129Y118292D01*
X806105Y118309D01*
X805983Y118355D01*
X805864Y118406D01*
X805835Y118411D01*
X805807Y118422D01*
X805678Y118436D01*
X805550Y118456D01*
X805521Y118453D01*
X805491Y118457D01*
X805363Y118439D01*
X805233Y118426D01*
X805206Y118416D01*
X805176Y118412D01*
X805024Y118360D01*
X803076Y117553D01*
X798124Y117553D01*
X793550Y119448D01*
X790048Y122950D01*
X788153Y127524D01*
X788153Y132476D01*
X790048Y137050D01*
X793550Y140552D01*
X798124Y142447D01*
X803076Y142447D01*
X807650Y140552D01*
X811152Y137050D01*
X813047Y132476D01*
X813047Y127524D01*
X812984Y127374D01*
X812971Y127326D01*
X812950Y127281D01*
X812929Y127173D01*
X812900Y127067D01*
X812900Y127017D01*
X812890Y126968D01*
X812897Y126859D01*
X812895Y126749D01*
X812907Y126701D01*
X812910Y126651D01*
X812944Y126547D01*
X812970Y126440D01*
X812993Y126396D01*
X813008Y126349D01*
X813067Y126256D01*
X813118Y126159D01*
X813152Y126122D01*
X813178Y126080D01*
X813258Y126004D01*
X813332Y125923D01*
X813374Y125896D01*
X813410Y125862D01*
X813506Y125809D01*
X813598Y125749D01*
X813645Y125732D01*
X813688Y125708D01*
X813795Y125681D01*
X813899Y125645D01*
X813948Y125641D01*
X813996Y125629D01*
X814157Y125619D01*
X890489Y125619D01*
X905186Y110921D01*
X906319Y109789D01*
X906319Y79915D01*
X906331Y79816D01*
X906334Y79717D01*
X906351Y79659D01*
X906359Y79599D01*
X906395Y79507D01*
X906423Y79412D01*
X906453Y79360D01*
X906476Y79303D01*
X906534Y79223D01*
X906584Y79138D01*
X906650Y79063D01*
X906662Y79046D01*
X906672Y79038D01*
X906690Y79017D01*
X927367Y58340D01*
X927445Y58280D01*
X927518Y58212D01*
X927571Y58183D01*
X927618Y58146D01*
X927709Y58106D01*
X927796Y58058D01*
X927855Y58043D01*
X927910Y58019D01*
X928008Y58004D01*
X928104Y57979D01*
X928204Y57973D01*
X928224Y57969D01*
X928237Y57971D01*
X928265Y57969D01*
X1121672Y57969D01*
X1121771Y57981D01*
X1121870Y57984D01*
X1121928Y58001D01*
X1121988Y58009D01*
X1122080Y58045D01*
X1122175Y58073D01*
X1122227Y58103D01*
X1122284Y58126D01*
X1122364Y58184D01*
X1122449Y58234D01*
X1122525Y58300D01*
X1122541Y58312D01*
X1122549Y58322D01*
X1122570Y58340D01*
X1131860Y67631D01*
X1131891Y67670D01*
X1131928Y67704D01*
X1131988Y67795D01*
X1132055Y67882D01*
X1132075Y67928D01*
X1132102Y67969D01*
X1132138Y68073D01*
X1132182Y68174D01*
X1132189Y68223D01*
X1132206Y68270D01*
X1132214Y68379D01*
X1132232Y68488D01*
X1132227Y68538D01*
X1132231Y68587D01*
X1132212Y68695D01*
X1132202Y68805D01*
X1132185Y68851D01*
X1132176Y68900D01*
X1132131Y69001D01*
X1132094Y69104D01*
X1132066Y69145D01*
X1132046Y69190D01*
X1131977Y69276D01*
X1131916Y69367D01*
X1131878Y69400D01*
X1131847Y69439D01*
X1131759Y69505D01*
X1131677Y69578D01*
X1131633Y69600D01*
X1131593Y69630D01*
X1131449Y69701D01*
X1129181Y70640D01*
X1126340Y73481D01*
X1124803Y77192D01*
X1124803Y81208D01*
X1125910Y83880D01*
X1125946Y84014D01*
X1125988Y84147D01*
X1125989Y84167D01*
X1125994Y84187D01*
X1125996Y84326D01*
X1126003Y84465D01*
X1125999Y84484D01*
X1125999Y84505D01*
X1125966Y84640D01*
X1125938Y84776D01*
X1125929Y84794D01*
X1125925Y84814D01*
X1125860Y84937D01*
X1125799Y85062D01*
X1125785Y85077D01*
X1125776Y85095D01*
X1125683Y85198D01*
X1125592Y85304D01*
X1125576Y85315D01*
X1125562Y85330D01*
X1125446Y85407D01*
X1125332Y85487D01*
X1125313Y85494D01*
X1125296Y85505D01*
X1125165Y85550D01*
X1125035Y85600D01*
X1125015Y85602D01*
X1124996Y85608D01*
X1124857Y85619D01*
X1124719Y85635D01*
X1124699Y85632D01*
X1124679Y85634D01*
X1124541Y85610D01*
X1124495Y85603D01*
X1120323Y85603D01*
X1120281Y85616D01*
X1120261Y85617D01*
X1120242Y85622D01*
X1120102Y85624D01*
X1119964Y85631D01*
X1119944Y85627D01*
X1119924Y85627D01*
X1119788Y85595D01*
X1119652Y85567D01*
X1119634Y85558D01*
X1119615Y85553D01*
X1119491Y85488D01*
X1119367Y85427D01*
X1119351Y85414D01*
X1119333Y85404D01*
X1119230Y85311D01*
X1119125Y85221D01*
X1119113Y85204D01*
X1119098Y85191D01*
X1119022Y85074D01*
X1118942Y84961D01*
X1118934Y84942D01*
X1118923Y84925D01*
X1118878Y84794D01*
X1118829Y84663D01*
X1118827Y84643D01*
X1118820Y84624D01*
X1118809Y84486D01*
X1118794Y84347D01*
X1118796Y84327D01*
X1118795Y84307D01*
X1118819Y84170D01*
X1118838Y84032D01*
X1118847Y84006D01*
X1118849Y83994D01*
X1118858Y83975D01*
X1118890Y83880D01*
X1119997Y81208D01*
X1119997Y77192D01*
X1118460Y73481D01*
X1115619Y70640D01*
X1111908Y69103D01*
X1107892Y69103D01*
X1104181Y70640D01*
X1101340Y73481D01*
X1099803Y77192D01*
X1099803Y81208D01*
X1100910Y83880D01*
X1100946Y84014D01*
X1100988Y84147D01*
X1100989Y84167D01*
X1100994Y84187D01*
X1100996Y84326D01*
X1101003Y84465D01*
X1100999Y84484D01*
X1100999Y84505D01*
X1100966Y84640D01*
X1100938Y84776D01*
X1100929Y84794D01*
X1100925Y84814D01*
X1100860Y84937D01*
X1100799Y85062D01*
X1100785Y85077D01*
X1100776Y85095D01*
X1100683Y85198D01*
X1100592Y85304D01*
X1100576Y85315D01*
X1100562Y85330D01*
X1100446Y85407D01*
X1100332Y85487D01*
X1100313Y85494D01*
X1100296Y85505D01*
X1100165Y85550D01*
X1100035Y85600D01*
X1100015Y85602D01*
X1099996Y85608D01*
X1099857Y85619D01*
X1099719Y85635D01*
X1099699Y85632D01*
X1099679Y85634D01*
X1099541Y85610D01*
X1099495Y85603D01*
X1095323Y85603D01*
X1095281Y85616D01*
X1095261Y85617D01*
X1095242Y85622D01*
X1095102Y85624D01*
X1094964Y85631D01*
X1094944Y85627D01*
X1094924Y85627D01*
X1094788Y85595D01*
X1094652Y85567D01*
X1094634Y85558D01*
X1094615Y85553D01*
X1094491Y85488D01*
X1094367Y85427D01*
X1094351Y85414D01*
X1094333Y85404D01*
X1094230Y85311D01*
X1094125Y85221D01*
X1094113Y85204D01*
X1094098Y85191D01*
X1094022Y85074D01*
X1093942Y84961D01*
X1093934Y84942D01*
X1093923Y84925D01*
X1093878Y84794D01*
X1093829Y84663D01*
X1093827Y84643D01*
X1093820Y84624D01*
X1093809Y84486D01*
X1093794Y84347D01*
X1093796Y84327D01*
X1093795Y84307D01*
X1093819Y84170D01*
X1093838Y84032D01*
X1093847Y84006D01*
X1093849Y83994D01*
X1093858Y83975D01*
X1093890Y83880D01*
X1094997Y81208D01*
X1094997Y77192D01*
X1093460Y73481D01*
X1090619Y70640D01*
X1086908Y69103D01*
X1082892Y69103D01*
X1079181Y70640D01*
X1076340Y73481D01*
X1074803Y77192D01*
X1074803Y81208D01*
X1075910Y83880D01*
X1075946Y84014D01*
X1075988Y84147D01*
X1075989Y84167D01*
X1075994Y84187D01*
X1075996Y84326D01*
X1076003Y84465D01*
X1075999Y84484D01*
X1075999Y84505D01*
X1075966Y84640D01*
X1075938Y84776D01*
X1075929Y84794D01*
X1075925Y84814D01*
X1075860Y84937D01*
X1075799Y85062D01*
X1075785Y85077D01*
X1075776Y85095D01*
X1075683Y85198D01*
X1075592Y85304D01*
X1075576Y85315D01*
X1075562Y85330D01*
X1075446Y85407D01*
X1075332Y85487D01*
X1075313Y85494D01*
X1075296Y85505D01*
X1075165Y85550D01*
X1075035Y85600D01*
X1075015Y85602D01*
X1074996Y85608D01*
X1074857Y85619D01*
X1074719Y85635D01*
X1074699Y85632D01*
X1074679Y85634D01*
X1074541Y85610D01*
X1074495Y85603D01*
X1070323Y85603D01*
X1070281Y85616D01*
X1070261Y85617D01*
X1070242Y85622D01*
X1070102Y85624D01*
X1069964Y85631D01*
X1069944Y85627D01*
X1069924Y85627D01*
X1069788Y85595D01*
X1069652Y85567D01*
X1069634Y85558D01*
X1069615Y85553D01*
X1069491Y85488D01*
X1069367Y85427D01*
X1069351Y85414D01*
X1069333Y85404D01*
X1069230Y85311D01*
X1069125Y85221D01*
X1069113Y85204D01*
X1069098Y85191D01*
X1069022Y85074D01*
X1068942Y84961D01*
X1068934Y84942D01*
X1068923Y84925D01*
X1068878Y84794D01*
X1068829Y84663D01*
X1068827Y84643D01*
X1068820Y84624D01*
X1068809Y84486D01*
X1068794Y84347D01*
X1068796Y84327D01*
X1068795Y84307D01*
X1068819Y84170D01*
X1068838Y84032D01*
X1068847Y84006D01*
X1068849Y83994D01*
X1068858Y83975D01*
X1068890Y83880D01*
X1069997Y81208D01*
X1069997Y77192D01*
X1068460Y73481D01*
X1065619Y70640D01*
X1061908Y69103D01*
X1057892Y69103D01*
X1054181Y70640D01*
X1051340Y73481D01*
X1049803Y77192D01*
X1049803Y81208D01*
X1050910Y83880D01*
X1050946Y84014D01*
X1050988Y84147D01*
X1050989Y84167D01*
X1050994Y84187D01*
X1050996Y84326D01*
X1051003Y84465D01*
X1050999Y84484D01*
X1050999Y84505D01*
X1050966Y84640D01*
X1050938Y84776D01*
X1050929Y84794D01*
X1050925Y84814D01*
X1050860Y84937D01*
X1050799Y85062D01*
X1050785Y85077D01*
X1050776Y85095D01*
X1050683Y85198D01*
X1050592Y85304D01*
X1050576Y85315D01*
X1050562Y85330D01*
X1050446Y85407D01*
X1050332Y85487D01*
X1050313Y85494D01*
X1050296Y85505D01*
X1050165Y85550D01*
X1050035Y85600D01*
X1050015Y85602D01*
X1049996Y85608D01*
X1049857Y85619D01*
X1049719Y85635D01*
X1049699Y85632D01*
X1049679Y85634D01*
X1049541Y85610D01*
X1049495Y85603D01*
X1045323Y85603D01*
X1045281Y85616D01*
X1045261Y85617D01*
X1045242Y85622D01*
X1045102Y85624D01*
X1044964Y85631D01*
X1044944Y85627D01*
X1044924Y85627D01*
X1044788Y85595D01*
X1044652Y85567D01*
X1044634Y85558D01*
X1044615Y85553D01*
X1044491Y85488D01*
X1044367Y85427D01*
X1044351Y85414D01*
X1044333Y85404D01*
X1044230Y85311D01*
X1044125Y85221D01*
X1044113Y85204D01*
X1044098Y85191D01*
X1044022Y85074D01*
X1043942Y84961D01*
X1043934Y84942D01*
X1043923Y84925D01*
X1043878Y84794D01*
X1043829Y84663D01*
X1043827Y84643D01*
X1043820Y84624D01*
X1043809Y84486D01*
X1043794Y84347D01*
X1043796Y84327D01*
X1043795Y84307D01*
X1043819Y84170D01*
X1043838Y84032D01*
X1043847Y84006D01*
X1043849Y83994D01*
X1043858Y83975D01*
X1043890Y83880D01*
X1044997Y81208D01*
X1044997Y77192D01*
X1043460Y73481D01*
X1040619Y70640D01*
X1036908Y69103D01*
X1032892Y69103D01*
X1029181Y70640D01*
X1026340Y73481D01*
X1024803Y77192D01*
X1024803Y81208D01*
X1025910Y83880D01*
X1025946Y84014D01*
X1025988Y84147D01*
X1025989Y84167D01*
X1025994Y84187D01*
X1025996Y84326D01*
X1026003Y84465D01*
X1025999Y84484D01*
X1025999Y84505D01*
X1025966Y84640D01*
X1025938Y84776D01*
X1025929Y84794D01*
X1025925Y84814D01*
X1025860Y84937D01*
X1025799Y85062D01*
X1025785Y85077D01*
X1025776Y85095D01*
X1025683Y85198D01*
X1025592Y85304D01*
X1025576Y85315D01*
X1025562Y85330D01*
X1025446Y85407D01*
X1025332Y85487D01*
X1025313Y85494D01*
X1025296Y85505D01*
X1025165Y85550D01*
X1025035Y85600D01*
X1025015Y85602D01*
X1024996Y85608D01*
X1024857Y85619D01*
X1024719Y85635D01*
X1024699Y85632D01*
X1024679Y85634D01*
X1024541Y85610D01*
X1024495Y85603D01*
X1020323Y85603D01*
X1020281Y85616D01*
X1020261Y85617D01*
X1020242Y85622D01*
X1020102Y85624D01*
X1019964Y85631D01*
X1019944Y85627D01*
X1019924Y85627D01*
X1019788Y85595D01*
X1019652Y85567D01*
X1019634Y85558D01*
X1019615Y85553D01*
X1019491Y85488D01*
X1019367Y85427D01*
X1019351Y85414D01*
X1019333Y85404D01*
X1019230Y85311D01*
X1019125Y85221D01*
X1019113Y85204D01*
X1019098Y85191D01*
X1019022Y85074D01*
X1018942Y84961D01*
X1018934Y84942D01*
X1018923Y84925D01*
X1018878Y84794D01*
X1018829Y84663D01*
X1018827Y84643D01*
X1018820Y84624D01*
X1018809Y84486D01*
X1018794Y84347D01*
X1018796Y84327D01*
X1018795Y84307D01*
X1018819Y84170D01*
X1018838Y84032D01*
X1018847Y84006D01*
X1018849Y83994D01*
X1018858Y83975D01*
X1018890Y83880D01*
X1019997Y81208D01*
X1019997Y77192D01*
X1018460Y73481D01*
X1015619Y70640D01*
X1011908Y69103D01*
X1007892Y69103D01*
X1004181Y70640D01*
X1001340Y73481D01*
X999803Y77192D01*
X999803Y81208D01*
X1000910Y83880D01*
X1000946Y84014D01*
X1000988Y84147D01*
X1000989Y84167D01*
X1000994Y84187D01*
X1000996Y84326D01*
X1001003Y84465D01*
X1000999Y84484D01*
X1000999Y84505D01*
X1000966Y84640D01*
X1000938Y84776D01*
X1000929Y84794D01*
X1000925Y84814D01*
X1000860Y84937D01*
X1000799Y85062D01*
X1000785Y85077D01*
X1000776Y85095D01*
X1000683Y85198D01*
X1000592Y85304D01*
X1000576Y85315D01*
X1000562Y85330D01*
X1000446Y85407D01*
X1000332Y85487D01*
X1000313Y85494D01*
X1000296Y85505D01*
X1000165Y85550D01*
X1000035Y85600D01*
X1000015Y85602D01*
X999996Y85608D01*
X999857Y85619D01*
X999719Y85635D01*
X999699Y85632D01*
X999679Y85634D01*
X999541Y85610D01*
X999495Y85603D01*
X995323Y85603D01*
X995281Y85616D01*
X995261Y85617D01*
X995242Y85622D01*
X995102Y85624D01*
X994964Y85631D01*
X994944Y85627D01*
X994924Y85627D01*
X994788Y85595D01*
X994652Y85567D01*
X994634Y85558D01*
X994615Y85553D01*
X994491Y85488D01*
X994367Y85427D01*
X994351Y85414D01*
X994333Y85404D01*
X994230Y85311D01*
X994125Y85221D01*
X994113Y85204D01*
X994098Y85191D01*
X994022Y85074D01*
X993942Y84961D01*
X993934Y84942D01*
X993923Y84925D01*
X993878Y84794D01*
X993829Y84663D01*
X993827Y84643D01*
X993820Y84624D01*
X993809Y84486D01*
X993794Y84347D01*
X993796Y84327D01*
X993795Y84307D01*
X993819Y84170D01*
X993838Y84032D01*
X993847Y84006D01*
X993849Y83994D01*
X993858Y83975D01*
X993890Y83880D01*
X994997Y81208D01*
X994997Y77192D01*
X993460Y73481D01*
X990619Y70640D01*
X986908Y69103D01*
X982892Y69103D01*
X979181Y70640D01*
X976340Y73481D01*
X974803Y77192D01*
X974803Y81208D01*
X976340Y84919D01*
X979181Y87760D01*
X982892Y89297D01*
X986977Y89297D01*
X987019Y89284D01*
X987039Y89283D01*
X987058Y89278D01*
X987198Y89276D01*
X987336Y89269D01*
X987356Y89273D01*
X987376Y89273D01*
X987512Y89305D01*
X987648Y89333D01*
X987666Y89342D01*
X987685Y89347D01*
X987809Y89412D01*
X987933Y89473D01*
X987949Y89486D01*
X987967Y89496D01*
X988070Y89589D01*
X988175Y89679D01*
X988187Y89696D01*
X988202Y89709D01*
X988278Y89826D01*
X988358Y89939D01*
X988366Y89958D01*
X988377Y89975D01*
X988422Y90106D01*
X988471Y90237D01*
X988473Y90257D01*
X988480Y90276D01*
X988491Y90414D01*
X988506Y90553D01*
X988504Y90573D01*
X988505Y90593D01*
X988481Y90730D01*
X988462Y90868D01*
X988453Y90894D01*
X988451Y90906D01*
X988442Y90925D01*
X988410Y91020D01*
X987303Y93692D01*
X987303Y97708D01*
X988840Y101419D01*
X991681Y104260D01*
X995392Y105797D01*
X999408Y105797D01*
X1003119Y104260D01*
X1005960Y101419D01*
X1007497Y97708D01*
X1007497Y93692D01*
X1006390Y91020D01*
X1006354Y90886D01*
X1006312Y90753D01*
X1006311Y90733D01*
X1006306Y90713D01*
X1006304Y90574D01*
X1006297Y90435D01*
X1006301Y90416D01*
X1006301Y90395D01*
X1006334Y90260D01*
X1006362Y90124D01*
X1006371Y90106D01*
X1006375Y90086D01*
X1006440Y89963D01*
X1006501Y89838D01*
X1006515Y89823D01*
X1006524Y89805D01*
X1006617Y89702D01*
X1006708Y89596D01*
X1006724Y89585D01*
X1006738Y89570D01*
X1006854Y89493D01*
X1006968Y89413D01*
X1006987Y89406D01*
X1007004Y89395D01*
X1007135Y89350D01*
X1007265Y89300D01*
X1007285Y89298D01*
X1007304Y89292D01*
X1007443Y89281D01*
X1007581Y89265D01*
X1007601Y89268D01*
X1007621Y89266D01*
X1007759Y89290D01*
X1007805Y89297D01*
X1011977Y89297D01*
X1012019Y89284D01*
X1012039Y89283D01*
X1012058Y89278D01*
X1012198Y89276D01*
X1012336Y89269D01*
X1012356Y89273D01*
X1012376Y89273D01*
X1012512Y89305D01*
X1012648Y89333D01*
X1012666Y89342D01*
X1012685Y89347D01*
X1012809Y89412D01*
X1012933Y89473D01*
X1012949Y89486D01*
X1012967Y89496D01*
X1013070Y89589D01*
X1013175Y89679D01*
X1013187Y89696D01*
X1013202Y89709D01*
X1013278Y89826D01*
X1013358Y89939D01*
X1013366Y89958D01*
X1013377Y89975D01*
X1013422Y90106D01*
X1013471Y90237D01*
X1013473Y90257D01*
X1013480Y90276D01*
X1013491Y90414D01*
X1013506Y90553D01*
X1013504Y90573D01*
X1013505Y90593D01*
X1013481Y90730D01*
X1013462Y90868D01*
X1013453Y90894D01*
X1013451Y90906D01*
X1013442Y90925D01*
X1013410Y91020D01*
X1012303Y93692D01*
X1012303Y97708D01*
X1013840Y101419D01*
X1016681Y104260D01*
X1017298Y104515D01*
X1017323Y104530D01*
X1017351Y104539D01*
X1017461Y104608D01*
X1017574Y104673D01*
X1017595Y104693D01*
X1017620Y104709D01*
X1017709Y104804D01*
X1017802Y104894D01*
X1017818Y104919D01*
X1017838Y104941D01*
X1017901Y105055D01*
X1017969Y105165D01*
X1017977Y105193D01*
X1017992Y105219D01*
X1018024Y105345D01*
X1018062Y105469D01*
X1018064Y105499D01*
X1018071Y105527D01*
X1018081Y105688D01*
X1018081Y111422D01*
X1018069Y111521D01*
X1018066Y111620D01*
X1018049Y111678D01*
X1018041Y111738D01*
X1018005Y111830D01*
X1017977Y111925D01*
X1017947Y111977D01*
X1017924Y112034D01*
X1017866Y112114D01*
X1017816Y112199D01*
X1017750Y112275D01*
X1017738Y112291D01*
X1017728Y112299D01*
X1017710Y112320D01*
X981622Y148408D01*
X981543Y148469D01*
X981471Y148536D01*
X981418Y148566D01*
X981370Y148603D01*
X981279Y148642D01*
X981193Y148690D01*
X981134Y148705D01*
X981079Y148729D01*
X980981Y148745D01*
X980885Y148769D01*
X980785Y148776D01*
X980764Y148779D01*
X980752Y148778D01*
X980724Y148780D01*
X345879Y148843D01*
X217740Y148843D01*
X217641Y148831D01*
X217542Y148828D01*
X217484Y148811D01*
X217424Y148803D01*
X217332Y148767D01*
X217237Y148739D01*
X217185Y148709D01*
X217128Y148686D01*
X217048Y148628D01*
X216963Y148578D01*
X216887Y148512D01*
X216871Y148500D01*
X216863Y148490D01*
X216842Y148472D01*
X175640Y107269D01*
X175609Y107230D01*
X175572Y107196D01*
X175512Y107105D01*
X175445Y107018D01*
X175425Y106972D01*
X175398Y106931D01*
X175362Y106827D01*
X175318Y106726D01*
X175311Y106677D01*
X175294Y106630D01*
X175286Y106521D01*
X175268Y106412D01*
X175273Y106362D01*
X175269Y106313D01*
X175288Y106205D01*
X175298Y106095D01*
X175315Y106049D01*
X175324Y106000D01*
X175369Y105899D01*
X175406Y105796D01*
X175434Y105755D01*
X175454Y105710D01*
X175523Y105624D01*
X175584Y105533D01*
X175622Y105500D01*
X175653Y105461D01*
X175741Y105395D01*
X175823Y105322D01*
X175867Y105300D01*
X175907Y105270D01*
X176051Y105199D01*
X178319Y104260D01*
X181160Y101419D01*
X182697Y97708D01*
X182697Y93692D01*
X181590Y91020D01*
X181554Y90886D01*
X181512Y90753D01*
X181511Y90733D01*
X181506Y90713D01*
X181504Y90574D01*
X181497Y90435D01*
X181501Y90416D01*
X181501Y90395D01*
X181534Y90260D01*
X181562Y90124D01*
X181571Y90106D01*
X181575Y90086D01*
X181640Y89963D01*
X181701Y89838D01*
X181715Y89823D01*
X181724Y89805D01*
X181817Y89702D01*
X181908Y89596D01*
X181924Y89585D01*
X181938Y89570D01*
X182054Y89493D01*
X182168Y89413D01*
X182187Y89406D01*
X182204Y89395D01*
X182335Y89350D01*
X182465Y89300D01*
X182485Y89298D01*
X182504Y89292D01*
X182643Y89281D01*
X182781Y89265D01*
X182801Y89268D01*
X182821Y89266D01*
X182959Y89290D01*
X183005Y89297D01*
X187177Y89297D01*
X187219Y89284D01*
X187239Y89283D01*
X187258Y89278D01*
X187398Y89276D01*
X187536Y89269D01*
X187556Y89273D01*
X187576Y89273D01*
X187712Y89305D01*
X187848Y89333D01*
X187866Y89342D01*
X187885Y89347D01*
X188009Y89412D01*
X188133Y89473D01*
X188149Y89486D01*
X188167Y89496D01*
X188270Y89589D01*
X188375Y89679D01*
X188387Y89696D01*
X188402Y89709D01*
X188478Y89826D01*
X188558Y89939D01*
X188566Y89958D01*
X188577Y89975D01*
X188622Y90106D01*
X188671Y90237D01*
X188673Y90257D01*
X188680Y90276D01*
X188691Y90414D01*
X188706Y90553D01*
X188704Y90573D01*
X188705Y90593D01*
X188681Y90730D01*
X188662Y90868D01*
X188653Y90894D01*
X188651Y90906D01*
X188642Y90925D01*
X188610Y91020D01*
X187503Y93692D01*
X187503Y97708D01*
X189040Y101419D01*
X191881Y104260D01*
X195592Y105797D01*
X199608Y105797D01*
X203319Y104260D01*
X206160Y101419D01*
X207697Y97708D01*
X207697Y93692D01*
X206590Y91020D01*
X206554Y90886D01*
X206512Y90753D01*
X206511Y90733D01*
X206506Y90713D01*
X206504Y90574D01*
X206497Y90435D01*
X206501Y90416D01*
X206501Y90395D01*
X206534Y90260D01*
X206562Y90124D01*
X206571Y90106D01*
X206575Y90086D01*
X206640Y89963D01*
X206701Y89838D01*
X206715Y89823D01*
X206724Y89805D01*
X206817Y89702D01*
X206908Y89596D01*
X206924Y89585D01*
X206938Y89570D01*
X207054Y89493D01*
X207168Y89413D01*
X207187Y89406D01*
X207204Y89395D01*
X207335Y89350D01*
X207465Y89300D01*
X207485Y89298D01*
X207504Y89292D01*
X207643Y89281D01*
X207781Y89265D01*
X207801Y89268D01*
X207821Y89266D01*
X207959Y89290D01*
X208005Y89297D01*
X212177Y89297D01*
X212219Y89284D01*
X212239Y89283D01*
X212258Y89278D01*
X212398Y89276D01*
X212536Y89269D01*
X212556Y89273D01*
X212576Y89273D01*
X212712Y89305D01*
X212848Y89333D01*
X212866Y89342D01*
X212885Y89347D01*
X213009Y89412D01*
X213133Y89473D01*
X213149Y89486D01*
X213167Y89496D01*
X213270Y89589D01*
X213375Y89679D01*
X213387Y89696D01*
X213402Y89709D01*
X213478Y89826D01*
X213558Y89939D01*
X213566Y89958D01*
X213577Y89975D01*
X213622Y90106D01*
X213671Y90237D01*
X213673Y90257D01*
X213680Y90276D01*
X213691Y90414D01*
X213706Y90553D01*
X213704Y90573D01*
X213705Y90593D01*
X213681Y90730D01*
X213662Y90868D01*
X213653Y90894D01*
X213651Y90906D01*
X213642Y90925D01*
X213610Y91020D01*
X212503Y93692D01*
X212503Y97708D01*
X214040Y101419D01*
X216881Y104260D01*
X220592Y105797D01*
X224608Y105797D01*
X228319Y104260D01*
X231160Y101419D01*
X232697Y97708D01*
X232697Y93692D01*
X231590Y91020D01*
X231554Y90886D01*
X231512Y90753D01*
X231511Y90733D01*
X231506Y90713D01*
X231504Y90574D01*
X231497Y90435D01*
X231501Y90416D01*
X231501Y90395D01*
X231534Y90260D01*
X231562Y90124D01*
X231571Y90106D01*
X231575Y90086D01*
X231640Y89963D01*
X231701Y89838D01*
X231715Y89823D01*
X231724Y89805D01*
X231817Y89702D01*
X231908Y89596D01*
X231924Y89585D01*
X231938Y89570D01*
X232054Y89493D01*
X232168Y89413D01*
X232187Y89406D01*
X232204Y89395D01*
X232335Y89350D01*
X232465Y89300D01*
X232485Y89298D01*
X232504Y89292D01*
X232643Y89281D01*
X232781Y89265D01*
X232801Y89268D01*
X232821Y89266D01*
X232959Y89290D01*
X233005Y89297D01*
X237108Y89297D01*
X240819Y87760D01*
X243660Y84919D01*
X245197Y81208D01*
X245197Y77192D01*
X243660Y73481D01*
X240819Y70640D01*
X237108Y69103D01*
X233092Y69103D01*
X229381Y70640D01*
X226540Y73481D01*
X225003Y77192D01*
X225003Y81208D01*
X226110Y83880D01*
X226146Y84014D01*
X226188Y84147D01*
X226189Y84167D01*
X226194Y84187D01*
X226196Y84326D01*
X226203Y84465D01*
X226199Y84484D01*
X226199Y84505D01*
X226166Y84640D01*
X226138Y84776D01*
X226129Y84794D01*
X226125Y84814D01*
X226060Y84937D01*
X225999Y85062D01*
X225985Y85077D01*
X225976Y85095D01*
X225883Y85198D01*
X225792Y85304D01*
X225776Y85315D01*
X225762Y85330D01*
X225646Y85407D01*
X225532Y85487D01*
X225513Y85494D01*
X225496Y85505D01*
X225365Y85550D01*
X225235Y85600D01*
X225215Y85602D01*
X225196Y85608D01*
X225057Y85619D01*
X224919Y85635D01*
X224899Y85632D01*
X224879Y85634D01*
X224741Y85610D01*
X224695Y85603D01*
X220523Y85603D01*
X220481Y85616D01*
X220461Y85617D01*
X220442Y85622D01*
X220302Y85624D01*
X220164Y85631D01*
X220144Y85627D01*
X220124Y85627D01*
X219988Y85595D01*
X219852Y85567D01*
X219834Y85558D01*
X219815Y85553D01*
X219691Y85488D01*
X219567Y85427D01*
X219551Y85414D01*
X219533Y85404D01*
X219430Y85311D01*
X219325Y85221D01*
X219313Y85204D01*
X219298Y85191D01*
X219222Y85074D01*
X219142Y84961D01*
X219134Y84942D01*
X219123Y84925D01*
X219078Y84794D01*
X219029Y84663D01*
X219027Y84643D01*
X219020Y84624D01*
X219009Y84486D01*
X218994Y84347D01*
X218996Y84327D01*
X218995Y84307D01*
X219019Y84170D01*
X219038Y84032D01*
X219047Y84006D01*
X219049Y83994D01*
X219058Y83975D01*
X219090Y83880D01*
X220197Y81208D01*
X220197Y77192D01*
X218660Y73481D01*
X215819Y70640D01*
X215202Y70385D01*
X215177Y70370D01*
X215149Y70361D01*
X215039Y70292D01*
X214926Y70227D01*
X214905Y70207D01*
X214880Y70191D01*
X214791Y70096D01*
X214698Y70006D01*
X214682Y69981D01*
X214662Y69959D01*
X214599Y69845D01*
X214531Y69735D01*
X214523Y69707D01*
X214508Y69681D01*
X214476Y69555D01*
X214438Y69431D01*
X214436Y69401D01*
X214429Y69373D01*
X214419Y69212D01*
X214419Y68911D01*
X204589Y59081D01*
X14211Y59081D01*
X11681Y61611D01*
X11681Y236689D01*
X14211Y239219D01*
X109212Y239219D01*
X109241Y239222D01*
X109271Y239220D01*
X109399Y239242D01*
X109528Y239259D01*
X109555Y239269D01*
X109584Y239274D01*
X109703Y239328D01*
X109823Y239376D01*
X109847Y239393D01*
X109874Y239405D01*
X109976Y239486D01*
X110081Y239562D01*
X110100Y239585D01*
X110123Y239604D01*
X110201Y239707D01*
X110284Y239807D01*
X110296Y239834D01*
X110314Y239858D01*
X110385Y240002D01*
X110640Y240619D01*
X113481Y243460D01*
X117192Y244997D01*
X121208Y244997D01*
X123880Y243890D01*
X124014Y243854D01*
X124147Y243812D01*
X124167Y243811D01*
X124187Y243806D01*
X124326Y243804D01*
X124465Y243797D01*
X124484Y243801D01*
X124505Y243801D01*
X124640Y243834D01*
X124776Y243862D01*
X124794Y243871D01*
X124814Y243875D01*
X124937Y243940D01*
X125062Y244001D01*
X125077Y244015D01*
X125095Y244024D01*
X125198Y244117D01*
X125304Y244208D01*
X125315Y244224D01*
X125330Y244238D01*
X125407Y244354D01*
X125487Y244468D01*
X125494Y244487D01*
X125505Y244504D01*
X125550Y244635D01*
X125600Y244765D01*
X125602Y244785D01*
X125608Y244804D01*
X125619Y244943D01*
X125635Y245081D01*
X125632Y245101D01*
X125634Y245121D01*
X125610Y245259D01*
X125603Y245305D01*
X125603Y249477D01*
X125616Y249519D01*
X125617Y249539D01*
X125622Y249558D01*
X125624Y249698D01*
X125631Y249836D01*
X125627Y249856D01*
X125627Y249876D01*
X125595Y250012D01*
X125567Y250148D01*
X125558Y250166D01*
X125553Y250185D01*
X125488Y250309D01*
X125427Y250433D01*
X125414Y250449D01*
X125404Y250467D01*
X125311Y250570D01*
X125221Y250675D01*
X125204Y250687D01*
X125191Y250702D01*
X125074Y250778D01*
X124961Y250858D01*
X124942Y250866D01*
X124925Y250877D01*
X124794Y250922D01*
X124663Y250971D01*
X124643Y250973D01*
X124624Y250980D01*
X124486Y250991D01*
X124347Y251006D01*
X124327Y251004D01*
X124307Y251005D01*
X124170Y250981D01*
X124032Y250962D01*
X124006Y250953D01*
X123994Y250951D01*
X123975Y250942D01*
X123880Y250910D01*
X121208Y249803D01*
X117192Y249803D01*
X113481Y251340D01*
X110640Y254181D01*
X109103Y257892D01*
X109103Y261908D01*
X110640Y265619D01*
X110936Y265914D01*
X111021Y266024D01*
X111109Y266131D01*
X111118Y266150D01*
X111131Y266166D01*
X111186Y266294D01*
X111245Y266419D01*
X111249Y266439D01*
X111257Y266458D01*
X111279Y266596D01*
X111305Y266732D01*
X111304Y266752D01*
X111307Y266772D01*
X111294Y266911D01*
X111285Y267049D01*
X111279Y267068D01*
X111277Y267088D01*
X111230Y267219D01*
X111187Y267351D01*
X111176Y267369D01*
X111169Y267388D01*
X111092Y267502D01*
X111017Y267620D01*
X111002Y267634D01*
X110991Y267651D01*
X110887Y267743D01*
X110785Y267838D01*
X110768Y267848D01*
X110752Y267861D01*
X110628Y267925D01*
X110507Y267992D01*
X110487Y267997D01*
X110469Y268006D01*
X110333Y268036D01*
X110199Y268071D01*
X110171Y268073D01*
X110159Y268076D01*
X110138Y268075D01*
X110038Y268081D01*
X25011Y268081D01*
X22481Y270611D01*
X22481Y497489D01*
X25383Y500390D01*
X33811Y508819D01*
X69733Y508819D01*
X69871Y508836D01*
X70010Y508849D01*
X70029Y508856D01*
X70049Y508859D01*
X70178Y508910D01*
X70309Y508957D01*
X70326Y508968D01*
X70344Y508976D01*
X70456Y509057D01*
X70572Y509135D01*
X70585Y509151D01*
X70602Y509162D01*
X70690Y509269D01*
X70782Y509374D01*
X70792Y509392D01*
X70805Y509407D01*
X70864Y509533D01*
X70927Y509657D01*
X70931Y509677D01*
X70940Y509695D01*
X70966Y509831D01*
X70997Y509967D01*
X70996Y509988D01*
X71000Y510007D01*
X70991Y510146D01*
X70987Y510285D01*
X70981Y510305D01*
X70980Y510325D01*
X70937Y510457D01*
X70899Y510591D01*
X70888Y510608D01*
X70882Y510627D01*
X70808Y510745D01*
X70737Y510865D01*
X70718Y510886D01*
X70712Y510896D01*
X70697Y510910D01*
X70631Y510986D01*
X70294Y511322D01*
X69189Y512843D01*
X68336Y514517D01*
X67755Y516304D01*
X67669Y516851D01*
X78420Y516851D01*
X78538Y516866D01*
X78657Y516873D01*
X78695Y516885D01*
X78735Y516891D01*
X78846Y516934D01*
X78959Y516971D01*
X78993Y516993D01*
X79031Y517008D01*
X79127Y517077D01*
X79228Y517141D01*
X79256Y517171D01*
X79288Y517194D01*
X79364Y517286D01*
X79396Y517320D01*
X79401Y517312D01*
X79431Y517284D01*
X79455Y517251D01*
X79546Y517175D01*
X79633Y517094D01*
X79668Y517074D01*
X79700Y517049D01*
X79807Y516998D01*
X79912Y516940D01*
X79951Y516930D01*
X79987Y516913D01*
X80104Y516891D01*
X80220Y516861D01*
X80280Y516857D01*
X80300Y516853D01*
X80320Y516855D01*
X80380Y516851D01*
X91131Y516851D01*
X91045Y516304D01*
X90464Y514517D01*
X89611Y512843D01*
X88506Y511322D01*
X88169Y510986D01*
X88084Y510876D01*
X87995Y510769D01*
X87987Y510750D01*
X87974Y510734D01*
X87919Y510607D01*
X87860Y510481D01*
X87856Y510461D01*
X87848Y510442D01*
X87826Y510305D01*
X87800Y510168D01*
X87801Y510148D01*
X87798Y510128D01*
X87811Y509989D01*
X87820Y509851D01*
X87826Y509832D01*
X87828Y509812D01*
X87875Y509680D01*
X87918Y509549D01*
X87929Y509532D01*
X87936Y509512D01*
X88014Y509397D01*
X88088Y509280D01*
X88103Y509266D01*
X88114Y509249D01*
X88218Y509157D01*
X88320Y509062D01*
X88337Y509052D01*
X88353Y509039D01*
X88477Y508975D01*
X88598Y508908D01*
X88618Y508903D01*
X88636Y508894D01*
X88772Y508864D01*
X88906Y508829D01*
X88934Y508827D01*
X88946Y508824D01*
X88967Y508825D01*
X89067Y508819D01*
X90585Y508819D01*
X90684Y508831D01*
X90783Y508834D01*
X90841Y508851D01*
X90901Y508859D01*
X90993Y508895D01*
X91088Y508923D01*
X91140Y508953D01*
X91197Y508976D01*
X91277Y509034D01*
X91362Y509084D01*
X91437Y509150D01*
X91454Y509162D01*
X91462Y509172D01*
X91483Y509190D01*
X95310Y513017D01*
X95370Y513095D01*
X95438Y513168D01*
X95467Y513221D01*
X95504Y513268D01*
X95544Y513359D01*
X95592Y513446D01*
X95607Y513505D01*
X95631Y513560D01*
X95646Y513658D01*
X95671Y513754D01*
X95677Y513854D01*
X95681Y513874D01*
X95679Y513887D01*
X95681Y513915D01*
X95681Y608889D01*
X115311Y628519D01*
X142612Y628519D01*
X142730Y628534D01*
X142849Y628541D01*
X142887Y628554D01*
X142928Y628559D01*
X143038Y628602D01*
X143151Y628639D01*
X143186Y628661D01*
X143223Y628676D01*
X143319Y628745D01*
X143420Y628809D01*
X143448Y628839D01*
X143481Y628862D01*
X143557Y628954D01*
X143638Y629041D01*
X143658Y629076D01*
X143683Y629107D01*
X143734Y629215D01*
X143792Y629319D01*
X143802Y629359D01*
X143819Y629395D01*
X143841Y629512D01*
X143871Y629627D01*
X143875Y629687D01*
X143879Y629707D01*
X143877Y629728D01*
X143881Y629788D01*
X143881Y668438D01*
X143864Y668576D01*
X143851Y668715D01*
X143844Y668734D01*
X143841Y668754D01*
X143790Y668883D01*
X143743Y669014D01*
X143732Y669031D01*
X143724Y669049D01*
X143643Y669162D01*
X143565Y669277D01*
X143549Y669290D01*
X143538Y669307D01*
X143430Y669395D01*
X143326Y669487D01*
X143308Y669497D01*
X143293Y669509D01*
X143167Y669569D01*
X143043Y669632D01*
X143023Y669636D01*
X143005Y669645D01*
X142869Y669671D01*
X142733Y669702D01*
X142712Y669701D01*
X142693Y669705D01*
X142554Y669696D01*
X142415Y669692D01*
X142395Y669686D01*
X142375Y669685D01*
X142243Y669642D01*
X142109Y669604D01*
X142092Y669593D01*
X142073Y669587D01*
X141955Y669513D01*
X141835Y669442D01*
X141814Y669423D01*
X141804Y669417D01*
X141790Y669402D01*
X141714Y669336D01*
X141419Y669040D01*
X137708Y667503D01*
X133692Y667503D01*
X131020Y668610D01*
X130886Y668647D01*
X130753Y668688D01*
X130733Y668689D01*
X130713Y668694D01*
X130574Y668696D01*
X130435Y668703D01*
X130415Y668699D01*
X130395Y668699D01*
X130260Y668666D01*
X130124Y668638D01*
X130106Y668629D01*
X130086Y668625D01*
X129963Y668560D01*
X129838Y668498D01*
X129823Y668485D01*
X129805Y668476D01*
X129702Y668383D01*
X129596Y668292D01*
X129584Y668276D01*
X129570Y668262D01*
X129493Y668146D01*
X129413Y668032D01*
X129406Y668013D01*
X129395Y667996D01*
X129350Y667864D01*
X129300Y667735D01*
X129298Y667715D01*
X129292Y667696D01*
X129281Y667557D01*
X129265Y667418D01*
X129268Y667399D01*
X129266Y667379D01*
X129290Y667241D01*
X129297Y667195D01*
X129297Y663092D01*
X127760Y659381D01*
X124919Y656540D01*
X121208Y655003D01*
X117192Y655003D01*
X113481Y656540D01*
X110640Y659381D01*
X109103Y663092D01*
X109103Y667108D01*
X110640Y670819D01*
X113481Y673660D01*
X117192Y675197D01*
X121208Y675197D01*
X123880Y674090D01*
X124014Y674053D01*
X124147Y674012D01*
X124167Y674011D01*
X124187Y674006D01*
X124326Y674004D01*
X124465Y673997D01*
X124485Y674001D01*
X124505Y674001D01*
X124640Y674034D01*
X124776Y674062D01*
X124794Y674071D01*
X124814Y674075D01*
X124937Y674140D01*
X125062Y674202D01*
X125077Y674215D01*
X125095Y674224D01*
X125198Y674317D01*
X125304Y674408D01*
X125316Y674424D01*
X125330Y674438D01*
X125407Y674554D01*
X125487Y674668D01*
X125494Y674687D01*
X125505Y674704D01*
X125550Y674836D01*
X125600Y674965D01*
X125602Y674985D01*
X125608Y675004D01*
X125619Y675143D01*
X125635Y675282D01*
X125632Y675301D01*
X125634Y675321D01*
X125610Y675459D01*
X125603Y675505D01*
X125603Y679677D01*
X125616Y679718D01*
X125617Y679739D01*
X125622Y679758D01*
X125624Y679898D01*
X125631Y680036D01*
X125627Y680056D01*
X125627Y680076D01*
X125595Y680211D01*
X125567Y680348D01*
X125558Y680366D01*
X125553Y680385D01*
X125488Y680508D01*
X125427Y680633D01*
X125414Y680649D01*
X125405Y680666D01*
X125311Y680769D01*
X125221Y680875D01*
X125204Y680887D01*
X125191Y680902D01*
X125075Y680978D01*
X124961Y681058D01*
X124942Y681066D01*
X124925Y681077D01*
X124794Y681122D01*
X124663Y681171D01*
X124643Y681173D01*
X124624Y681180D01*
X124486Y681191D01*
X124347Y681206D01*
X124327Y681204D01*
X124307Y681205D01*
X124170Y681181D01*
X124032Y681162D01*
X124006Y681153D01*
X123994Y681151D01*
X123975Y681142D01*
X123880Y681110D01*
X121208Y680003D01*
X117192Y680003D01*
X113481Y681540D01*
X110640Y684381D01*
X109103Y688092D01*
X109103Y692108D01*
X110640Y695819D01*
X113481Y698660D01*
X117192Y700197D01*
X121208Y700197D01*
X123880Y699090D01*
X124014Y699053D01*
X124147Y699012D01*
X124167Y699011D01*
X124187Y699006D01*
X124326Y699004D01*
X124465Y698997D01*
X124485Y699001D01*
X124505Y699001D01*
X124640Y699034D01*
X124776Y699062D01*
X124794Y699071D01*
X124814Y699075D01*
X124937Y699140D01*
X125062Y699202D01*
X125077Y699215D01*
X125095Y699224D01*
X125198Y699317D01*
X125304Y699408D01*
X125316Y699424D01*
X125330Y699438D01*
X125407Y699554D01*
X125487Y699668D01*
X125494Y699687D01*
X125505Y699704D01*
X125550Y699836D01*
X125600Y699965D01*
X125602Y699985D01*
X125608Y700004D01*
X125619Y700143D01*
X125635Y700282D01*
X125632Y700301D01*
X125634Y700321D01*
X125610Y700459D01*
X125603Y700505D01*
X125603Y704677D01*
X125616Y704718D01*
X125617Y704739D01*
X125622Y704758D01*
X125624Y704898D01*
X125631Y705036D01*
X125627Y705056D01*
X125627Y705076D01*
X125595Y705211D01*
X125567Y705348D01*
X125558Y705366D01*
X125553Y705385D01*
X125488Y705508D01*
X125427Y705633D01*
X125414Y705649D01*
X125405Y705666D01*
X125311Y705769D01*
X125221Y705875D01*
X125204Y705887D01*
X125191Y705902D01*
X125075Y705978D01*
X124961Y706058D01*
X124942Y706066D01*
X124925Y706077D01*
X124794Y706122D01*
X124663Y706171D01*
X124643Y706173D01*
X124624Y706180D01*
X124486Y706191D01*
X124347Y706206D01*
X124327Y706204D01*
X124307Y706205D01*
X124170Y706181D01*
X124032Y706162D01*
X124006Y706153D01*
X123994Y706151D01*
X123975Y706142D01*
X123880Y706110D01*
X121208Y705003D01*
X117192Y705003D01*
X113481Y706540D01*
X110640Y709381D01*
X109103Y713092D01*
X109103Y717108D01*
X110664Y720877D01*
X110709Y720931D01*
X110718Y720950D01*
X110730Y720966D01*
X110786Y721093D01*
X110845Y721219D01*
X110849Y721239D01*
X110857Y721257D01*
X110879Y721395D01*
X110905Y721532D01*
X110904Y721552D01*
X110907Y721571D01*
X110894Y721710D01*
X110885Y721849D01*
X110879Y721868D01*
X110877Y721888D01*
X110830Y722019D01*
X110787Y722151D01*
X110776Y722168D01*
X110769Y722187D01*
X110691Y722302D01*
X110617Y722420D01*
X110602Y722434D01*
X110591Y722451D01*
X110487Y722543D01*
X110385Y722638D01*
X110368Y722648D01*
X110353Y722661D01*
X110229Y722724D01*
X110107Y722792D01*
X110087Y722797D01*
X110069Y722806D01*
X109934Y722836D01*
X109799Y722871D01*
X109771Y722873D01*
X109759Y722875D01*
X109739Y722875D01*
X109638Y722881D01*
X102611Y722881D01*
X96081Y729411D01*
X96081Y798089D01*
X98983Y800990D01*
X109084Y811091D01*
X109102Y811115D01*
X109124Y811134D01*
X109199Y811240D01*
X109279Y811343D01*
X109290Y811370D01*
X109307Y811394D01*
X109353Y811515D01*
X109405Y811634D01*
X109410Y811664D01*
X109420Y811691D01*
X109434Y811820D01*
X109455Y811949D01*
X109452Y811978D01*
X109455Y812007D01*
X109437Y812136D01*
X109425Y812265D01*
X109415Y812293D01*
X109411Y812322D01*
X109359Y812475D01*
X109103Y813092D01*
X109103Y817108D01*
X110640Y820819D01*
X113481Y823660D01*
X117192Y825197D01*
X121208Y825197D01*
X124919Y823660D01*
X127760Y820819D01*
X129297Y817108D01*
X129297Y813023D01*
X129284Y812982D01*
X129283Y812961D01*
X129278Y812942D01*
X129276Y812802D01*
X129269Y812664D01*
X129273Y812644D01*
X129273Y812624D01*
X129305Y812489D01*
X129333Y812352D01*
X129342Y812334D01*
X129347Y812315D01*
X129412Y812192D01*
X129473Y812067D01*
X129486Y812051D01*
X129495Y812034D01*
X129589Y811931D01*
X129679Y811825D01*
X129696Y811813D01*
X129709Y811798D01*
X129825Y811722D01*
X129939Y811642D01*
X129958Y811634D01*
X129975Y811623D01*
X130106Y811578D01*
X130237Y811529D01*
X130257Y811527D01*
X130276Y811520D01*
X130414Y811509D01*
X130553Y811494D01*
X130573Y811496D01*
X130593Y811495D01*
X130730Y811519D01*
X130868Y811538D01*
X130894Y811547D01*
X130906Y811549D01*
X130925Y811558D01*
X131020Y811590D01*
X133692Y812697D01*
X137708Y812697D01*
X141419Y811160D01*
X144260Y808319D01*
X145797Y804608D01*
X145797Y800592D01*
X144260Y796881D01*
X141419Y794040D01*
X137708Y792503D01*
X133692Y792503D01*
X131020Y793610D01*
X130886Y793647D01*
X130753Y793688D01*
X130733Y793689D01*
X130713Y793694D01*
X130574Y793696D01*
X130435Y793703D01*
X130415Y793699D01*
X130395Y793699D01*
X130260Y793666D01*
X130124Y793638D01*
X130106Y793629D01*
X130086Y793625D01*
X129963Y793560D01*
X129838Y793498D01*
X129823Y793485D01*
X129805Y793476D01*
X129702Y793383D01*
X129596Y793292D01*
X129584Y793276D01*
X129570Y793262D01*
X129493Y793146D01*
X129413Y793032D01*
X129406Y793013D01*
X129395Y792996D01*
X129350Y792864D01*
X129300Y792735D01*
X129298Y792715D01*
X129292Y792696D01*
X129281Y792557D01*
X129265Y792418D01*
X129268Y792399D01*
X129266Y792379D01*
X129290Y792241D01*
X129297Y792195D01*
X129297Y788023D01*
X129284Y787982D01*
X129283Y787961D01*
X129278Y787942D01*
X129276Y787802D01*
X129269Y787664D01*
X129273Y787644D01*
X129273Y787624D01*
X129305Y787489D01*
X129333Y787352D01*
X129342Y787334D01*
X129347Y787315D01*
X129412Y787192D01*
X129473Y787067D01*
X129486Y787051D01*
X129495Y787034D01*
X129589Y786931D01*
X129679Y786825D01*
X129696Y786813D01*
X129709Y786798D01*
X129825Y786722D01*
X129939Y786642D01*
X129958Y786634D01*
X129975Y786623D01*
X130106Y786578D01*
X130237Y786529D01*
X130257Y786527D01*
X130276Y786520D01*
X130414Y786509D01*
X130553Y786494D01*
X130573Y786496D01*
X130593Y786495D01*
X130730Y786519D01*
X130868Y786538D01*
X130894Y786547D01*
X130906Y786549D01*
X130925Y786558D01*
X131020Y786590D01*
X133692Y787697D01*
X137708Y787697D01*
X141419Y786160D01*
X144260Y783319D01*
X144515Y782702D01*
X144530Y782677D01*
X144539Y782649D01*
X144608Y782539D01*
X144673Y782426D01*
X144693Y782405D01*
X144709Y782380D01*
X144804Y782291D01*
X144894Y782198D01*
X144919Y782182D01*
X144941Y782162D01*
X145055Y782099D01*
X145165Y782031D01*
X145193Y782023D01*
X145219Y782008D01*
X145345Y781976D01*
X145469Y781938D01*
X145499Y781936D01*
X145527Y781929D01*
X145688Y781919D01*
X155989Y781919D01*
X162119Y775789D01*
X162119Y734833D01*
X162136Y734695D01*
X162149Y734556D01*
X162156Y734537D01*
X162159Y734517D01*
X162210Y734388D01*
X162257Y734257D01*
X162268Y734240D01*
X162276Y734221D01*
X162357Y734109D01*
X162435Y733994D01*
X162451Y733981D01*
X162462Y733964D01*
X162570Y733875D01*
X162674Y733783D01*
X162692Y733774D01*
X162707Y733761D01*
X162833Y733702D01*
X162957Y733639D01*
X162977Y733634D01*
X162995Y733626D01*
X163131Y733600D01*
X163267Y733569D01*
X163288Y733570D01*
X163307Y733566D01*
X163446Y733575D01*
X163585Y733579D01*
X163605Y733585D01*
X163625Y733586D01*
X163757Y733629D01*
X163891Y733667D01*
X163908Y733678D01*
X163927Y733684D01*
X164045Y733758D01*
X164165Y733829D01*
X164186Y733847D01*
X164196Y733854D01*
X164210Y733869D01*
X164285Y733935D01*
X169186Y738836D01*
X169192Y738843D01*
X169199Y738849D01*
X169289Y738969D01*
X169381Y739087D01*
X169385Y739096D01*
X169390Y739103D01*
X169461Y739248D01*
X170379Y741463D01*
X173737Y744821D01*
X177132Y746227D01*
X177253Y746296D01*
X177376Y746361D01*
X177391Y746375D01*
X177408Y746385D01*
X177508Y746482D01*
X177611Y746575D01*
X177622Y746592D01*
X177637Y746606D01*
X177709Y746724D01*
X177786Y746841D01*
X177792Y746860D01*
X177803Y746877D01*
X177844Y747010D01*
X177889Y747142D01*
X177891Y747162D01*
X177897Y747181D01*
X177903Y747320D01*
X177914Y747459D01*
X177911Y747479D01*
X177912Y747499D01*
X177884Y747635D01*
X177860Y747772D01*
X177852Y747791D01*
X177847Y747810D01*
X177786Y747935D01*
X177729Y748062D01*
X177717Y748078D01*
X177708Y748096D01*
X177617Y748202D01*
X177531Y748310D01*
X177515Y748323D01*
X177501Y748338D01*
X177388Y748418D01*
X177277Y748502D01*
X177251Y748514D01*
X177241Y748521D01*
X177222Y748528D01*
X177132Y748573D01*
X173737Y749979D01*
X170379Y753337D01*
X168561Y757725D01*
X168561Y762475D01*
X170379Y766863D01*
X173737Y770221D01*
X177132Y771627D01*
X177253Y771696D01*
X177376Y771761D01*
X177391Y771775D01*
X177408Y771785D01*
X177508Y771882D01*
X177611Y771975D01*
X177622Y771992D01*
X177637Y772006D01*
X177709Y772125D01*
X177786Y772241D01*
X177792Y772260D01*
X177803Y772277D01*
X177844Y772410D01*
X177889Y772542D01*
X177891Y772562D01*
X177897Y772581D01*
X177903Y772720D01*
X177914Y772859D01*
X177911Y772879D01*
X177912Y772899D01*
X177884Y773035D01*
X177860Y773172D01*
X177852Y773191D01*
X177848Y773210D01*
X177786Y773336D01*
X177729Y773462D01*
X177717Y773478D01*
X177708Y773496D01*
X177617Y773602D01*
X177531Y773710D01*
X177515Y773723D01*
X177501Y773738D01*
X177388Y773818D01*
X177277Y773902D01*
X177251Y773914D01*
X177241Y773921D01*
X177222Y773928D01*
X177132Y773973D01*
X173737Y775379D01*
X170379Y778737D01*
X168561Y783125D01*
X168561Y787875D01*
X170379Y792263D01*
X173737Y795621D01*
X178125Y797439D01*
X182875Y797439D01*
X187263Y795621D01*
X190621Y792263D01*
X192439Y787875D01*
X192439Y783125D01*
X190621Y778737D01*
X187263Y775379D01*
X183868Y773973D01*
X183747Y773904D01*
X183624Y773839D01*
X183609Y773825D01*
X183592Y773815D01*
X183492Y773718D01*
X183389Y773625D01*
X183378Y773608D01*
X183363Y773594D01*
X183291Y773476D01*
X183214Y773359D01*
X183208Y773340D01*
X183197Y773323D01*
X183156Y773190D01*
X183111Y773058D01*
X183109Y773038D01*
X183103Y773019D01*
X183097Y772880D01*
X183086Y772741D01*
X183089Y772721D01*
X183088Y772701D01*
X183116Y772565D01*
X183140Y772428D01*
X183148Y772409D01*
X183152Y772390D01*
X183214Y772265D01*
X183271Y772138D01*
X183283Y772122D01*
X183292Y772104D01*
X183383Y771998D01*
X183469Y771890D01*
X183485Y771877D01*
X183499Y771862D01*
X183612Y771782D01*
X183723Y771698D01*
X183749Y771686D01*
X183759Y771679D01*
X183778Y771672D01*
X183868Y771627D01*
X187263Y770221D01*
X190621Y766863D01*
X192439Y762475D01*
X192439Y757725D01*
X190621Y753337D01*
X187263Y749979D01*
X183868Y748573D01*
X183747Y748504D01*
X183624Y748439D01*
X183609Y748425D01*
X183592Y748415D01*
X183492Y748318D01*
X183389Y748225D01*
X183378Y748208D01*
X183363Y748194D01*
X183290Y748075D01*
X183214Y747959D01*
X183208Y747940D01*
X183197Y747923D01*
X183156Y747790D01*
X183111Y747658D01*
X183109Y747638D01*
X183103Y747619D01*
X183097Y747480D01*
X183086Y747341D01*
X183089Y747321D01*
X183088Y747301D01*
X183116Y747165D01*
X183140Y747028D01*
X183148Y747009D01*
X183153Y746990D01*
X183214Y746864D01*
X183271Y746738D01*
X183283Y746722D01*
X183292Y746704D01*
X183383Y746598D01*
X183469Y746490D01*
X183485Y746477D01*
X183499Y746462D01*
X183612Y746382D01*
X183723Y746298D01*
X183749Y746286D01*
X183759Y746279D01*
X183778Y746272D01*
X183868Y746227D01*
X187263Y744821D01*
X190621Y741463D01*
X192439Y737075D01*
X192439Y732325D01*
X190621Y727937D01*
X187263Y724579D01*
X183868Y723173D01*
X183747Y723104D01*
X183624Y723039D01*
X183609Y723025D01*
X183592Y723015D01*
X183492Y722918D01*
X183389Y722825D01*
X183378Y722808D01*
X183363Y722794D01*
X183290Y722675D01*
X183214Y722559D01*
X183208Y722540D01*
X183197Y722523D01*
X183156Y722390D01*
X183111Y722258D01*
X183109Y722238D01*
X183103Y722219D01*
X183097Y722080D01*
X183086Y721941D01*
X183089Y721921D01*
X183088Y721901D01*
X183116Y721765D01*
X183140Y721628D01*
X183148Y721609D01*
X183153Y721590D01*
X183214Y721464D01*
X183271Y721338D01*
X183283Y721322D01*
X183292Y721304D01*
X183383Y721198D01*
X183469Y721090D01*
X183485Y721077D01*
X183499Y721062D01*
X183612Y720982D01*
X183723Y720898D01*
X183749Y720886D01*
X183759Y720879D01*
X183778Y720872D01*
X183868Y720827D01*
X187263Y719421D01*
X190621Y716063D01*
X191309Y714402D01*
X191324Y714377D01*
X191333Y714349D01*
X191402Y714239D01*
X191467Y714126D01*
X191487Y714105D01*
X191503Y714080D01*
X191598Y713991D01*
X191688Y713898D01*
X191713Y713882D01*
X191734Y713862D01*
X191848Y713799D01*
X191959Y713731D01*
X191987Y713723D01*
X192013Y713708D01*
X192139Y713676D01*
X192263Y713638D01*
X192292Y713636D01*
X192321Y713629D01*
X192482Y713619D01*
X238997Y713619D01*
X239093Y713631D01*
X239190Y713633D01*
X239250Y713651D01*
X239313Y713659D01*
X239403Y713694D01*
X239496Y713721D01*
X239550Y713753D01*
X239609Y713776D01*
X239687Y713832D01*
X239770Y713881D01*
X239850Y713951D01*
X239866Y713962D01*
X239873Y713971D01*
X239892Y713987D01*
X375947Y849055D01*
X375948Y849056D01*
X375951Y849058D01*
X377218Y850325D01*
X379007Y850319D01*
X379009Y850319D01*
X379012Y850319D01*
X1176949Y850319D01*
X1176957Y850320D01*
X1176972Y850319D01*
X1178756Y850351D01*
X1180018Y849090D01*
X1180024Y849085D01*
X1180034Y849073D01*
X1206374Y823674D01*
X1206444Y823622D01*
X1206508Y823562D01*
X1206571Y823527D01*
X1206608Y823500D01*
X1208018Y822089D01*
X1208024Y822085D01*
X1208035Y822073D01*
X1209319Y820835D01*
X1209319Y819051D01*
X1209320Y819044D01*
X1209319Y819028D01*
X1209355Y817023D01*
X1209351Y816990D01*
X1209329Y816905D01*
X1209321Y816775D01*
X1209319Y816762D01*
X1209319Y816757D01*
X1209319Y816745D01*
X1209319Y67931D01*
X1155069Y13681D01*
X907011Y13681D01*
G37*
%LPD*%
G36*
X109023Y313694D02*
X109023Y313694D01*
X109052Y313692D01*
X109180Y313714D01*
X109309Y313731D01*
X109336Y313741D01*
X109366Y313746D01*
X109484Y313800D01*
X109605Y313848D01*
X109629Y313865D01*
X109656Y313877D01*
X109757Y313958D01*
X109862Y314034D01*
X109881Y314057D01*
X109904Y314076D01*
X109982Y314179D01*
X110065Y314279D01*
X110077Y314306D01*
X110095Y314330D01*
X110166Y314474D01*
X110640Y315619D01*
X113481Y318460D01*
X117192Y319997D01*
X121208Y319997D01*
X123880Y318890D01*
X124014Y318854D01*
X124147Y318812D01*
X124167Y318811D01*
X124187Y318806D01*
X124326Y318804D01*
X124465Y318797D01*
X124484Y318801D01*
X124505Y318801D01*
X124640Y318834D01*
X124776Y318862D01*
X124794Y318871D01*
X124814Y318875D01*
X124937Y318940D01*
X125062Y319001D01*
X125077Y319015D01*
X125095Y319024D01*
X125198Y319117D01*
X125304Y319208D01*
X125315Y319224D01*
X125330Y319238D01*
X125407Y319354D01*
X125487Y319468D01*
X125494Y319487D01*
X125505Y319504D01*
X125550Y319635D01*
X125600Y319765D01*
X125602Y319785D01*
X125608Y319804D01*
X125619Y319943D01*
X125635Y320081D01*
X125632Y320101D01*
X125634Y320121D01*
X125610Y320259D01*
X125603Y320305D01*
X125603Y324477D01*
X125616Y324519D01*
X125617Y324539D01*
X125622Y324558D01*
X125624Y324698D01*
X125631Y324836D01*
X125627Y324856D01*
X125627Y324876D01*
X125595Y325012D01*
X125567Y325148D01*
X125558Y325166D01*
X125553Y325185D01*
X125488Y325309D01*
X125427Y325433D01*
X125414Y325449D01*
X125404Y325467D01*
X125311Y325570D01*
X125221Y325675D01*
X125204Y325687D01*
X125191Y325702D01*
X125074Y325778D01*
X124961Y325858D01*
X124942Y325866D01*
X124925Y325877D01*
X124794Y325922D01*
X124663Y325971D01*
X124643Y325973D01*
X124624Y325980D01*
X124486Y325991D01*
X124347Y326006D01*
X124327Y326004D01*
X124307Y326005D01*
X124170Y325981D01*
X124032Y325962D01*
X124006Y325953D01*
X123994Y325951D01*
X123975Y325942D01*
X123880Y325910D01*
X121208Y324803D01*
X117192Y324803D01*
X113481Y326340D01*
X110640Y329181D01*
X109103Y332892D01*
X109103Y336908D01*
X110640Y340619D01*
X113481Y343460D01*
X117192Y344997D01*
X121208Y344997D01*
X123880Y343890D01*
X124014Y343854D01*
X124147Y343812D01*
X124167Y343811D01*
X124187Y343806D01*
X124326Y343804D01*
X124465Y343797D01*
X124484Y343801D01*
X124505Y343801D01*
X124640Y343834D01*
X124776Y343862D01*
X124794Y343871D01*
X124814Y343875D01*
X124937Y343940D01*
X125062Y344001D01*
X125077Y344015D01*
X125095Y344024D01*
X125198Y344117D01*
X125304Y344208D01*
X125315Y344224D01*
X125330Y344238D01*
X125407Y344354D01*
X125487Y344468D01*
X125494Y344487D01*
X125505Y344504D01*
X125550Y344635D01*
X125600Y344765D01*
X125602Y344785D01*
X125608Y344804D01*
X125619Y344943D01*
X125635Y345081D01*
X125632Y345101D01*
X125634Y345121D01*
X125610Y345259D01*
X125603Y345305D01*
X125603Y349477D01*
X125616Y349518D01*
X125617Y349539D01*
X125622Y349558D01*
X125624Y349698D01*
X125631Y349836D01*
X125627Y349856D01*
X125627Y349876D01*
X125595Y350011D01*
X125567Y350148D01*
X125558Y350166D01*
X125553Y350185D01*
X125488Y350308D01*
X125427Y350433D01*
X125414Y350449D01*
X125405Y350466D01*
X125311Y350569D01*
X125221Y350675D01*
X125204Y350687D01*
X125191Y350702D01*
X125075Y350778D01*
X124961Y350858D01*
X124942Y350866D01*
X124925Y350877D01*
X124794Y350922D01*
X124663Y350971D01*
X124643Y350973D01*
X124624Y350980D01*
X124486Y350991D01*
X124347Y351006D01*
X124327Y351004D01*
X124307Y351005D01*
X124170Y350981D01*
X124032Y350962D01*
X124006Y350953D01*
X123994Y350951D01*
X123975Y350942D01*
X123880Y350910D01*
X121208Y349803D01*
X117192Y349803D01*
X113481Y351340D01*
X110640Y354181D01*
X109103Y357892D01*
X109103Y361908D01*
X110640Y365619D01*
X113481Y368460D01*
X117192Y369997D01*
X121208Y369997D01*
X123880Y368890D01*
X124014Y368853D01*
X124147Y368812D01*
X124167Y368811D01*
X124187Y368806D01*
X124326Y368804D01*
X124465Y368797D01*
X124485Y368801D01*
X124505Y368801D01*
X124640Y368834D01*
X124776Y368862D01*
X124794Y368871D01*
X124814Y368875D01*
X124937Y368940D01*
X125062Y369002D01*
X125077Y369015D01*
X125095Y369024D01*
X125198Y369117D01*
X125304Y369208D01*
X125316Y369224D01*
X125330Y369238D01*
X125407Y369354D01*
X125487Y369468D01*
X125494Y369487D01*
X125505Y369504D01*
X125550Y369636D01*
X125600Y369765D01*
X125602Y369785D01*
X125608Y369804D01*
X125619Y369942D01*
X125635Y370082D01*
X125632Y370101D01*
X125634Y370121D01*
X125610Y370259D01*
X125603Y370305D01*
X125603Y374477D01*
X125616Y374518D01*
X125617Y374539D01*
X125622Y374558D01*
X125624Y374698D01*
X125631Y374836D01*
X125627Y374856D01*
X125627Y374876D01*
X125595Y375011D01*
X125567Y375148D01*
X125558Y375166D01*
X125553Y375185D01*
X125488Y375308D01*
X125427Y375433D01*
X125414Y375449D01*
X125405Y375466D01*
X125311Y375569D01*
X125221Y375675D01*
X125204Y375687D01*
X125191Y375702D01*
X125075Y375778D01*
X124961Y375858D01*
X124942Y375866D01*
X124925Y375877D01*
X124794Y375922D01*
X124663Y375971D01*
X124643Y375973D01*
X124624Y375980D01*
X124486Y375991D01*
X124347Y376006D01*
X124327Y376004D01*
X124307Y376005D01*
X124170Y375981D01*
X124032Y375962D01*
X124006Y375953D01*
X123994Y375951D01*
X123975Y375942D01*
X123880Y375910D01*
X121208Y374803D01*
X117192Y374803D01*
X113481Y376340D01*
X110640Y379181D01*
X109103Y382892D01*
X109103Y386908D01*
X110640Y390619D01*
X113481Y393460D01*
X117192Y394997D01*
X121208Y394997D01*
X124919Y393460D01*
X127760Y390619D01*
X129297Y386908D01*
X129297Y382823D01*
X129284Y382782D01*
X129283Y382761D01*
X129278Y382742D01*
X129276Y382602D01*
X129269Y382464D01*
X129273Y382444D01*
X129273Y382424D01*
X129305Y382289D01*
X129333Y382152D01*
X129342Y382134D01*
X129347Y382115D01*
X129412Y381992D01*
X129473Y381867D01*
X129486Y381851D01*
X129495Y381834D01*
X129589Y381731D01*
X129679Y381625D01*
X129696Y381613D01*
X129709Y381598D01*
X129825Y381522D01*
X129939Y381442D01*
X129958Y381434D01*
X129975Y381423D01*
X130106Y381378D01*
X130237Y381329D01*
X130257Y381327D01*
X130276Y381320D01*
X130414Y381309D01*
X130553Y381294D01*
X130573Y381296D01*
X130593Y381295D01*
X130730Y381319D01*
X130868Y381338D01*
X130894Y381347D01*
X130906Y381349D01*
X130925Y381358D01*
X131020Y381390D01*
X133692Y382497D01*
X137708Y382497D01*
X141419Y380960D01*
X144260Y378119D01*
X145797Y374408D01*
X145797Y370392D01*
X144260Y366681D01*
X141419Y363840D01*
X137708Y362303D01*
X133692Y362303D01*
X131020Y363410D01*
X130886Y363447D01*
X130753Y363488D01*
X130733Y363489D01*
X130713Y363494D01*
X130574Y363496D01*
X130435Y363503D01*
X130415Y363499D01*
X130395Y363499D01*
X130260Y363466D01*
X130124Y363438D01*
X130106Y363429D01*
X130086Y363425D01*
X129963Y363360D01*
X129838Y363298D01*
X129823Y363285D01*
X129805Y363276D01*
X129702Y363183D01*
X129596Y363092D01*
X129584Y363076D01*
X129570Y363062D01*
X129493Y362946D01*
X129413Y362832D01*
X129406Y362813D01*
X129395Y362796D01*
X129350Y362664D01*
X129300Y362535D01*
X129298Y362515D01*
X129292Y362496D01*
X129281Y362357D01*
X129265Y362218D01*
X129268Y362199D01*
X129266Y362179D01*
X129290Y362041D01*
X129297Y361995D01*
X129297Y357823D01*
X129284Y357781D01*
X129283Y357761D01*
X129278Y357742D01*
X129276Y357602D01*
X129269Y357464D01*
X129273Y357444D01*
X129273Y357424D01*
X129305Y357288D01*
X129333Y357152D01*
X129342Y357134D01*
X129347Y357115D01*
X129412Y356991D01*
X129473Y356867D01*
X129486Y356851D01*
X129496Y356833D01*
X129589Y356730D01*
X129679Y356625D01*
X129696Y356613D01*
X129709Y356598D01*
X129826Y356522D01*
X129939Y356442D01*
X129958Y356434D01*
X129975Y356423D01*
X130106Y356378D01*
X130237Y356329D01*
X130257Y356327D01*
X130276Y356320D01*
X130414Y356309D01*
X130553Y356294D01*
X130573Y356296D01*
X130593Y356295D01*
X130730Y356319D01*
X130868Y356338D01*
X130894Y356347D01*
X130906Y356349D01*
X130925Y356358D01*
X131020Y356390D01*
X133692Y357497D01*
X137708Y357497D01*
X141419Y355960D01*
X144260Y353119D01*
X144557Y352402D01*
X144571Y352377D01*
X144580Y352349D01*
X144650Y352239D01*
X144714Y352126D01*
X144735Y352105D01*
X144750Y352080D01*
X144845Y351991D01*
X144935Y351898D01*
X144961Y351882D01*
X144982Y351862D01*
X145096Y351799D01*
X145207Y351731D01*
X145235Y351723D01*
X145261Y351708D01*
X145386Y351676D01*
X145510Y351638D01*
X145540Y351636D01*
X145569Y351629D01*
X145729Y351619D01*
X600885Y351619D01*
X600984Y351631D01*
X601083Y351634D01*
X601141Y351651D01*
X601201Y351659D01*
X601293Y351695D01*
X601388Y351723D01*
X601440Y351753D01*
X601497Y351776D01*
X601577Y351834D01*
X601662Y351884D01*
X601737Y351950D01*
X601754Y351962D01*
X601762Y351972D01*
X601783Y351990D01*
X607310Y357517D01*
X607370Y357595D01*
X607438Y357668D01*
X607467Y357721D01*
X607504Y357768D01*
X607544Y357859D01*
X607592Y357946D01*
X607607Y358005D01*
X607631Y358060D01*
X607646Y358158D01*
X607671Y358254D01*
X607677Y358350D01*
X607679Y358358D01*
X607679Y358361D01*
X607681Y358374D01*
X607679Y358387D01*
X607681Y358415D01*
X607681Y425730D01*
X607679Y425748D01*
X607679Y425797D01*
X607587Y427544D01*
X607592Y427552D01*
X607600Y427585D01*
X608842Y428827D01*
X608853Y428842D01*
X608888Y428876D01*
X632656Y455295D01*
X632693Y455349D01*
X632738Y455397D01*
X632783Y455479D01*
X632837Y455556D01*
X632860Y455618D01*
X632892Y455675D01*
X632900Y455708D01*
X634142Y456950D01*
X634153Y456964D01*
X634188Y456998D01*
X634696Y457563D01*
X634757Y457650D01*
X634824Y457731D01*
X634847Y457780D01*
X634878Y457824D01*
X634915Y457924D01*
X634960Y458019D01*
X634970Y458072D01*
X634989Y458122D01*
X635000Y458228D01*
X635019Y458332D01*
X635016Y458385D01*
X635022Y458439D01*
X635006Y458543D01*
X635000Y458649D01*
X634983Y458700D01*
X634975Y458753D01*
X634934Y458851D01*
X634902Y458951D01*
X634873Y458997D01*
X634852Y459047D01*
X634788Y459131D01*
X634731Y459220D01*
X634692Y459257D01*
X634660Y459300D01*
X634577Y459366D01*
X634500Y459438D01*
X634453Y459464D01*
X634411Y459497D01*
X634314Y459541D01*
X634221Y459592D01*
X634169Y459605D01*
X634120Y459627D01*
X634016Y459645D01*
X633913Y459671D01*
X633828Y459676D01*
X633807Y459680D01*
X633791Y459679D01*
X633753Y459681D01*
X610132Y459681D01*
X610048Y459671D01*
X609963Y459670D01*
X609891Y459651D01*
X609816Y459641D01*
X609737Y459610D01*
X609656Y459589D01*
X609590Y459552D01*
X609520Y459524D01*
X609452Y459475D01*
X609378Y459434D01*
X609270Y459343D01*
X609263Y459338D01*
X609261Y459335D01*
X609255Y459330D01*
X575911Y427493D01*
X575840Y427405D01*
X575762Y427322D01*
X575740Y427282D01*
X575711Y427246D01*
X575663Y427143D01*
X575608Y427044D01*
X575597Y426999D01*
X575578Y426958D01*
X575557Y426846D01*
X575529Y426736D01*
X575525Y426666D01*
X575521Y426645D01*
X575522Y426626D01*
X575519Y426575D01*
X575519Y419056D01*
X575522Y419027D01*
X575520Y418997D01*
X575542Y418869D01*
X575559Y418740D01*
X575569Y418713D01*
X575574Y418684D01*
X575628Y418565D01*
X575676Y418445D01*
X575693Y418421D01*
X575705Y418394D01*
X575786Y418292D01*
X575862Y418187D01*
X575885Y418168D01*
X575904Y418145D01*
X576007Y418067D01*
X576107Y417984D01*
X576134Y417972D01*
X576158Y417954D01*
X576302Y417883D01*
X578550Y416952D01*
X582052Y413450D01*
X583947Y408876D01*
X583947Y403924D01*
X582052Y399350D01*
X578550Y395848D01*
X576602Y395041D01*
X576577Y395027D01*
X576549Y395017D01*
X576439Y394948D01*
X576326Y394884D01*
X576305Y394863D01*
X576280Y394847D01*
X576191Y394753D01*
X576098Y394662D01*
X576082Y394637D01*
X576062Y394616D01*
X575999Y394502D01*
X575931Y394391D01*
X575923Y394363D01*
X575908Y394337D01*
X575876Y394211D01*
X575838Y394087D01*
X575836Y394058D01*
X575829Y394029D01*
X575819Y393869D01*
X575819Y378711D01*
X564137Y367029D01*
X538461Y367029D01*
X538431Y367026D01*
X538402Y367028D01*
X538274Y367006D01*
X538145Y366989D01*
X538118Y366979D01*
X538089Y366974D01*
X537970Y366920D01*
X537850Y366872D01*
X537826Y366855D01*
X537799Y366843D01*
X537697Y366762D01*
X537592Y366686D01*
X537573Y366663D01*
X537550Y366644D01*
X537472Y366541D01*
X537389Y366441D01*
X537377Y366414D01*
X537359Y366390D01*
X537288Y366246D01*
X536779Y365017D01*
X533635Y361873D01*
X529527Y360171D01*
X525081Y360171D01*
X520973Y361873D01*
X517829Y365017D01*
X516127Y369125D01*
X516127Y373571D01*
X517829Y377679D01*
X520973Y380823D01*
X525081Y382525D01*
X529527Y382525D01*
X533635Y380823D01*
X536779Y377679D01*
X537288Y376450D01*
X537303Y376425D01*
X537312Y376397D01*
X537381Y376287D01*
X537446Y376174D01*
X537466Y376153D01*
X537482Y376128D01*
X537577Y376039D01*
X537667Y375946D01*
X537692Y375930D01*
X537714Y375910D01*
X537827Y375847D01*
X537938Y375779D01*
X537966Y375771D01*
X537992Y375756D01*
X538118Y375724D01*
X538242Y375686D01*
X538272Y375684D01*
X538300Y375677D01*
X538461Y375667D01*
X560033Y375667D01*
X560132Y375679D01*
X560231Y375682D01*
X560289Y375699D01*
X560349Y375707D01*
X560441Y375743D01*
X560536Y375771D01*
X560588Y375801D01*
X560645Y375824D01*
X560725Y375882D01*
X560810Y375932D01*
X560885Y375998D01*
X560902Y376010D01*
X560910Y376020D01*
X560931Y376038D01*
X566810Y381917D01*
X566870Y381995D01*
X566938Y382068D01*
X566967Y382121D01*
X567004Y382168D01*
X567044Y382259D01*
X567092Y382346D01*
X567107Y382405D01*
X567131Y382460D01*
X567146Y382558D01*
X567171Y382654D01*
X567177Y382754D01*
X567181Y382774D01*
X567179Y382787D01*
X567181Y382815D01*
X567181Y393869D01*
X567178Y393898D01*
X567180Y393927D01*
X567158Y394055D01*
X567141Y394184D01*
X567131Y394211D01*
X567126Y394241D01*
X567072Y394359D01*
X567024Y394480D01*
X567007Y394504D01*
X566995Y394531D01*
X566914Y394632D01*
X566838Y394737D01*
X566815Y394756D01*
X566796Y394779D01*
X566693Y394857D01*
X566593Y394940D01*
X566566Y394953D01*
X566542Y394970D01*
X566398Y395041D01*
X564450Y395848D01*
X560948Y399350D01*
X559053Y403924D01*
X559053Y408876D01*
X560948Y413450D01*
X564450Y416952D01*
X566098Y417635D01*
X566123Y417649D01*
X566151Y417658D01*
X566261Y417728D01*
X566374Y417792D01*
X566395Y417813D01*
X566420Y417828D01*
X566509Y417923D01*
X566602Y418013D01*
X566618Y418039D01*
X566638Y418060D01*
X566701Y418174D01*
X566769Y418285D01*
X566777Y418313D01*
X566792Y418339D01*
X566824Y418464D01*
X566862Y418588D01*
X566864Y418618D01*
X566871Y418647D01*
X566881Y418807D01*
X566881Y426726D01*
X566871Y426810D01*
X566870Y426895D01*
X566851Y426967D01*
X566841Y427042D01*
X566836Y427056D01*
X566881Y429002D01*
X566880Y429011D01*
X566881Y429031D01*
X566881Y430813D01*
X568171Y432045D01*
X568177Y432052D01*
X568192Y432066D01*
X569565Y433439D01*
X569572Y433441D01*
X569640Y433491D01*
X569714Y433532D01*
X569822Y433623D01*
X569829Y433628D01*
X569832Y433631D01*
X569837Y433636D01*
X604863Y467079D01*
X604869Y467086D01*
X604884Y467100D01*
X606145Y468360D01*
X607928Y468319D01*
X607937Y468320D01*
X607957Y468319D01*
X794220Y468319D01*
X794328Y468332D01*
X794437Y468337D01*
X794485Y468352D01*
X794535Y468359D01*
X794637Y468399D01*
X794741Y468431D01*
X794784Y468457D01*
X794831Y468476D01*
X794919Y468540D01*
X795013Y468597D01*
X795071Y468650D01*
X795088Y468662D01*
X795099Y468676D01*
X795132Y468705D01*
X803174Y477009D01*
X803227Y477080D01*
X803288Y477145D01*
X803322Y477207D01*
X803365Y477263D01*
X803399Y477346D01*
X803442Y477423D01*
X803459Y477492D01*
X803486Y477557D01*
X803499Y477645D01*
X803521Y477731D01*
X803529Y477858D01*
X803531Y477872D01*
X803530Y477878D01*
X803531Y477892D01*
X803531Y493269D01*
X811153Y493269D01*
X811153Y488383D01*
X811171Y488235D01*
X811188Y488087D01*
X811191Y488077D01*
X811193Y488067D01*
X811247Y487929D01*
X811300Y487789D01*
X811306Y487781D01*
X811310Y487772D01*
X811397Y487651D01*
X811483Y487529D01*
X811491Y487522D01*
X811496Y487514D01*
X811610Y487420D01*
X811725Y487322D01*
X811734Y487318D01*
X811741Y487311D01*
X811876Y487248D01*
X812010Y487182D01*
X812020Y487180D01*
X812029Y487176D01*
X812176Y487148D01*
X812322Y487118D01*
X812332Y487118D01*
X812341Y487116D01*
X812490Y487125D01*
X812639Y487132D01*
X812649Y487135D01*
X812659Y487136D01*
X812801Y487182D01*
X812943Y487226D01*
X812952Y487231D01*
X812961Y487234D01*
X813088Y487314D01*
X813215Y487392D01*
X813225Y487401D01*
X813230Y487404D01*
X813240Y487415D01*
X813334Y487500D01*
X816382Y490647D01*
X816435Y490718D01*
X816496Y490783D01*
X816530Y490845D01*
X816573Y490901D01*
X816607Y490984D01*
X816650Y491061D01*
X816667Y491130D01*
X816694Y491195D01*
X816707Y491283D01*
X816729Y491369D01*
X816737Y491496D01*
X816739Y491510D01*
X816738Y491517D01*
X816739Y491530D01*
X816739Y504433D01*
X818286Y508168D01*
X821144Y511026D01*
X821798Y511296D01*
X821823Y511311D01*
X821851Y511320D01*
X821961Y511390D01*
X822074Y511454D01*
X822095Y511475D01*
X822120Y511490D01*
X822209Y511585D01*
X822302Y511675D01*
X822318Y511700D01*
X822338Y511722D01*
X822401Y511836D01*
X822469Y511946D01*
X822477Y511975D01*
X822492Y512000D01*
X822524Y512126D01*
X822562Y512250D01*
X822564Y512280D01*
X822571Y512308D01*
X822581Y512469D01*
X822581Y577140D01*
X822578Y577169D01*
X822580Y577199D01*
X822558Y577326D01*
X822541Y577455D01*
X822531Y577483D01*
X822526Y577512D01*
X822472Y577631D01*
X822424Y577751D01*
X822407Y577775D01*
X822395Y577802D01*
X822314Y577904D01*
X822238Y578008D01*
X822215Y578027D01*
X822196Y578050D01*
X822093Y578128D01*
X821993Y578211D01*
X821966Y578224D01*
X821942Y578242D01*
X821798Y578313D01*
X819288Y579352D01*
X815572Y583068D01*
X813628Y587762D01*
X813613Y587788D01*
X813604Y587816D01*
X813534Y587926D01*
X813470Y588038D01*
X813449Y588060D01*
X813433Y588085D01*
X813339Y588174D01*
X813249Y588267D01*
X813224Y588282D01*
X813202Y588303D01*
X813088Y588365D01*
X812978Y588433D01*
X812949Y588442D01*
X812923Y588456D01*
X812798Y588488D01*
X812674Y588527D01*
X812644Y588528D01*
X812615Y588535D01*
X812485Y588535D01*
X812356Y588542D01*
X812327Y588536D01*
X812297Y588536D01*
X812172Y588504D01*
X812045Y588477D01*
X812018Y588464D01*
X811989Y588457D01*
X811876Y588395D01*
X811759Y588338D01*
X811736Y588318D01*
X811710Y588304D01*
X811616Y588216D01*
X811517Y588131D01*
X811500Y588107D01*
X811478Y588086D01*
X811409Y587977D01*
X811334Y587871D01*
X811323Y587843D01*
X811307Y587818D01*
X811248Y587668D01*
X810600Y585675D01*
X809693Y583893D01*
X808518Y582276D01*
X807104Y580862D01*
X805487Y579687D01*
X803705Y578780D01*
X801804Y578162D01*
X801369Y578093D01*
X801369Y589280D01*
X801354Y589398D01*
X801347Y589517D01*
X801334Y589555D01*
X801329Y589595D01*
X801286Y589706D01*
X801249Y589819D01*
X801227Y589853D01*
X801212Y589891D01*
X801142Y589987D01*
X801079Y590088D01*
X801049Y590116D01*
X801025Y590148D01*
X800934Y590224D01*
X800847Y590306D01*
X800812Y590325D01*
X800781Y590351D01*
X800673Y590402D01*
X800569Y590459D01*
X800529Y590470D01*
X800493Y590487D01*
X800376Y590509D01*
X800261Y590539D01*
X800200Y590543D01*
X800180Y590547D01*
X800160Y590545D01*
X800100Y590549D01*
X798829Y590549D01*
X798829Y590551D01*
X800100Y590551D01*
X800218Y590566D01*
X800337Y590573D01*
X800375Y590586D01*
X800415Y590591D01*
X800526Y590635D01*
X800639Y590671D01*
X800674Y590693D01*
X800711Y590708D01*
X800807Y590778D01*
X800908Y590841D01*
X800936Y590871D01*
X800969Y590895D01*
X801044Y590986D01*
X801126Y591073D01*
X801146Y591108D01*
X801171Y591140D01*
X801222Y591247D01*
X801280Y591352D01*
X801290Y591391D01*
X801307Y591427D01*
X801329Y591544D01*
X801359Y591659D01*
X801363Y591720D01*
X801367Y591740D01*
X801365Y591760D01*
X801369Y591820D01*
X801369Y603007D01*
X801804Y602938D01*
X803705Y602320D01*
X805487Y601413D01*
X807104Y600238D01*
X808518Y598824D01*
X809693Y597207D01*
X810600Y595425D01*
X811248Y593432D01*
X811261Y593404D01*
X811268Y593375D01*
X811328Y593261D01*
X811383Y593144D01*
X811402Y593121D01*
X811416Y593094D01*
X811504Y592998D01*
X811586Y592899D01*
X811610Y592881D01*
X811630Y592859D01*
X811738Y592788D01*
X811843Y592712D01*
X811871Y592701D01*
X811896Y592684D01*
X812018Y592642D01*
X812139Y592594D01*
X812169Y592591D01*
X812197Y592581D01*
X812326Y592571D01*
X812454Y592554D01*
X812484Y592558D01*
X812514Y592556D01*
X812642Y592578D01*
X812770Y592594D01*
X812798Y592605D01*
X812827Y592610D01*
X812945Y592663D01*
X813066Y592711D01*
X813090Y592729D01*
X813117Y592741D01*
X813218Y592822D01*
X813323Y592898D01*
X813342Y592921D01*
X813366Y592939D01*
X813444Y593043D01*
X813526Y593143D01*
X813539Y593170D01*
X813557Y593193D01*
X813628Y593338D01*
X815572Y598032D01*
X819288Y601748D01*
X821668Y602734D01*
X821693Y602748D01*
X821721Y602757D01*
X821831Y602827D01*
X821944Y602891D01*
X821965Y602912D01*
X821990Y602927D01*
X822079Y603022D01*
X822172Y603112D01*
X822188Y603138D01*
X822208Y603159D01*
X822271Y603273D01*
X822339Y603384D01*
X822347Y603412D01*
X822362Y603438D01*
X822394Y603563D01*
X822432Y603687D01*
X822434Y603717D01*
X822441Y603746D01*
X822451Y603906D01*
X822451Y637667D01*
X822436Y637785D01*
X822429Y637904D01*
X822416Y637942D01*
X822411Y637983D01*
X822368Y638093D01*
X822331Y638206D01*
X822309Y638241D01*
X822294Y638278D01*
X822225Y638374D01*
X822161Y638475D01*
X822131Y638503D01*
X822108Y638536D01*
X822016Y638612D01*
X821929Y638693D01*
X821894Y638713D01*
X821863Y638738D01*
X821755Y638789D01*
X821651Y638847D01*
X821611Y638857D01*
X821575Y638874D01*
X821458Y638896D01*
X821343Y638926D01*
X821283Y638930D01*
X821263Y638934D01*
X821242Y638932D01*
X821182Y638936D01*
X818068Y638936D01*
X816282Y640722D01*
X816282Y659758D01*
X818068Y661544D01*
X821227Y661544D01*
X821345Y661559D01*
X821464Y661566D01*
X821502Y661579D01*
X821543Y661584D01*
X821653Y661627D01*
X821766Y661664D01*
X821801Y661686D01*
X821838Y661701D01*
X821934Y661770D01*
X822035Y661834D01*
X822063Y661864D01*
X822096Y661887D01*
X822172Y661979D01*
X822253Y662066D01*
X822273Y662101D01*
X822298Y662132D01*
X822349Y662240D01*
X822407Y662344D01*
X822417Y662384D01*
X822434Y662420D01*
X822456Y662537D01*
X822486Y662652D01*
X822490Y662712D01*
X822494Y662732D01*
X822492Y662753D01*
X822496Y662813D01*
X822496Y696555D01*
X822493Y696584D01*
X822495Y696614D01*
X822473Y696742D01*
X822456Y696871D01*
X822446Y696898D01*
X822441Y696927D01*
X822387Y697046D01*
X822339Y697166D01*
X822322Y697190D01*
X822310Y697217D01*
X822229Y697319D01*
X822153Y697424D01*
X822130Y697443D01*
X822111Y697466D01*
X822008Y697544D01*
X821908Y697626D01*
X821881Y697639D01*
X821857Y697657D01*
X821713Y697728D01*
X819288Y698732D01*
X815572Y702448D01*
X813628Y707142D01*
X813613Y707168D01*
X813604Y707196D01*
X813534Y707306D01*
X813470Y707418D01*
X813449Y707440D01*
X813433Y707465D01*
X813339Y707554D01*
X813249Y707647D01*
X813224Y707662D01*
X813202Y707683D01*
X813088Y707745D01*
X812978Y707813D01*
X812949Y707822D01*
X812923Y707836D01*
X812798Y707868D01*
X812674Y707906D01*
X812644Y707908D01*
X812615Y707915D01*
X812485Y707915D01*
X812356Y707922D01*
X812327Y707916D01*
X812297Y707916D01*
X812172Y707884D01*
X812045Y707857D01*
X812018Y707844D01*
X811989Y707837D01*
X811876Y707775D01*
X811759Y707718D01*
X811736Y707698D01*
X811710Y707684D01*
X811616Y707596D01*
X811517Y707511D01*
X811500Y707487D01*
X811478Y707466D01*
X811409Y707357D01*
X811334Y707251D01*
X811323Y707223D01*
X811307Y707198D01*
X811248Y707048D01*
X810600Y705055D01*
X809693Y703273D01*
X808518Y701656D01*
X807104Y700242D01*
X805487Y699067D01*
X803705Y698160D01*
X801804Y697542D01*
X801369Y697473D01*
X801369Y708660D01*
X801354Y708778D01*
X801347Y708897D01*
X801334Y708935D01*
X801329Y708975D01*
X801286Y709086D01*
X801249Y709199D01*
X801227Y709233D01*
X801212Y709271D01*
X801142Y709367D01*
X801079Y709468D01*
X801049Y709496D01*
X801025Y709528D01*
X800934Y709604D01*
X800847Y709686D01*
X800812Y709705D01*
X800781Y709731D01*
X800673Y709782D01*
X800569Y709839D01*
X800529Y709850D01*
X800493Y709867D01*
X800376Y709889D01*
X800261Y709919D01*
X800200Y709923D01*
X800180Y709927D01*
X800160Y709925D01*
X800100Y709929D01*
X798829Y709929D01*
X798829Y709931D01*
X800100Y709931D01*
X800218Y709946D01*
X800337Y709953D01*
X800375Y709966D01*
X800415Y709971D01*
X800526Y710015D01*
X800639Y710051D01*
X800674Y710073D01*
X800711Y710088D01*
X800807Y710158D01*
X800908Y710221D01*
X800936Y710251D01*
X800969Y710275D01*
X801044Y710366D01*
X801126Y710453D01*
X801146Y710488D01*
X801171Y710520D01*
X801222Y710627D01*
X801280Y710732D01*
X801290Y710771D01*
X801307Y710807D01*
X801329Y710924D01*
X801359Y711039D01*
X801363Y711100D01*
X801367Y711120D01*
X801365Y711140D01*
X801369Y711200D01*
X801369Y722387D01*
X801804Y722318D01*
X803705Y721700D01*
X805487Y720793D01*
X807104Y719618D01*
X808518Y718204D01*
X809693Y716587D01*
X810600Y714805D01*
X811248Y712812D01*
X811261Y712785D01*
X811268Y712755D01*
X811328Y712641D01*
X811383Y712524D01*
X811402Y712501D01*
X811416Y712474D01*
X811503Y712379D01*
X811586Y712279D01*
X811610Y712261D01*
X811630Y712239D01*
X811739Y712168D01*
X811843Y712092D01*
X811871Y712081D01*
X811896Y712064D01*
X812018Y712022D01*
X812139Y711975D01*
X812169Y711971D01*
X812197Y711961D01*
X812326Y711951D01*
X812454Y711935D01*
X812484Y711938D01*
X812514Y711936D01*
X812642Y711958D01*
X812770Y711974D01*
X812798Y711985D01*
X812827Y711990D01*
X812945Y712043D01*
X813066Y712091D01*
X813090Y712109D01*
X813117Y712121D01*
X813218Y712202D01*
X813323Y712278D01*
X813342Y712301D01*
X813366Y712319D01*
X813444Y712423D01*
X813526Y712523D01*
X813539Y712550D01*
X813557Y712574D01*
X813628Y712718D01*
X815572Y717412D01*
X819288Y721128D01*
X824143Y723139D01*
X829397Y723139D01*
X834252Y721128D01*
X837968Y717412D01*
X839979Y712557D01*
X839979Y707303D01*
X837968Y702448D01*
X834252Y698732D01*
X831827Y697728D01*
X831802Y697713D01*
X831774Y697704D01*
X831664Y697635D01*
X831551Y697570D01*
X831530Y697550D01*
X831505Y697534D01*
X831416Y697439D01*
X831323Y697349D01*
X831307Y697324D01*
X831287Y697302D01*
X831224Y697188D01*
X831156Y697078D01*
X831148Y697050D01*
X831133Y697024D01*
X831101Y696898D01*
X831063Y696774D01*
X831061Y696744D01*
X831054Y696716D01*
X831044Y696555D01*
X831044Y662813D01*
X831059Y662695D01*
X831066Y662576D01*
X831079Y662538D01*
X831084Y662497D01*
X831127Y662387D01*
X831164Y662274D01*
X831186Y662239D01*
X831201Y662202D01*
X831270Y662106D01*
X831334Y662005D01*
X831364Y661977D01*
X831387Y661944D01*
X831479Y661868D01*
X831566Y661787D01*
X831601Y661767D01*
X831632Y661742D01*
X831740Y661691D01*
X831844Y661633D01*
X831884Y661623D01*
X831920Y661606D01*
X832037Y661584D01*
X832152Y661554D01*
X832212Y661550D01*
X832232Y661546D01*
X832253Y661548D01*
X832313Y661544D01*
X837104Y661544D01*
X838890Y659758D01*
X838890Y640722D01*
X837104Y638936D01*
X832358Y638936D01*
X832240Y638921D01*
X832121Y638914D01*
X832083Y638901D01*
X832042Y638896D01*
X831932Y638853D01*
X831819Y638816D01*
X831784Y638794D01*
X831747Y638779D01*
X831651Y638710D01*
X831550Y638646D01*
X831522Y638616D01*
X831489Y638593D01*
X831413Y638501D01*
X831332Y638414D01*
X831312Y638379D01*
X831287Y638348D01*
X831236Y638240D01*
X831178Y638136D01*
X831168Y638096D01*
X831151Y638060D01*
X831129Y637943D01*
X831099Y637828D01*
X831095Y637768D01*
X831091Y637748D01*
X831093Y637727D01*
X831089Y637667D01*
X831089Y603906D01*
X831092Y603877D01*
X831090Y603848D01*
X831112Y603720D01*
X831129Y603591D01*
X831139Y603563D01*
X831144Y603534D01*
X831198Y603416D01*
X831246Y603295D01*
X831263Y603271D01*
X831275Y603244D01*
X831356Y603143D01*
X831432Y603038D01*
X831455Y603019D01*
X831474Y602996D01*
X831577Y602918D01*
X831677Y602835D01*
X831704Y602822D01*
X831728Y602805D01*
X831872Y602734D01*
X834252Y601748D01*
X837968Y598032D01*
X839979Y593177D01*
X839979Y587923D01*
X837968Y583068D01*
X834252Y579352D01*
X832002Y578420D01*
X831977Y578406D01*
X831949Y578397D01*
X831839Y578327D01*
X831726Y578263D01*
X831705Y578242D01*
X831680Y578226D01*
X831591Y578132D01*
X831498Y578041D01*
X831482Y578016D01*
X831462Y577995D01*
X831399Y577881D01*
X831331Y577770D01*
X831323Y577742D01*
X831308Y577716D01*
X831276Y577590D01*
X831238Y577466D01*
X831236Y577437D01*
X831229Y577408D01*
X831219Y577248D01*
X831219Y512469D01*
X831222Y512440D01*
X831220Y512410D01*
X831242Y512282D01*
X831259Y512154D01*
X831269Y512126D01*
X831274Y512097D01*
X831328Y511978D01*
X831376Y511858D01*
X831393Y511834D01*
X831405Y511807D01*
X831486Y511705D01*
X831562Y511601D01*
X831585Y511582D01*
X831604Y511559D01*
X831707Y511481D01*
X831807Y511398D01*
X831834Y511385D01*
X831858Y511367D01*
X832002Y511296D01*
X832656Y511026D01*
X835514Y508168D01*
X837061Y504433D01*
X837061Y486167D01*
X835514Y482432D01*
X832656Y479574D01*
X828921Y478027D01*
X824879Y478027D01*
X821144Y479574D01*
X820298Y480421D01*
X820196Y480500D01*
X820097Y480584D01*
X820070Y480597D01*
X820046Y480616D01*
X819928Y480667D01*
X819812Y480724D01*
X819782Y480730D01*
X819754Y480742D01*
X819627Y480763D01*
X819500Y480789D01*
X819470Y480787D01*
X819440Y480792D01*
X819311Y480780D01*
X819183Y480774D01*
X819154Y480765D01*
X819124Y480762D01*
X819002Y480719D01*
X818879Y480681D01*
X818853Y480665D01*
X818824Y480655D01*
X818717Y480582D01*
X818607Y480515D01*
X818575Y480486D01*
X818561Y480476D01*
X818547Y480460D01*
X818488Y480407D01*
X801263Y462621D01*
X801210Y462550D01*
X801149Y462485D01*
X801115Y462423D01*
X801107Y462412D01*
X799673Y460978D01*
X799669Y460973D01*
X799658Y460963D01*
X799182Y460471D01*
X799104Y460368D01*
X799022Y460269D01*
X799009Y460241D01*
X798991Y460217D01*
X798941Y460097D01*
X798886Y459981D01*
X798881Y459951D01*
X798869Y459923D01*
X798851Y459795D01*
X798827Y459668D01*
X798828Y459638D01*
X798824Y459608D01*
X798838Y459480D01*
X798846Y459351D01*
X798856Y459322D01*
X798859Y459292D01*
X798905Y459171D01*
X798944Y459049D01*
X798961Y459023D01*
X798971Y458994D01*
X799046Y458889D01*
X799114Y458780D01*
X799137Y458759D01*
X799154Y458734D01*
X799252Y458650D01*
X799346Y458562D01*
X799373Y458547D01*
X799396Y458527D01*
X799512Y458471D01*
X799625Y458408D01*
X799654Y458401D01*
X799681Y458387D01*
X799808Y458361D01*
X799933Y458329D01*
X799976Y458326D01*
X799993Y458323D01*
X800015Y458324D01*
X800093Y458319D01*
X880009Y458319D01*
X880147Y458336D01*
X880286Y458349D01*
X880305Y458356D01*
X880325Y458359D01*
X880454Y458410D01*
X880585Y458457D01*
X880602Y458468D01*
X880621Y458476D01*
X880733Y458557D01*
X880848Y458635D01*
X880862Y458651D01*
X880878Y458662D01*
X880967Y458770D01*
X881059Y458874D01*
X881068Y458892D01*
X881081Y458907D01*
X881140Y459033D01*
X881203Y459157D01*
X881208Y459177D01*
X881216Y459195D01*
X881242Y459331D01*
X881273Y459467D01*
X881272Y459488D01*
X881276Y459507D01*
X881267Y459646D01*
X881263Y459785D01*
X881258Y459805D01*
X881256Y459825D01*
X881214Y459957D01*
X881175Y460091D01*
X881165Y460108D01*
X881158Y460127D01*
X881084Y460245D01*
X881013Y460365D01*
X880995Y460386D01*
X880988Y460396D01*
X880973Y460410D01*
X880907Y460485D01*
X873381Y468011D01*
X873381Y478131D01*
X873378Y478160D01*
X873380Y478190D01*
X873358Y478318D01*
X873341Y478446D01*
X873331Y478474D01*
X873326Y478503D01*
X873272Y478622D01*
X873224Y478742D01*
X873207Y478766D01*
X873195Y478793D01*
X873114Y478895D01*
X873038Y478999D01*
X873015Y479018D01*
X872996Y479041D01*
X872893Y479119D01*
X872793Y479202D01*
X872766Y479215D01*
X872742Y479233D01*
X872598Y479304D01*
X871944Y479574D01*
X869086Y482432D01*
X867539Y486167D01*
X867539Y504433D01*
X869086Y508168D01*
X871944Y511026D01*
X875679Y512573D01*
X879721Y512573D01*
X883456Y511026D01*
X886314Y508168D01*
X887861Y504433D01*
X887861Y486167D01*
X886314Y482432D01*
X883456Y479574D01*
X882802Y479304D01*
X882777Y479289D01*
X882749Y479280D01*
X882639Y479210D01*
X882526Y479146D01*
X882505Y479125D01*
X882480Y479110D01*
X882391Y479015D01*
X882298Y478925D01*
X882282Y478900D01*
X882262Y478878D01*
X882199Y478764D01*
X882131Y478654D01*
X882123Y478625D01*
X882108Y478600D01*
X882076Y478474D01*
X882038Y478350D01*
X882036Y478320D01*
X882029Y478292D01*
X882019Y478131D01*
X882019Y472115D01*
X882031Y472016D01*
X882034Y471917D01*
X882051Y471859D01*
X882059Y471799D01*
X882095Y471707D01*
X882123Y471612D01*
X882153Y471560D01*
X882176Y471503D01*
X882234Y471423D01*
X882284Y471338D01*
X882351Y471262D01*
X882362Y471246D01*
X882372Y471238D01*
X882390Y471217D01*
X885117Y468490D01*
X885195Y468430D01*
X885268Y468362D01*
X885321Y468333D01*
X885368Y468296D01*
X885459Y468256D01*
X885546Y468208D01*
X885605Y468193D01*
X885660Y468169D01*
X885758Y468154D01*
X885854Y468129D01*
X885954Y468123D01*
X885974Y468119D01*
X885987Y468121D01*
X886015Y468119D01*
X903309Y468119D01*
X903447Y468136D01*
X903586Y468149D01*
X903605Y468156D01*
X903625Y468159D01*
X903754Y468210D01*
X903885Y468257D01*
X903902Y468268D01*
X903921Y468276D01*
X904033Y468357D01*
X904148Y468435D01*
X904162Y468451D01*
X904178Y468462D01*
X904266Y468569D01*
X904359Y468674D01*
X904368Y468692D01*
X904381Y468707D01*
X904440Y468833D01*
X904503Y468957D01*
X904508Y468977D01*
X904516Y468995D01*
X904542Y469131D01*
X904573Y469267D01*
X904572Y469288D01*
X904576Y469307D01*
X904567Y469446D01*
X904563Y469585D01*
X904558Y469605D01*
X904556Y469625D01*
X904514Y469757D01*
X904475Y469891D01*
X904465Y469908D01*
X904458Y469927D01*
X904384Y470045D01*
X904313Y470165D01*
X904295Y470186D01*
X904288Y470196D01*
X904273Y470210D01*
X904207Y470285D01*
X898781Y475711D01*
X898781Y478131D01*
X898778Y478160D01*
X898780Y478190D01*
X898758Y478318D01*
X898741Y478446D01*
X898731Y478474D01*
X898726Y478503D01*
X898672Y478622D01*
X898624Y478742D01*
X898607Y478766D01*
X898595Y478793D01*
X898514Y478895D01*
X898438Y478999D01*
X898415Y479018D01*
X898396Y479041D01*
X898293Y479119D01*
X898193Y479202D01*
X898166Y479215D01*
X898142Y479233D01*
X897998Y479304D01*
X897344Y479574D01*
X894486Y482432D01*
X892939Y486167D01*
X892939Y504433D01*
X894486Y508168D01*
X897344Y511026D01*
X901079Y512573D01*
X905121Y512573D01*
X908856Y511026D01*
X911714Y508168D01*
X913261Y504433D01*
X913261Y486167D01*
X911714Y482432D01*
X910167Y480885D01*
X910082Y480776D01*
X909993Y480669D01*
X909984Y480650D01*
X909972Y480634D01*
X909917Y480506D01*
X909858Y480381D01*
X909854Y480361D01*
X909846Y480342D01*
X909824Y480204D01*
X909798Y480068D01*
X909799Y480048D01*
X909796Y480028D01*
X909809Y479889D01*
X909817Y479751D01*
X909824Y479732D01*
X909826Y479712D01*
X909873Y479580D01*
X909916Y479449D01*
X909926Y479431D01*
X909933Y479412D01*
X910011Y479297D01*
X910086Y479180D01*
X910100Y479166D01*
X910112Y479149D01*
X910216Y479057D01*
X910317Y478962D01*
X910335Y478952D01*
X910350Y478939D01*
X910474Y478875D01*
X910596Y478808D01*
X910615Y478803D01*
X910633Y478794D01*
X910769Y478764D01*
X910904Y478729D01*
X910932Y478727D01*
X910944Y478724D01*
X910964Y478725D01*
X911064Y478719D01*
X920536Y478719D01*
X920673Y478736D01*
X920812Y478749D01*
X920831Y478756D01*
X920851Y478759D01*
X920980Y478810D01*
X921111Y478857D01*
X921128Y478868D01*
X921147Y478876D01*
X921259Y478957D01*
X921374Y479035D01*
X921388Y479051D01*
X921404Y479062D01*
X921493Y479170D01*
X921585Y479274D01*
X921594Y479292D01*
X921607Y479307D01*
X921666Y479433D01*
X921729Y479557D01*
X921734Y479577D01*
X921742Y479595D01*
X921769Y479732D01*
X921799Y479867D01*
X921798Y479888D01*
X921802Y479907D01*
X921794Y480046D01*
X921789Y480185D01*
X921784Y480205D01*
X921783Y480225D01*
X921740Y480357D01*
X921701Y480491D01*
X921691Y480508D01*
X921684Y480527D01*
X921610Y480645D01*
X921539Y480765D01*
X921521Y480786D01*
X921514Y480796D01*
X921499Y480810D01*
X921433Y480885D01*
X919886Y482432D01*
X918339Y486167D01*
X918339Y504433D01*
X919886Y508168D01*
X922744Y511026D01*
X926479Y512573D01*
X930521Y512573D01*
X934256Y511026D01*
X935289Y509992D01*
X935383Y509919D01*
X935473Y509840D01*
X935509Y509822D01*
X935541Y509797D01*
X935650Y509750D01*
X935756Y509696D01*
X935795Y509687D01*
X935833Y509671D01*
X935950Y509652D01*
X936066Y509626D01*
X936107Y509627D01*
X936147Y509621D01*
X936265Y509632D01*
X936384Y509636D01*
X936423Y509647D01*
X936463Y509651D01*
X936575Y509691D01*
X936690Y509724D01*
X936724Y509745D01*
X936763Y509758D01*
X936861Y509825D01*
X936964Y509886D01*
X937009Y509925D01*
X937026Y509937D01*
X937039Y509952D01*
X937084Y509992D01*
X956311Y529219D01*
X1052412Y529219D01*
X1052530Y529234D01*
X1052649Y529241D01*
X1052687Y529254D01*
X1052728Y529259D01*
X1052838Y529302D01*
X1052951Y529339D01*
X1052986Y529361D01*
X1053023Y529376D01*
X1053119Y529445D01*
X1053220Y529509D01*
X1053248Y529539D01*
X1053281Y529562D01*
X1053357Y529654D01*
X1053438Y529741D01*
X1053458Y529776D01*
X1053483Y529807D01*
X1053534Y529915D01*
X1053592Y530019D01*
X1053602Y530059D01*
X1053619Y530095D01*
X1053641Y530212D01*
X1053671Y530327D01*
X1053675Y530387D01*
X1053679Y530407D01*
X1053677Y530428D01*
X1053681Y530488D01*
X1053681Y778995D01*
X1053681Y778996D01*
X1053681Y778998D01*
X1053677Y780785D01*
X1054943Y782050D01*
X1054943Y782051D01*
X1054944Y782052D01*
X1073833Y801021D01*
X1073893Y801099D01*
X1073960Y801170D01*
X1073990Y801224D01*
X1074028Y801273D01*
X1074067Y801363D01*
X1074114Y801448D01*
X1074129Y801508D01*
X1074154Y801565D01*
X1074169Y801662D01*
X1074193Y801756D01*
X1074200Y801860D01*
X1074203Y801879D01*
X1074202Y801891D01*
X1074203Y801917D01*
X1074203Y804608D01*
X1075740Y808319D01*
X1078581Y811160D01*
X1082292Y812697D01*
X1086308Y812697D01*
X1088980Y811590D01*
X1089114Y811553D01*
X1089247Y811512D01*
X1089267Y811511D01*
X1089287Y811506D01*
X1089426Y811504D01*
X1089565Y811497D01*
X1089585Y811501D01*
X1089605Y811501D01*
X1089740Y811534D01*
X1089876Y811562D01*
X1089894Y811571D01*
X1089914Y811575D01*
X1090037Y811640D01*
X1090162Y811702D01*
X1090177Y811715D01*
X1090195Y811724D01*
X1090298Y811817D01*
X1090404Y811908D01*
X1090416Y811924D01*
X1090430Y811938D01*
X1090507Y812054D01*
X1090587Y812168D01*
X1090594Y812187D01*
X1090605Y812204D01*
X1090650Y812336D01*
X1090700Y812465D01*
X1090702Y812485D01*
X1090708Y812504D01*
X1090719Y812643D01*
X1090735Y812782D01*
X1090732Y812801D01*
X1090734Y812821D01*
X1090710Y812959D01*
X1090703Y813005D01*
X1090703Y817108D01*
X1092240Y820819D01*
X1092936Y821515D01*
X1093021Y821624D01*
X1093109Y821731D01*
X1093118Y821750D01*
X1093131Y821766D01*
X1093186Y821894D01*
X1093245Y822019D01*
X1093249Y822039D01*
X1093257Y822058D01*
X1093279Y822196D01*
X1093305Y822332D01*
X1093304Y822352D01*
X1093307Y822372D01*
X1093294Y822511D01*
X1093285Y822649D01*
X1093279Y822668D01*
X1093277Y822688D01*
X1093230Y822819D01*
X1093187Y822951D01*
X1093176Y822969D01*
X1093169Y822988D01*
X1093091Y823102D01*
X1093017Y823220D01*
X1093002Y823234D01*
X1092991Y823251D01*
X1092887Y823343D01*
X1092785Y823438D01*
X1092767Y823448D01*
X1092752Y823461D01*
X1092629Y823524D01*
X1092507Y823592D01*
X1092487Y823597D01*
X1092469Y823606D01*
X1092333Y823636D01*
X1092199Y823671D01*
X1092171Y823673D01*
X1092159Y823676D01*
X1092138Y823675D01*
X1092038Y823681D01*
X440446Y823681D01*
X440323Y823666D01*
X440199Y823657D01*
X440165Y823646D01*
X440130Y823641D01*
X440015Y823596D01*
X439897Y823557D01*
X439867Y823537D01*
X439835Y823524D01*
X439734Y823452D01*
X439630Y823384D01*
X439592Y823349D01*
X439577Y823338D01*
X439563Y823321D01*
X439513Y823273D01*
X412456Y793976D01*
X412413Y793915D01*
X412362Y793862D01*
X412321Y793786D01*
X412271Y793717D01*
X412244Y793648D01*
X412208Y793583D01*
X412187Y793500D01*
X412156Y793420D01*
X412147Y793347D01*
X412129Y793275D01*
X412119Y793114D01*
X412119Y596611D01*
X396390Y580883D01*
X395963Y580455D01*
X395957Y580448D01*
X395950Y580442D01*
X395860Y580322D01*
X395768Y580204D01*
X395764Y580195D01*
X395759Y580188D01*
X395688Y580043D01*
X393821Y575537D01*
X390463Y572179D01*
X387068Y570773D01*
X386947Y570704D01*
X386824Y570639D01*
X386809Y570625D01*
X386792Y570615D01*
X386692Y570518D01*
X386589Y570425D01*
X386578Y570408D01*
X386563Y570394D01*
X386491Y570275D01*
X386414Y570159D01*
X386408Y570140D01*
X386397Y570123D01*
X386356Y569990D01*
X386311Y569858D01*
X386309Y569838D01*
X386303Y569819D01*
X386297Y569680D01*
X386286Y569541D01*
X386289Y569521D01*
X386288Y569501D01*
X386316Y569365D01*
X386340Y569228D01*
X386348Y569209D01*
X386352Y569190D01*
X386414Y569064D01*
X386471Y568938D01*
X386483Y568922D01*
X386492Y568904D01*
X386583Y568798D01*
X386669Y568690D01*
X386685Y568677D01*
X386699Y568662D01*
X386812Y568582D01*
X386923Y568498D01*
X386949Y568486D01*
X386959Y568479D01*
X386978Y568472D01*
X387068Y568427D01*
X390463Y567021D01*
X393821Y563663D01*
X395639Y559275D01*
X395639Y554525D01*
X393802Y550091D01*
X393726Y549999D01*
X393717Y549980D01*
X393705Y549964D01*
X393649Y549837D01*
X393590Y549711D01*
X393586Y549691D01*
X393578Y549673D01*
X393556Y549535D01*
X393530Y549398D01*
X393531Y549378D01*
X393528Y549358D01*
X393541Y549220D01*
X393550Y549081D01*
X393556Y549062D01*
X393558Y549042D01*
X393605Y548911D01*
X393648Y548779D01*
X393659Y548762D01*
X393666Y548743D01*
X393744Y548627D01*
X393818Y548510D01*
X393833Y548496D01*
X393844Y548479D01*
X393948Y548387D01*
X394050Y548292D01*
X394067Y548282D01*
X394083Y548269D01*
X394206Y548206D01*
X394328Y548138D01*
X394348Y548133D01*
X394366Y548124D01*
X394501Y548094D01*
X394636Y548059D01*
X394664Y548057D01*
X394676Y548055D01*
X394696Y548055D01*
X394797Y548049D01*
X729459Y548049D01*
X732360Y545147D01*
X767516Y509992D01*
X767610Y509919D01*
X767699Y509840D01*
X767735Y509822D01*
X767767Y509797D01*
X767876Y509750D01*
X767982Y509696D01*
X768022Y509687D01*
X768059Y509671D01*
X768177Y509652D01*
X768292Y509626D01*
X768333Y509627D01*
X768373Y509621D01*
X768491Y509632D01*
X768610Y509636D01*
X768649Y509647D01*
X768689Y509651D01*
X768801Y509691D01*
X768916Y509724D01*
X768951Y509745D01*
X768989Y509758D01*
X769087Y509825D01*
X769190Y509886D01*
X769235Y509925D01*
X769252Y509937D01*
X769265Y509952D01*
X769311Y509992D01*
X770344Y511026D01*
X774079Y512573D01*
X778121Y512573D01*
X781856Y511026D01*
X784714Y508168D01*
X786261Y504433D01*
X786261Y486167D01*
X784714Y482432D01*
X781856Y479574D01*
X778121Y478027D01*
X774079Y478027D01*
X770344Y479574D01*
X767486Y482432D01*
X765939Y486167D01*
X765939Y498827D01*
X765927Y498926D01*
X765924Y499025D01*
X765907Y499083D01*
X765899Y499143D01*
X765863Y499235D01*
X765835Y499330D01*
X765805Y499382D01*
X765782Y499439D01*
X765724Y499519D01*
X765674Y499604D01*
X765608Y499679D01*
X765596Y499696D01*
X765586Y499704D01*
X765568Y499725D01*
X763027Y502265D01*
X762918Y502350D01*
X762811Y502439D01*
X762792Y502447D01*
X762776Y502460D01*
X762648Y502515D01*
X762523Y502574D01*
X762503Y502578D01*
X762484Y502586D01*
X762346Y502608D01*
X762210Y502634D01*
X762190Y502633D01*
X762170Y502636D01*
X762031Y502623D01*
X761893Y502614D01*
X761874Y502608D01*
X761854Y502606D01*
X761722Y502559D01*
X761591Y502516D01*
X761573Y502506D01*
X761554Y502499D01*
X761439Y502421D01*
X761322Y502346D01*
X761308Y502331D01*
X761291Y502320D01*
X761199Y502216D01*
X761104Y502115D01*
X761094Y502097D01*
X761081Y502082D01*
X761017Y501958D01*
X760950Y501836D01*
X760945Y501816D01*
X760936Y501798D01*
X760906Y501663D01*
X760871Y501528D01*
X760869Y501500D01*
X760866Y501488D01*
X760867Y501468D01*
X760861Y501367D01*
X760861Y486167D01*
X759314Y482432D01*
X756456Y479574D01*
X752721Y478027D01*
X748679Y478027D01*
X744944Y479574D01*
X742086Y482432D01*
X740539Y486167D01*
X740539Y504433D01*
X742086Y508168D01*
X744944Y511026D01*
X748679Y512573D01*
X749655Y512573D01*
X749793Y512590D01*
X749932Y512603D01*
X749951Y512610D01*
X749971Y512613D01*
X750100Y512664D01*
X750231Y512711D01*
X750248Y512722D01*
X750267Y512730D01*
X750379Y512811D01*
X750494Y512889D01*
X750508Y512905D01*
X750524Y512916D01*
X750613Y513024D01*
X750705Y513128D01*
X750714Y513146D01*
X750727Y513161D01*
X750786Y513287D01*
X750849Y513411D01*
X750854Y513431D01*
X750862Y513449D01*
X750888Y513585D01*
X750919Y513721D01*
X750918Y513742D01*
X750922Y513761D01*
X750913Y513900D01*
X750909Y514039D01*
X750904Y514059D01*
X750902Y514079D01*
X750860Y514211D01*
X750821Y514345D01*
X750811Y514362D01*
X750804Y514381D01*
X750730Y514499D01*
X750659Y514619D01*
X750641Y514640D01*
X750634Y514650D01*
X750619Y514664D01*
X750553Y514739D01*
X726253Y539040D01*
X726175Y539100D01*
X726102Y539168D01*
X726049Y539197D01*
X726002Y539234D01*
X725911Y539274D01*
X725824Y539322D01*
X725765Y539337D01*
X725710Y539361D01*
X725612Y539376D01*
X725516Y539401D01*
X725416Y539407D01*
X725396Y539411D01*
X725383Y539409D01*
X725355Y539411D01*
X395245Y539411D01*
X395196Y539405D01*
X395146Y539407D01*
X395039Y539385D01*
X394929Y539371D01*
X394883Y539353D01*
X394835Y539343D01*
X394736Y539295D01*
X394634Y539254D01*
X394594Y539225D01*
X394549Y539203D01*
X394465Y539132D01*
X394376Y539068D01*
X394345Y539029D01*
X394307Y538997D01*
X394244Y538907D01*
X394174Y538823D01*
X394152Y538778D01*
X394124Y538737D01*
X394085Y538634D01*
X394038Y538535D01*
X394029Y538486D01*
X394011Y538440D01*
X393999Y538330D01*
X393978Y538223D01*
X393981Y538173D01*
X393976Y538124D01*
X393991Y538015D01*
X393998Y537905D01*
X394013Y537858D01*
X394020Y537809D01*
X394072Y537656D01*
X395639Y533875D01*
X395639Y529125D01*
X393821Y524737D01*
X390463Y521379D01*
X387068Y519973D01*
X386947Y519904D01*
X386824Y519839D01*
X386809Y519825D01*
X386792Y519815D01*
X386692Y519718D01*
X386589Y519625D01*
X386578Y519608D01*
X386563Y519594D01*
X386491Y519475D01*
X386414Y519359D01*
X386408Y519340D01*
X386397Y519323D01*
X386356Y519190D01*
X386311Y519058D01*
X386309Y519038D01*
X386303Y519019D01*
X386297Y518880D01*
X386286Y518741D01*
X386289Y518721D01*
X386288Y518701D01*
X386316Y518564D01*
X386340Y518428D01*
X386348Y518409D01*
X386352Y518390D01*
X386414Y518264D01*
X386471Y518138D01*
X386483Y518122D01*
X386492Y518104D01*
X386583Y517998D01*
X386669Y517890D01*
X386685Y517877D01*
X386699Y517862D01*
X386812Y517782D01*
X386923Y517698D01*
X386949Y517686D01*
X386959Y517679D01*
X386978Y517672D01*
X387068Y517627D01*
X390463Y516221D01*
X393821Y512863D01*
X395639Y508475D01*
X395639Y503725D01*
X393821Y499337D01*
X390463Y495979D01*
X386258Y494237D01*
X386232Y494222D01*
X386204Y494213D01*
X386094Y494144D01*
X385982Y494080D01*
X385960Y494059D01*
X385935Y494043D01*
X385847Y493949D01*
X385753Y493858D01*
X385738Y493833D01*
X385717Y493811D01*
X385655Y493698D01*
X385587Y493587D01*
X385578Y493559D01*
X385564Y493533D01*
X385532Y493407D01*
X385494Y493283D01*
X385492Y493254D01*
X385485Y493225D01*
X385485Y493095D01*
X385478Y492966D01*
X385484Y492936D01*
X385484Y492907D01*
X385517Y492781D01*
X385543Y492654D01*
X385556Y492627D01*
X385563Y492598D01*
X385625Y492485D01*
X385682Y492368D01*
X385702Y492346D01*
X385716Y492320D01*
X385804Y492225D01*
X385889Y492126D01*
X385913Y492109D01*
X385934Y492087D01*
X386043Y492018D01*
X386149Y491943D01*
X386177Y491933D01*
X386202Y491917D01*
X386352Y491857D01*
X388088Y491293D01*
X389691Y490477D01*
X391147Y489419D01*
X392419Y488147D01*
X393477Y486691D01*
X394293Y485088D01*
X394849Y483377D01*
X394877Y483199D01*
X384930Y483199D01*
X384812Y483184D01*
X384693Y483177D01*
X384655Y483164D01*
X384615Y483159D01*
X384504Y483116D01*
X384391Y483079D01*
X384357Y483057D01*
X384319Y483042D01*
X384223Y482973D01*
X384122Y482909D01*
X384094Y482879D01*
X384062Y482856D01*
X383986Y482764D01*
X383904Y482677D01*
X383885Y482642D01*
X383859Y482611D01*
X383808Y482503D01*
X383751Y482399D01*
X383741Y482359D01*
X383723Y482323D01*
X383703Y482216D01*
X383699Y482246D01*
X383655Y482356D01*
X383619Y482469D01*
X383597Y482504D01*
X383582Y482541D01*
X383512Y482637D01*
X383449Y482738D01*
X383419Y482766D01*
X383395Y482799D01*
X383304Y482875D01*
X383217Y482956D01*
X383182Y482976D01*
X383150Y483001D01*
X383043Y483052D01*
X382938Y483110D01*
X382899Y483120D01*
X382863Y483137D01*
X382746Y483159D01*
X382630Y483189D01*
X382570Y483193D01*
X382550Y483197D01*
X382530Y483195D01*
X382470Y483199D01*
X372523Y483199D01*
X372551Y483377D01*
X373107Y485088D01*
X373923Y486691D01*
X374981Y488147D01*
X376253Y489419D01*
X377709Y490477D01*
X379312Y491293D01*
X381048Y491857D01*
X381075Y491870D01*
X381105Y491877D01*
X381219Y491938D01*
X381336Y491993D01*
X381359Y492012D01*
X381386Y492026D01*
X381482Y492113D01*
X381581Y492195D01*
X381599Y492220D01*
X381621Y492240D01*
X381692Y492348D01*
X381768Y492453D01*
X381779Y492480D01*
X381796Y492505D01*
X381838Y492628D01*
X381885Y492748D01*
X381889Y492778D01*
X381899Y492806D01*
X381909Y492936D01*
X381925Y493064D01*
X381922Y493093D01*
X381924Y493123D01*
X381902Y493251D01*
X381886Y493379D01*
X381875Y493407D01*
X381870Y493437D01*
X381817Y493555D01*
X381769Y493675D01*
X381751Y493699D01*
X381739Y493727D01*
X381658Y493828D01*
X381582Y493933D01*
X381559Y493952D01*
X381541Y493975D01*
X381437Y494053D01*
X381337Y494136D01*
X381310Y494148D01*
X381286Y494166D01*
X381142Y494237D01*
X376937Y495979D01*
X373579Y499337D01*
X371761Y503725D01*
X371761Y508475D01*
X373579Y512863D01*
X376937Y516221D01*
X380332Y517627D01*
X380453Y517696D01*
X380576Y517761D01*
X380591Y517775D01*
X380608Y517785D01*
X380708Y517882D01*
X380811Y517975D01*
X380822Y517992D01*
X380837Y518006D01*
X380909Y518124D01*
X380986Y518241D01*
X380992Y518260D01*
X381003Y518277D01*
X381044Y518410D01*
X381089Y518542D01*
X381091Y518562D01*
X381097Y518581D01*
X381103Y518720D01*
X381114Y518859D01*
X381111Y518879D01*
X381112Y518899D01*
X381084Y519035D01*
X381060Y519172D01*
X381052Y519191D01*
X381048Y519210D01*
X380986Y519335D01*
X380929Y519462D01*
X380917Y519478D01*
X380908Y519496D01*
X380817Y519602D01*
X380731Y519710D01*
X380715Y519723D01*
X380701Y519738D01*
X380588Y519818D01*
X380477Y519902D01*
X380451Y519914D01*
X380441Y519921D01*
X380422Y519928D01*
X380332Y519973D01*
X376937Y521379D01*
X373579Y524737D01*
X371761Y529125D01*
X371761Y533875D01*
X373328Y537656D01*
X373341Y537704D01*
X373362Y537749D01*
X373383Y537857D01*
X373412Y537963D01*
X373412Y538013D01*
X373422Y538062D01*
X373415Y538171D01*
X373417Y538281D01*
X373405Y538329D01*
X373402Y538379D01*
X373368Y538483D01*
X373342Y538590D01*
X373319Y538634D01*
X373304Y538681D01*
X373245Y538774D01*
X373194Y538871D01*
X373160Y538908D01*
X373134Y538950D01*
X373054Y539025D01*
X372980Y539107D01*
X372938Y539134D01*
X372902Y539168D01*
X372806Y539221D01*
X372714Y539281D01*
X372667Y539298D01*
X372624Y539322D01*
X372517Y539349D01*
X372413Y539385D01*
X372364Y539389D01*
X372316Y539401D01*
X372155Y539411D01*
X327423Y539411D01*
X200833Y666002D01*
X200755Y666062D01*
X200683Y666130D01*
X200630Y666159D01*
X200582Y666196D01*
X200491Y666236D01*
X200404Y666284D01*
X200346Y666299D01*
X200290Y666323D01*
X200192Y666338D01*
X200096Y666363D01*
X199996Y666369D01*
X199976Y666373D01*
X199963Y666371D01*
X199935Y666373D01*
X192061Y666373D01*
X192011Y666367D01*
X191962Y666369D01*
X191854Y666347D01*
X191745Y666333D01*
X191699Y666315D01*
X191650Y666305D01*
X191551Y666257D01*
X191450Y666216D01*
X191409Y666187D01*
X191365Y666165D01*
X191281Y666094D01*
X191192Y666030D01*
X191160Y665991D01*
X191123Y665959D01*
X191059Y665869D01*
X190989Y665785D01*
X190968Y665740D01*
X190940Y665699D01*
X190901Y665596D01*
X190854Y665497D01*
X190845Y665448D01*
X190827Y665402D01*
X190815Y665292D01*
X190794Y665185D01*
X190797Y665135D01*
X190792Y665086D01*
X190807Y664977D01*
X190814Y664867D01*
X190829Y664820D01*
X190836Y664771D01*
X190888Y664618D01*
X192439Y660875D01*
X192439Y656125D01*
X190621Y651737D01*
X187263Y648379D01*
X183868Y646973D01*
X183747Y646904D01*
X183624Y646839D01*
X183609Y646825D01*
X183592Y646815D01*
X183492Y646718D01*
X183389Y646625D01*
X183378Y646608D01*
X183363Y646594D01*
X183290Y646475D01*
X183214Y646359D01*
X183208Y646340D01*
X183197Y646323D01*
X183156Y646190D01*
X183111Y646058D01*
X183109Y646038D01*
X183103Y646019D01*
X183097Y645880D01*
X183086Y645741D01*
X183089Y645721D01*
X183088Y645701D01*
X183116Y645565D01*
X183140Y645428D01*
X183148Y645409D01*
X183153Y645390D01*
X183214Y645264D01*
X183271Y645138D01*
X183283Y645122D01*
X183292Y645104D01*
X183383Y644998D01*
X183469Y644890D01*
X183485Y644877D01*
X183499Y644862D01*
X183612Y644782D01*
X183723Y644698D01*
X183749Y644686D01*
X183759Y644679D01*
X183778Y644672D01*
X183868Y644627D01*
X187263Y643221D01*
X190621Y639863D01*
X192439Y635475D01*
X192439Y630725D01*
X190621Y626337D01*
X187263Y622979D01*
X183868Y621573D01*
X183747Y621504D01*
X183624Y621439D01*
X183609Y621425D01*
X183592Y621415D01*
X183492Y621318D01*
X183389Y621225D01*
X183378Y621208D01*
X183363Y621194D01*
X183290Y621075D01*
X183214Y620959D01*
X183208Y620940D01*
X183197Y620923D01*
X183156Y620790D01*
X183111Y620658D01*
X183109Y620638D01*
X183103Y620619D01*
X183097Y620480D01*
X183086Y620341D01*
X183089Y620321D01*
X183088Y620301D01*
X183116Y620165D01*
X183140Y620028D01*
X183148Y620009D01*
X183153Y619990D01*
X183214Y619864D01*
X183271Y619738D01*
X183283Y619722D01*
X183292Y619704D01*
X183383Y619598D01*
X183469Y619490D01*
X183485Y619477D01*
X183499Y619462D01*
X183612Y619382D01*
X183723Y619298D01*
X183749Y619286D01*
X183759Y619279D01*
X183778Y619272D01*
X183868Y619227D01*
X187263Y617821D01*
X190621Y614463D01*
X192439Y610075D01*
X192439Y605325D01*
X190805Y601382D01*
X190792Y601334D01*
X190771Y601289D01*
X190750Y601181D01*
X190721Y601075D01*
X190721Y601025D01*
X190711Y600976D01*
X190718Y600867D01*
X190716Y600757D01*
X190728Y600709D01*
X190731Y600659D01*
X190765Y600555D01*
X190790Y600448D01*
X190814Y600404D01*
X190829Y600357D01*
X190888Y600264D01*
X190939Y600167D01*
X190973Y600130D01*
X190999Y600088D01*
X191079Y600013D01*
X191153Y599931D01*
X191195Y599904D01*
X191231Y599870D01*
X191327Y599817D01*
X191419Y599757D01*
X191466Y599740D01*
X191509Y599716D01*
X191616Y599689D01*
X191720Y599653D01*
X191769Y599649D01*
X191817Y599637D01*
X191978Y599627D01*
X228939Y599627D01*
X368575Y459990D01*
X368653Y459930D01*
X368725Y459862D01*
X368778Y459833D01*
X368826Y459796D01*
X368917Y459756D01*
X369004Y459708D01*
X369062Y459693D01*
X369118Y459669D01*
X369216Y459654D01*
X369312Y459629D01*
X369412Y459623D01*
X369432Y459619D01*
X369445Y459621D01*
X369473Y459619D01*
X371718Y459619D01*
X371748Y459622D01*
X371777Y459620D01*
X371905Y459642D01*
X372034Y459659D01*
X372061Y459669D01*
X372090Y459674D01*
X372209Y459728D01*
X372330Y459776D01*
X372353Y459793D01*
X372380Y459805D01*
X372482Y459886D01*
X372587Y459962D01*
X372606Y459985D01*
X372629Y460004D01*
X372707Y460107D01*
X372790Y460207D01*
X372802Y460234D01*
X372820Y460258D01*
X372891Y460402D01*
X373579Y462063D01*
X376937Y465421D01*
X381142Y467163D01*
X381168Y467178D01*
X381196Y467187D01*
X381306Y467256D01*
X381418Y467320D01*
X381440Y467341D01*
X381465Y467357D01*
X381553Y467451D01*
X381647Y467542D01*
X381662Y467567D01*
X381683Y467589D01*
X381745Y467702D01*
X381813Y467813D01*
X381822Y467841D01*
X381836Y467867D01*
X381868Y467993D01*
X381906Y468117D01*
X381908Y468146D01*
X381915Y468175D01*
X381915Y468305D01*
X381922Y468434D01*
X381916Y468464D01*
X381916Y468493D01*
X381883Y468619D01*
X381857Y468746D01*
X381844Y468773D01*
X381837Y468802D01*
X381775Y468915D01*
X381718Y469032D01*
X381698Y469054D01*
X381684Y469080D01*
X381596Y469175D01*
X381511Y469274D01*
X381487Y469291D01*
X381466Y469313D01*
X381357Y469382D01*
X381251Y469457D01*
X381223Y469467D01*
X381198Y469483D01*
X381048Y469543D01*
X379312Y470107D01*
X377709Y470923D01*
X376253Y471981D01*
X374981Y473253D01*
X373923Y474709D01*
X373107Y476312D01*
X372551Y478023D01*
X372523Y478201D01*
X382470Y478201D01*
X382588Y478216D01*
X382707Y478223D01*
X382745Y478235D01*
X382785Y478241D01*
X382896Y478284D01*
X383009Y478321D01*
X383043Y478343D01*
X383081Y478358D01*
X383177Y478427D01*
X383278Y478491D01*
X383306Y478521D01*
X383338Y478544D01*
X383414Y478636D01*
X383496Y478723D01*
X383515Y478758D01*
X383541Y478789D01*
X383592Y478897D01*
X383649Y479001D01*
X383659Y479041D01*
X383677Y479077D01*
X383697Y479184D01*
X383701Y479154D01*
X383745Y479044D01*
X383781Y478931D01*
X383803Y478896D01*
X383818Y478859D01*
X383888Y478762D01*
X383951Y478662D01*
X383981Y478634D01*
X384005Y478601D01*
X384096Y478525D01*
X384183Y478444D01*
X384218Y478424D01*
X384250Y478399D01*
X384357Y478348D01*
X384462Y478290D01*
X384501Y478280D01*
X384537Y478263D01*
X384654Y478241D01*
X384770Y478211D01*
X384830Y478207D01*
X384850Y478203D01*
X384870Y478205D01*
X384930Y478201D01*
X394877Y478201D01*
X394849Y478023D01*
X394293Y476312D01*
X393477Y474709D01*
X392419Y473253D01*
X391147Y471981D01*
X389691Y470923D01*
X388088Y470107D01*
X386352Y469543D01*
X386325Y469530D01*
X386295Y469523D01*
X386181Y469462D01*
X386064Y469407D01*
X386041Y469388D01*
X386014Y469374D01*
X385918Y469287D01*
X385819Y469205D01*
X385801Y469180D01*
X385779Y469160D01*
X385708Y469052D01*
X385632Y468947D01*
X385621Y468920D01*
X385604Y468895D01*
X385562Y468772D01*
X385515Y468652D01*
X385511Y468622D01*
X385501Y468594D01*
X385491Y468464D01*
X385475Y468336D01*
X385478Y468307D01*
X385476Y468277D01*
X385498Y468149D01*
X385514Y468021D01*
X385525Y467993D01*
X385530Y467963D01*
X385583Y467845D01*
X385631Y467725D01*
X385649Y467701D01*
X385661Y467673D01*
X385742Y467572D01*
X385818Y467467D01*
X385841Y467448D01*
X385859Y467425D01*
X385963Y467347D01*
X386063Y467264D01*
X386090Y467252D01*
X386114Y467234D01*
X386258Y467163D01*
X390463Y465421D01*
X393821Y462063D01*
X395639Y457675D01*
X395639Y452925D01*
X393821Y448537D01*
X390463Y445179D01*
X387068Y443773D01*
X386947Y443704D01*
X386824Y443639D01*
X386809Y443625D01*
X386792Y443615D01*
X386692Y443518D01*
X386589Y443425D01*
X386578Y443408D01*
X386563Y443394D01*
X386491Y443276D01*
X386414Y443159D01*
X386408Y443140D01*
X386397Y443123D01*
X386356Y442990D01*
X386311Y442858D01*
X386309Y442838D01*
X386303Y442819D01*
X386297Y442680D01*
X386286Y442541D01*
X386289Y442521D01*
X386288Y442501D01*
X386316Y442365D01*
X386340Y442228D01*
X386348Y442209D01*
X386352Y442190D01*
X386414Y442065D01*
X386471Y441938D01*
X386483Y441922D01*
X386492Y441904D01*
X386583Y441798D01*
X386669Y441690D01*
X386685Y441677D01*
X386699Y441662D01*
X386812Y441582D01*
X386923Y441498D01*
X386949Y441486D01*
X386959Y441479D01*
X386978Y441472D01*
X387068Y441427D01*
X390463Y440021D01*
X393821Y436663D01*
X395639Y432275D01*
X395639Y427525D01*
X393821Y423137D01*
X390463Y419779D01*
X387068Y418373D01*
X386947Y418304D01*
X386824Y418239D01*
X386809Y418225D01*
X386792Y418215D01*
X386692Y418118D01*
X386589Y418025D01*
X386578Y418008D01*
X386563Y417994D01*
X386491Y417876D01*
X386414Y417759D01*
X386408Y417740D01*
X386397Y417723D01*
X386356Y417590D01*
X386311Y417458D01*
X386309Y417438D01*
X386303Y417419D01*
X386297Y417280D01*
X386286Y417141D01*
X386289Y417121D01*
X386288Y417101D01*
X386316Y416965D01*
X386340Y416828D01*
X386348Y416809D01*
X386352Y416790D01*
X386414Y416665D01*
X386471Y416538D01*
X386483Y416522D01*
X386492Y416504D01*
X386583Y416398D01*
X386669Y416290D01*
X386685Y416277D01*
X386699Y416262D01*
X386812Y416182D01*
X386923Y416098D01*
X386949Y416086D01*
X386959Y416079D01*
X386978Y416072D01*
X387068Y416027D01*
X390463Y414621D01*
X393821Y411263D01*
X395639Y406875D01*
X395639Y402125D01*
X393821Y397737D01*
X390463Y394379D01*
X386075Y392561D01*
X381325Y392561D01*
X376937Y394379D01*
X373579Y397737D01*
X371761Y402125D01*
X371761Y406875D01*
X373579Y411263D01*
X376937Y414621D01*
X380332Y416027D01*
X380453Y416096D01*
X380576Y416161D01*
X380591Y416175D01*
X380608Y416185D01*
X380708Y416282D01*
X380811Y416375D01*
X380822Y416392D01*
X380837Y416406D01*
X380909Y416525D01*
X380986Y416641D01*
X380992Y416660D01*
X381003Y416677D01*
X381044Y416810D01*
X381089Y416942D01*
X381091Y416962D01*
X381097Y416981D01*
X381103Y417120D01*
X381114Y417259D01*
X381111Y417279D01*
X381112Y417299D01*
X381084Y417435D01*
X381060Y417572D01*
X381052Y417591D01*
X381048Y417610D01*
X380986Y417736D01*
X380929Y417862D01*
X380917Y417878D01*
X380908Y417896D01*
X380817Y418002D01*
X380731Y418110D01*
X380715Y418123D01*
X380701Y418138D01*
X380588Y418218D01*
X380477Y418302D01*
X380451Y418314D01*
X380441Y418321D01*
X380422Y418328D01*
X380332Y418373D01*
X376937Y419779D01*
X373579Y423137D01*
X371761Y427525D01*
X371761Y432275D01*
X373579Y436663D01*
X376937Y440021D01*
X380332Y441427D01*
X380453Y441496D01*
X380576Y441561D01*
X380591Y441575D01*
X380608Y441585D01*
X380708Y441682D01*
X380811Y441775D01*
X380822Y441792D01*
X380837Y441806D01*
X380909Y441925D01*
X380986Y442041D01*
X380992Y442060D01*
X381003Y442077D01*
X381044Y442210D01*
X381089Y442342D01*
X381091Y442362D01*
X381097Y442381D01*
X381103Y442520D01*
X381114Y442659D01*
X381111Y442679D01*
X381112Y442699D01*
X381084Y442835D01*
X381060Y442972D01*
X381052Y442991D01*
X381048Y443010D01*
X380986Y443136D01*
X380929Y443262D01*
X380917Y443278D01*
X380908Y443296D01*
X380817Y443402D01*
X380731Y443510D01*
X380715Y443523D01*
X380701Y443538D01*
X380588Y443618D01*
X380477Y443702D01*
X380451Y443714D01*
X380441Y443721D01*
X380422Y443728D01*
X380332Y443773D01*
X376937Y445179D01*
X373579Y448537D01*
X372891Y450198D01*
X372876Y450223D01*
X372867Y450251D01*
X372798Y450361D01*
X372733Y450474D01*
X372713Y450495D01*
X372697Y450520D01*
X372602Y450609D01*
X372512Y450702D01*
X372487Y450718D01*
X372466Y450738D01*
X372352Y450801D01*
X372241Y450869D01*
X372213Y450877D01*
X372187Y450892D01*
X372061Y450924D01*
X371937Y450962D01*
X371908Y450964D01*
X371879Y450971D01*
X371718Y450981D01*
X365369Y450981D01*
X225733Y590618D01*
X225654Y590678D01*
X225582Y590746D01*
X225529Y590775D01*
X225481Y590812D01*
X225390Y590852D01*
X225304Y590900D01*
X225245Y590915D01*
X225190Y590939D01*
X225092Y590954D01*
X224996Y590979D01*
X224896Y590985D01*
X224876Y590989D01*
X224863Y590987D01*
X224835Y590989D01*
X191723Y590989D01*
X191673Y590983D01*
X191624Y590985D01*
X191516Y590963D01*
X191407Y590949D01*
X191361Y590931D01*
X191312Y590921D01*
X191213Y590873D01*
X191112Y590832D01*
X191071Y590803D01*
X191027Y590781D01*
X190943Y590710D01*
X190854Y590646D01*
X190823Y590607D01*
X190785Y590575D01*
X190721Y590485D01*
X190651Y590401D01*
X190630Y590356D01*
X190602Y590315D01*
X190563Y590212D01*
X190516Y590113D01*
X190507Y590064D01*
X190489Y590018D01*
X190477Y589908D01*
X190456Y589801D01*
X190459Y589751D01*
X190454Y589702D01*
X190469Y589593D01*
X190476Y589483D01*
X190491Y589436D01*
X190498Y589387D01*
X190550Y589234D01*
X192439Y584675D01*
X192439Y579925D01*
X190621Y575537D01*
X187263Y572179D01*
X183868Y570773D01*
X183747Y570704D01*
X183624Y570639D01*
X183609Y570625D01*
X183592Y570615D01*
X183492Y570518D01*
X183389Y570425D01*
X183378Y570408D01*
X183363Y570394D01*
X183290Y570275D01*
X183214Y570159D01*
X183208Y570140D01*
X183197Y570123D01*
X183156Y569990D01*
X183111Y569858D01*
X183109Y569838D01*
X183103Y569819D01*
X183097Y569680D01*
X183086Y569541D01*
X183089Y569521D01*
X183088Y569501D01*
X183116Y569365D01*
X183140Y569228D01*
X183148Y569209D01*
X183153Y569190D01*
X183214Y569064D01*
X183271Y568938D01*
X183283Y568922D01*
X183292Y568904D01*
X183383Y568798D01*
X183469Y568690D01*
X183485Y568677D01*
X183499Y568662D01*
X183612Y568582D01*
X183723Y568498D01*
X183749Y568486D01*
X183759Y568479D01*
X183778Y568472D01*
X183868Y568427D01*
X187263Y567021D01*
X190621Y563663D01*
X192439Y559275D01*
X192439Y554525D01*
X190621Y550137D01*
X187263Y546779D01*
X183868Y545373D01*
X183747Y545304D01*
X183624Y545239D01*
X183609Y545225D01*
X183592Y545215D01*
X183492Y545118D01*
X183389Y545025D01*
X183378Y545008D01*
X183363Y544994D01*
X183290Y544875D01*
X183214Y544759D01*
X183208Y544740D01*
X183197Y544723D01*
X183156Y544590D01*
X183111Y544458D01*
X183109Y544438D01*
X183103Y544419D01*
X183097Y544280D01*
X183086Y544141D01*
X183089Y544121D01*
X183088Y544101D01*
X183116Y543965D01*
X183140Y543828D01*
X183148Y543809D01*
X183153Y543790D01*
X183214Y543664D01*
X183271Y543538D01*
X183283Y543522D01*
X183292Y543504D01*
X183383Y543398D01*
X183469Y543290D01*
X183485Y543277D01*
X183499Y543262D01*
X183612Y543182D01*
X183723Y543098D01*
X183749Y543086D01*
X183759Y543079D01*
X183778Y543072D01*
X183868Y543027D01*
X187263Y541621D01*
X190621Y538263D01*
X192439Y533875D01*
X192439Y529125D01*
X190621Y524737D01*
X187263Y521379D01*
X183868Y519973D01*
X183747Y519904D01*
X183624Y519839D01*
X183609Y519825D01*
X183592Y519815D01*
X183492Y519718D01*
X183389Y519625D01*
X183378Y519608D01*
X183363Y519594D01*
X183290Y519475D01*
X183214Y519359D01*
X183208Y519340D01*
X183197Y519323D01*
X183156Y519190D01*
X183111Y519058D01*
X183109Y519038D01*
X183103Y519019D01*
X183097Y518880D01*
X183086Y518741D01*
X183089Y518721D01*
X183088Y518701D01*
X183116Y518564D01*
X183140Y518428D01*
X183148Y518409D01*
X183153Y518390D01*
X183214Y518264D01*
X183271Y518138D01*
X183283Y518122D01*
X183292Y518104D01*
X183383Y517998D01*
X183469Y517890D01*
X183485Y517877D01*
X183499Y517862D01*
X183612Y517782D01*
X183723Y517698D01*
X183749Y517686D01*
X183759Y517679D01*
X183778Y517672D01*
X183868Y517627D01*
X187263Y516221D01*
X190621Y512863D01*
X192439Y508475D01*
X192439Y503725D01*
X190621Y499337D01*
X187263Y495979D01*
X182875Y494161D01*
X178125Y494161D01*
X173737Y495979D01*
X170379Y499337D01*
X168561Y503725D01*
X168561Y508475D01*
X170379Y512863D01*
X173737Y516221D01*
X177132Y517627D01*
X177253Y517696D01*
X177376Y517761D01*
X177391Y517775D01*
X177408Y517785D01*
X177508Y517882D01*
X177611Y517975D01*
X177622Y517992D01*
X177637Y518006D01*
X177709Y518124D01*
X177786Y518241D01*
X177792Y518260D01*
X177803Y518277D01*
X177844Y518410D01*
X177889Y518542D01*
X177891Y518562D01*
X177897Y518581D01*
X177903Y518720D01*
X177914Y518859D01*
X177911Y518879D01*
X177912Y518899D01*
X177884Y519035D01*
X177860Y519172D01*
X177852Y519191D01*
X177847Y519210D01*
X177786Y519335D01*
X177729Y519462D01*
X177717Y519478D01*
X177708Y519496D01*
X177617Y519602D01*
X177531Y519710D01*
X177515Y519723D01*
X177501Y519738D01*
X177388Y519818D01*
X177277Y519902D01*
X177251Y519914D01*
X177241Y519921D01*
X177222Y519928D01*
X177132Y519973D01*
X173737Y521379D01*
X170379Y524737D01*
X170188Y525198D01*
X170174Y525223D01*
X170165Y525250D01*
X170154Y525267D01*
X170146Y525288D01*
X170085Y525379D01*
X170030Y525475D01*
X170008Y525497D01*
X169995Y525519D01*
X169982Y525531D01*
X169968Y525551D01*
X169885Y525624D01*
X169809Y525703D01*
X169780Y525721D01*
X169763Y525737D01*
X169750Y525744D01*
X169729Y525762D01*
X169631Y525812D01*
X169538Y525869D01*
X169503Y525880D01*
X169485Y525890D01*
X169472Y525893D01*
X169446Y525906D01*
X169339Y525931D01*
X169234Y525963D01*
X169195Y525965D01*
X169177Y525970D01*
X169161Y525971D01*
X169136Y525976D01*
X169093Y525975D01*
X169016Y525980D01*
X169013Y525980D01*
X168977Y525975D01*
X168916Y525978D01*
X168868Y525968D01*
X168818Y525966D01*
X168748Y525946D01*
X168698Y525940D01*
X168660Y525925D01*
X168605Y525914D01*
X168560Y525892D01*
X168512Y525878D01*
X168454Y525843D01*
X168402Y525823D01*
X168366Y525797D01*
X168319Y525774D01*
X168281Y525742D01*
X168239Y525717D01*
X168159Y525647D01*
X168145Y525636D01*
X168137Y525628D01*
X168118Y525610D01*
X126490Y483983D01*
X123589Y481081D01*
X103115Y481081D01*
X103016Y481069D01*
X102917Y481066D01*
X102859Y481049D01*
X102799Y481041D01*
X102707Y481005D01*
X102612Y480977D01*
X102560Y480947D01*
X102503Y480924D01*
X102423Y480866D01*
X102338Y480816D01*
X102263Y480750D01*
X102246Y480738D01*
X102238Y480728D01*
X102217Y480710D01*
X95790Y474283D01*
X95730Y474205D01*
X95662Y474132D01*
X95633Y474079D01*
X95596Y474032D01*
X95556Y473940D01*
X95508Y473854D01*
X95493Y473795D01*
X95469Y473740D01*
X95454Y473642D01*
X95429Y473546D01*
X95423Y473446D01*
X95419Y473426D01*
X95421Y473413D01*
X95419Y473385D01*
X95419Y469557D01*
X95422Y469527D01*
X95420Y469498D01*
X95442Y469370D01*
X95459Y469241D01*
X95469Y469214D01*
X95474Y469185D01*
X95528Y469066D01*
X95576Y468946D01*
X95593Y468922D01*
X95605Y468895D01*
X95686Y468793D01*
X95762Y468688D01*
X95785Y468669D01*
X95804Y468646D01*
X95907Y468568D01*
X96007Y468485D01*
X96034Y468473D01*
X96058Y468455D01*
X96202Y468384D01*
X97431Y467875D01*
X100575Y464731D01*
X102277Y460623D01*
X102277Y456177D01*
X100575Y452069D01*
X97431Y448925D01*
X93323Y447223D01*
X88877Y447223D01*
X84769Y448925D01*
X81625Y452069D01*
X79923Y456177D01*
X79923Y460623D01*
X81625Y464731D01*
X84769Y467875D01*
X85998Y468384D01*
X86023Y468399D01*
X86051Y468408D01*
X86161Y468477D01*
X86274Y468542D01*
X86295Y468562D01*
X86320Y468578D01*
X86409Y468673D01*
X86502Y468763D01*
X86518Y468788D01*
X86538Y468810D01*
X86601Y468923D01*
X86669Y469034D01*
X86677Y469062D01*
X86692Y469088D01*
X86724Y469214D01*
X86762Y469338D01*
X86764Y469368D01*
X86771Y469396D01*
X86781Y469557D01*
X86781Y477489D01*
X89683Y480390D01*
X96107Y486815D01*
X96192Y486924D01*
X96281Y487031D01*
X96289Y487050D01*
X96302Y487066D01*
X96357Y487194D01*
X96416Y487319D01*
X96420Y487339D01*
X96428Y487358D01*
X96450Y487496D01*
X96476Y487632D01*
X96475Y487652D01*
X96478Y487672D01*
X96465Y487811D01*
X96456Y487949D01*
X96450Y487968D01*
X96448Y487988D01*
X96401Y488120D01*
X96358Y488251D01*
X96348Y488269D01*
X96341Y488288D01*
X96263Y488403D01*
X96188Y488520D01*
X96173Y488534D01*
X96162Y488551D01*
X96058Y488643D01*
X95957Y488738D01*
X95939Y488748D01*
X95924Y488761D01*
X95800Y488825D01*
X95678Y488892D01*
X95658Y488897D01*
X95640Y488906D01*
X95505Y488936D01*
X95370Y488971D01*
X95342Y488973D01*
X95330Y488976D01*
X95310Y488975D01*
X95209Y488981D01*
X64315Y488981D01*
X64216Y488969D01*
X64117Y488966D01*
X64059Y488949D01*
X63999Y488941D01*
X63907Y488905D01*
X63812Y488877D01*
X63760Y488847D01*
X63703Y488824D01*
X63623Y488766D01*
X63538Y488716D01*
X63463Y488650D01*
X63446Y488638D01*
X63438Y488628D01*
X63417Y488610D01*
X49490Y474683D01*
X49430Y474605D01*
X49362Y474532D01*
X49333Y474479D01*
X49296Y474432D01*
X49256Y474341D01*
X49208Y474254D01*
X49193Y474195D01*
X49169Y474140D01*
X49154Y474042D01*
X49129Y473946D01*
X49123Y473846D01*
X49119Y473826D01*
X49121Y473813D01*
X49119Y473785D01*
X49119Y314960D01*
X49134Y314842D01*
X49141Y314723D01*
X49154Y314685D01*
X49159Y314644D01*
X49202Y314534D01*
X49239Y314421D01*
X49261Y314386D01*
X49276Y314349D01*
X49345Y314253D01*
X49409Y314152D01*
X49439Y314124D01*
X49462Y314091D01*
X49554Y314015D01*
X49641Y313934D01*
X49676Y313914D01*
X49707Y313889D01*
X49815Y313838D01*
X49919Y313780D01*
X49959Y313770D01*
X49995Y313753D01*
X50112Y313731D01*
X50227Y313701D01*
X50287Y313697D01*
X50307Y313693D01*
X50328Y313695D01*
X50388Y313691D01*
X108993Y313691D01*
X109023Y313694D01*
G37*
G36*
X996182Y224831D02*
X996182Y224831D01*
X996281Y224834D01*
X996339Y224851D01*
X996399Y224859D01*
X996491Y224895D01*
X996586Y224923D01*
X996638Y224953D01*
X996695Y224976D01*
X996775Y225034D01*
X996860Y225084D01*
X996935Y225150D01*
X996952Y225162D01*
X996960Y225172D01*
X996981Y225190D01*
X1061771Y289981D01*
X1074545Y289981D01*
X1074594Y289987D01*
X1074644Y289985D01*
X1074751Y290007D01*
X1074861Y290021D01*
X1074907Y290039D01*
X1074955Y290049D01*
X1075054Y290097D01*
X1075156Y290138D01*
X1075196Y290167D01*
X1075241Y290189D01*
X1075325Y290260D01*
X1075414Y290324D01*
X1075445Y290363D01*
X1075483Y290395D01*
X1075546Y290485D01*
X1075616Y290569D01*
X1075638Y290614D01*
X1075666Y290655D01*
X1075705Y290758D01*
X1075752Y290857D01*
X1075761Y290906D01*
X1075779Y290952D01*
X1075791Y291062D01*
X1075812Y291169D01*
X1075809Y291219D01*
X1075814Y291268D01*
X1075799Y291377D01*
X1075792Y291487D01*
X1075777Y291534D01*
X1075770Y291583D01*
X1075718Y291736D01*
X1075485Y292298D01*
X1075470Y292323D01*
X1075461Y292351D01*
X1075392Y292461D01*
X1075327Y292574D01*
X1075307Y292595D01*
X1075291Y292620D01*
X1075196Y292709D01*
X1075106Y292802D01*
X1075081Y292818D01*
X1075059Y292838D01*
X1074946Y292901D01*
X1074835Y292969D01*
X1074807Y292977D01*
X1074781Y292992D01*
X1074655Y293024D01*
X1074531Y293062D01*
X1074501Y293064D01*
X1074473Y293071D01*
X1074312Y293081D01*
X893839Y293081D01*
X850899Y336022D01*
X850828Y336077D01*
X847981Y338923D01*
X847981Y401931D01*
X847978Y401960D01*
X847980Y401990D01*
X847958Y402118D01*
X847941Y402246D01*
X847931Y402274D01*
X847926Y402303D01*
X847872Y402422D01*
X847824Y402542D01*
X847807Y402566D01*
X847795Y402593D01*
X847714Y402695D01*
X847638Y402799D01*
X847615Y402818D01*
X847596Y402841D01*
X847493Y402919D01*
X847393Y403002D01*
X847366Y403015D01*
X847342Y403033D01*
X847198Y403104D01*
X846544Y403374D01*
X843686Y406232D01*
X842139Y409967D01*
X842139Y428233D01*
X843686Y431968D01*
X846544Y434826D01*
X850279Y436373D01*
X854321Y436373D01*
X858056Y434826D01*
X860914Y431968D01*
X862461Y428233D01*
X862461Y409967D01*
X860914Y406232D01*
X858056Y403374D01*
X857402Y403104D01*
X857377Y403089D01*
X857349Y403080D01*
X857239Y403010D01*
X857126Y402946D01*
X857105Y402925D01*
X857080Y402910D01*
X856991Y402815D01*
X856898Y402725D01*
X856882Y402700D01*
X856862Y402678D01*
X856799Y402564D01*
X856731Y402454D01*
X856723Y402425D01*
X856708Y402400D01*
X856676Y402274D01*
X856638Y402150D01*
X856636Y402120D01*
X856629Y402092D01*
X856619Y401931D01*
X856619Y343043D01*
X856631Y342944D01*
X856634Y342845D01*
X856651Y342787D01*
X856659Y342727D01*
X856695Y342635D01*
X856723Y342540D01*
X856753Y342488D01*
X856776Y342431D01*
X856834Y342351D01*
X856884Y342266D01*
X856950Y342191D01*
X856962Y342174D01*
X856972Y342166D01*
X856990Y342145D01*
X897045Y302090D01*
X897123Y302030D01*
X897196Y301962D01*
X897249Y301933D01*
X897296Y301896D01*
X897387Y301856D01*
X897474Y301808D01*
X897533Y301793D01*
X897588Y301769D01*
X897686Y301754D01*
X897782Y301729D01*
X897882Y301723D01*
X897902Y301719D01*
X897915Y301721D01*
X897943Y301719D01*
X1074312Y301719D01*
X1074341Y301722D01*
X1074371Y301720D01*
X1074499Y301742D01*
X1074628Y301759D01*
X1074655Y301769D01*
X1074684Y301774D01*
X1074803Y301828D01*
X1074923Y301876D01*
X1074947Y301893D01*
X1074974Y301905D01*
X1075076Y301986D01*
X1075181Y302062D01*
X1075200Y302085D01*
X1075223Y302104D01*
X1075301Y302207D01*
X1075384Y302307D01*
X1075396Y302334D01*
X1075414Y302358D01*
X1075485Y302502D01*
X1075740Y303119D01*
X1076036Y303414D01*
X1076121Y303524D01*
X1076209Y303631D01*
X1076218Y303650D01*
X1076231Y303666D01*
X1076286Y303794D01*
X1076345Y303919D01*
X1076349Y303939D01*
X1076357Y303958D01*
X1076379Y304096D01*
X1076405Y304232D01*
X1076404Y304252D01*
X1076407Y304272D01*
X1076394Y304411D01*
X1076385Y304549D01*
X1076379Y304568D01*
X1076377Y304588D01*
X1076330Y304719D01*
X1076287Y304851D01*
X1076276Y304869D01*
X1076269Y304888D01*
X1076192Y305002D01*
X1076117Y305120D01*
X1076102Y305134D01*
X1076091Y305151D01*
X1075987Y305243D01*
X1075885Y305338D01*
X1075868Y305348D01*
X1075852Y305361D01*
X1075728Y305425D01*
X1075607Y305492D01*
X1075587Y305497D01*
X1075569Y305506D01*
X1075433Y305536D01*
X1075299Y305571D01*
X1075271Y305573D01*
X1075259Y305576D01*
X1075238Y305575D01*
X1075138Y305581D01*
X916909Y305581D01*
X873381Y349109D01*
X873381Y401931D01*
X873378Y401960D01*
X873380Y401990D01*
X873358Y402118D01*
X873341Y402246D01*
X873331Y402274D01*
X873326Y402303D01*
X873272Y402422D01*
X873224Y402542D01*
X873207Y402566D01*
X873195Y402593D01*
X873114Y402695D01*
X873038Y402799D01*
X873015Y402818D01*
X872996Y402841D01*
X872893Y402919D01*
X872793Y403002D01*
X872766Y403015D01*
X872742Y403033D01*
X872598Y403104D01*
X871944Y403374D01*
X869086Y406232D01*
X867539Y409967D01*
X867539Y428233D01*
X869086Y431968D01*
X871944Y434826D01*
X875679Y436373D01*
X879721Y436373D01*
X883456Y434826D01*
X886314Y431968D01*
X887861Y428233D01*
X887861Y409967D01*
X886314Y406232D01*
X883456Y403374D01*
X882802Y403104D01*
X882777Y403089D01*
X882749Y403080D01*
X882639Y403010D01*
X882526Y402946D01*
X882505Y402925D01*
X882480Y402910D01*
X882391Y402815D01*
X882298Y402725D01*
X882282Y402700D01*
X882262Y402678D01*
X882199Y402564D01*
X882131Y402454D01*
X882123Y402425D01*
X882108Y402400D01*
X882076Y402274D01*
X882038Y402150D01*
X882036Y402120D01*
X882029Y402092D01*
X882019Y401931D01*
X882019Y353213D01*
X882031Y353114D01*
X882034Y353015D01*
X882051Y352957D01*
X882059Y352897D01*
X882095Y352805D01*
X882123Y352710D01*
X882153Y352658D01*
X882176Y352601D01*
X882234Y352521D01*
X882284Y352436D01*
X882350Y352361D01*
X882362Y352344D01*
X882372Y352336D01*
X882390Y352315D01*
X920115Y314590D01*
X920193Y314530D01*
X920266Y314462D01*
X920319Y314433D01*
X920366Y314396D01*
X920457Y314356D01*
X920544Y314308D01*
X920603Y314293D01*
X920658Y314269D01*
X920756Y314254D01*
X920852Y314229D01*
X920952Y314223D01*
X920972Y314219D01*
X920985Y314221D01*
X921013Y314219D01*
X1075138Y314219D01*
X1075276Y314236D01*
X1075415Y314249D01*
X1075434Y314256D01*
X1075454Y314259D01*
X1075583Y314310D01*
X1075714Y314357D01*
X1075731Y314368D01*
X1075749Y314376D01*
X1075862Y314457D01*
X1075977Y314535D01*
X1075990Y314551D01*
X1076007Y314562D01*
X1076095Y314670D01*
X1076187Y314774D01*
X1076197Y314792D01*
X1076209Y314807D01*
X1076269Y314933D01*
X1076332Y315057D01*
X1076336Y315077D01*
X1076345Y315095D01*
X1076371Y315231D01*
X1076402Y315367D01*
X1076401Y315388D01*
X1076405Y315407D01*
X1076396Y315546D01*
X1076392Y315685D01*
X1076386Y315705D01*
X1076385Y315725D01*
X1076342Y315857D01*
X1076304Y315991D01*
X1076293Y316008D01*
X1076287Y316027D01*
X1076213Y316145D01*
X1076142Y316265D01*
X1076123Y316286D01*
X1076117Y316296D01*
X1076102Y316310D01*
X1076036Y316386D01*
X1075740Y316681D01*
X1075485Y317298D01*
X1075470Y317323D01*
X1075461Y317351D01*
X1075392Y317461D01*
X1075327Y317574D01*
X1075307Y317595D01*
X1075291Y317620D01*
X1075196Y317709D01*
X1075106Y317802D01*
X1075081Y317818D01*
X1075059Y317838D01*
X1074945Y317901D01*
X1074835Y317969D01*
X1074807Y317977D01*
X1074781Y317992D01*
X1074655Y318024D01*
X1074531Y318062D01*
X1074501Y318064D01*
X1074473Y318071D01*
X1074312Y318081D01*
X933111Y318081D01*
X898781Y352411D01*
X898781Y401931D01*
X898778Y401960D01*
X898780Y401990D01*
X898758Y402118D01*
X898741Y402246D01*
X898731Y402274D01*
X898726Y402303D01*
X898672Y402422D01*
X898624Y402542D01*
X898607Y402566D01*
X898595Y402593D01*
X898514Y402695D01*
X898438Y402799D01*
X898415Y402818D01*
X898396Y402841D01*
X898293Y402919D01*
X898193Y403002D01*
X898166Y403015D01*
X898142Y403033D01*
X897998Y403104D01*
X897344Y403374D01*
X894486Y406232D01*
X892939Y409967D01*
X892939Y428233D01*
X894486Y431968D01*
X897344Y434826D01*
X901079Y436373D01*
X905121Y436373D01*
X908856Y434826D01*
X911714Y431968D01*
X913261Y428233D01*
X913261Y409967D01*
X911714Y406232D01*
X908856Y403374D01*
X908202Y403104D01*
X908177Y403089D01*
X908149Y403080D01*
X908039Y403010D01*
X907926Y402946D01*
X907905Y402925D01*
X907880Y402910D01*
X907791Y402815D01*
X907698Y402725D01*
X907682Y402700D01*
X907662Y402678D01*
X907599Y402564D01*
X907531Y402454D01*
X907523Y402425D01*
X907508Y402400D01*
X907476Y402274D01*
X907438Y402150D01*
X907436Y402120D01*
X907429Y402092D01*
X907419Y401931D01*
X907419Y356515D01*
X907431Y356416D01*
X907434Y356317D01*
X907451Y356259D01*
X907459Y356199D01*
X907495Y356107D01*
X907523Y356012D01*
X907553Y355960D01*
X907576Y355903D01*
X907634Y355823D01*
X907684Y355738D01*
X907750Y355663D01*
X907762Y355646D01*
X907772Y355638D01*
X907790Y355617D01*
X936317Y327090D01*
X936395Y327030D01*
X936468Y326962D01*
X936521Y326933D01*
X936568Y326896D01*
X936659Y326856D01*
X936746Y326808D01*
X936805Y326793D01*
X936860Y326769D01*
X936958Y326754D01*
X937054Y326729D01*
X937154Y326723D01*
X937174Y326719D01*
X937187Y326721D01*
X937215Y326719D01*
X1074312Y326719D01*
X1074341Y326722D01*
X1074371Y326720D01*
X1074499Y326742D01*
X1074628Y326759D01*
X1074655Y326769D01*
X1074684Y326774D01*
X1074803Y326828D01*
X1074923Y326876D01*
X1074947Y326893D01*
X1074974Y326905D01*
X1075076Y326986D01*
X1075181Y327062D01*
X1075200Y327085D01*
X1075223Y327104D01*
X1075301Y327207D01*
X1075384Y327307D01*
X1075396Y327334D01*
X1075414Y327358D01*
X1075485Y327502D01*
X1075740Y328119D01*
X1078581Y330960D01*
X1082292Y332497D01*
X1086308Y332497D01*
X1088980Y331390D01*
X1089114Y331353D01*
X1089247Y331312D01*
X1089267Y331311D01*
X1089287Y331306D01*
X1089426Y331304D01*
X1089565Y331297D01*
X1089585Y331301D01*
X1089605Y331301D01*
X1089740Y331334D01*
X1089876Y331362D01*
X1089894Y331371D01*
X1089914Y331375D01*
X1090037Y331440D01*
X1090162Y331502D01*
X1090177Y331515D01*
X1090195Y331524D01*
X1090298Y331617D01*
X1090404Y331708D01*
X1090416Y331724D01*
X1090430Y331738D01*
X1090507Y331854D01*
X1090587Y331968D01*
X1090594Y331987D01*
X1090605Y332004D01*
X1090650Y332136D01*
X1090700Y332265D01*
X1090702Y332285D01*
X1090708Y332304D01*
X1090719Y332443D01*
X1090735Y332582D01*
X1090732Y332601D01*
X1090734Y332621D01*
X1090710Y332759D01*
X1090703Y332805D01*
X1090703Y336977D01*
X1090716Y337018D01*
X1090717Y337039D01*
X1090722Y337058D01*
X1090724Y337198D01*
X1090731Y337336D01*
X1090727Y337356D01*
X1090727Y337376D01*
X1090695Y337511D01*
X1090667Y337648D01*
X1090658Y337666D01*
X1090653Y337685D01*
X1090588Y337808D01*
X1090527Y337933D01*
X1090514Y337949D01*
X1090505Y337966D01*
X1090411Y338069D01*
X1090321Y338175D01*
X1090304Y338187D01*
X1090291Y338202D01*
X1090175Y338278D01*
X1090061Y338358D01*
X1090042Y338366D01*
X1090025Y338377D01*
X1089894Y338422D01*
X1089763Y338471D01*
X1089743Y338473D01*
X1089724Y338480D01*
X1089586Y338491D01*
X1089447Y338506D01*
X1089427Y338504D01*
X1089407Y338505D01*
X1089270Y338481D01*
X1089132Y338462D01*
X1089106Y338453D01*
X1089094Y338451D01*
X1089075Y338442D01*
X1088980Y338410D01*
X1086308Y337303D01*
X1082292Y337303D01*
X1078581Y338840D01*
X1075740Y341681D01*
X1075485Y342298D01*
X1075470Y342323D01*
X1075461Y342351D01*
X1075392Y342461D01*
X1075327Y342574D01*
X1075307Y342595D01*
X1075291Y342620D01*
X1075196Y342709D01*
X1075106Y342802D01*
X1075081Y342818D01*
X1075059Y342838D01*
X1074945Y342901D01*
X1074835Y342969D01*
X1074807Y342977D01*
X1074781Y342992D01*
X1074655Y343024D01*
X1074531Y343062D01*
X1074501Y343064D01*
X1074473Y343071D01*
X1074312Y343081D01*
X946211Y343081D01*
X924211Y365081D01*
X924211Y401918D01*
X924208Y401948D01*
X924210Y401977D01*
X924188Y402105D01*
X924171Y402234D01*
X924161Y402261D01*
X924156Y402291D01*
X924102Y402409D01*
X924054Y402530D01*
X924037Y402554D01*
X924025Y402580D01*
X923944Y402682D01*
X923868Y402787D01*
X923845Y402806D01*
X923826Y402829D01*
X923723Y402907D01*
X923623Y402990D01*
X923596Y403002D01*
X923572Y403020D01*
X923428Y403091D01*
X922744Y403374D01*
X919886Y406232D01*
X918339Y409967D01*
X918339Y428233D01*
X919886Y431968D01*
X922744Y434826D01*
X926479Y436373D01*
X930521Y436373D01*
X934256Y434826D01*
X937114Y431968D01*
X938661Y428233D01*
X938661Y409967D01*
X937114Y406232D01*
X934256Y403374D01*
X933632Y403116D01*
X933607Y403101D01*
X933579Y403092D01*
X933469Y403023D01*
X933356Y402958D01*
X933335Y402938D01*
X933310Y402922D01*
X933221Y402828D01*
X933128Y402737D01*
X933112Y402712D01*
X933092Y402690D01*
X933029Y402577D01*
X932961Y402466D01*
X932953Y402438D01*
X932938Y402412D01*
X932906Y402286D01*
X932868Y402162D01*
X932866Y402133D01*
X932859Y402104D01*
X932849Y401943D01*
X932849Y369185D01*
X932861Y369086D01*
X932864Y368987D01*
X932881Y368929D01*
X932889Y368869D01*
X932925Y368777D01*
X932953Y368682D01*
X932983Y368630D01*
X933006Y368573D01*
X933064Y368493D01*
X933114Y368408D01*
X933180Y368333D01*
X933192Y368316D01*
X933202Y368308D01*
X933220Y368287D01*
X949417Y352090D01*
X949495Y352030D01*
X949568Y351962D01*
X949621Y351933D01*
X949668Y351896D01*
X949759Y351856D01*
X949846Y351808D01*
X949905Y351793D01*
X949960Y351769D01*
X950058Y351754D01*
X950154Y351729D01*
X950254Y351723D01*
X950274Y351719D01*
X950287Y351721D01*
X950315Y351719D01*
X1074312Y351719D01*
X1074341Y351722D01*
X1074371Y351720D01*
X1074499Y351742D01*
X1074628Y351759D01*
X1074655Y351769D01*
X1074684Y351774D01*
X1074803Y351828D01*
X1074923Y351876D01*
X1074947Y351893D01*
X1074974Y351905D01*
X1075076Y351986D01*
X1075181Y352062D01*
X1075200Y352085D01*
X1075223Y352104D01*
X1075301Y352207D01*
X1075384Y352307D01*
X1075396Y352334D01*
X1075414Y352358D01*
X1075485Y352502D01*
X1075740Y353119D01*
X1076036Y353414D01*
X1076121Y353524D01*
X1076209Y353631D01*
X1076218Y353650D01*
X1076231Y353666D01*
X1076286Y353794D01*
X1076345Y353919D01*
X1076349Y353939D01*
X1076357Y353958D01*
X1076379Y354096D01*
X1076405Y354232D01*
X1076404Y354252D01*
X1076407Y354272D01*
X1076394Y354411D01*
X1076385Y354549D01*
X1076379Y354568D01*
X1076377Y354588D01*
X1076330Y354719D01*
X1076287Y354851D01*
X1076276Y354869D01*
X1076269Y354888D01*
X1076192Y355002D01*
X1076117Y355120D01*
X1076102Y355134D01*
X1076091Y355151D01*
X1075987Y355243D01*
X1075885Y355338D01*
X1075868Y355348D01*
X1075852Y355361D01*
X1075728Y355425D01*
X1075607Y355492D01*
X1075587Y355497D01*
X1075569Y355506D01*
X1075433Y355536D01*
X1075299Y355571D01*
X1075271Y355573D01*
X1075259Y355576D01*
X1075238Y355575D01*
X1075138Y355581D01*
X970795Y355581D01*
X952353Y374024D01*
X949451Y376925D01*
X949451Y380617D01*
X949492Y380690D01*
X949507Y380749D01*
X949531Y380804D01*
X949546Y380902D01*
X949571Y380998D01*
X949577Y381098D01*
X949581Y381118D01*
X949579Y381131D01*
X949581Y381159D01*
X949581Y401931D01*
X949578Y401960D01*
X949580Y401990D01*
X949558Y402118D01*
X949541Y402246D01*
X949531Y402274D01*
X949526Y402303D01*
X949472Y402422D01*
X949424Y402542D01*
X949407Y402566D01*
X949395Y402593D01*
X949314Y402695D01*
X949238Y402799D01*
X949215Y402818D01*
X949196Y402841D01*
X949093Y402919D01*
X948993Y403002D01*
X948966Y403015D01*
X948942Y403033D01*
X948798Y403104D01*
X948144Y403374D01*
X945286Y406232D01*
X943739Y409967D01*
X943739Y428233D01*
X945286Y431968D01*
X948144Y434826D01*
X951879Y436373D01*
X955921Y436373D01*
X959656Y434826D01*
X962514Y431968D01*
X964061Y428233D01*
X964061Y409967D01*
X962514Y406232D01*
X959656Y403374D01*
X959002Y403104D01*
X958977Y403089D01*
X958949Y403080D01*
X958839Y403010D01*
X958726Y402946D01*
X958705Y402925D01*
X958680Y402910D01*
X958591Y402815D01*
X958498Y402725D01*
X958482Y402700D01*
X958462Y402678D01*
X958399Y402564D01*
X958331Y402454D01*
X958323Y402425D01*
X958308Y402400D01*
X958276Y402274D01*
X958238Y402150D01*
X958236Y402120D01*
X958229Y402092D01*
X958219Y401931D01*
X958219Y380899D01*
X958231Y380800D01*
X958234Y380701D01*
X958251Y380643D01*
X958259Y380583D01*
X958295Y380491D01*
X958323Y380396D01*
X958353Y380344D01*
X958376Y380287D01*
X958434Y380207D01*
X958484Y380122D01*
X958550Y380047D01*
X958562Y380030D01*
X958572Y380022D01*
X958590Y380001D01*
X974001Y364590D01*
X974079Y364530D01*
X974152Y364462D01*
X974205Y364433D01*
X974252Y364396D01*
X974343Y364356D01*
X974430Y364308D01*
X974489Y364293D01*
X974544Y364269D01*
X974642Y364254D01*
X974738Y364229D01*
X974838Y364223D01*
X974858Y364219D01*
X974871Y364221D01*
X974899Y364219D01*
X1075138Y364219D01*
X1075276Y364236D01*
X1075415Y364249D01*
X1075434Y364256D01*
X1075454Y364259D01*
X1075583Y364310D01*
X1075714Y364357D01*
X1075731Y364368D01*
X1075749Y364376D01*
X1075862Y364457D01*
X1075977Y364535D01*
X1075990Y364551D01*
X1076007Y364562D01*
X1076095Y364670D01*
X1076187Y364774D01*
X1076197Y364792D01*
X1076209Y364807D01*
X1076269Y364933D01*
X1076332Y365057D01*
X1076336Y365077D01*
X1076345Y365095D01*
X1076371Y365231D01*
X1076402Y365367D01*
X1076401Y365388D01*
X1076405Y365407D01*
X1076396Y365546D01*
X1076392Y365685D01*
X1076386Y365705D01*
X1076385Y365725D01*
X1076342Y365857D01*
X1076304Y365991D01*
X1076293Y366008D01*
X1076287Y366027D01*
X1076213Y366145D01*
X1076142Y366265D01*
X1076123Y366286D01*
X1076117Y366296D01*
X1076102Y366310D01*
X1076036Y366386D01*
X1075740Y366681D01*
X1075485Y367298D01*
X1075470Y367323D01*
X1075461Y367351D01*
X1075392Y367461D01*
X1075327Y367574D01*
X1075307Y367595D01*
X1075291Y367620D01*
X1075196Y367709D01*
X1075106Y367802D01*
X1075081Y367818D01*
X1075059Y367838D01*
X1074945Y367901D01*
X1074835Y367969D01*
X1074807Y367977D01*
X1074781Y367992D01*
X1074655Y368024D01*
X1074531Y368062D01*
X1074501Y368064D01*
X1074473Y368071D01*
X1074312Y368081D01*
X985811Y368081D01*
X974981Y378911D01*
X974981Y401931D01*
X974978Y401960D01*
X974980Y401990D01*
X974958Y402118D01*
X974941Y402246D01*
X974931Y402274D01*
X974926Y402303D01*
X974872Y402422D01*
X974824Y402542D01*
X974807Y402566D01*
X974795Y402593D01*
X974714Y402695D01*
X974638Y402799D01*
X974615Y402818D01*
X974596Y402841D01*
X974493Y402919D01*
X974393Y403002D01*
X974366Y403015D01*
X974342Y403033D01*
X974198Y403104D01*
X973544Y403374D01*
X970686Y406232D01*
X969139Y409967D01*
X969139Y428233D01*
X970686Y431968D01*
X973544Y434826D01*
X977279Y436373D01*
X981321Y436373D01*
X985056Y434826D01*
X987914Y431968D01*
X989461Y428233D01*
X989461Y409967D01*
X987914Y406232D01*
X985056Y403374D01*
X984402Y403104D01*
X984377Y403089D01*
X984349Y403080D01*
X984239Y403010D01*
X984126Y402946D01*
X984105Y402925D01*
X984080Y402910D01*
X983991Y402815D01*
X983898Y402725D01*
X983882Y402700D01*
X983862Y402678D01*
X983799Y402564D01*
X983731Y402454D01*
X983723Y402425D01*
X983708Y402400D01*
X983676Y402274D01*
X983638Y402150D01*
X983636Y402120D01*
X983629Y402092D01*
X983619Y401931D01*
X983619Y383015D01*
X983631Y382916D01*
X983634Y382817D01*
X983651Y382759D01*
X983659Y382699D01*
X983695Y382607D01*
X983723Y382512D01*
X983753Y382460D01*
X983776Y382403D01*
X983834Y382323D01*
X983884Y382238D01*
X983950Y382163D01*
X983962Y382146D01*
X983972Y382138D01*
X983990Y382117D01*
X989017Y377090D01*
X989095Y377030D01*
X989168Y376962D01*
X989221Y376933D01*
X989268Y376896D01*
X989359Y376856D01*
X989446Y376808D01*
X989505Y376793D01*
X989560Y376769D01*
X989658Y376754D01*
X989754Y376729D01*
X989854Y376723D01*
X989874Y376719D01*
X989887Y376721D01*
X989915Y376719D01*
X1074312Y376719D01*
X1074341Y376722D01*
X1074371Y376720D01*
X1074499Y376742D01*
X1074628Y376759D01*
X1074655Y376769D01*
X1074684Y376774D01*
X1074803Y376828D01*
X1074923Y376876D01*
X1074947Y376893D01*
X1074974Y376905D01*
X1075076Y376986D01*
X1075181Y377062D01*
X1075200Y377085D01*
X1075223Y377104D01*
X1075301Y377207D01*
X1075384Y377307D01*
X1075396Y377334D01*
X1075414Y377358D01*
X1075485Y377502D01*
X1075740Y378119D01*
X1078581Y380960D01*
X1082292Y382497D01*
X1086308Y382497D01*
X1088980Y381390D01*
X1089114Y381353D01*
X1089247Y381312D01*
X1089267Y381311D01*
X1089287Y381306D01*
X1089426Y381304D01*
X1089565Y381297D01*
X1089585Y381301D01*
X1089605Y381301D01*
X1089740Y381334D01*
X1089876Y381362D01*
X1089894Y381371D01*
X1089914Y381375D01*
X1090037Y381440D01*
X1090162Y381502D01*
X1090177Y381515D01*
X1090195Y381524D01*
X1090298Y381617D01*
X1090404Y381708D01*
X1090416Y381724D01*
X1090430Y381738D01*
X1090507Y381854D01*
X1090587Y381968D01*
X1090594Y381987D01*
X1090605Y382004D01*
X1090650Y382136D01*
X1090700Y382265D01*
X1090702Y382285D01*
X1090708Y382304D01*
X1090719Y382443D01*
X1090735Y382582D01*
X1090732Y382601D01*
X1090734Y382621D01*
X1090710Y382759D01*
X1090703Y382805D01*
X1090703Y386908D01*
X1092240Y390619D01*
X1095081Y393460D01*
X1095698Y393715D01*
X1095723Y393730D01*
X1095751Y393739D01*
X1095861Y393808D01*
X1095974Y393873D01*
X1095995Y393893D01*
X1096020Y393909D01*
X1096109Y394004D01*
X1096202Y394094D01*
X1096218Y394119D01*
X1096238Y394141D01*
X1096301Y394255D01*
X1096369Y394365D01*
X1096377Y394393D01*
X1096392Y394419D01*
X1096424Y394545D01*
X1096462Y394669D01*
X1096464Y394699D01*
X1096471Y394727D01*
X1096481Y394888D01*
X1096481Y437280D01*
X1096479Y437301D01*
X1096481Y437321D01*
X1096459Y437458D01*
X1096441Y437595D01*
X1096434Y437615D01*
X1096431Y437635D01*
X1096375Y437763D01*
X1096324Y437891D01*
X1096312Y437908D01*
X1096304Y437927D01*
X1096213Y438060D01*
X1087539Y449192D01*
X1087526Y449205D01*
X1087517Y449220D01*
X1087414Y449317D01*
X1087314Y449417D01*
X1087298Y449426D01*
X1087285Y449438D01*
X1087161Y449506D01*
X1087040Y449578D01*
X1087022Y449583D01*
X1087007Y449592D01*
X1086870Y449627D01*
X1086734Y449666D01*
X1086716Y449667D01*
X1086699Y449671D01*
X1086538Y449681D01*
X773491Y449681D01*
X773353Y449664D01*
X773214Y449651D01*
X773195Y449644D01*
X773175Y449641D01*
X773046Y449590D01*
X772915Y449543D01*
X772898Y449532D01*
X772879Y449524D01*
X772767Y449443D01*
X772652Y449365D01*
X772638Y449349D01*
X772622Y449338D01*
X772533Y449230D01*
X772441Y449126D01*
X772432Y449108D01*
X772419Y449093D01*
X772360Y448967D01*
X772297Y448843D01*
X772292Y448823D01*
X772284Y448805D01*
X772258Y448669D01*
X772227Y448533D01*
X772228Y448512D01*
X772224Y448493D01*
X772233Y448354D01*
X772237Y448215D01*
X772242Y448195D01*
X772244Y448175D01*
X772286Y448043D01*
X772325Y447909D01*
X772335Y447892D01*
X772342Y447873D01*
X772416Y447755D01*
X772487Y447635D01*
X772505Y447614D01*
X772512Y447604D01*
X772527Y447590D01*
X772593Y447515D01*
X774690Y445417D01*
X780419Y439689D01*
X780419Y436269D01*
X780422Y436240D01*
X780420Y436210D01*
X780442Y436082D01*
X780459Y435954D01*
X780469Y435926D01*
X780474Y435897D01*
X780528Y435778D01*
X780576Y435658D01*
X780593Y435634D01*
X780605Y435607D01*
X780686Y435505D01*
X780762Y435401D01*
X780785Y435382D01*
X780804Y435359D01*
X780907Y435281D01*
X781007Y435198D01*
X781034Y435185D01*
X781058Y435167D01*
X781202Y435096D01*
X781856Y434826D01*
X784714Y431968D01*
X786261Y428233D01*
X786261Y409967D01*
X784714Y406232D01*
X781856Y403374D01*
X778121Y401827D01*
X774079Y401827D01*
X770344Y403374D01*
X767486Y406232D01*
X765939Y409967D01*
X765939Y428233D01*
X767486Y431968D01*
X770344Y434826D01*
X770514Y434896D01*
X770557Y434921D01*
X770604Y434938D01*
X770695Y434999D01*
X770790Y435054D01*
X770826Y435088D01*
X770867Y435116D01*
X770940Y435199D01*
X771019Y435275D01*
X771045Y435317D01*
X771078Y435355D01*
X771128Y435452D01*
X771185Y435546D01*
X771200Y435594D01*
X771222Y435638D01*
X771246Y435745D01*
X771279Y435850D01*
X771281Y435900D01*
X771292Y435948D01*
X771289Y436058D01*
X771294Y436168D01*
X771284Y436216D01*
X771282Y436266D01*
X771252Y436372D01*
X771230Y436479D01*
X771208Y436524D01*
X771194Y436572D01*
X771138Y436666D01*
X771090Y436765D01*
X771058Y436803D01*
X771032Y436846D01*
X770926Y436966D01*
X768583Y439310D01*
X768505Y439370D01*
X768432Y439438D01*
X768379Y439467D01*
X768332Y439504D01*
X768241Y439544D01*
X768154Y439592D01*
X768095Y439607D01*
X768040Y439631D01*
X767942Y439646D01*
X767846Y439671D01*
X767746Y439677D01*
X767726Y439681D01*
X767713Y439679D01*
X767685Y439681D01*
X667615Y439681D01*
X667516Y439669D01*
X667417Y439666D01*
X667359Y439649D01*
X667299Y439641D01*
X667207Y439605D01*
X667112Y439577D01*
X667060Y439547D01*
X667003Y439524D01*
X666923Y439466D01*
X666838Y439416D01*
X666763Y439350D01*
X666746Y439338D01*
X666740Y439330D01*
X666736Y439327D01*
X666732Y439322D01*
X666717Y439310D01*
X652390Y424983D01*
X652330Y424905D01*
X652262Y424832D01*
X652233Y424779D01*
X652196Y424732D01*
X652156Y424641D01*
X652108Y424554D01*
X652093Y424495D01*
X652069Y424440D01*
X652054Y424342D01*
X652029Y424246D01*
X652023Y424146D01*
X652019Y424126D01*
X652021Y424113D01*
X652019Y424085D01*
X652019Y418931D01*
X652022Y418902D01*
X652020Y418873D01*
X652042Y418745D01*
X652059Y418616D01*
X652069Y418588D01*
X652074Y418559D01*
X652128Y418441D01*
X652176Y418320D01*
X652193Y418296D01*
X652205Y418269D01*
X652286Y418168D01*
X652362Y418063D01*
X652385Y418044D01*
X652404Y418021D01*
X652507Y417943D01*
X652607Y417860D01*
X652634Y417847D01*
X652658Y417830D01*
X652802Y417759D01*
X654750Y416952D01*
X658252Y413450D01*
X660147Y408876D01*
X660147Y403924D01*
X658252Y399350D01*
X654750Y395848D01*
X650176Y393953D01*
X645224Y393953D01*
X640650Y395848D01*
X637148Y399350D01*
X635253Y403924D01*
X635253Y408876D01*
X637148Y413450D01*
X640650Y416952D01*
X642598Y417759D01*
X642623Y417773D01*
X642651Y417783D01*
X642761Y417852D01*
X642874Y417916D01*
X642895Y417937D01*
X642920Y417953D01*
X643009Y418047D01*
X643102Y418138D01*
X643118Y418163D01*
X643138Y418184D01*
X643201Y418298D01*
X643269Y418409D01*
X643277Y418437D01*
X643292Y418463D01*
X643324Y418588D01*
X643362Y418713D01*
X643364Y418742D01*
X643371Y418771D01*
X643381Y418931D01*
X643381Y428189D01*
X646283Y431090D01*
X660610Y445417D01*
X662707Y447515D01*
X662792Y447624D01*
X662881Y447731D01*
X662889Y447750D01*
X662902Y447766D01*
X662957Y447894D01*
X663016Y448019D01*
X663020Y448039D01*
X663028Y448058D01*
X663050Y448196D01*
X663076Y448332D01*
X663075Y448352D01*
X663078Y448372D01*
X663065Y448511D01*
X663056Y448649D01*
X663050Y448668D01*
X663048Y448688D01*
X663001Y448820D01*
X662958Y448951D01*
X662948Y448969D01*
X662941Y448988D01*
X662863Y449103D01*
X662788Y449220D01*
X662773Y449234D01*
X662762Y449251D01*
X662658Y449343D01*
X662557Y449438D01*
X662539Y449448D01*
X662524Y449461D01*
X662400Y449525D01*
X662278Y449592D01*
X662258Y449597D01*
X662240Y449606D01*
X662105Y449636D01*
X661970Y449671D01*
X661942Y449673D01*
X661930Y449676D01*
X661910Y449675D01*
X661809Y449681D01*
X639789Y449681D01*
X639658Y449665D01*
X639526Y449654D01*
X639501Y449645D01*
X639474Y449641D01*
X639351Y449593D01*
X639226Y449549D01*
X639203Y449534D01*
X639178Y449524D01*
X639071Y449447D01*
X638961Y449374D01*
X638934Y449347D01*
X638921Y449338D01*
X638907Y449321D01*
X638846Y449261D01*
X616644Y424583D01*
X616607Y424529D01*
X616562Y424481D01*
X616517Y424398D01*
X616463Y424321D01*
X616440Y424260D01*
X616408Y424202D01*
X616385Y424111D01*
X616352Y424023D01*
X616345Y423958D01*
X616329Y423894D01*
X616319Y423734D01*
X616319Y354311D01*
X604989Y342981D01*
X145646Y342981D01*
X145617Y342978D01*
X145588Y342980D01*
X145460Y342958D01*
X145331Y342941D01*
X145303Y342931D01*
X145274Y342926D01*
X145156Y342872D01*
X145035Y342824D01*
X145011Y342807D01*
X144984Y342795D01*
X144883Y342714D01*
X144778Y342638D01*
X144759Y342615D01*
X144736Y342596D01*
X144658Y342493D01*
X144575Y342393D01*
X144562Y342366D01*
X144545Y342342D01*
X144474Y342198D01*
X144260Y341681D01*
X143064Y340485D01*
X142979Y340376D01*
X142891Y340269D01*
X142882Y340250D01*
X142869Y340234D01*
X142814Y340107D01*
X142755Y339981D01*
X142751Y339961D01*
X142743Y339942D01*
X142721Y339804D01*
X142695Y339668D01*
X142696Y339648D01*
X142693Y339628D01*
X142706Y339489D01*
X142715Y339351D01*
X142721Y339332D01*
X142723Y339312D01*
X142770Y339180D01*
X142813Y339049D01*
X142824Y339031D01*
X142831Y339012D01*
X142909Y338897D01*
X142983Y338780D01*
X142998Y338766D01*
X143009Y338749D01*
X143114Y338657D01*
X143215Y338562D01*
X143232Y338552D01*
X143248Y338539D01*
X143372Y338475D01*
X143493Y338408D01*
X143513Y338403D01*
X143531Y338394D01*
X143667Y338364D01*
X143801Y338329D01*
X143829Y338327D01*
X143841Y338324D01*
X143862Y338325D01*
X143962Y338319D01*
X210589Y338319D01*
X323717Y225190D01*
X323795Y225130D01*
X323868Y225062D01*
X323921Y225033D01*
X323968Y224996D01*
X324059Y224956D01*
X324146Y224908D01*
X324205Y224893D01*
X324260Y224869D01*
X324358Y224854D01*
X324454Y224829D01*
X324554Y224823D01*
X324574Y224819D01*
X324587Y224821D01*
X324615Y224819D01*
X996083Y224819D01*
X996182Y224831D01*
G37*
%LPC*%
G36*
X603016Y561951D02*
X603016Y561951D01*
X589524Y565566D01*
X577427Y572550D01*
X567550Y582427D01*
X560566Y594524D01*
X556951Y608016D01*
X556951Y621984D01*
X560566Y635476D01*
X567550Y647573D01*
X577427Y657450D01*
X589524Y664434D01*
X603016Y668049D01*
X616984Y668049D01*
X630476Y664434D01*
X642573Y657450D01*
X652450Y647573D01*
X659434Y635476D01*
X663049Y621984D01*
X663049Y608016D01*
X659434Y594524D01*
X652450Y582427D01*
X642573Y572550D01*
X630476Y565566D01*
X616984Y561951D01*
X603016Y561951D01*
G37*
%LPD*%
%LPC*%
G36*
X596129Y268377D02*
X596129Y268377D01*
X586613Y274595D01*
X579631Y283565D01*
X575940Y294316D01*
X575940Y305684D01*
X579631Y316435D01*
X586613Y325405D01*
X596129Y331623D01*
X601937Y333094D01*
X606949Y334363D01*
X607148Y334413D01*
X618477Y333475D01*
X628887Y328908D01*
X637250Y321210D01*
X642660Y311212D01*
X644531Y300000D01*
X642660Y288788D01*
X637250Y278790D01*
X628887Y271092D01*
X618477Y266525D01*
X607148Y265587D01*
X596129Y268377D01*
G37*
%LPD*%
%LPC*%
G36*
X799479Y401827D02*
X799479Y401827D01*
X795744Y403374D01*
X792886Y406232D01*
X791339Y409967D01*
X791339Y428233D01*
X792886Y431968D01*
X795744Y434826D01*
X799479Y436373D01*
X803521Y436373D01*
X807256Y434826D01*
X810114Y431968D01*
X811661Y428233D01*
X811661Y409967D01*
X810114Y406232D01*
X807256Y403374D01*
X803521Y401827D01*
X799479Y401827D01*
G37*
%LPD*%
%LPC*%
G36*
X697879Y478027D02*
X697879Y478027D01*
X694144Y479574D01*
X691286Y482432D01*
X689739Y486167D01*
X689739Y504433D01*
X691286Y508168D01*
X694144Y511026D01*
X697879Y512573D01*
X701921Y512573D01*
X705656Y511026D01*
X708514Y508168D01*
X710061Y504433D01*
X710061Y486167D01*
X708514Y482432D01*
X705656Y479574D01*
X701921Y478027D01*
X697879Y478027D01*
G37*
%LPD*%
%LPC*%
G36*
X723279Y478027D02*
X723279Y478027D01*
X719544Y479574D01*
X716686Y482432D01*
X715139Y486167D01*
X715139Y504433D01*
X716686Y508168D01*
X719544Y511026D01*
X723279Y512573D01*
X727321Y512573D01*
X731056Y511026D01*
X733914Y508168D01*
X735461Y504433D01*
X735461Y486167D01*
X733914Y482432D01*
X731056Y479574D01*
X727321Y478027D01*
X723279Y478027D01*
G37*
%LPD*%
%LPC*%
G36*
X1028079Y401827D02*
X1028079Y401827D01*
X1024344Y403374D01*
X1021486Y406232D01*
X1019939Y409967D01*
X1019939Y428233D01*
X1021486Y431968D01*
X1024344Y434826D01*
X1028079Y436373D01*
X1032121Y436373D01*
X1035856Y434826D01*
X1038714Y431968D01*
X1040261Y428233D01*
X1040261Y409967D01*
X1038714Y406232D01*
X1035856Y403374D01*
X1032121Y401827D01*
X1028079Y401827D01*
G37*
%LPD*%
%LPC*%
G36*
X850279Y478027D02*
X850279Y478027D01*
X846544Y479574D01*
X843686Y482432D01*
X842139Y486167D01*
X842139Y504433D01*
X843686Y508168D01*
X846544Y511026D01*
X850279Y512573D01*
X854321Y512573D01*
X858056Y511026D01*
X860914Y508168D01*
X862461Y504433D01*
X862461Y486167D01*
X860914Y482432D01*
X858056Y479574D01*
X854321Y478027D01*
X850279Y478027D01*
G37*
%LPD*%
%LPC*%
G36*
X824879Y401827D02*
X824879Y401827D01*
X821144Y403374D01*
X818286Y406232D01*
X816739Y409967D01*
X816739Y428233D01*
X818286Y431968D01*
X821144Y434826D01*
X824879Y436373D01*
X828921Y436373D01*
X832656Y434826D01*
X835514Y431968D01*
X837061Y428233D01*
X837061Y409967D01*
X835514Y406232D01*
X832656Y403374D01*
X828921Y401827D01*
X824879Y401827D01*
G37*
%LPD*%
%LPC*%
G36*
X1002679Y401827D02*
X1002679Y401827D01*
X998944Y403374D01*
X996086Y406232D01*
X994539Y409967D01*
X994539Y428233D01*
X996086Y431968D01*
X998944Y434826D01*
X1002679Y436373D01*
X1006721Y436373D01*
X1010456Y434826D01*
X1013314Y431968D01*
X1014861Y428233D01*
X1014861Y409967D01*
X1013314Y406232D01*
X1010456Y403374D01*
X1006721Y401827D01*
X1002679Y401827D01*
G37*
%LPD*%
%LPC*%
G36*
X76924Y582853D02*
X76924Y582853D01*
X72350Y584748D01*
X68848Y588250D01*
X66953Y592824D01*
X66953Y597776D01*
X68848Y602350D01*
X72350Y605852D01*
X76924Y607747D01*
X81876Y607747D01*
X86450Y605852D01*
X89952Y602350D01*
X91847Y597776D01*
X91847Y592824D01*
X89952Y588250D01*
X86450Y584748D01*
X81876Y582853D01*
X76924Y582853D01*
G37*
%LPD*%
%LPC*%
G36*
X416924Y117553D02*
X416924Y117553D01*
X412350Y119448D01*
X408848Y122950D01*
X406953Y127524D01*
X406953Y132476D01*
X408848Y137050D01*
X412350Y140552D01*
X416924Y142447D01*
X421876Y142447D01*
X426450Y140552D01*
X429952Y137050D01*
X431847Y132476D01*
X431847Y127524D01*
X429952Y122950D01*
X426450Y119448D01*
X421876Y117553D01*
X416924Y117553D01*
G37*
%LPD*%
%LPC*%
G36*
X757765Y36269D02*
X757765Y36269D01*
X751069Y42965D01*
X751069Y52435D01*
X757765Y59131D01*
X767235Y59131D01*
X773931Y52435D01*
X773931Y42965D01*
X767235Y36269D01*
X757765Y36269D01*
G37*
%LPD*%
%LPC*%
G36*
X452765Y36269D02*
X452765Y36269D01*
X446069Y42965D01*
X446069Y52435D01*
X452765Y59131D01*
X462235Y59131D01*
X468931Y52435D01*
X468931Y42965D01*
X462235Y36269D01*
X452765Y36269D01*
G37*
%LPD*%
%LPC*%
G36*
X554765Y36269D02*
X554765Y36269D01*
X548069Y42965D01*
X548069Y52435D01*
X554765Y59131D01*
X564235Y59131D01*
X570931Y52435D01*
X570931Y42965D01*
X564235Y36269D01*
X554765Y36269D01*
G37*
%LPD*%
%LPC*%
G36*
X655765Y36269D02*
X655765Y36269D01*
X649069Y42965D01*
X649069Y52435D01*
X655765Y59131D01*
X665235Y59131D01*
X671931Y52435D01*
X671931Y42965D01*
X665235Y36269D01*
X655765Y36269D01*
G37*
%LPD*%
%LPC*%
G36*
X525081Y385571D02*
X525081Y385571D01*
X520973Y387273D01*
X517829Y390417D01*
X516127Y394525D01*
X516127Y398971D01*
X517829Y403079D01*
X520973Y406223D01*
X525081Y407925D01*
X529527Y407925D01*
X533635Y406223D01*
X536779Y403079D01*
X538481Y398971D01*
X538481Y394525D01*
X536779Y390417D01*
X533635Y387273D01*
X529527Y385571D01*
X525081Y385571D01*
G37*
%LPD*%
%LPC*%
G36*
X701931Y421131D02*
X701931Y421131D01*
X701931Y435663D01*
X702160Y435627D01*
X703605Y435158D01*
X704959Y434468D01*
X706188Y433575D01*
X707263Y432500D01*
X708156Y431271D01*
X708846Y429917D01*
X709315Y428472D01*
X709553Y426972D01*
X709553Y421131D01*
X701931Y421131D01*
G37*
%LPD*%
%LPC*%
G36*
X727331Y421131D02*
X727331Y421131D01*
X727331Y435663D01*
X727560Y435627D01*
X729005Y435158D01*
X730359Y434468D01*
X731588Y433575D01*
X732663Y432500D01*
X733556Y431271D01*
X734246Y429917D01*
X734715Y428472D01*
X734953Y426972D01*
X734953Y421131D01*
X727331Y421131D01*
G37*
%LPD*%
%LPC*%
G36*
X752731Y421131D02*
X752731Y421131D01*
X752731Y435663D01*
X752960Y435627D01*
X754405Y435158D01*
X755759Y434468D01*
X756988Y433575D01*
X758063Y432500D01*
X758956Y431271D01*
X759646Y429917D01*
X760115Y428472D01*
X760353Y426972D01*
X760353Y421131D01*
X752731Y421131D01*
G37*
%LPD*%
%LPC*%
G36*
X803531Y497331D02*
X803531Y497331D01*
X803531Y511863D01*
X803760Y511827D01*
X805205Y511358D01*
X806559Y510668D01*
X807788Y509775D01*
X808863Y508700D01*
X809756Y507471D01*
X810446Y506117D01*
X810915Y504672D01*
X811153Y503172D01*
X811153Y497331D01*
X803531Y497331D01*
G37*
%LPD*%
%LPC*%
G36*
X727331Y417069D02*
X727331Y417069D01*
X734953Y417069D01*
X734953Y411228D01*
X734715Y409728D01*
X734246Y408283D01*
X733556Y406929D01*
X732663Y405700D01*
X731588Y404625D01*
X730359Y403732D01*
X729005Y403042D01*
X727560Y402573D01*
X727331Y402537D01*
X727331Y417069D01*
G37*
%LPD*%
%LPC*%
G36*
X752731Y417069D02*
X752731Y417069D01*
X760353Y417069D01*
X760353Y411228D01*
X760115Y409728D01*
X759646Y408283D01*
X758956Y406929D01*
X758063Y405700D01*
X756988Y404625D01*
X755759Y403732D01*
X754405Y403042D01*
X752960Y402573D01*
X752731Y402537D01*
X752731Y417069D01*
G37*
%LPD*%
%LPC*%
G36*
X701931Y417069D02*
X701931Y417069D01*
X709553Y417069D01*
X709553Y411228D01*
X709315Y409728D01*
X708846Y408283D01*
X708156Y406929D01*
X707263Y405700D01*
X706188Y404625D01*
X704959Y403732D01*
X703605Y403042D01*
X702160Y402573D01*
X701931Y402537D01*
X701931Y417069D01*
G37*
%LPD*%
%LPC*%
G36*
X791847Y497331D02*
X791847Y497331D01*
X791847Y503172D01*
X792085Y504672D01*
X792554Y506117D01*
X793244Y507471D01*
X794137Y508700D01*
X795212Y509775D01*
X796441Y510668D01*
X797795Y511358D01*
X799240Y511827D01*
X799469Y511863D01*
X799469Y497331D01*
X791847Y497331D01*
G37*
%LPD*%
%LPC*%
G36*
X741047Y421131D02*
X741047Y421131D01*
X741047Y426972D01*
X741285Y428472D01*
X741754Y429917D01*
X742444Y431271D01*
X743337Y432500D01*
X744412Y433575D01*
X745641Y434468D01*
X746995Y435158D01*
X748440Y435627D01*
X748669Y435663D01*
X748669Y421131D01*
X741047Y421131D01*
G37*
%LPD*%
%LPC*%
G36*
X690247Y421131D02*
X690247Y421131D01*
X690247Y426972D01*
X690485Y428472D01*
X690954Y429917D01*
X691644Y431271D01*
X692537Y432500D01*
X693612Y433575D01*
X694841Y434468D01*
X696195Y435158D01*
X697640Y435627D01*
X697869Y435663D01*
X697869Y421131D01*
X690247Y421131D01*
G37*
%LPD*%
%LPC*%
G36*
X715647Y421131D02*
X715647Y421131D01*
X715647Y426972D01*
X715885Y428472D01*
X716354Y429917D01*
X717044Y431271D01*
X717937Y432500D01*
X719012Y433575D01*
X720241Y434468D01*
X721595Y435158D01*
X723040Y435627D01*
X723269Y435663D01*
X723269Y421131D01*
X715647Y421131D01*
G37*
%LPD*%
%LPC*%
G36*
X748440Y402573D02*
X748440Y402573D01*
X746995Y403042D01*
X745641Y403732D01*
X744412Y404625D01*
X743337Y405700D01*
X742444Y406929D01*
X741754Y408283D01*
X741285Y409728D01*
X741047Y411228D01*
X741047Y417069D01*
X748669Y417069D01*
X748669Y402537D01*
X748440Y402573D01*
G37*
%LPD*%
%LPC*%
G36*
X723040Y402573D02*
X723040Y402573D01*
X721595Y403042D01*
X720241Y403732D01*
X719012Y404625D01*
X717937Y405700D01*
X717044Y406929D01*
X716354Y408283D01*
X715885Y409728D01*
X715647Y411228D01*
X715647Y417069D01*
X723269Y417069D01*
X723269Y402537D01*
X723040Y402573D01*
G37*
%LPD*%
%LPC*%
G36*
X697640Y402573D02*
X697640Y402573D01*
X696195Y403042D01*
X694841Y403732D01*
X693612Y404625D01*
X692537Y405700D01*
X691644Y406929D01*
X690954Y408283D01*
X690485Y409728D01*
X690247Y411228D01*
X690247Y417069D01*
X697869Y417069D01*
X697869Y402537D01*
X697640Y402573D01*
G37*
%LPD*%
%LPC*%
G36*
X799240Y478773D02*
X799240Y478773D01*
X797795Y479242D01*
X796441Y479932D01*
X795212Y480825D01*
X794137Y481900D01*
X793244Y483129D01*
X792554Y484483D01*
X792085Y485928D01*
X791847Y487428D01*
X791847Y493269D01*
X799469Y493269D01*
X799469Y478737D01*
X799240Y478773D01*
G37*
%LPD*%
%LPC*%
G36*
X786373Y593089D02*
X786373Y593089D01*
X786442Y593524D01*
X787060Y595425D01*
X787967Y597207D01*
X789142Y598824D01*
X790556Y600238D01*
X792173Y601413D01*
X793955Y602320D01*
X795856Y602938D01*
X796291Y603007D01*
X796291Y593089D01*
X786373Y593089D01*
G37*
%LPD*%
%LPC*%
G36*
X786373Y712469D02*
X786373Y712469D01*
X786442Y712904D01*
X787060Y714805D01*
X787967Y716587D01*
X789142Y718204D01*
X790556Y719618D01*
X792173Y720793D01*
X793955Y721700D01*
X795856Y722318D01*
X796291Y722387D01*
X796291Y712469D01*
X786373Y712469D01*
G37*
%LPD*%
%LPC*%
G36*
X795856Y697542D02*
X795856Y697542D01*
X793955Y698160D01*
X792173Y699067D01*
X790556Y700242D01*
X789142Y701656D01*
X787967Y703273D01*
X787060Y705055D01*
X786442Y706956D01*
X786373Y707391D01*
X796291Y707391D01*
X796291Y697473D01*
X795856Y697542D01*
G37*
%LPD*%
%LPC*%
G36*
X795856Y578162D02*
X795856Y578162D01*
X793955Y578780D01*
X792173Y579687D01*
X790556Y580862D01*
X789142Y582276D01*
X787967Y583893D01*
X787060Y585675D01*
X786442Y587576D01*
X786373Y588011D01*
X796291Y588011D01*
X796291Y578093D01*
X795856Y578162D01*
G37*
%LPD*%
%LPC*%
G36*
X81649Y521349D02*
X81649Y521349D01*
X81649Y530831D01*
X82196Y530745D01*
X83983Y530164D01*
X85657Y529311D01*
X87178Y528206D01*
X88506Y526878D01*
X89611Y525357D01*
X90464Y523683D01*
X91045Y521896D01*
X91131Y521349D01*
X81649Y521349D01*
G37*
%LPD*%
%LPC*%
G36*
X67669Y521349D02*
X67669Y521349D01*
X67755Y521896D01*
X68336Y523683D01*
X69189Y525357D01*
X70294Y526878D01*
X71622Y528206D01*
X73143Y529311D01*
X74817Y530164D01*
X76604Y530745D01*
X77151Y530831D01*
X77151Y521349D01*
X67669Y521349D01*
G37*
%LPD*%
%LPC*%
G36*
X662531Y24331D02*
X662531Y24331D01*
X662531Y33223D01*
X665024Y33223D01*
X671423Y26824D01*
X671423Y24331D01*
X662531Y24331D01*
G37*
%LPD*%
%LPC*%
G36*
X561531Y24331D02*
X561531Y24331D01*
X561531Y33223D01*
X564024Y33223D01*
X570423Y26824D01*
X570423Y24331D01*
X561531Y24331D01*
G37*
%LPD*%
%LPC*%
G36*
X459531Y24331D02*
X459531Y24331D01*
X459531Y33223D01*
X462024Y33223D01*
X468423Y26824D01*
X468423Y24331D01*
X459531Y24331D01*
G37*
%LPD*%
%LPC*%
G36*
X764531Y24331D02*
X764531Y24331D01*
X764531Y33223D01*
X767024Y33223D01*
X773423Y26824D01*
X773423Y24331D01*
X764531Y24331D01*
G37*
%LPD*%
%LPC*%
G36*
X751577Y24331D02*
X751577Y24331D01*
X751577Y26824D01*
X757976Y33223D01*
X760469Y33223D01*
X760469Y24331D01*
X751577Y24331D01*
G37*
%LPD*%
%LPC*%
G36*
X446577Y24331D02*
X446577Y24331D01*
X446577Y26824D01*
X452976Y33223D01*
X455469Y33223D01*
X455469Y24331D01*
X446577Y24331D01*
G37*
%LPD*%
%LPC*%
G36*
X649577Y24331D02*
X649577Y24331D01*
X649577Y26824D01*
X655976Y33223D01*
X658469Y33223D01*
X658469Y24331D01*
X649577Y24331D01*
G37*
%LPD*%
%LPC*%
G36*
X548577Y24331D02*
X548577Y24331D01*
X548577Y26824D01*
X554976Y33223D01*
X557469Y33223D01*
X557469Y24331D01*
X548577Y24331D01*
G37*
%LPD*%
%LPC*%
G36*
X459531Y11377D02*
X459531Y11377D01*
X459531Y20269D01*
X468423Y20269D01*
X468423Y17776D01*
X462024Y11377D01*
X459531Y11377D01*
G37*
%LPD*%
%LPC*%
G36*
X764531Y11377D02*
X764531Y11377D01*
X764531Y20269D01*
X773423Y20269D01*
X773423Y17776D01*
X767024Y11377D01*
X764531Y11377D01*
G37*
%LPD*%
%LPC*%
G36*
X662531Y11377D02*
X662531Y11377D01*
X662531Y20269D01*
X671423Y20269D01*
X671423Y17776D01*
X665024Y11377D01*
X662531Y11377D01*
G37*
%LPD*%
%LPC*%
G36*
X561531Y11377D02*
X561531Y11377D01*
X561531Y20269D01*
X570423Y20269D01*
X570423Y17776D01*
X564024Y11377D01*
X561531Y11377D01*
G37*
%LPD*%
%LPC*%
G36*
X452976Y11377D02*
X452976Y11377D01*
X446577Y17776D01*
X446577Y20269D01*
X455469Y20269D01*
X455469Y11377D01*
X452976Y11377D01*
G37*
%LPD*%
%LPC*%
G36*
X554976Y11377D02*
X554976Y11377D01*
X548577Y17776D01*
X548577Y20269D01*
X557469Y20269D01*
X557469Y11377D01*
X554976Y11377D01*
G37*
%LPD*%
%LPC*%
G36*
X757976Y11377D02*
X757976Y11377D01*
X751577Y17776D01*
X751577Y20269D01*
X760469Y20269D01*
X760469Y11377D01*
X757976Y11377D01*
G37*
%LPD*%
%LPC*%
G36*
X655976Y11377D02*
X655976Y11377D01*
X649577Y17776D01*
X649577Y20269D01*
X658469Y20269D01*
X658469Y11377D01*
X655976Y11377D01*
G37*
%LPD*%
%LPC*%
G36*
X804335Y651989D02*
X804335Y651989D01*
X804335Y660893D01*
X805114Y660770D01*
X806730Y660245D01*
X808244Y659473D01*
X809619Y658475D01*
X810821Y657273D01*
X811819Y655898D01*
X812591Y654384D01*
X813116Y652768D01*
X813239Y651989D01*
X804335Y651989D01*
G37*
%LPD*%
%LPC*%
G36*
X791933Y651989D02*
X791933Y651989D01*
X792056Y652768D01*
X792581Y654384D01*
X793353Y655898D01*
X794351Y657273D01*
X795553Y658475D01*
X796928Y659473D01*
X798442Y660245D01*
X800058Y660770D01*
X800837Y660893D01*
X800837Y651989D01*
X791933Y651989D01*
G37*
%LPD*%
%LPC*%
G36*
X804335Y648491D02*
X804335Y648491D01*
X813239Y648491D01*
X813116Y647712D01*
X812591Y646096D01*
X811819Y644582D01*
X810821Y643207D01*
X809619Y642005D01*
X808244Y641007D01*
X806730Y640235D01*
X805114Y639710D01*
X804335Y639587D01*
X804335Y648491D01*
G37*
%LPD*%
%LPC*%
G36*
X800058Y639710D02*
X800058Y639710D01*
X798442Y640235D01*
X796928Y641007D01*
X795553Y642005D01*
X794351Y643207D01*
X793353Y644582D01*
X792581Y646096D01*
X792056Y647712D01*
X791933Y648491D01*
X800837Y648491D01*
X800837Y639587D01*
X800058Y639710D01*
G37*
%LPD*%
%LPC*%
G36*
X119039Y460939D02*
X119039Y460939D01*
X119039Y468793D01*
X120595Y468287D01*
X122092Y467525D01*
X123450Y466538D01*
X124638Y465350D01*
X125625Y463992D01*
X126387Y462495D01*
X126893Y460939D01*
X119039Y460939D01*
G37*
%LPD*%
%LPC*%
G36*
X106107Y460939D02*
X106107Y460939D01*
X106613Y462495D01*
X107375Y463992D01*
X108362Y465350D01*
X109550Y466538D01*
X110908Y467525D01*
X112405Y468287D01*
X113961Y468793D01*
X113961Y460939D01*
X106107Y460939D01*
G37*
%LPD*%
%LPC*%
G36*
X119039Y455861D02*
X119039Y455861D01*
X126893Y455861D01*
X126387Y454305D01*
X125625Y452808D01*
X124638Y451450D01*
X123450Y450262D01*
X122092Y449275D01*
X120595Y448513D01*
X119039Y448007D01*
X119039Y455861D01*
G37*
%LPD*%
%LPC*%
G36*
X112405Y448513D02*
X112405Y448513D01*
X110908Y449275D01*
X109550Y450262D01*
X108362Y451450D01*
X107375Y452808D01*
X106613Y454305D01*
X106107Y455861D01*
X113961Y455861D01*
X113961Y448007D01*
X112405Y448513D01*
G37*
%LPD*%
%LPC*%
G36*
X116499Y458399D02*
X116499Y458399D01*
X116499Y458401D01*
X116501Y458401D01*
X116501Y458399D01*
X116499Y458399D01*
G37*
%LPD*%
D10*
X180500Y506100D03*
X180500Y531500D03*
X180500Y556900D03*
X180500Y582300D03*
X180500Y607700D03*
X180500Y633100D03*
X180500Y658500D03*
X180500Y683900D03*
X180500Y709300D03*
X180500Y734700D03*
X180500Y760100D03*
X180500Y785500D03*
X383700Y506100D03*
X383700Y531500D03*
X383700Y556900D03*
X383700Y582300D03*
X383700Y607700D03*
X383700Y633100D03*
X383700Y658500D03*
X383700Y683900D03*
X383700Y709300D03*
X383700Y734700D03*
X383700Y760100D03*
X383700Y785500D03*
X383700Y480700D03*
X383700Y455300D03*
X383700Y429900D03*
X383700Y404500D03*
D11*
X119200Y815100D03*
X135700Y802600D03*
X119200Y790100D03*
X135700Y777600D03*
X119200Y765100D03*
X135700Y752600D03*
X119200Y740100D03*
X135700Y727600D03*
X119200Y715100D03*
X135700Y702600D03*
X119200Y690100D03*
X135700Y677600D03*
X119200Y665100D03*
X1100800Y815100D03*
X1084300Y802600D03*
X1100800Y790100D03*
X1084300Y777600D03*
X1100800Y765100D03*
X1084300Y752600D03*
X1100800Y740100D03*
X1084300Y727600D03*
X1100800Y715100D03*
X1084300Y702600D03*
X1100800Y690100D03*
X1084300Y677600D03*
X1100800Y665100D03*
X119200Y234900D03*
X135700Y247400D03*
X119200Y259900D03*
X135700Y272400D03*
X119200Y284900D03*
X135700Y297400D03*
X119200Y309900D03*
X135700Y322400D03*
X119200Y334900D03*
X135700Y347400D03*
X119200Y359900D03*
X135700Y372400D03*
X119200Y384900D03*
X1100800Y234900D03*
X1084300Y247400D03*
X1100800Y259900D03*
X1084300Y272400D03*
X1100800Y284900D03*
X1084300Y297400D03*
X1100800Y309900D03*
X1084300Y322400D03*
X1100800Y334900D03*
X1084300Y347400D03*
X1100800Y359900D03*
X1084300Y372400D03*
X1100800Y384900D03*
X984900Y79200D03*
X997400Y95700D03*
X1009900Y79200D03*
X1022400Y95700D03*
X1034900Y79200D03*
X1047400Y95700D03*
X1059900Y79200D03*
X1072400Y95700D03*
X1084900Y79200D03*
X1097400Y95700D03*
X1109900Y79200D03*
X1122400Y95700D03*
X1134900Y79200D03*
X235100Y79200D03*
X222600Y95700D03*
X210100Y79200D03*
X197600Y95700D03*
X185100Y79200D03*
X172600Y95700D03*
X160100Y79200D03*
X147600Y95700D03*
X135100Y79200D03*
X122600Y95700D03*
X110100Y79200D03*
X97600Y95700D03*
X85100Y79200D03*
D12*
X571500Y406400D03*
X647700Y406400D03*
X119500Y519100D03*
X119500Y595300D03*
X79400Y595300D03*
X79400Y519100D03*
D13*
X116500Y458400D03*
X91100Y458400D03*
X527304Y396748D03*
X527304Y371348D03*
D14*
X798830Y590550D03*
X826770Y590550D03*
D15*
X827586Y650240D03*
D16*
X802586Y650240D03*
D17*
X762500Y47700D03*
X762500Y22300D03*
X660500Y47700D03*
X660500Y22300D03*
X559500Y47700D03*
X559500Y22300D03*
X457500Y47700D03*
X457500Y22300D03*
D12*
X724400Y130000D03*
X800600Y130000D03*
X622400Y130000D03*
X698600Y130000D03*
X521400Y130000D03*
X597600Y130000D03*
X419400Y130000D03*
X495600Y130000D03*
D14*
X798830Y709930D03*
X826770Y709930D03*
D18*
X1030100Y502412D02*
X1030100Y488188D01*
X1004700Y488188D02*
X1004700Y502412D01*
X979300Y502412D02*
X979300Y488188D01*
X953900Y488188D02*
X953900Y502412D01*
X928500Y502412D02*
X928500Y488188D01*
X903100Y488188D02*
X903100Y502412D01*
X877700Y502412D02*
X877700Y488188D01*
X852300Y488188D02*
X852300Y502412D01*
X826900Y502412D02*
X826900Y488188D01*
X801500Y488188D02*
X801500Y502412D01*
X776100Y502412D02*
X776100Y488188D01*
X750700Y488188D02*
X750700Y502412D01*
X725300Y502412D02*
X725300Y488188D01*
X699900Y488188D02*
X699900Y502412D01*
X699900Y426212D02*
X699900Y411988D01*
X725300Y411988D02*
X725300Y426212D01*
X750700Y426212D02*
X750700Y411988D01*
X776100Y411988D02*
X776100Y426212D01*
X801500Y426212D02*
X801500Y411988D01*
X826900Y411988D02*
X826900Y426212D01*
X852300Y426212D02*
X852300Y411988D01*
X877700Y411988D02*
X877700Y426212D01*
X903100Y426212D02*
X903100Y411988D01*
X928500Y411988D02*
X928500Y426212D01*
X953900Y426212D02*
X953900Y411988D01*
X979300Y411988D02*
X979300Y426212D01*
X1004700Y426212D02*
X1004700Y411988D01*
X1030100Y411988D02*
X1030100Y426212D01*
D19*
X826770Y649203D02*
X827586Y650240D01*
X826770Y649203D02*
X826770Y590550D01*
D20*
X826770Y649203D02*
X826770Y709930D01*
D19*
X796587Y464000D02*
X607892Y464000D01*
X571200Y428966D01*
X571200Y406700D01*
X571500Y406400D01*
X796587Y464000D02*
X826900Y495300D01*
X826900Y590420D01*
X826770Y590550D01*
X562348Y371348D02*
X527304Y371348D01*
X562348Y371348D02*
X571500Y380500D01*
X571500Y406400D01*
X776100Y544476D02*
X801624Y514858D01*
X776100Y544476D02*
X776100Y590789D01*
X798830Y590550D01*
X762500Y22300D02*
X660500Y22300D01*
X559500Y22300D01*
X457500Y22300D01*
X801500Y495300D02*
X801500Y514734D01*
X801624Y514858D01*
X798800Y709900D02*
X798830Y709930D01*
X798800Y709900D02*
X776100Y709900D01*
X776100Y650240D01*
X802586Y650240D01*
X776100Y650240D02*
X776100Y590789D01*
X750700Y419100D02*
X725300Y419100D01*
X699900Y419100D01*
X762500Y22300D02*
X887534Y22300D01*
X900106Y9728D01*
X1166928Y9728D01*
X1212150Y54950D01*
X1212150Y832150D01*
X1192728Y852000D02*
X71772Y852000D01*
X31800Y811600D01*
X31800Y551200D01*
X63900Y519100D02*
X79400Y519100D01*
X1192728Y852000D02*
X1212150Y832150D01*
X63900Y519100D02*
X31800Y551200D01*
X116500Y458400D02*
X145000Y458400D01*
X155900Y447500D02*
X155900Y358600D01*
X415100Y358600D01*
X415100Y468200D01*
X402600Y480700D01*
X383700Y480700D01*
X155900Y447500D02*
X145000Y458400D01*
X637300Y454000D02*
X1089268Y454000D01*
X1100800Y439200D02*
X1100800Y384900D01*
X1100800Y439200D02*
X1089268Y454000D01*
X637300Y454000D02*
X612000Y425877D01*
X612000Y356100D01*
X603200Y347300D01*
X135800Y347300D01*
X135700Y347400D01*
X1114400Y284900D02*
X1130000Y299570D01*
X1114400Y284900D02*
X1104900Y284900D01*
X1100800Y284900D01*
X1063560Y285662D02*
X998398Y220500D01*
X1063560Y285662D02*
X1104138Y285662D01*
X1104900Y284900D01*
X998398Y220500D02*
X322300Y220500D01*
X1084300Y727600D02*
X1117800Y727600D01*
X1130000Y715400D01*
X1130000Y299570D01*
X322300Y220500D02*
X208800Y334000D01*
X120100Y334000D02*
X119200Y334900D01*
X120100Y334000D02*
X208800Y334000D01*
X1126200Y259900D02*
X1145000Y276700D01*
X1145000Y720900D01*
X1126200Y259900D02*
X1100800Y259900D01*
X1059500Y259900D01*
X1006200Y206600D01*
X136000Y322100D02*
X135700Y322400D01*
X136000Y322100D02*
X194700Y322100D01*
X310200Y206600D02*
X1006200Y206600D01*
X1145000Y720900D02*
X1100800Y765100D01*
X310200Y206600D02*
X194700Y322100D01*
X1066700Y247400D02*
X1084300Y247400D01*
X1066700Y247400D02*
X1010000Y190700D01*
X298718Y190700D02*
X180046Y309372D01*
X119728Y309372D02*
X119200Y309900D01*
X298718Y190700D02*
X1010000Y190700D01*
X180046Y309372D02*
X119728Y309372D01*
X168500Y582300D02*
X180500Y582300D01*
X168500Y582300D02*
X143200Y557000D01*
X143200Y521500D01*
X115000Y493300D01*
X62000Y493300D01*
X44800Y476100D01*
X44800Y310100D01*
X45528Y309372D01*
X119728Y309372D01*
X184150Y177800D02*
X1015700Y177800D01*
X146700Y272400D02*
X135700Y272400D01*
X1072800Y234900D02*
X1100800Y234900D01*
X1072800Y234900D02*
X1015700Y177800D01*
X184150Y177800D02*
X156972Y204978D01*
X156972Y262128D01*
X146700Y272400D01*
X135700Y272400D02*
X26800Y272400D01*
X119200Y715100D02*
X148200Y715100D01*
X148200Y626100D02*
X150000Y624300D01*
X166600Y607700D01*
X148200Y626100D02*
X148200Y715100D01*
X166600Y607700D02*
X180500Y607700D01*
X150000Y624300D02*
X149900Y624200D01*
X117100Y624200D01*
X100000Y607100D01*
X100000Y511600D01*
X92900Y504500D01*
X35600Y504500D01*
X26800Y495700D01*
X26800Y272400D01*
X236408Y165608D02*
X327972Y165684D01*
X327988Y165700D02*
X990462Y165700D01*
X327988Y165700D02*
X327972Y165684D01*
X236408Y165608D02*
X210908Y165608D01*
X147600Y102300D02*
X147600Y95700D01*
X147600Y102300D02*
X210908Y165608D01*
X1034900Y121209D02*
X1034900Y79200D01*
X1034900Y121209D02*
X990462Y165700D01*
X180500Y633100D02*
X168500Y633100D01*
X157800Y643800D02*
X157800Y774000D01*
X154200Y777600D01*
X135700Y777600D01*
X157800Y643800D02*
X168500Y633100D01*
X346000Y153162D02*
X983039Y153098D01*
X162250Y81350D02*
X160100Y79200D01*
X162250Y81350D02*
X162250Y99987D01*
X215425Y153162D01*
X346000Y153162D01*
X1022400Y113737D02*
X1022400Y95700D01*
X1022400Y113737D02*
X983039Y153098D01*
X895628Y297400D02*
X1084300Y297400D01*
X895628Y297400D02*
X852308Y340720D01*
X852300Y340712D02*
X852300Y419100D01*
X852308Y340720D02*
X852300Y340712D01*
X918698Y309900D02*
X1100800Y309900D01*
X877700Y350898D02*
X877700Y419100D01*
X877700Y350898D02*
X918698Y309900D01*
X934900Y322400D02*
X1084300Y322400D01*
X934900Y322400D02*
X903100Y354200D01*
X903100Y419100D01*
X948000Y347400D02*
X1084300Y347400D01*
X948000Y347400D02*
X928530Y366870D01*
X928530Y419070D02*
X928500Y419100D01*
X928530Y419070D02*
X928530Y366870D01*
X972584Y359900D02*
X1100800Y359900D01*
X972584Y359900D02*
X953770Y378714D01*
X953900Y378844D02*
X953900Y419100D01*
X953900Y378844D02*
X953770Y378714D01*
X987600Y372400D02*
X1084300Y372400D01*
X979300Y380700D02*
X979300Y419100D01*
X979300Y380700D02*
X987600Y372400D01*
X210100Y79200D02*
X210100Y70700D01*
X202800Y63400D01*
X16000Y63400D02*
X16000Y234900D01*
X119200Y234900D01*
X202800Y63400D02*
X16000Y63400D01*
X958100Y524900D02*
X1058000Y524900D01*
X958100Y524900D02*
X928500Y495300D01*
X1058000Y524900D02*
X1058000Y779000D01*
X1081500Y802600D01*
X1084300Y802600D01*
X119200Y815100D02*
X100400Y796300D01*
X100400Y731200D02*
X104400Y727200D01*
X135300Y727200D01*
X135700Y727600D01*
X100400Y731200D02*
X100400Y796300D01*
X1052100Y474400D02*
X1072000Y496250D01*
X1052100Y474400D02*
X906200Y474400D01*
X903100Y477500D02*
X903100Y495300D01*
X903100Y477500D02*
X906200Y474400D01*
X1076500Y702600D02*
X1084300Y702600D01*
X1076500Y702600D02*
X1072000Y698100D01*
X1072000Y496250D01*
X1100800Y690100D02*
X1112400Y690100D01*
X1112800Y690500D01*
X1118550Y684750D01*
X1118550Y495050D01*
X1087300Y463800D02*
X883700Y463800D01*
X877700Y469800D01*
X877700Y495300D01*
X1087300Y463800D02*
X1118550Y495050D01*
X665300Y444000D02*
X647700Y426400D01*
X647700Y406400D01*
X776100Y419100D02*
X776100Y437900D01*
X770000Y444000D01*
X665300Y444000D01*
X227150Y595308D02*
X119508Y595308D01*
X119500Y595300D01*
X367158Y455300D02*
X383700Y455300D01*
X367158Y455300D02*
X227150Y595308D01*
X180500Y531500D02*
X167900Y531500D01*
X121800Y485400D01*
X100800Y485400D02*
X91100Y475700D01*
X91100Y458400D01*
X100800Y485400D02*
X121800Y485400D01*
X889402Y100598D02*
X889402Y72480D01*
X889402Y100598D02*
X880000Y110000D01*
X710000Y110000D01*
X698600Y121400D01*
X698600Y130000D01*
X1175000Y85204D02*
X1175000Y813000D01*
X1153900Y834000D01*
X1175000Y85204D02*
X1132636Y42840D01*
X358400Y788400D02*
X404100Y834000D01*
X1153900Y834000D01*
X358400Y788400D02*
X358400Y619300D01*
X370000Y607700D01*
X383700Y607700D01*
X919042Y42840D02*
X1132636Y42840D01*
X919042Y42840D02*
X889402Y72480D01*
X888700Y121300D02*
X809300Y121300D01*
X888700Y121300D02*
X900496Y109504D01*
X809300Y121300D02*
X800600Y130000D01*
X1160000Y810000D02*
X1144500Y828000D01*
X438000Y828000D01*
X407800Y795300D02*
X407800Y598400D01*
X391700Y582300D01*
X383700Y582300D01*
X407800Y795300D02*
X438000Y828000D01*
X925950Y53650D02*
X1123987Y53650D01*
X1160000Y89663D01*
X1160000Y810000D01*
D21*
X900496Y109504D02*
X902000Y108000D01*
D19*
X902000Y77600D01*
X925950Y53650D01*
X520000Y87400D02*
X495600Y104400D01*
X495600Y130000D01*
X866800Y80000D02*
X866800Y60000D01*
X908800Y18000D02*
X1153280Y18000D01*
X866800Y80000D02*
X859400Y87400D01*
X866800Y60000D02*
X908800Y18000D01*
X1205000Y69720D02*
X1205000Y819000D01*
X859400Y87400D02*
X520000Y87400D01*
X1205000Y819000D02*
X1177000Y846000D01*
X1205000Y69720D02*
X1153280Y18000D01*
X379000Y846000D02*
X241300Y709300D01*
X180500Y709300D01*
X379000Y846000D02*
X1177000Y846000D01*
X597600Y130000D02*
X597600Y102400D01*
X610000Y98700D01*
X869868Y98700D01*
X878100Y91186D01*
X878100Y64692D01*
X913292Y29500D01*
X1190000Y77476D02*
X1190000Y816000D01*
X1165800Y840000D01*
X1190000Y77476D02*
X1142024Y29500D01*
X913292Y29500D01*
X236000Y683900D02*
X392300Y840000D01*
X236000Y683900D02*
X180500Y683900D01*
X392300Y840000D02*
X1165800Y840000D01*
X180500Y734700D02*
X171158Y734700D01*
X164300Y727842D01*
X164300Y678800D01*
X172408Y670692D01*
X202250Y670692D01*
X329212Y543730D01*
X727670Y543730D02*
X776100Y495300D01*
X727670Y543730D02*
X329212Y543730D01*
M02*
