G04 EAGLE Gerber RS-274X export*
G75*
%MOMM*%
%FSLAX34Y34*%
%LPD*%
%INBottom Soldermask*%
%IPPOS*%
%AMOC8*
5,1,8,0,0,1.08239X$1,22.5*%
G01*
%ADD10C,6.603200*%
%ADD11C,4.303200*%
%ADD12C,1.981200*%
%ADD13C,1.612800*%
%ADD14C,2.082800*%
%ADD15C,1.828800*%
%ADD16R,1.854200X1.854200*%
%ADD17C,1.854200*%
%ADD18P,2.034460X8X292.500000*%
%ADD19C,1.625600*%

G36*
X826760Y699827D02*
X826760Y699827D01*
X826825Y699823D01*
X828656Y699983D01*
X828702Y699996D01*
X828778Y700006D01*
X830542Y700520D01*
X830586Y700541D01*
X830658Y700566D01*
X832288Y701415D01*
X832326Y701444D01*
X832392Y701483D01*
X833825Y702633D01*
X833857Y702669D01*
X833914Y702720D01*
X835095Y704128D01*
X835119Y704169D01*
X835165Y704230D01*
X835710Y705223D01*
X836049Y705842D01*
X836064Y705887D01*
X836098Y705956D01*
X836650Y707709D01*
X836656Y707756D01*
X836676Y707830D01*
X836876Y709657D01*
X836872Y709703D01*
X836878Y709772D01*
X836755Y711448D01*
X836744Y711491D01*
X836738Y711557D01*
X836327Y713187D01*
X836308Y713227D01*
X836290Y713291D01*
X835602Y714824D01*
X835577Y714861D01*
X835548Y714921D01*
X834604Y716311D01*
X834573Y716343D01*
X834535Y716397D01*
X833364Y717603D01*
X833328Y717629D01*
X833280Y717675D01*
X831918Y718659D01*
X831877Y718678D01*
X831823Y718715D01*
X830310Y719448D01*
X830267Y719460D01*
X830207Y719487D01*
X828590Y719945D01*
X828545Y719950D01*
X828481Y719966D01*
X826809Y720137D01*
X826761Y720133D01*
X826682Y720137D01*
X825010Y719971D01*
X824967Y719959D01*
X824902Y719950D01*
X823284Y719496D01*
X823243Y719477D01*
X823180Y719457D01*
X821666Y718729D01*
X821630Y718703D01*
X821571Y718673D01*
X820206Y717692D01*
X820175Y717660D01*
X820122Y717620D01*
X818948Y716418D01*
X818923Y716381D01*
X818878Y716333D01*
X817931Y714945D01*
X817913Y714904D01*
X817877Y714848D01*
X817185Y713317D01*
X817174Y713274D01*
X817148Y713213D01*
X816733Y711584D01*
X816730Y711540D01*
X816715Y711475D01*
X816589Y709800D01*
X816593Y709753D01*
X816591Y709681D01*
X816796Y707846D01*
X816810Y707799D01*
X816822Y707724D01*
X817382Y705963D01*
X817405Y705921D01*
X817431Y705849D01*
X818324Y704232D01*
X818354Y704194D01*
X818394Y704129D01*
X819585Y702717D01*
X819622Y702686D01*
X819674Y702630D01*
X821118Y701477D01*
X821160Y701455D01*
X821222Y701410D01*
X822863Y700561D01*
X822909Y700547D01*
X822978Y700515D01*
X824753Y700002D01*
X824801Y699997D01*
X824876Y699980D01*
X826716Y699823D01*
X826760Y699827D01*
G37*
G36*
X798769Y699827D02*
X798769Y699827D01*
X798834Y699823D01*
X800665Y699983D01*
X800711Y699996D01*
X800787Y700006D01*
X802551Y700520D01*
X802595Y700541D01*
X802667Y700566D01*
X804297Y701415D01*
X804335Y701444D01*
X804401Y701483D01*
X805834Y702633D01*
X805866Y702669D01*
X805923Y702720D01*
X807104Y704128D01*
X807128Y704169D01*
X807174Y704230D01*
X807719Y705223D01*
X808058Y705842D01*
X808073Y705887D01*
X808107Y705956D01*
X808659Y707709D01*
X808665Y707756D01*
X808685Y707830D01*
X808885Y709657D01*
X808881Y709703D01*
X808887Y709772D01*
X808764Y711448D01*
X808753Y711491D01*
X808747Y711557D01*
X808336Y713187D01*
X808317Y713227D01*
X808299Y713291D01*
X807611Y714824D01*
X807586Y714861D01*
X807557Y714921D01*
X806613Y716311D01*
X806582Y716343D01*
X806544Y716397D01*
X805373Y717603D01*
X805337Y717629D01*
X805289Y717675D01*
X803927Y718659D01*
X803886Y718678D01*
X803832Y718715D01*
X802319Y719448D01*
X802276Y719460D01*
X802216Y719487D01*
X800599Y719945D01*
X800554Y719950D01*
X800490Y719966D01*
X798818Y720137D01*
X798770Y720133D01*
X798691Y720137D01*
X797019Y719971D01*
X796976Y719959D01*
X796911Y719950D01*
X795293Y719496D01*
X795252Y719477D01*
X795189Y719457D01*
X793675Y718729D01*
X793639Y718703D01*
X793580Y718673D01*
X792215Y717692D01*
X792184Y717660D01*
X792131Y717620D01*
X790957Y716418D01*
X790932Y716381D01*
X790887Y716333D01*
X789940Y714945D01*
X789922Y714904D01*
X789886Y714848D01*
X789194Y713317D01*
X789183Y713274D01*
X789157Y713213D01*
X788742Y711584D01*
X788739Y711540D01*
X788724Y711475D01*
X788598Y709800D01*
X788602Y709753D01*
X788600Y709681D01*
X788805Y707846D01*
X788819Y707799D01*
X788831Y707724D01*
X789391Y705963D01*
X789414Y705921D01*
X789440Y705849D01*
X790333Y704232D01*
X790363Y704194D01*
X790403Y704129D01*
X791594Y702717D01*
X791631Y702686D01*
X791683Y702630D01*
X793127Y701477D01*
X793169Y701455D01*
X793231Y701410D01*
X794872Y700561D01*
X794918Y700547D01*
X794987Y700515D01*
X796762Y700002D01*
X796810Y699997D01*
X796885Y699980D01*
X798725Y699823D01*
X798769Y699827D01*
G37*
G36*
X826760Y580447D02*
X826760Y580447D01*
X826825Y580443D01*
X828656Y580603D01*
X828702Y580616D01*
X828778Y580626D01*
X830542Y581140D01*
X830586Y581161D01*
X830658Y581186D01*
X832288Y582035D01*
X832326Y582064D01*
X832392Y582103D01*
X833825Y583253D01*
X833857Y583289D01*
X833914Y583340D01*
X835095Y584748D01*
X835119Y584789D01*
X835165Y584850D01*
X835710Y585843D01*
X836049Y586462D01*
X836064Y586507D01*
X836098Y586576D01*
X836650Y588329D01*
X836656Y588376D01*
X836676Y588450D01*
X836876Y590277D01*
X836872Y590323D01*
X836878Y590392D01*
X836755Y592068D01*
X836744Y592111D01*
X836738Y592177D01*
X836327Y593807D01*
X836308Y593847D01*
X836290Y593911D01*
X835602Y595444D01*
X835577Y595481D01*
X835548Y595541D01*
X834604Y596931D01*
X834573Y596963D01*
X834535Y597017D01*
X833364Y598223D01*
X833328Y598249D01*
X833280Y598295D01*
X831918Y599279D01*
X831877Y599298D01*
X831823Y599335D01*
X830310Y600068D01*
X830267Y600080D01*
X830207Y600107D01*
X828590Y600565D01*
X828545Y600570D01*
X828481Y600586D01*
X826809Y600757D01*
X826761Y600753D01*
X826682Y600757D01*
X825010Y600591D01*
X824967Y600579D01*
X824902Y600570D01*
X823284Y600116D01*
X823243Y600097D01*
X823180Y600077D01*
X821666Y599349D01*
X821630Y599323D01*
X821571Y599293D01*
X820206Y598312D01*
X820175Y598280D01*
X820122Y598240D01*
X818948Y597038D01*
X818923Y597001D01*
X818878Y596953D01*
X817931Y595565D01*
X817913Y595524D01*
X817877Y595468D01*
X817185Y593937D01*
X817174Y593894D01*
X817148Y593833D01*
X816733Y592204D01*
X816730Y592160D01*
X816715Y592095D01*
X816589Y590420D01*
X816593Y590373D01*
X816591Y590301D01*
X816796Y588466D01*
X816810Y588419D01*
X816822Y588344D01*
X817382Y586583D01*
X817405Y586541D01*
X817431Y586469D01*
X818324Y584852D01*
X818354Y584814D01*
X818394Y584749D01*
X819585Y583337D01*
X819622Y583306D01*
X819674Y583250D01*
X821118Y582097D01*
X821160Y582075D01*
X821222Y582030D01*
X822863Y581181D01*
X822909Y581167D01*
X822978Y581135D01*
X824753Y580622D01*
X824801Y580617D01*
X824876Y580600D01*
X826716Y580443D01*
X826760Y580447D01*
G37*
G36*
X798769Y580447D02*
X798769Y580447D01*
X798834Y580443D01*
X800665Y580603D01*
X800711Y580616D01*
X800787Y580626D01*
X802551Y581140D01*
X802595Y581161D01*
X802667Y581186D01*
X804297Y582035D01*
X804335Y582064D01*
X804401Y582103D01*
X805834Y583253D01*
X805866Y583289D01*
X805923Y583340D01*
X807104Y584748D01*
X807128Y584789D01*
X807174Y584850D01*
X807719Y585843D01*
X808058Y586462D01*
X808073Y586507D01*
X808107Y586576D01*
X808659Y588329D01*
X808665Y588376D01*
X808685Y588450D01*
X808885Y590277D01*
X808881Y590323D01*
X808887Y590392D01*
X808764Y592068D01*
X808753Y592111D01*
X808747Y592177D01*
X808336Y593807D01*
X808317Y593847D01*
X808299Y593911D01*
X807611Y595444D01*
X807586Y595481D01*
X807557Y595541D01*
X806613Y596931D01*
X806582Y596963D01*
X806544Y597017D01*
X805373Y598223D01*
X805337Y598249D01*
X805289Y598295D01*
X803927Y599279D01*
X803886Y599298D01*
X803832Y599335D01*
X802319Y600068D01*
X802276Y600080D01*
X802216Y600107D01*
X800599Y600565D01*
X800554Y600570D01*
X800490Y600586D01*
X798818Y600757D01*
X798770Y600753D01*
X798691Y600757D01*
X797019Y600591D01*
X796976Y600579D01*
X796911Y600570D01*
X795293Y600116D01*
X795252Y600097D01*
X795189Y600077D01*
X793675Y599349D01*
X793639Y599323D01*
X793580Y599293D01*
X792215Y598312D01*
X792184Y598280D01*
X792131Y598240D01*
X790957Y597038D01*
X790932Y597001D01*
X790887Y596953D01*
X789940Y595565D01*
X789922Y595524D01*
X789886Y595468D01*
X789194Y593937D01*
X789183Y593894D01*
X789157Y593833D01*
X788742Y592204D01*
X788739Y592160D01*
X788724Y592095D01*
X788598Y590420D01*
X788602Y590373D01*
X788600Y590301D01*
X788805Y588466D01*
X788819Y588419D01*
X788831Y588344D01*
X789391Y586583D01*
X789414Y586541D01*
X789440Y586469D01*
X790333Y584852D01*
X790363Y584814D01*
X790403Y584749D01*
X791594Y583337D01*
X791631Y583306D01*
X791683Y583250D01*
X793127Y582097D01*
X793169Y582075D01*
X793231Y582030D01*
X794872Y581181D01*
X794918Y581167D01*
X794987Y581135D01*
X796762Y580622D01*
X796810Y580617D01*
X796885Y580600D01*
X798725Y580443D01*
X798769Y580447D01*
G37*
D10*
X610000Y615000D03*
D11*
X610000Y300000D03*
D12*
X180500Y506100D03*
X180500Y531500D03*
X180500Y556900D03*
X180500Y582300D03*
X180500Y607700D03*
X180500Y633100D03*
X180500Y658500D03*
X180500Y683900D03*
X180500Y709300D03*
X180500Y734700D03*
X180500Y760100D03*
X180500Y785500D03*
X383700Y506100D03*
X383700Y531500D03*
X383700Y556900D03*
X383700Y582300D03*
X383700Y607700D03*
X383700Y633100D03*
X383700Y658500D03*
X383700Y683900D03*
X383700Y709300D03*
X383700Y734700D03*
X383700Y760100D03*
X383700Y785500D03*
X383700Y480700D03*
X383700Y455300D03*
X383700Y429900D03*
X383700Y404500D03*
D13*
X119200Y815100D03*
X135700Y802600D03*
X119200Y790100D03*
X135700Y777600D03*
X119200Y765100D03*
X135700Y752600D03*
X119200Y740100D03*
X135700Y727600D03*
X119200Y715100D03*
X135700Y702600D03*
X119200Y690100D03*
X135700Y677600D03*
X119200Y665100D03*
X1100800Y815100D03*
X1084300Y802600D03*
X1100800Y790100D03*
X1084300Y777600D03*
X1100800Y765100D03*
X1084300Y752600D03*
X1100800Y740100D03*
X1084300Y727600D03*
X1100800Y715100D03*
X1084300Y702600D03*
X1100800Y690100D03*
X1084300Y677600D03*
X1100800Y665100D03*
X119200Y234900D03*
X135700Y247400D03*
X119200Y259900D03*
X135700Y272400D03*
X119200Y284900D03*
X135700Y297400D03*
X119200Y309900D03*
X135700Y322400D03*
X119200Y334900D03*
X135700Y347400D03*
X119200Y359900D03*
X135700Y372400D03*
X119200Y384900D03*
X1100800Y234900D03*
X1084300Y247400D03*
X1100800Y259900D03*
X1084300Y272400D03*
X1100800Y284900D03*
X1084300Y297400D03*
X1100800Y309900D03*
X1084300Y322400D03*
X1100800Y334900D03*
X1084300Y347400D03*
X1100800Y359900D03*
X1084300Y372400D03*
X1100800Y384900D03*
X984900Y79200D03*
X997400Y95700D03*
X1009900Y79200D03*
X1022400Y95700D03*
X1034900Y79200D03*
X1047400Y95700D03*
X1059900Y79200D03*
X1072400Y95700D03*
X1084900Y79200D03*
X1097400Y95700D03*
X1109900Y79200D03*
X1122400Y95700D03*
X1134900Y79200D03*
X235100Y79200D03*
X222600Y95700D03*
X210100Y79200D03*
X197600Y95700D03*
X185100Y79200D03*
X172600Y95700D03*
X160100Y79200D03*
X147600Y95700D03*
X135100Y79200D03*
X122600Y95700D03*
X110100Y79200D03*
X97600Y95700D03*
X85100Y79200D03*
D14*
X571500Y406400D03*
X647700Y406400D03*
X119500Y519100D03*
X119500Y595300D03*
X79400Y595300D03*
X79400Y519100D03*
D15*
X116500Y458400D03*
X91100Y458400D03*
X527304Y396748D03*
X527304Y371348D03*
D16*
X827586Y650240D03*
D17*
X802586Y650240D03*
D18*
X762500Y47700D03*
X762500Y22300D03*
X660500Y47700D03*
X660500Y22300D03*
X559500Y47700D03*
X559500Y22300D03*
X457500Y47700D03*
X457500Y22300D03*
D14*
X724400Y130000D03*
X800600Y130000D03*
X622400Y130000D03*
X698600Y130000D03*
X521400Y130000D03*
X597600Y130000D03*
X419400Y130000D03*
X495600Y130000D03*
D19*
X1030100Y488188D02*
X1030100Y502412D01*
X1004700Y502412D02*
X1004700Y488188D01*
X979300Y488188D02*
X979300Y502412D01*
X953900Y502412D02*
X953900Y488188D01*
X928500Y488188D02*
X928500Y502412D01*
X903100Y502412D02*
X903100Y488188D01*
X877700Y488188D02*
X877700Y502412D01*
X852300Y502412D02*
X852300Y488188D01*
X826900Y488188D02*
X826900Y502412D01*
X801500Y502412D02*
X801500Y488188D01*
X776100Y488188D02*
X776100Y502412D01*
X750700Y502412D02*
X750700Y488188D01*
X725300Y488188D02*
X725300Y502412D01*
X699900Y502412D02*
X699900Y488188D01*
X699900Y426212D02*
X699900Y411988D01*
X725300Y411988D02*
X725300Y426212D01*
X750700Y426212D02*
X750700Y411988D01*
X776100Y411988D02*
X776100Y426212D01*
X801500Y426212D02*
X801500Y411988D01*
X826900Y411988D02*
X826900Y426212D01*
X852300Y426212D02*
X852300Y411988D01*
X877700Y411988D02*
X877700Y426212D01*
X903100Y426212D02*
X903100Y411988D01*
X928500Y411988D02*
X928500Y426212D01*
X953900Y426212D02*
X953900Y411988D01*
X979300Y411988D02*
X979300Y426212D01*
X1004700Y426212D02*
X1004700Y411988D01*
X1030100Y411988D02*
X1030100Y426212D01*
M02*
