G04 EAGLE Gerber RS-274X export*
G75*
%MOMM*%
%FSLAX34Y34*%
%LPD*%
%INTop Soldermask*%
%IPPOS*%
%AMOC8*
5,1,8,0,0,1.08239X$1,22.5*%
G01*
%ADD10C,6.603200*%
%ADD11C,4.303200*%
%ADD12C,1.981200*%
%ADD13C,1.612800*%
%ADD14C,2.082800*%
%ADD15C,1.828800*%
%ADD16R,1.854200X1.854200*%
%ADD17C,1.854200*%
%ADD18P,2.034460X8X292.500000*%
%ADD19C,1.625600*%

G36*
X826736Y704907D02*
X826736Y704907D01*
X826811Y704904D01*
X827787Y705006D01*
X827835Y705020D01*
X827925Y705036D01*
X828854Y705352D01*
X828898Y705377D01*
X828983Y705413D01*
X829818Y705927D01*
X829855Y705961D01*
X829930Y706015D01*
X830630Y706703D01*
X830659Y706744D01*
X830719Y706813D01*
X831248Y707640D01*
X831267Y707686D01*
X831311Y707767D01*
X831643Y708690D01*
X831651Y708740D01*
X831676Y708829D01*
X831794Y709803D01*
X831791Y709853D01*
X831795Y709939D01*
X831700Y710941D01*
X831686Y710990D01*
X831670Y711080D01*
X831354Y712036D01*
X831330Y712081D01*
X831295Y712165D01*
X830773Y713026D01*
X830740Y713064D01*
X830687Y713139D01*
X829987Y713863D01*
X829946Y713892D01*
X829877Y713953D01*
X829034Y714503D01*
X828988Y714523D01*
X828907Y714567D01*
X827963Y714915D01*
X827913Y714924D01*
X827825Y714949D01*
X826827Y715079D01*
X826784Y715077D01*
X826658Y715078D01*
X825647Y714939D01*
X825599Y714923D01*
X825509Y714904D01*
X824554Y714542D01*
X824511Y714516D01*
X824427Y714478D01*
X823577Y713913D01*
X823540Y713878D01*
X823468Y713821D01*
X822764Y713082D01*
X822736Y713039D01*
X822678Y712968D01*
X822157Y712090D01*
X822139Y712043D01*
X822098Y711961D01*
X821785Y710989D01*
X821778Y710939D01*
X821757Y710850D01*
X821668Y709832D01*
X821673Y709782D01*
X821672Y709691D01*
X821803Y708727D01*
X821819Y708679D01*
X821838Y708590D01*
X822180Y707679D01*
X822206Y707636D01*
X822245Y707553D01*
X822782Y706741D01*
X822817Y706705D01*
X822873Y706632D01*
X823577Y705960D01*
X823619Y705933D01*
X823690Y705874D01*
X824526Y705376D01*
X824573Y705358D01*
X824655Y705318D01*
X825581Y705018D01*
X825631Y705011D01*
X825720Y704989D01*
X826689Y704903D01*
X826736Y704907D01*
G37*
G36*
X798745Y704907D02*
X798745Y704907D01*
X798820Y704904D01*
X799796Y705006D01*
X799844Y705020D01*
X799934Y705036D01*
X800863Y705352D01*
X800907Y705377D01*
X800992Y705413D01*
X801827Y705927D01*
X801864Y705961D01*
X801939Y706015D01*
X802639Y706703D01*
X802668Y706744D01*
X802728Y706813D01*
X803257Y707640D01*
X803276Y707686D01*
X803320Y707767D01*
X803652Y708690D01*
X803660Y708740D01*
X803685Y708829D01*
X803803Y709803D01*
X803800Y709853D01*
X803804Y709939D01*
X803709Y710941D01*
X803695Y710990D01*
X803679Y711080D01*
X803363Y712036D01*
X803339Y712081D01*
X803304Y712165D01*
X802782Y713026D01*
X802749Y713064D01*
X802696Y713139D01*
X801996Y713863D01*
X801955Y713892D01*
X801886Y713953D01*
X801043Y714503D01*
X800997Y714523D01*
X800916Y714567D01*
X799972Y714915D01*
X799922Y714924D01*
X799834Y714949D01*
X798836Y715079D01*
X798793Y715077D01*
X798667Y715078D01*
X797656Y714939D01*
X797608Y714923D01*
X797518Y714904D01*
X796563Y714542D01*
X796520Y714516D01*
X796436Y714478D01*
X795586Y713913D01*
X795549Y713878D01*
X795477Y713821D01*
X794773Y713082D01*
X794745Y713039D01*
X794687Y712968D01*
X794166Y712090D01*
X794148Y712043D01*
X794107Y711961D01*
X793794Y710989D01*
X793787Y710939D01*
X793766Y710850D01*
X793677Y709832D01*
X793682Y709782D01*
X793681Y709691D01*
X793812Y708727D01*
X793828Y708679D01*
X793847Y708590D01*
X794189Y707679D01*
X794215Y707636D01*
X794254Y707553D01*
X794791Y706741D01*
X794826Y706705D01*
X794882Y706632D01*
X795586Y705960D01*
X795628Y705933D01*
X795699Y705874D01*
X796535Y705376D01*
X796582Y705358D01*
X796664Y705318D01*
X797590Y705018D01*
X797640Y705011D01*
X797729Y704989D01*
X798698Y704903D01*
X798745Y704907D01*
G37*
G36*
X826736Y585527D02*
X826736Y585527D01*
X826811Y585524D01*
X827787Y585626D01*
X827835Y585640D01*
X827925Y585656D01*
X828854Y585972D01*
X828898Y585997D01*
X828983Y586033D01*
X829818Y586547D01*
X829855Y586581D01*
X829930Y586635D01*
X830630Y587323D01*
X830659Y587364D01*
X830719Y587433D01*
X831248Y588260D01*
X831267Y588306D01*
X831311Y588387D01*
X831643Y589310D01*
X831651Y589360D01*
X831676Y589449D01*
X831794Y590423D01*
X831791Y590473D01*
X831795Y590559D01*
X831700Y591561D01*
X831686Y591610D01*
X831670Y591700D01*
X831354Y592656D01*
X831330Y592701D01*
X831295Y592785D01*
X830773Y593646D01*
X830740Y593684D01*
X830687Y593759D01*
X829987Y594483D01*
X829946Y594512D01*
X829877Y594573D01*
X829034Y595123D01*
X828988Y595143D01*
X828907Y595187D01*
X827963Y595535D01*
X827913Y595544D01*
X827825Y595569D01*
X826827Y595699D01*
X826784Y595697D01*
X826658Y595698D01*
X825647Y595559D01*
X825599Y595543D01*
X825509Y595524D01*
X824554Y595162D01*
X824511Y595136D01*
X824427Y595098D01*
X823577Y594533D01*
X823540Y594498D01*
X823468Y594441D01*
X822764Y593702D01*
X822736Y593659D01*
X822678Y593588D01*
X822157Y592710D01*
X822139Y592663D01*
X822098Y592581D01*
X821785Y591609D01*
X821778Y591559D01*
X821757Y591470D01*
X821668Y590452D01*
X821673Y590402D01*
X821672Y590311D01*
X821803Y589347D01*
X821819Y589299D01*
X821838Y589210D01*
X822180Y588299D01*
X822206Y588256D01*
X822245Y588173D01*
X822782Y587361D01*
X822817Y587325D01*
X822873Y587252D01*
X823577Y586580D01*
X823619Y586553D01*
X823690Y586494D01*
X824526Y585996D01*
X824573Y585978D01*
X824655Y585938D01*
X825581Y585638D01*
X825631Y585631D01*
X825720Y585609D01*
X826689Y585523D01*
X826736Y585527D01*
G37*
G36*
X798745Y585527D02*
X798745Y585527D01*
X798820Y585524D01*
X799796Y585626D01*
X799844Y585640D01*
X799934Y585656D01*
X800863Y585972D01*
X800907Y585997D01*
X800992Y586033D01*
X801827Y586547D01*
X801864Y586581D01*
X801939Y586635D01*
X802639Y587323D01*
X802668Y587364D01*
X802728Y587433D01*
X803257Y588260D01*
X803276Y588306D01*
X803320Y588387D01*
X803652Y589310D01*
X803660Y589360D01*
X803685Y589449D01*
X803803Y590423D01*
X803800Y590473D01*
X803804Y590559D01*
X803709Y591561D01*
X803695Y591610D01*
X803679Y591700D01*
X803363Y592656D01*
X803339Y592701D01*
X803304Y592785D01*
X802782Y593646D01*
X802749Y593684D01*
X802696Y593759D01*
X801996Y594483D01*
X801955Y594512D01*
X801886Y594573D01*
X801043Y595123D01*
X800997Y595143D01*
X800916Y595187D01*
X799972Y595535D01*
X799922Y595544D01*
X799834Y595569D01*
X798836Y595699D01*
X798793Y595697D01*
X798667Y595698D01*
X797656Y595559D01*
X797608Y595543D01*
X797518Y595524D01*
X796563Y595162D01*
X796520Y595136D01*
X796436Y595098D01*
X795586Y594533D01*
X795549Y594498D01*
X795477Y594441D01*
X794773Y593702D01*
X794745Y593659D01*
X794687Y593588D01*
X794166Y592710D01*
X794148Y592663D01*
X794107Y592581D01*
X793794Y591609D01*
X793787Y591559D01*
X793766Y591470D01*
X793677Y590452D01*
X793682Y590402D01*
X793681Y590311D01*
X793812Y589347D01*
X793828Y589299D01*
X793847Y589210D01*
X794189Y588299D01*
X794215Y588256D01*
X794254Y588173D01*
X794791Y587361D01*
X794826Y587325D01*
X794882Y587252D01*
X795586Y586580D01*
X795628Y586553D01*
X795699Y586494D01*
X796535Y585996D01*
X796582Y585978D01*
X796664Y585938D01*
X797590Y585638D01*
X797640Y585631D01*
X797729Y585609D01*
X798698Y585523D01*
X798745Y585527D01*
G37*
D10*
X610000Y615000D03*
D11*
X610000Y300000D03*
D12*
X180500Y506100D03*
X180500Y531500D03*
X180500Y556900D03*
X180500Y582300D03*
X180500Y607700D03*
X180500Y633100D03*
X180500Y658500D03*
X180500Y683900D03*
X180500Y709300D03*
X180500Y734700D03*
X180500Y760100D03*
X180500Y785500D03*
X383700Y506100D03*
X383700Y531500D03*
X383700Y556900D03*
X383700Y582300D03*
X383700Y607700D03*
X383700Y633100D03*
X383700Y658500D03*
X383700Y683900D03*
X383700Y709300D03*
X383700Y734700D03*
X383700Y760100D03*
X383700Y785500D03*
X383700Y480700D03*
X383700Y455300D03*
X383700Y429900D03*
X383700Y404500D03*
D13*
X119200Y815100D03*
X135700Y802600D03*
X119200Y790100D03*
X135700Y777600D03*
X119200Y765100D03*
X135700Y752600D03*
X119200Y740100D03*
X135700Y727600D03*
X119200Y715100D03*
X135700Y702600D03*
X119200Y690100D03*
X135700Y677600D03*
X119200Y665100D03*
X1100800Y815100D03*
X1084300Y802600D03*
X1100800Y790100D03*
X1084300Y777600D03*
X1100800Y765100D03*
X1084300Y752600D03*
X1100800Y740100D03*
X1084300Y727600D03*
X1100800Y715100D03*
X1084300Y702600D03*
X1100800Y690100D03*
X1084300Y677600D03*
X1100800Y665100D03*
X119200Y234900D03*
X135700Y247400D03*
X119200Y259900D03*
X135700Y272400D03*
X119200Y284900D03*
X135700Y297400D03*
X119200Y309900D03*
X135700Y322400D03*
X119200Y334900D03*
X135700Y347400D03*
X119200Y359900D03*
X135700Y372400D03*
X119200Y384900D03*
X1100800Y234900D03*
X1084300Y247400D03*
X1100800Y259900D03*
X1084300Y272400D03*
X1100800Y284900D03*
X1084300Y297400D03*
X1100800Y309900D03*
X1084300Y322400D03*
X1100800Y334900D03*
X1084300Y347400D03*
X1100800Y359900D03*
X1084300Y372400D03*
X1100800Y384900D03*
X984900Y79200D03*
X997400Y95700D03*
X1009900Y79200D03*
X1022400Y95700D03*
X1034900Y79200D03*
X1047400Y95700D03*
X1059900Y79200D03*
X1072400Y95700D03*
X1084900Y79200D03*
X1097400Y95700D03*
X1109900Y79200D03*
X1122400Y95700D03*
X1134900Y79200D03*
X235100Y79200D03*
X222600Y95700D03*
X210100Y79200D03*
X197600Y95700D03*
X185100Y79200D03*
X172600Y95700D03*
X160100Y79200D03*
X147600Y95700D03*
X135100Y79200D03*
X122600Y95700D03*
X110100Y79200D03*
X97600Y95700D03*
X85100Y79200D03*
D14*
X571500Y406400D03*
X647700Y406400D03*
X119500Y519100D03*
X119500Y595300D03*
X79400Y595300D03*
X79400Y519100D03*
D15*
X116500Y458400D03*
X91100Y458400D03*
X527304Y396748D03*
X527304Y371348D03*
D16*
X827586Y650240D03*
D17*
X802586Y650240D03*
D18*
X762500Y47700D03*
X762500Y22300D03*
X660500Y47700D03*
X660500Y22300D03*
X559500Y47700D03*
X559500Y22300D03*
X457500Y47700D03*
X457500Y22300D03*
D14*
X724400Y130000D03*
X800600Y130000D03*
X622400Y130000D03*
X698600Y130000D03*
X521400Y130000D03*
X597600Y130000D03*
X419400Y130000D03*
X495600Y130000D03*
D19*
X1030100Y488188D02*
X1030100Y502412D01*
X1004700Y502412D02*
X1004700Y488188D01*
X979300Y488188D02*
X979300Y502412D01*
X953900Y502412D02*
X953900Y488188D01*
X928500Y488188D02*
X928500Y502412D01*
X903100Y502412D02*
X903100Y488188D01*
X877700Y488188D02*
X877700Y502412D01*
X852300Y502412D02*
X852300Y488188D01*
X826900Y488188D02*
X826900Y502412D01*
X801500Y502412D02*
X801500Y488188D01*
X776100Y488188D02*
X776100Y502412D01*
X750700Y502412D02*
X750700Y488188D01*
X725300Y488188D02*
X725300Y502412D01*
X699900Y502412D02*
X699900Y488188D01*
X699900Y426212D02*
X699900Y411988D01*
X725300Y411988D02*
X725300Y426212D01*
X750700Y426212D02*
X750700Y411988D01*
X776100Y411988D02*
X776100Y426212D01*
X801500Y426212D02*
X801500Y411988D01*
X826900Y411988D02*
X826900Y426212D01*
X852300Y426212D02*
X852300Y411988D01*
X877700Y411988D02*
X877700Y426212D01*
X903100Y426212D02*
X903100Y411988D01*
X928500Y411988D02*
X928500Y426212D01*
X953900Y426212D02*
X953900Y411988D01*
X979300Y411988D02*
X979300Y426212D01*
X1004700Y426212D02*
X1004700Y411988D01*
X1030100Y411988D02*
X1030100Y426212D01*
M02*
