M48
;GenerationSoftware,Autodesk,EAGLE,9.6.2*%
;CreationDate,2021-01-30T14:36:37Z*%
FMAT,2
ICI,OFF
METRIC,TZ,000.000
T8C0.700
T7C0.800
T6C0.813
T5C0.900
T4C1.000
T3C1.016
T2C4.100
T1C6.400
%
G90
M71
T1
X61000Y61500
T2
X61000Y30000
T3
X11650Y45840
X9110Y45840
X52730Y39675
X52730Y37135
X79883Y59055
X82677Y59055
X79883Y70993
X82677Y70993
T4
X18050Y70930
X18050Y73470
X18050Y76010
X18050Y78550
X38370Y50610
X38370Y53150
X38370Y55690
X38370Y58230
X38370Y60770
X38370Y63310
X38370Y65850
X38370Y68390
X38370Y70930
X38370Y73470
X38370Y76010
X38370Y78550
X38370Y48070
X38370Y45530
X38370Y42990
X38370Y40450
X18050Y68390
X18050Y65850
X18050Y50610
X18050Y53150
X18050Y55690
X18050Y58230
X18050Y60770
X18050Y63310
T5
X80060Y13000
X72440Y13000
X62240Y13000
X69860Y13000
X52140Y13000
X59760Y13000
X41940Y13000
X49560Y13000
X7940Y51910
X7940Y59530
X11950Y59530
X11950Y51910
X64770Y40640
X57150Y40640
T6
X103010Y41910
X100470Y41910
X97930Y41910
X95390Y41910
X92850Y41910
X90310Y41910
X87770Y41910
X85230Y41910
X82690Y41910
X80150Y41910
X77610Y41910
X75070Y41910
X72530Y41910
X69990Y41910
X69990Y49530
X72530Y49530
X75070Y49530
X77610Y49530
X80150Y49530
X82690Y49530
X85230Y49530
X87770Y49530
X90310Y49530
X92850Y49530
X95390Y49530
X97930Y49530
X100470Y49530
X103010Y49530
X45750Y2230
X45750Y4770
X55950Y2230
X55950Y4770
X66050Y2230
X66050Y4770
X76250Y2230
X76250Y4770
T7
X105990Y7920
X107240Y9570
X108490Y7920
X109740Y9570
X110990Y7920
X112240Y9570
X113490Y7920
X23510Y7920
X22260Y9570
X21010Y7920
X19760Y9570
X18510Y7920
X17260Y9570
X16010Y7920
X14760Y9570
X13510Y7920
X12260Y9570
X11010Y7920
X9760Y9570
X8510Y7920
X110080Y71510
X108430Y72760
X110080Y74010
X108430Y75260
X110080Y76510
X108430Y77760
X110080Y79010
X108430Y80260
X110080Y81510
X11920Y66510
X13570Y67760
X11920Y69010
X100990Y7920
X110080Y69010
X104740Y9570
X103490Y7920
X102240Y9570
X108430Y70260
X99740Y9570
X98490Y7920
X110080Y38490
X108430Y37240
X13570Y70260
X11920Y71510
X13570Y72760
X11920Y74010
X13570Y75260
X11920Y76510
X13570Y77760
X11920Y79010
X13570Y80260
X11920Y81510
X110080Y35990
X108430Y34740
X110080Y33490
X108430Y32240
X110080Y30990
X108430Y29740
X110080Y28490
X108430Y27240
X110080Y25990
X108430Y24740
X110080Y23490
X11920Y38490
X13570Y37240
X11920Y35990
X13570Y34740
X11920Y33490
X13570Y32240
X11920Y30990
X13570Y29740
X11920Y28490
X13570Y27240
X11920Y25990
X13570Y24740
X11920Y23490
X110080Y66510
X108430Y67760
T8
X80259Y65024
X82759Y65024
M30