G75*
%MOIN*%
%OFA0B0*%
%FSLAX25Y25*%
%IPPOS*%
%LPD*%
%AMOC8*
5,1,8,0,0,1.08239X$1,22.5*
%
%ADD10C,0.25997*%
%ADD11C,0.16942*%
%ADD12C,0.07800*%
%ADD13C,0.06350*%
%ADD14C,0.08200*%
%ADD15C,0.07200*%
%ADD16C,0.00500*%
%ADD17R,0.07300X0.07300*%
%ADD18C,0.07300*%
%ADD19OC8,0.07400*%
%ADD20C,0.06400*%
D10*
X0241757Y0256435D03*
D11*
X0241757Y0132419D03*
D12*
X0152663Y0173561D03*
X0152663Y0183561D03*
X0152663Y0193561D03*
X0152663Y0203561D03*
X0152663Y0213561D03*
X0152663Y0223561D03*
X0152663Y0233561D03*
X0152663Y0243561D03*
X0152663Y0253561D03*
X0152663Y0263561D03*
X0152663Y0273561D03*
X0152663Y0283561D03*
X0152663Y0293561D03*
X0152663Y0303561D03*
X0152663Y0313561D03*
X0152663Y0323561D03*
X0072663Y0323561D03*
X0072663Y0313561D03*
X0072663Y0303561D03*
X0072663Y0293561D03*
X0072663Y0283561D03*
X0072663Y0273561D03*
X0072663Y0263561D03*
X0072663Y0253561D03*
X0072663Y0243561D03*
X0072663Y0233561D03*
X0072663Y0223561D03*
X0072663Y0213561D03*
D13*
X0035104Y0045490D03*
X0040025Y0051986D03*
X0044946Y0045490D03*
X0049868Y0051986D03*
X0054789Y0045490D03*
X0059710Y0051986D03*
X0064631Y0045490D03*
X0069553Y0051986D03*
X0074474Y0045490D03*
X0079395Y0051986D03*
X0084317Y0045490D03*
X0089238Y0051986D03*
X0094159Y0045490D03*
X0048529Y0106789D03*
X0055025Y0111711D03*
X0048529Y0116632D03*
X0055025Y0121553D03*
X0048529Y0126475D03*
X0055025Y0131396D03*
X0048529Y0136317D03*
X0055025Y0141238D03*
X0048529Y0146160D03*
X0055025Y0151081D03*
X0048529Y0156002D03*
X0055025Y0160923D03*
X0048529Y0165845D03*
X0048529Y0276160D03*
X0055025Y0281081D03*
X0048529Y0286002D03*
X0055025Y0290923D03*
X0048529Y0295845D03*
X0055025Y0300766D03*
X0048529Y0305687D03*
X0055025Y0310608D03*
X0048529Y0315530D03*
X0055025Y0320451D03*
X0048529Y0325372D03*
X0055025Y0330293D03*
X0048529Y0335215D03*
X0428490Y0330293D03*
X0434986Y0335215D03*
X0434986Y0325372D03*
X0428490Y0320451D03*
X0434986Y0315530D03*
X0428490Y0310608D03*
X0434986Y0305687D03*
X0428490Y0300766D03*
X0434986Y0295845D03*
X0428490Y0290923D03*
X0434986Y0286002D03*
X0428490Y0281081D03*
X0434986Y0276160D03*
X0434986Y0165845D03*
X0428490Y0160923D03*
X0434986Y0156002D03*
X0428490Y0151081D03*
X0434986Y0146160D03*
X0428490Y0141238D03*
X0434986Y0136317D03*
X0428490Y0131396D03*
X0434986Y0126475D03*
X0428490Y0121553D03*
X0434986Y0116632D03*
X0428490Y0111711D03*
X0434986Y0106789D03*
X0433647Y0051986D03*
X0428726Y0045490D03*
X0423805Y0051986D03*
X0418883Y0045490D03*
X0413962Y0051986D03*
X0409041Y0045490D03*
X0404120Y0051986D03*
X0399198Y0045490D03*
X0394277Y0051986D03*
X0389356Y0045490D03*
X0438569Y0045490D03*
X0443490Y0051986D03*
X0448411Y0045490D03*
D14*
X0316797Y0065490D03*
X0286797Y0065490D03*
X0276639Y0065490D03*
X0246639Y0065490D03*
X0236876Y0065490D03*
X0206876Y0065490D03*
X0196718Y0065490D03*
X0166718Y0065490D03*
X0226600Y0174309D03*
X0256600Y0174309D03*
X0048647Y0218679D03*
X0032860Y0218679D03*
X0032860Y0248679D03*
X0048647Y0248679D03*
D15*
X0047466Y0194782D03*
X0037466Y0194782D03*
X0209200Y0170509D03*
X0209200Y0160509D03*
D16*
X0314718Y0245691D02*
X0314507Y0246011D01*
X0314372Y0246369D01*
X0314320Y0246749D01*
X0314355Y0247149D01*
X0314478Y0247532D01*
X0314684Y0247878D01*
X0314961Y0248169D01*
X0315296Y0248391D01*
X0315672Y0248534D01*
X0316070Y0248589D01*
X0316463Y0248538D01*
X0316835Y0248400D01*
X0317167Y0248184D01*
X0317442Y0247899D01*
X0317648Y0247560D01*
X0317772Y0247184D01*
X0317810Y0246789D01*
X0317763Y0246406D01*
X0317633Y0246042D01*
X0317424Y0245717D01*
X0317149Y0245446D01*
X0316820Y0245243D01*
X0316454Y0245119D01*
X0316070Y0245079D01*
X0315689Y0245113D01*
X0315324Y0245231D01*
X0314995Y0245427D01*
X0314718Y0245691D01*
X0314794Y0245618D02*
X0317324Y0245618D01*
X0317660Y0246117D02*
X0314467Y0246117D01*
X0314338Y0246615D02*
X0317789Y0246615D01*
X0317779Y0247114D02*
X0314352Y0247114D01*
X0314526Y0247612D02*
X0317616Y0247612D01*
X0317237Y0248111D02*
X0314905Y0248111D01*
X0315667Y0245120D02*
X0316458Y0245120D01*
X0325392Y0246369D02*
X0325340Y0246749D01*
X0325375Y0247149D01*
X0325498Y0247532D01*
X0325704Y0247878D01*
X0325981Y0248169D01*
X0326316Y0248391D01*
X0326692Y0248534D01*
X0327090Y0248589D01*
X0327483Y0248538D01*
X0327855Y0248400D01*
X0328187Y0248184D01*
X0328462Y0247899D01*
X0328668Y0247560D01*
X0328792Y0247184D01*
X0328830Y0246789D01*
X0328783Y0246406D01*
X0328653Y0246042D01*
X0328444Y0245717D01*
X0328169Y0245446D01*
X0327840Y0245243D01*
X0327474Y0245119D01*
X0327090Y0245079D01*
X0326709Y0245113D01*
X0326344Y0245231D01*
X0326015Y0245427D01*
X0325738Y0245691D01*
X0325527Y0246011D01*
X0325392Y0246369D01*
X0325358Y0246615D02*
X0328809Y0246615D01*
X0328799Y0247114D02*
X0325372Y0247114D01*
X0325546Y0247612D02*
X0328636Y0247612D01*
X0328258Y0248111D02*
X0325926Y0248111D01*
X0325487Y0246117D02*
X0328680Y0246117D01*
X0328344Y0245618D02*
X0325815Y0245618D01*
X0326687Y0245120D02*
X0327478Y0245120D01*
X0327090Y0292079D02*
X0327474Y0292119D01*
X0327840Y0292243D01*
X0328169Y0292446D01*
X0328444Y0292717D01*
X0328653Y0293042D01*
X0328783Y0293406D01*
X0328830Y0293789D01*
X0328792Y0294184D01*
X0328668Y0294560D01*
X0328462Y0294899D01*
X0328187Y0295184D01*
X0327855Y0295400D01*
X0327483Y0295538D01*
X0327090Y0295589D01*
X0326692Y0295534D01*
X0326316Y0295391D01*
X0325981Y0295169D01*
X0325704Y0294878D01*
X0325498Y0294532D01*
X0325375Y0294149D01*
X0325340Y0293749D01*
X0325392Y0293369D01*
X0325527Y0293011D01*
X0325738Y0292691D01*
X0326015Y0292427D01*
X0326344Y0292231D01*
X0326709Y0292113D01*
X0327090Y0292079D01*
X0328202Y0292478D02*
X0325961Y0292478D01*
X0325549Y0292977D02*
X0328611Y0292977D01*
X0328792Y0293475D02*
X0325377Y0293475D01*
X0325360Y0293974D02*
X0328812Y0293974D01*
X0328697Y0294473D02*
X0325479Y0294473D01*
X0325792Y0294971D02*
X0328393Y0294971D01*
X0327668Y0295470D02*
X0326522Y0295470D01*
X0317772Y0294184D02*
X0317810Y0293789D01*
X0317763Y0293406D01*
X0317633Y0293042D01*
X0317424Y0292717D01*
X0317149Y0292446D01*
X0316820Y0292243D01*
X0316454Y0292119D01*
X0316070Y0292079D01*
X0315689Y0292113D01*
X0315324Y0292231D01*
X0314995Y0292427D01*
X0314718Y0292691D01*
X0314507Y0293011D01*
X0314372Y0293369D01*
X0314320Y0293749D01*
X0314355Y0294149D01*
X0314478Y0294532D01*
X0314684Y0294878D01*
X0314961Y0295169D01*
X0315296Y0295391D01*
X0315672Y0295534D01*
X0316070Y0295589D01*
X0316463Y0295538D01*
X0316835Y0295400D01*
X0317167Y0295184D01*
X0317442Y0294899D01*
X0317648Y0294560D01*
X0317772Y0294184D01*
X0317792Y0293974D02*
X0314340Y0293974D01*
X0314357Y0293475D02*
X0317772Y0293475D01*
X0317591Y0292977D02*
X0314529Y0292977D01*
X0314941Y0292478D02*
X0317182Y0292478D01*
X0317676Y0294473D02*
X0314459Y0294473D01*
X0314772Y0294971D02*
X0317373Y0294971D01*
X0316648Y0295470D02*
X0315502Y0295470D01*
D17*
X0327421Y0270309D03*
D18*
X0317579Y0270309D03*
D19*
X0301797Y0033089D03*
X0301797Y0023089D03*
X0261639Y0023089D03*
X0261639Y0033089D03*
X0221876Y0033089D03*
X0221876Y0023089D03*
X0181718Y0023089D03*
X0181718Y0033089D03*
D20*
X0277151Y0176509D02*
X0277151Y0182109D01*
X0287151Y0182109D02*
X0287151Y0176509D01*
X0297151Y0176509D02*
X0297151Y0182109D01*
X0307151Y0182109D02*
X0307151Y0176509D01*
X0317151Y0176509D02*
X0317151Y0182109D01*
X0327151Y0182109D02*
X0327151Y0176509D01*
X0337151Y0176509D02*
X0337151Y0182109D01*
X0347151Y0182109D02*
X0347151Y0176509D01*
X0357151Y0176509D02*
X0357151Y0182109D01*
X0367151Y0182109D02*
X0367151Y0176509D01*
X0377151Y0176509D02*
X0377151Y0182109D01*
X0387151Y0182109D02*
X0387151Y0176509D01*
X0397151Y0176509D02*
X0397151Y0182109D01*
X0407151Y0182109D02*
X0407151Y0176509D01*
X0407151Y0206509D02*
X0407151Y0212109D01*
X0397151Y0212109D02*
X0397151Y0206509D01*
X0387151Y0206509D02*
X0387151Y0212109D01*
X0377151Y0212109D02*
X0377151Y0206509D01*
X0367151Y0206509D02*
X0367151Y0212109D01*
X0357151Y0212109D02*
X0357151Y0206509D01*
X0347151Y0206509D02*
X0347151Y0212109D01*
X0337151Y0212109D02*
X0337151Y0206509D01*
X0327151Y0206509D02*
X0327151Y0212109D01*
X0317151Y0212109D02*
X0317151Y0206509D01*
X0307151Y0206509D02*
X0307151Y0212109D01*
X0297151Y0212109D02*
X0297151Y0206509D01*
X0287151Y0206509D02*
X0287151Y0212109D01*
X0277151Y0212109D02*
X0277151Y0206509D01*
M02*
