%
M48
M72
T01C0.02756
T02C0.03150
T03C0.03200
T04C0.03543
T05C0.03937
T06C0.04000
T07C0.16142
T08C0.25197
%
T01
X317579Y270309
X327421Y270309
T02
X35104Y45490
X40025Y51986
X44946Y45490
X49868Y51986
X54789Y45490
X59710Y51986
X64631Y45490
X69553Y51986
X74474Y45490
X79395Y51986
X84317Y45490
X89238Y51986
X94159Y45490
X48529Y106789
X55025Y111711
X48529Y116632
X55025Y121553
X48529Y126475
X55025Y131396
X48529Y136317
X55025Y141238
X48529Y146160
X55025Y151081
X48529Y156002
X55025Y160923
X48529Y165845
X48529Y276160
X55025Y281081
X48529Y286002
X55025Y290923
X48529Y295845
X55025Y300766
X48529Y305687
X55025Y310608
X48529Y315530
X55025Y320451
X48529Y325372
X55025Y330293
X48529Y335215
X428490Y330293
X434986Y335215
X434986Y325372
X428490Y320451
X434986Y315530
X428490Y310608
X434986Y305687
X428490Y300766
X434986Y295845
X428490Y290923
X434986Y286002
X428490Y281081
X434986Y276160
X434986Y165845
X428490Y160923
X434986Y156002
X428490Y151081
X434986Y146160
X428490Y141238
X434986Y136317
X428490Y131396
X434986Y126475
X428490Y121553
X434986Y116632
X428490Y111711
X434986Y106789
X433647Y51986
X428726Y45490
X423805Y51986
X418883Y45490
X413962Y51986
X409041Y45490
X404120Y51986
X399198Y45490
X394277Y51986
X389356Y45490
X438569Y45490
X443490Y51986
X448411Y45490
T03
X301797Y33089
X301797Y23089
X261639Y23089
X261639Y33089
X221876Y33089
X221876Y23089
X181718Y23089
X181718Y33089
X277151Y179309
X287151Y179309
X297151Y179309
X307151Y179309
X317151Y179309
X327151Y179309
X337151Y179309
X347151Y179309
X357151Y179309
X367151Y179309
X377151Y179309
X387151Y179309
X397151Y179309
X407151Y179309
X407151Y209309
X397151Y209309
X387151Y209309
X377151Y209309
X367151Y209309
X357151Y209309
X347151Y209309
X337151Y209309
X327151Y209309
X317151Y209309
X307151Y209309
X297151Y209309
X287151Y209309
X277151Y209309
T04
X256600Y174309
X226600Y174309
X236876Y65490
X246639Y65490
X276639Y65490
X286797Y65490
X316797Y65490
X206876Y65490
X196718Y65490
X166718Y65490
X48647Y218679
X32860Y218679
X32860Y248679
X48647Y248679
T05
X72663Y253561
X72663Y243561
X72663Y233561
X72663Y223561
X72663Y213561
X72663Y263561
X72663Y273561
X72663Y283561
X72663Y293561
X72663Y303561
X72663Y313561
X72663Y323561
X152663Y323561
X152663Y313561
X152663Y303561
X152663Y293561
X152663Y283561
X152663Y273561
X152663Y263561
X152663Y253561
X152663Y243561
X152663Y233561
X152663Y223561
X152663Y213561
X152663Y203561
X152663Y193561
X152663Y183561
X152663Y173561
T06
X209200Y170509
X209200Y160509
X316100Y246809
X327100Y246809
X327100Y293809
X316100Y293809
X47466Y194782
X37466Y194782
T07
X241757Y132419
T08
X241757Y256435
M30
