G75*
%MOIN*%
%OFA0B0*%
%FSLAX25Y25*%
%IPPOS*%
%LPD*%
%AMOC8*
5,1,8,0,0,1.08239X$1,22.5*
%
%ADD10C,0.00000*%
%ADD11C,0.07000*%
%ADD12C,0.05550*%
%ADD13C,0.07400*%
%ADD14C,0.06400*%
%ADD15C,0.08000*%
%ADD16R,0.06500X0.06500*%
%ADD17C,0.06500*%
%ADD18OC8,0.06600*%
%ADD19C,0.05600*%
%ADD20C,0.01000*%
%ADD21C,0.01200*%
%ADD22C,0.00800*%
D10*
X0001600Y0014309D02*
X0001600Y0352892D01*
X0481915Y0352892D01*
X0481915Y0014309D01*
X0001600Y0014309D01*
X0233686Y0132419D02*
X0233688Y0132617D01*
X0233696Y0132815D01*
X0233708Y0133013D01*
X0233725Y0133210D01*
X0233747Y0133407D01*
X0233773Y0133603D01*
X0233805Y0133799D01*
X0233841Y0133994D01*
X0233882Y0134187D01*
X0233928Y0134380D01*
X0233978Y0134572D01*
X0234034Y0134762D01*
X0234093Y0134951D01*
X0234158Y0135138D01*
X0234227Y0135324D01*
X0234300Y0135508D01*
X0234378Y0135690D01*
X0234461Y0135870D01*
X0234548Y0136048D01*
X0234639Y0136224D01*
X0234735Y0136397D01*
X0234834Y0136568D01*
X0234938Y0136737D01*
X0235046Y0136903D01*
X0235158Y0137066D01*
X0235274Y0137227D01*
X0235394Y0137385D01*
X0235518Y0137539D01*
X0235646Y0137691D01*
X0235777Y0137839D01*
X0235912Y0137984D01*
X0236050Y0138126D01*
X0236192Y0138264D01*
X0236337Y0138399D01*
X0236485Y0138530D01*
X0236637Y0138658D01*
X0236791Y0138782D01*
X0236949Y0138902D01*
X0237110Y0139018D01*
X0237273Y0139130D01*
X0237439Y0139238D01*
X0237608Y0139342D01*
X0237779Y0139441D01*
X0237952Y0139537D01*
X0238128Y0139628D01*
X0238306Y0139715D01*
X0238486Y0139798D01*
X0238668Y0139876D01*
X0238852Y0139949D01*
X0239038Y0140018D01*
X0239225Y0140083D01*
X0239414Y0140142D01*
X0239604Y0140198D01*
X0239796Y0140248D01*
X0239989Y0140294D01*
X0240182Y0140335D01*
X0240377Y0140371D01*
X0240573Y0140403D01*
X0240769Y0140429D01*
X0240966Y0140451D01*
X0241163Y0140468D01*
X0241361Y0140480D01*
X0241559Y0140488D01*
X0241757Y0140490D01*
X0241955Y0140488D01*
X0242153Y0140480D01*
X0242351Y0140468D01*
X0242548Y0140451D01*
X0242745Y0140429D01*
X0242941Y0140403D01*
X0243137Y0140371D01*
X0243332Y0140335D01*
X0243525Y0140294D01*
X0243718Y0140248D01*
X0243910Y0140198D01*
X0244100Y0140142D01*
X0244289Y0140083D01*
X0244476Y0140018D01*
X0244662Y0139949D01*
X0244846Y0139876D01*
X0245028Y0139798D01*
X0245208Y0139715D01*
X0245386Y0139628D01*
X0245562Y0139537D01*
X0245735Y0139441D01*
X0245906Y0139342D01*
X0246075Y0139238D01*
X0246241Y0139130D01*
X0246404Y0139018D01*
X0246565Y0138902D01*
X0246723Y0138782D01*
X0246877Y0138658D01*
X0247029Y0138530D01*
X0247177Y0138399D01*
X0247322Y0138264D01*
X0247464Y0138126D01*
X0247602Y0137984D01*
X0247737Y0137839D01*
X0247868Y0137691D01*
X0247996Y0137539D01*
X0248120Y0137385D01*
X0248240Y0137227D01*
X0248356Y0137066D01*
X0248468Y0136903D01*
X0248576Y0136737D01*
X0248680Y0136568D01*
X0248779Y0136397D01*
X0248875Y0136224D01*
X0248966Y0136048D01*
X0249053Y0135870D01*
X0249136Y0135690D01*
X0249214Y0135508D01*
X0249287Y0135324D01*
X0249356Y0135138D01*
X0249421Y0134951D01*
X0249480Y0134762D01*
X0249536Y0134572D01*
X0249586Y0134380D01*
X0249632Y0134187D01*
X0249673Y0133994D01*
X0249709Y0133799D01*
X0249741Y0133603D01*
X0249767Y0133407D01*
X0249789Y0133210D01*
X0249806Y0133013D01*
X0249818Y0132815D01*
X0249826Y0132617D01*
X0249828Y0132419D01*
X0249826Y0132221D01*
X0249818Y0132023D01*
X0249806Y0131825D01*
X0249789Y0131628D01*
X0249767Y0131431D01*
X0249741Y0131235D01*
X0249709Y0131039D01*
X0249673Y0130844D01*
X0249632Y0130651D01*
X0249586Y0130458D01*
X0249536Y0130266D01*
X0249480Y0130076D01*
X0249421Y0129887D01*
X0249356Y0129700D01*
X0249287Y0129514D01*
X0249214Y0129330D01*
X0249136Y0129148D01*
X0249053Y0128968D01*
X0248966Y0128790D01*
X0248875Y0128614D01*
X0248779Y0128441D01*
X0248680Y0128270D01*
X0248576Y0128101D01*
X0248468Y0127935D01*
X0248356Y0127772D01*
X0248240Y0127611D01*
X0248120Y0127453D01*
X0247996Y0127299D01*
X0247868Y0127147D01*
X0247737Y0126999D01*
X0247602Y0126854D01*
X0247464Y0126712D01*
X0247322Y0126574D01*
X0247177Y0126439D01*
X0247029Y0126308D01*
X0246877Y0126180D01*
X0246723Y0126056D01*
X0246565Y0125936D01*
X0246404Y0125820D01*
X0246241Y0125708D01*
X0246075Y0125600D01*
X0245906Y0125496D01*
X0245735Y0125397D01*
X0245562Y0125301D01*
X0245386Y0125210D01*
X0245208Y0125123D01*
X0245028Y0125040D01*
X0244846Y0124962D01*
X0244662Y0124889D01*
X0244476Y0124820D01*
X0244289Y0124755D01*
X0244100Y0124696D01*
X0243910Y0124640D01*
X0243718Y0124590D01*
X0243525Y0124544D01*
X0243332Y0124503D01*
X0243137Y0124467D01*
X0242941Y0124435D01*
X0242745Y0124409D01*
X0242548Y0124387D01*
X0242351Y0124370D01*
X0242153Y0124358D01*
X0241955Y0124350D01*
X0241757Y0124348D01*
X0241559Y0124350D01*
X0241361Y0124358D01*
X0241163Y0124370D01*
X0240966Y0124387D01*
X0240769Y0124409D01*
X0240573Y0124435D01*
X0240377Y0124467D01*
X0240182Y0124503D01*
X0239989Y0124544D01*
X0239796Y0124590D01*
X0239604Y0124640D01*
X0239414Y0124696D01*
X0239225Y0124755D01*
X0239038Y0124820D01*
X0238852Y0124889D01*
X0238668Y0124962D01*
X0238486Y0125040D01*
X0238306Y0125123D01*
X0238128Y0125210D01*
X0237952Y0125301D01*
X0237779Y0125397D01*
X0237608Y0125496D01*
X0237439Y0125600D01*
X0237273Y0125708D01*
X0237110Y0125820D01*
X0236949Y0125936D01*
X0236791Y0126056D01*
X0236637Y0126180D01*
X0236485Y0126308D01*
X0236337Y0126439D01*
X0236192Y0126574D01*
X0236050Y0126712D01*
X0235912Y0126854D01*
X0235777Y0126999D01*
X0235646Y0127147D01*
X0235518Y0127299D01*
X0235394Y0127453D01*
X0235274Y0127611D01*
X0235158Y0127772D01*
X0235046Y0127935D01*
X0234938Y0128101D01*
X0234834Y0128270D01*
X0234735Y0128441D01*
X0234639Y0128614D01*
X0234548Y0128790D01*
X0234461Y0128968D01*
X0234378Y0129148D01*
X0234300Y0129330D01*
X0234227Y0129514D01*
X0234158Y0129700D01*
X0234093Y0129887D01*
X0234034Y0130076D01*
X0233978Y0130266D01*
X0233928Y0130458D01*
X0233882Y0130651D01*
X0233841Y0130844D01*
X0233805Y0131039D01*
X0233773Y0131235D01*
X0233747Y0131431D01*
X0233725Y0131628D01*
X0233708Y0131825D01*
X0233696Y0132023D01*
X0233688Y0132221D01*
X0233686Y0132419D01*
X0229159Y0256435D02*
X0229163Y0256744D01*
X0229174Y0257053D01*
X0229193Y0257362D01*
X0229220Y0257670D01*
X0229254Y0257977D01*
X0229295Y0258284D01*
X0229344Y0258589D01*
X0229401Y0258893D01*
X0229465Y0259195D01*
X0229537Y0259496D01*
X0229615Y0259795D01*
X0229701Y0260092D01*
X0229795Y0260387D01*
X0229895Y0260679D01*
X0230003Y0260969D01*
X0230118Y0261256D01*
X0230240Y0261540D01*
X0230369Y0261821D01*
X0230504Y0262099D01*
X0230647Y0262374D01*
X0230796Y0262645D01*
X0230951Y0262912D01*
X0231114Y0263175D01*
X0231282Y0263434D01*
X0231457Y0263689D01*
X0231638Y0263940D01*
X0231825Y0264186D01*
X0232019Y0264427D01*
X0232218Y0264664D01*
X0232422Y0264895D01*
X0232633Y0265122D01*
X0232849Y0265343D01*
X0233070Y0265559D01*
X0233297Y0265770D01*
X0233528Y0265974D01*
X0233765Y0266173D01*
X0234006Y0266367D01*
X0234252Y0266554D01*
X0234503Y0266735D01*
X0234758Y0266910D01*
X0235017Y0267078D01*
X0235280Y0267241D01*
X0235547Y0267396D01*
X0235818Y0267545D01*
X0236093Y0267688D01*
X0236371Y0267823D01*
X0236652Y0267952D01*
X0236936Y0268074D01*
X0237223Y0268189D01*
X0237513Y0268297D01*
X0237805Y0268397D01*
X0238100Y0268491D01*
X0238397Y0268577D01*
X0238696Y0268655D01*
X0238997Y0268727D01*
X0239299Y0268791D01*
X0239603Y0268848D01*
X0239908Y0268897D01*
X0240215Y0268938D01*
X0240522Y0268972D01*
X0240830Y0268999D01*
X0241139Y0269018D01*
X0241448Y0269029D01*
X0241757Y0269033D01*
X0242066Y0269029D01*
X0242375Y0269018D01*
X0242684Y0268999D01*
X0242992Y0268972D01*
X0243299Y0268938D01*
X0243606Y0268897D01*
X0243911Y0268848D01*
X0244215Y0268791D01*
X0244517Y0268727D01*
X0244818Y0268655D01*
X0245117Y0268577D01*
X0245414Y0268491D01*
X0245709Y0268397D01*
X0246001Y0268297D01*
X0246291Y0268189D01*
X0246578Y0268074D01*
X0246862Y0267952D01*
X0247143Y0267823D01*
X0247421Y0267688D01*
X0247696Y0267545D01*
X0247967Y0267396D01*
X0248234Y0267241D01*
X0248497Y0267078D01*
X0248756Y0266910D01*
X0249011Y0266735D01*
X0249262Y0266554D01*
X0249508Y0266367D01*
X0249749Y0266173D01*
X0249986Y0265974D01*
X0250217Y0265770D01*
X0250444Y0265559D01*
X0250665Y0265343D01*
X0250881Y0265122D01*
X0251092Y0264895D01*
X0251296Y0264664D01*
X0251495Y0264427D01*
X0251689Y0264186D01*
X0251876Y0263940D01*
X0252057Y0263689D01*
X0252232Y0263434D01*
X0252400Y0263175D01*
X0252563Y0262912D01*
X0252718Y0262645D01*
X0252867Y0262374D01*
X0253010Y0262099D01*
X0253145Y0261821D01*
X0253274Y0261540D01*
X0253396Y0261256D01*
X0253511Y0260969D01*
X0253619Y0260679D01*
X0253719Y0260387D01*
X0253813Y0260092D01*
X0253899Y0259795D01*
X0253977Y0259496D01*
X0254049Y0259195D01*
X0254113Y0258893D01*
X0254170Y0258589D01*
X0254219Y0258284D01*
X0254260Y0257977D01*
X0254294Y0257670D01*
X0254321Y0257362D01*
X0254340Y0257053D01*
X0254351Y0256744D01*
X0254355Y0256435D01*
X0254351Y0256126D01*
X0254340Y0255817D01*
X0254321Y0255508D01*
X0254294Y0255200D01*
X0254260Y0254893D01*
X0254219Y0254586D01*
X0254170Y0254281D01*
X0254113Y0253977D01*
X0254049Y0253675D01*
X0253977Y0253374D01*
X0253899Y0253075D01*
X0253813Y0252778D01*
X0253719Y0252483D01*
X0253619Y0252191D01*
X0253511Y0251901D01*
X0253396Y0251614D01*
X0253274Y0251330D01*
X0253145Y0251049D01*
X0253010Y0250771D01*
X0252867Y0250496D01*
X0252718Y0250225D01*
X0252563Y0249958D01*
X0252400Y0249695D01*
X0252232Y0249436D01*
X0252057Y0249181D01*
X0251876Y0248930D01*
X0251689Y0248684D01*
X0251495Y0248443D01*
X0251296Y0248206D01*
X0251092Y0247975D01*
X0250881Y0247748D01*
X0250665Y0247527D01*
X0250444Y0247311D01*
X0250217Y0247100D01*
X0249986Y0246896D01*
X0249749Y0246697D01*
X0249508Y0246503D01*
X0249262Y0246316D01*
X0249011Y0246135D01*
X0248756Y0245960D01*
X0248497Y0245792D01*
X0248234Y0245629D01*
X0247967Y0245474D01*
X0247696Y0245325D01*
X0247421Y0245182D01*
X0247143Y0245047D01*
X0246862Y0244918D01*
X0246578Y0244796D01*
X0246291Y0244681D01*
X0246001Y0244573D01*
X0245709Y0244473D01*
X0245414Y0244379D01*
X0245117Y0244293D01*
X0244818Y0244215D01*
X0244517Y0244143D01*
X0244215Y0244079D01*
X0243911Y0244022D01*
X0243606Y0243973D01*
X0243299Y0243932D01*
X0242992Y0243898D01*
X0242684Y0243871D01*
X0242375Y0243852D01*
X0242066Y0243841D01*
X0241757Y0243837D01*
X0241448Y0243841D01*
X0241139Y0243852D01*
X0240830Y0243871D01*
X0240522Y0243898D01*
X0240215Y0243932D01*
X0239908Y0243973D01*
X0239603Y0244022D01*
X0239299Y0244079D01*
X0238997Y0244143D01*
X0238696Y0244215D01*
X0238397Y0244293D01*
X0238100Y0244379D01*
X0237805Y0244473D01*
X0237513Y0244573D01*
X0237223Y0244681D01*
X0236936Y0244796D01*
X0236652Y0244918D01*
X0236371Y0245047D01*
X0236093Y0245182D01*
X0235818Y0245325D01*
X0235547Y0245474D01*
X0235280Y0245629D01*
X0235017Y0245792D01*
X0234758Y0245960D01*
X0234503Y0246135D01*
X0234252Y0246316D01*
X0234006Y0246503D01*
X0233765Y0246697D01*
X0233528Y0246896D01*
X0233297Y0247100D01*
X0233070Y0247311D01*
X0232849Y0247527D01*
X0232633Y0247748D01*
X0232422Y0247975D01*
X0232218Y0248206D01*
X0232019Y0248443D01*
X0231825Y0248684D01*
X0231638Y0248930D01*
X0231457Y0249181D01*
X0231282Y0249436D01*
X0231114Y0249695D01*
X0230951Y0249958D01*
X0230796Y0250225D01*
X0230647Y0250496D01*
X0230504Y0250771D01*
X0230369Y0251049D01*
X0230240Y0251330D01*
X0230118Y0251614D01*
X0230003Y0251901D01*
X0229895Y0252191D01*
X0229795Y0252483D01*
X0229701Y0252778D01*
X0229615Y0253075D01*
X0229537Y0253374D01*
X0229465Y0253675D01*
X0229401Y0253977D01*
X0229344Y0254281D01*
X0229295Y0254586D01*
X0229254Y0254893D01*
X0229220Y0255200D01*
X0229193Y0255508D01*
X0229174Y0255817D01*
X0229163Y0256126D01*
X0229159Y0256435D01*
D11*
X0152663Y0253561D03*
X0152663Y0243561D03*
X0152663Y0233561D03*
X0152663Y0223561D03*
X0152663Y0213561D03*
X0152663Y0203561D03*
X0152663Y0193561D03*
X0152663Y0183561D03*
X0152663Y0173561D03*
X0072663Y0213561D03*
X0072663Y0223561D03*
X0072663Y0233561D03*
X0072663Y0243561D03*
X0072663Y0253561D03*
X0072663Y0263561D03*
X0072663Y0273561D03*
X0072663Y0283561D03*
X0072663Y0293561D03*
X0072663Y0303561D03*
X0072663Y0313561D03*
X0072663Y0323561D03*
X0152663Y0323561D03*
X0152663Y0313561D03*
X0152663Y0303561D03*
X0152663Y0293561D03*
X0152663Y0283561D03*
X0152663Y0273561D03*
X0152663Y0263561D03*
D12*
X0055025Y0281081D03*
X0048529Y0286002D03*
X0055025Y0290923D03*
X0048529Y0295845D03*
X0055025Y0300766D03*
X0048529Y0305687D03*
X0055025Y0310608D03*
X0048529Y0315530D03*
X0055025Y0320451D03*
X0048529Y0325372D03*
X0055025Y0330293D03*
X0048529Y0335215D03*
X0048529Y0276160D03*
X0048529Y0165845D03*
X0055025Y0160923D03*
X0048529Y0156002D03*
X0055025Y0151081D03*
X0048529Y0146160D03*
X0055025Y0141238D03*
X0048529Y0136317D03*
X0055025Y0131396D03*
X0048529Y0126475D03*
X0055025Y0121553D03*
X0048529Y0116632D03*
X0055025Y0111711D03*
X0048529Y0106789D03*
X0049868Y0051986D03*
X0054789Y0045490D03*
X0059710Y0051986D03*
X0064631Y0045490D03*
X0069553Y0051986D03*
X0074474Y0045490D03*
X0079395Y0051986D03*
X0084317Y0045490D03*
X0089238Y0051986D03*
X0094159Y0045490D03*
X0044946Y0045490D03*
X0040025Y0051986D03*
X0035104Y0045490D03*
X0389356Y0045490D03*
X0394277Y0051986D03*
X0399198Y0045490D03*
X0404120Y0051986D03*
X0409041Y0045490D03*
X0413962Y0051986D03*
X0418883Y0045490D03*
X0423805Y0051986D03*
X0428726Y0045490D03*
X0433647Y0051986D03*
X0438569Y0045490D03*
X0443490Y0051986D03*
X0448411Y0045490D03*
X0434986Y0106789D03*
X0428490Y0111711D03*
X0434986Y0116632D03*
X0428490Y0121553D03*
X0434986Y0126475D03*
X0428490Y0131396D03*
X0434986Y0136317D03*
X0428490Y0141238D03*
X0434986Y0146160D03*
X0428490Y0151081D03*
X0434986Y0156002D03*
X0428490Y0160923D03*
X0434986Y0165845D03*
X0434986Y0276160D03*
X0428490Y0281081D03*
X0434986Y0286002D03*
X0428490Y0290923D03*
X0434986Y0295845D03*
X0428490Y0300766D03*
X0434986Y0305687D03*
X0428490Y0310608D03*
X0434986Y0315530D03*
X0428490Y0320451D03*
X0434986Y0325372D03*
X0428490Y0330293D03*
X0434986Y0335215D03*
D13*
X0256600Y0174309D03*
X0226600Y0174309D03*
X0236876Y0065490D03*
X0246639Y0065490D03*
X0276639Y0065490D03*
X0286797Y0065490D03*
X0316797Y0065490D03*
X0206876Y0065490D03*
X0196718Y0065490D03*
X0166718Y0065490D03*
X0048647Y0218679D03*
X0032860Y0218679D03*
X0032860Y0248679D03*
X0048647Y0248679D03*
D14*
X0047466Y0194782D03*
X0037466Y0194782D03*
X0209200Y0170509D03*
X0209200Y0160509D03*
D15*
X0316100Y0246809D03*
X0327100Y0246809D03*
X0327100Y0293809D03*
X0316100Y0293809D03*
D16*
X0327421Y0270309D03*
D17*
X0317579Y0270309D03*
D18*
X0301797Y0033089D03*
X0301797Y0023089D03*
X0261639Y0023089D03*
X0261639Y0033089D03*
X0221876Y0033089D03*
X0221876Y0023089D03*
X0181718Y0023089D03*
X0181718Y0033089D03*
D19*
X0277151Y0176509D02*
X0277151Y0182109D01*
X0287151Y0182109D02*
X0287151Y0176509D01*
X0297151Y0176509D02*
X0297151Y0182109D01*
X0307151Y0182109D02*
X0307151Y0176509D01*
X0317151Y0176509D02*
X0317151Y0182109D01*
X0327151Y0182109D02*
X0327151Y0176509D01*
X0337151Y0176509D02*
X0337151Y0182109D01*
X0347151Y0182109D02*
X0347151Y0176509D01*
X0357151Y0176509D02*
X0357151Y0182109D01*
X0367151Y0182109D02*
X0367151Y0176509D01*
X0377151Y0176509D02*
X0377151Y0182109D01*
X0387151Y0182109D02*
X0387151Y0176509D01*
X0397151Y0176509D02*
X0397151Y0182109D01*
X0407151Y0182109D02*
X0407151Y0176509D01*
X0407151Y0206509D02*
X0407151Y0212109D01*
X0397151Y0212109D02*
X0397151Y0206509D01*
X0387151Y0206509D02*
X0387151Y0212109D01*
X0377151Y0212109D02*
X0377151Y0206509D01*
X0367151Y0206509D02*
X0367151Y0212109D01*
X0357151Y0212109D02*
X0357151Y0206509D01*
X0347151Y0206509D02*
X0347151Y0212109D01*
X0337151Y0212109D02*
X0337151Y0206509D01*
X0327151Y0206509D02*
X0327151Y0212109D01*
X0317151Y0212109D02*
X0317151Y0206509D01*
X0307151Y0206509D02*
X0307151Y0212109D01*
X0297151Y0212109D02*
X0297151Y0206509D01*
X0287151Y0206509D02*
X0287151Y0212109D01*
X0277151Y0212109D02*
X0277151Y0206509D01*
D20*
X0277151Y0209309D02*
X0277151Y0284742D01*
X0268332Y0293561D01*
X0152663Y0293561D01*
X0152663Y0283561D02*
X0164435Y0283561D01*
X0170458Y0277538D01*
X0170458Y0206160D01*
X0175025Y0201593D01*
X0284159Y0201593D01*
X0287151Y0204585D01*
X0287151Y0209309D01*
X0297151Y0209309D02*
X0297151Y0200412D01*
X0293962Y0197223D01*
X0170222Y0197223D01*
X0165301Y0202144D01*
X0165301Y0269900D01*
X0161639Y0273561D01*
X0152663Y0273561D01*
X0152663Y0263561D02*
X0157348Y0263561D01*
X0159828Y0261081D01*
X0159828Y0176671D01*
X0165991Y0170509D01*
X0209200Y0170509D01*
X0209200Y0160509D02*
X0156424Y0160509D01*
X0146285Y0170648D01*
X0146285Y0181160D01*
X0148687Y0183561D01*
X0152663Y0183561D01*
X0141324Y0169230D02*
X0159395Y0151160D01*
X0265340Y0151160D01*
X0277151Y0162971D01*
X0277151Y0179309D01*
X0297151Y0179309D02*
X0297151Y0189309D01*
X0317151Y0209309D01*
X0372100Y0196909D02*
X0377151Y0201960D01*
X0377151Y0209309D01*
X0387151Y0209309D02*
X0387151Y0310215D01*
X0357072Y0340293D01*
X0117514Y0340293D01*
X0110852Y0328930D01*
X0110852Y0173797D01*
X0102899Y0165845D01*
X0048529Y0165845D01*
X0055025Y0160923D02*
X0033647Y0160923D01*
X0084986Y0212262D01*
X0085340Y0212262D01*
X0085340Y0326659D01*
X0097792Y0342656D01*
X0360824Y0342656D01*
X0397151Y0306328D01*
X0397151Y0209309D01*
X0407151Y0209309D02*
X0411900Y0209309D01*
X0416677Y0204532D01*
X0416677Y0160423D01*
X0330951Y0074585D01*
X0157781Y0074585D01*
X0118962Y0035766D01*
X0078883Y0035766D01*
X0074474Y0040175D01*
X0074474Y0045490D01*
X0074474Y0107971D01*
X0070655Y0111789D01*
X0055104Y0111789D01*
X0055025Y0111711D01*
X0048529Y0116632D02*
X0072545Y0116632D01*
X0072761Y0116415D01*
X0079395Y0109782D01*
X0079395Y0051986D01*
X0079395Y0043207D01*
X0083372Y0039230D01*
X0113805Y0039230D01*
X0154120Y0079545D01*
X0324649Y0079545D01*
X0406091Y0161000D01*
X0407151Y0162060D01*
X0407151Y0179309D01*
X0397151Y0179309D02*
X0397151Y0163082D01*
X0388767Y0154698D01*
X0318200Y0084309D01*
X0111088Y0084309D01*
X0084317Y0057537D01*
X0084317Y0045490D01*
X0069553Y0051986D02*
X0025025Y0096514D01*
X0025025Y0153049D01*
X0032899Y0160923D01*
X0033647Y0160923D01*
X0048529Y0146160D02*
X0048962Y0145726D01*
X0125537Y0145726D01*
X0125537Y0211041D01*
X0138411Y0223915D01*
X0152309Y0223915D01*
X0152663Y0223561D01*
X0152663Y0233561D02*
X0134946Y0233561D01*
X0117506Y0216120D01*
X0117506Y0151120D01*
X0055065Y0151120D01*
X0055025Y0151081D01*
X0055025Y0141238D02*
X0055065Y0141199D01*
X0132112Y0141199D01*
X0134277Y0143364D01*
X0134277Y0206947D01*
X0140419Y0213089D01*
X0152191Y0213089D01*
X0152663Y0213561D01*
X0152663Y0203561D02*
X0152506Y0203404D01*
X0144435Y0203404D01*
X0141324Y0200293D01*
X0141324Y0169230D01*
X0066587Y0131396D02*
X0055025Y0131396D01*
X0066587Y0131396D02*
X0108673Y0089309D01*
X0305891Y0089309D01*
X0306600Y0089309D01*
X0312417Y0089309D01*
X0372100Y0148993D01*
X0372100Y0196909D01*
X0423293Y0156002D02*
X0359378Y0092087D01*
X0359378Y0066177D01*
X0380065Y0045490D01*
X0389356Y0045490D01*
X0387112Y0051986D02*
X0372033Y0067065D01*
X0372033Y0084782D01*
X0428490Y0141238D01*
X0428490Y0151081D02*
X0439828Y0151081D01*
X0446088Y0144309D01*
X0446088Y0080140D01*
X0420966Y0054591D01*
X0423805Y0051986D01*
X0444134Y0035451D02*
X0452486Y0043802D01*
X0452486Y0043896D01*
X0458293Y0049703D01*
X0458293Y0144285D01*
X0440208Y0160977D01*
X0428543Y0160977D01*
X0428490Y0160923D01*
X0423293Y0156002D02*
X0434986Y0156002D01*
X0434986Y0165845D02*
X0447545Y0165845D01*
X0452387Y0170687D01*
X0452387Y0331986D01*
X0449159Y0335215D01*
X0434986Y0335215D01*
X0428490Y0330293D02*
X0390773Y0330293D01*
X0371324Y0349742D01*
X0041049Y0349742D01*
X0034710Y0341002D01*
X0034710Y0318837D01*
X0038017Y0315530D01*
X0048529Y0315530D01*
X0048490Y0320451D02*
X0055025Y0320451D01*
X0048529Y0320490D02*
X0048529Y0325372D01*
X0048529Y0320490D02*
X0048490Y0320451D01*
X0058332Y0330293D02*
X0060773Y0327852D01*
X0060773Y0300780D01*
X0060773Y0292695D01*
X0059002Y0290923D01*
X0055025Y0290923D01*
X0048529Y0286002D02*
X0042702Y0286002D01*
X0040891Y0287813D01*
X0040891Y0298482D01*
X0043175Y0300766D01*
X0055025Y0300766D01*
X0056659Y0304841D02*
X0055813Y0305687D01*
X0048529Y0305687D01*
X0046841Y0309762D02*
X0034957Y0297878D01*
X0034957Y0277079D01*
X0039952Y0272085D01*
X0062934Y0272085D01*
X0069567Y0278719D01*
X0075694Y0278719D01*
X0078805Y0275608D01*
X0078805Y0246081D01*
X0076285Y0243561D01*
X0072663Y0243561D01*
X0072663Y0233561D02*
X0065891Y0233561D01*
X0051009Y0218679D01*
X0048647Y0218679D01*
X0032860Y0218679D02*
X0032860Y0209388D01*
X0047466Y0194782D01*
X0048647Y0248679D02*
X0032860Y0248679D01*
X0026009Y0263561D02*
X0013017Y0250569D01*
X0013017Y0026868D01*
X0055079Y0026868D01*
X0059730Y0031519D01*
X0059730Y0051967D01*
X0059710Y0051986D01*
X0064631Y0045490D02*
X0064631Y0031145D01*
X0056561Y0023074D01*
X0008057Y0023074D01*
X0008057Y0252852D01*
X0022387Y0267183D01*
X0066285Y0267183D01*
X0072663Y0273561D01*
X0072663Y0263561D02*
X0026009Y0263561D01*
X0060773Y0300780D02*
X0056713Y0304841D01*
X0056659Y0304841D01*
X0054179Y0309762D02*
X0046841Y0309762D01*
X0054179Y0309762D02*
X0055025Y0310608D01*
X0055222Y0330097D02*
X0058529Y0330097D01*
X0069513Y0345018D01*
X0364238Y0345018D01*
X0423254Y0286002D01*
X0434986Y0286002D01*
X0439710Y0286002D01*
X0442348Y0288640D01*
X0442348Y0303758D01*
X0440419Y0305687D01*
X0441009Y0305687D01*
X0444002Y0308679D01*
X0444002Y0316396D01*
X0439946Y0320451D01*
X0428490Y0320451D01*
X0422506Y0325412D02*
X0434946Y0325412D01*
X0434986Y0325372D01*
X0422506Y0325412D02*
X0418135Y0321002D01*
X0418135Y0314978D01*
X0400261Y0314978D01*
X0367860Y0347380D01*
X0057545Y0347380D01*
X0048529Y0335215D01*
X0055025Y0330293D02*
X0058332Y0330293D01*
X0055222Y0330097D02*
X0055025Y0330293D01*
X0418135Y0314978D02*
X0422466Y0310608D01*
X0428490Y0310608D01*
X0423332Y0310608D01*
X0418135Y0305372D01*
X0418135Y0298128D01*
X0425380Y0290884D01*
X0425419Y0290923D01*
X0428490Y0290923D01*
X0434986Y0305687D02*
X0440419Y0305687D01*
X0394277Y0051986D02*
X0387112Y0051986D01*
X0399198Y0045490D02*
X0399198Y0035687D01*
X0399435Y0035451D01*
X0444134Y0035451D01*
D21*
X0445421Y0033485D02*
X0480115Y0033485D01*
X0480115Y0032287D02*
X0306897Y0032287D01*
X0306897Y0033485D02*
X0398148Y0033485D01*
X0398482Y0033151D02*
X0445087Y0033151D01*
X0454786Y0042850D01*
X0454786Y0042943D01*
X0459246Y0047403D01*
X0460593Y0048750D01*
X0460593Y0143386D01*
X0460629Y0143425D01*
X0460593Y0144331D01*
X0460593Y0145238D01*
X0460555Y0145275D01*
X0460553Y0145329D01*
X0459887Y0145944D01*
X0459246Y0146585D01*
X0459192Y0146585D01*
X0441802Y0162636D01*
X0441161Y0163277D01*
X0441107Y0163277D01*
X0441068Y0163313D01*
X0440162Y0163277D01*
X0438874Y0163277D01*
X0438985Y0163545D01*
X0448498Y0163545D01*
X0454687Y0169734D01*
X0454687Y0332939D01*
X0453340Y0334286D01*
X0450112Y0337515D01*
X0438985Y0337515D01*
X0438864Y0337806D01*
X0437577Y0339093D01*
X0435896Y0339789D01*
X0434076Y0339789D01*
X0432394Y0339093D01*
X0431107Y0337806D01*
X0430411Y0336125D01*
X0430411Y0334449D01*
X0429400Y0334868D01*
X0427580Y0334868D01*
X0425898Y0334172D01*
X0424611Y0332885D01*
X0424491Y0332593D01*
X0391726Y0332593D01*
X0373227Y0351092D01*
X0480115Y0351092D01*
X0480115Y0016109D01*
X0003400Y0016109D01*
X0003400Y0351092D01*
X0039146Y0351092D01*
X0038749Y0350695D01*
X0038749Y0350488D01*
X0032955Y0342500D01*
X0032410Y0341955D01*
X0032410Y0341748D01*
X0032289Y0341581D01*
X0032410Y0340820D01*
X0032410Y0317884D01*
X0037065Y0313230D01*
X0044530Y0313230D01*
X0044651Y0312938D01*
X0045708Y0311881D01*
X0034005Y0300178D01*
X0032657Y0298831D01*
X0032657Y0276126D01*
X0034005Y0274779D01*
X0038999Y0269785D01*
X0063886Y0269785D01*
X0067363Y0273262D01*
X0067363Y0272507D01*
X0067654Y0271805D01*
X0065332Y0269483D01*
X0021435Y0269483D01*
X0007104Y0255152D01*
X0005757Y0253805D01*
X0005757Y0022121D01*
X0007104Y0020774D01*
X0057513Y0020774D01*
X0066931Y0030192D01*
X0066931Y0041491D01*
X0067223Y0041612D01*
X0068510Y0042899D01*
X0069206Y0044580D01*
X0069206Y0046400D01*
X0068787Y0047412D01*
X0070318Y0047412D01*
X0069899Y0046400D01*
X0069899Y0044580D01*
X0070596Y0042899D01*
X0071883Y0041612D01*
X0072174Y0041491D01*
X0072174Y0039223D01*
X0073521Y0037875D01*
X0077931Y0033466D01*
X0119915Y0033466D01*
X0158734Y0072285D01*
X0329999Y0072285D01*
X0330000Y0072284D01*
X0330942Y0072285D01*
X0331904Y0072285D01*
X0331905Y0072285D01*
X0331905Y0072285D01*
X0332574Y0072955D01*
X0333251Y0073632D01*
X0333251Y0073633D01*
X0418299Y0158792D01*
X0418977Y0159470D01*
X0418977Y0159471D01*
X0418978Y0159471D01*
X0418977Y0160415D01*
X0418977Y0205485D01*
X0417630Y0206832D01*
X0414200Y0210262D01*
X0412853Y0211609D01*
X0411751Y0211609D01*
X0411751Y0213024D01*
X0411051Y0214715D01*
X0409757Y0216009D01*
X0408066Y0216709D01*
X0406236Y0216709D01*
X0404545Y0216009D01*
X0403251Y0214715D01*
X0402551Y0213024D01*
X0402551Y0205594D01*
X0403251Y0203903D01*
X0404545Y0202609D01*
X0406236Y0201909D01*
X0408066Y0201909D01*
X0409757Y0202609D01*
X0411051Y0203903D01*
X0411751Y0205594D01*
X0411751Y0206205D01*
X0414377Y0203579D01*
X0414377Y0161374D01*
X0329998Y0076885D01*
X0156828Y0076885D01*
X0118010Y0038066D01*
X0115893Y0038066D01*
X0155072Y0077245D01*
X0323696Y0077245D01*
X0324639Y0077245D01*
X0325602Y0077245D01*
X0326319Y0077963D01*
X0326949Y0078593D01*
X0407744Y0159400D01*
X0409451Y0161107D01*
X0409451Y0172483D01*
X0409757Y0172609D01*
X0411051Y0173903D01*
X0411751Y0175594D01*
X0411751Y0183024D01*
X0411051Y0184715D01*
X0409757Y0186009D01*
X0408066Y0186709D01*
X0406236Y0186709D01*
X0404545Y0186009D01*
X0403251Y0184715D01*
X0402551Y0183024D01*
X0402551Y0175594D01*
X0403251Y0173903D01*
X0404545Y0172609D01*
X0404851Y0172483D01*
X0404851Y0163013D01*
X0404415Y0162577D01*
X0403791Y0161952D01*
X0323696Y0081845D01*
X0153167Y0081845D01*
X0112852Y0041530D01*
X0096554Y0041530D01*
X0096750Y0041612D01*
X0098037Y0042899D01*
X0098734Y0044580D01*
X0098734Y0046400D01*
X0098037Y0048082D01*
X0096750Y0049369D01*
X0095069Y0050065D01*
X0093394Y0050065D01*
X0093813Y0051076D01*
X0093813Y0052896D01*
X0093116Y0054578D01*
X0091829Y0055865D01*
X0090148Y0056561D01*
X0088328Y0056561D01*
X0086646Y0055865D01*
X0086617Y0055835D01*
X0086617Y0056585D01*
X0112041Y0082009D01*
X0318197Y0082009D01*
X0319150Y0082008D01*
X0319151Y0082009D01*
X0319153Y0082009D01*
X0319825Y0082682D01*
X0389718Y0152398D01*
X0389720Y0152398D01*
X0390391Y0153069D01*
X0391066Y0153742D01*
X0391066Y0153744D01*
X0399451Y0162129D01*
X0399451Y0172483D01*
X0399757Y0172609D01*
X0401051Y0173903D01*
X0401751Y0175594D01*
X0401751Y0183024D01*
X0401051Y0184715D01*
X0399757Y0186009D01*
X0398066Y0186709D01*
X0396236Y0186709D01*
X0394545Y0186009D01*
X0393251Y0184715D01*
X0392551Y0183024D01*
X0392551Y0175594D01*
X0393251Y0173903D01*
X0394545Y0172609D01*
X0394851Y0172483D01*
X0394851Y0164034D01*
X0387142Y0156325D01*
X0317249Y0086609D01*
X0110135Y0086609D01*
X0082017Y0058490D01*
X0082017Y0055835D01*
X0081987Y0055865D01*
X0081695Y0055985D01*
X0081695Y0110734D01*
X0075061Y0117368D01*
X0073498Y0118932D01*
X0058874Y0118932D01*
X0058904Y0118962D01*
X0059600Y0120643D01*
X0059600Y0122463D01*
X0058904Y0124145D01*
X0057617Y0125432D01*
X0055935Y0126128D01*
X0054115Y0126128D01*
X0053104Y0125709D01*
X0053104Y0127240D01*
X0054115Y0126821D01*
X0055935Y0126821D01*
X0057617Y0127517D01*
X0058904Y0128804D01*
X0059024Y0129096D01*
X0065634Y0129096D01*
X0106373Y0088356D01*
X0107720Y0087009D01*
X0313369Y0087009D01*
X0314717Y0088356D01*
X0314717Y0088356D01*
X0373053Y0146693D01*
X0374400Y0148040D01*
X0374400Y0172755D01*
X0374545Y0172609D01*
X0376236Y0171909D01*
X0378066Y0171909D01*
X0379757Y0172609D01*
X0381051Y0173903D01*
X0381751Y0175594D01*
X0381751Y0183024D01*
X0381051Y0184715D01*
X0379757Y0186009D01*
X0378066Y0186709D01*
X0376236Y0186709D01*
X0374545Y0186009D01*
X0374400Y0185863D01*
X0374400Y0195956D01*
X0378104Y0199660D01*
X0379451Y0201008D01*
X0379451Y0202483D01*
X0379757Y0202609D01*
X0381051Y0203903D01*
X0381751Y0205594D01*
X0381751Y0213024D01*
X0381051Y0214715D01*
X0379757Y0216009D01*
X0378066Y0216709D01*
X0376236Y0216709D01*
X0374545Y0216009D01*
X0373251Y0214715D01*
X0372551Y0213024D01*
X0372551Y0205594D01*
X0373251Y0203903D01*
X0374545Y0202609D01*
X0374547Y0202609D01*
X0369800Y0197862D01*
X0369800Y0185966D01*
X0369757Y0186009D01*
X0368066Y0186709D01*
X0366236Y0186709D01*
X0364545Y0186009D01*
X0363251Y0184715D01*
X0362551Y0183024D01*
X0362551Y0175594D01*
X0363251Y0173903D01*
X0364545Y0172609D01*
X0366236Y0171909D01*
X0368066Y0171909D01*
X0369757Y0172609D01*
X0369800Y0172653D01*
X0369800Y0149945D01*
X0311464Y0091609D01*
X0109626Y0091609D01*
X0068887Y0132348D01*
X0067539Y0133696D01*
X0059024Y0133696D01*
X0058904Y0133987D01*
X0057617Y0135274D01*
X0055935Y0135971D01*
X0054115Y0135971D01*
X0053104Y0135552D01*
X0053104Y0137082D01*
X0054115Y0136663D01*
X0055935Y0136663D01*
X0057617Y0137360D01*
X0058904Y0138647D01*
X0059008Y0138899D01*
X0133064Y0138899D01*
X0134412Y0140246D01*
X0135230Y0141064D01*
X0136577Y0142412D01*
X0136577Y0205994D01*
X0141372Y0210789D01*
X0148075Y0210789D01*
X0148170Y0210559D01*
X0149661Y0209068D01*
X0151176Y0208440D01*
X0150705Y0208287D01*
X0149990Y0207923D01*
X0149341Y0207451D01*
X0148773Y0206884D01*
X0148301Y0206234D01*
X0147937Y0205519D01*
X0147689Y0204755D01*
X0147563Y0203962D01*
X0147563Y0203945D01*
X0152279Y0203945D01*
X0152279Y0203177D01*
X0147563Y0203177D01*
X0147563Y0203160D01*
X0147689Y0202367D01*
X0147937Y0201603D01*
X0148301Y0200888D01*
X0148773Y0200239D01*
X0149341Y0199671D01*
X0149990Y0199199D01*
X0150705Y0198835D01*
X0151176Y0198682D01*
X0149661Y0198054D01*
X0148170Y0196563D01*
X0147363Y0194615D01*
X0147363Y0192507D01*
X0148170Y0190559D01*
X0149661Y0189068D01*
X0150885Y0188561D01*
X0149661Y0188054D01*
X0148170Y0186563D01*
X0147879Y0185861D01*
X0147734Y0185861D01*
X0146387Y0184514D01*
X0143985Y0182112D01*
X0143985Y0169695D01*
X0155471Y0158209D01*
X0204741Y0158209D01*
X0204961Y0157677D01*
X0206368Y0156270D01*
X0208205Y0155509D01*
X0210195Y0155509D01*
X0212032Y0156270D01*
X0213439Y0157677D01*
X0214200Y0159515D01*
X0214200Y0161504D01*
X0213439Y0163341D01*
X0212032Y0164748D01*
X0210195Y0165509D01*
X0212032Y0166270D01*
X0213439Y0167677D01*
X0214200Y0169515D01*
X0214200Y0171504D01*
X0213439Y0173341D01*
X0212032Y0174748D01*
X0210195Y0175509D01*
X0208205Y0175509D01*
X0206368Y0174748D01*
X0204961Y0173341D01*
X0204741Y0172809D01*
X0166943Y0172809D01*
X0162128Y0177624D01*
X0162128Y0262033D01*
X0159648Y0264514D01*
X0158301Y0265861D01*
X0157447Y0265861D01*
X0157156Y0266563D01*
X0155665Y0268054D01*
X0154441Y0268561D01*
X0155665Y0269068D01*
X0157156Y0270559D01*
X0157447Y0271261D01*
X0160687Y0271261D01*
X0163001Y0268947D01*
X0163001Y0201191D01*
X0169269Y0194923D01*
X0294915Y0194923D01*
X0299451Y0199459D01*
X0299451Y0202483D01*
X0299757Y0202609D01*
X0301051Y0203903D01*
X0301751Y0205594D01*
X0301751Y0213024D01*
X0301051Y0214715D01*
X0299757Y0216009D01*
X0298066Y0216709D01*
X0296236Y0216709D01*
X0294545Y0216009D01*
X0293251Y0214715D01*
X0292551Y0213024D01*
X0292551Y0205594D01*
X0293251Y0203903D01*
X0294545Y0202609D01*
X0294851Y0202483D01*
X0294851Y0201364D01*
X0293010Y0199523D01*
X0285342Y0199523D01*
X0286459Y0200640D01*
X0287728Y0201909D01*
X0288066Y0201909D01*
X0289757Y0202609D01*
X0291051Y0203903D01*
X0291751Y0205594D01*
X0291751Y0213024D01*
X0291051Y0214715D01*
X0289757Y0216009D01*
X0288066Y0216709D01*
X0286236Y0216709D01*
X0284545Y0216009D01*
X0283251Y0214715D01*
X0282551Y0213024D01*
X0282551Y0205594D01*
X0283241Y0203928D01*
X0283206Y0203893D01*
X0281040Y0203893D01*
X0281051Y0203903D01*
X0281751Y0205594D01*
X0281751Y0213024D01*
X0281051Y0214715D01*
X0279757Y0216009D01*
X0279451Y0216135D01*
X0279451Y0285695D01*
X0278104Y0287042D01*
X0269285Y0295861D01*
X0157447Y0295861D01*
X0157156Y0296563D01*
X0155665Y0298054D01*
X0154441Y0298561D01*
X0155665Y0299068D01*
X0157156Y0300559D01*
X0157963Y0302507D01*
X0157963Y0304615D01*
X0157156Y0306563D01*
X0155665Y0308054D01*
X0154441Y0308561D01*
X0155665Y0309068D01*
X0157156Y0310559D01*
X0157963Y0312507D01*
X0157963Y0314615D01*
X0157156Y0316563D01*
X0155665Y0318054D01*
X0154441Y0318561D01*
X0155665Y0319068D01*
X0157156Y0320559D01*
X0157963Y0322507D01*
X0157963Y0324615D01*
X0157156Y0326563D01*
X0155665Y0328054D01*
X0153717Y0328861D01*
X0151609Y0328861D01*
X0149661Y0328054D01*
X0148170Y0326563D01*
X0147363Y0324615D01*
X0147363Y0322507D01*
X0148170Y0320559D01*
X0149661Y0319068D01*
X0150885Y0318561D01*
X0149661Y0318054D01*
X0148170Y0316563D01*
X0147363Y0314615D01*
X0147363Y0312507D01*
X0148170Y0310559D01*
X0149661Y0309068D01*
X0150885Y0308561D01*
X0149661Y0308054D01*
X0148170Y0306563D01*
X0147363Y0304615D01*
X0147363Y0302507D01*
X0148170Y0300559D01*
X0149661Y0299068D01*
X0150885Y0298561D01*
X0149661Y0298054D01*
X0148170Y0296563D01*
X0147363Y0294615D01*
X0147363Y0292507D01*
X0148170Y0290559D01*
X0149661Y0289068D01*
X0150885Y0288561D01*
X0149661Y0288054D01*
X0148170Y0286563D01*
X0147363Y0284615D01*
X0147363Y0282507D01*
X0148170Y0280559D01*
X0149661Y0279068D01*
X0150885Y0278561D01*
X0149661Y0278054D01*
X0148170Y0276563D01*
X0147363Y0274615D01*
X0147363Y0272507D01*
X0148170Y0270559D01*
X0149661Y0269068D01*
X0150885Y0268561D01*
X0149661Y0268054D01*
X0148170Y0266563D01*
X0147363Y0264615D01*
X0147363Y0262507D01*
X0148170Y0260559D01*
X0149661Y0259068D01*
X0150885Y0258561D01*
X0149661Y0258054D01*
X0148170Y0256563D01*
X0147363Y0254615D01*
X0147363Y0252507D01*
X0148170Y0250559D01*
X0149661Y0249068D01*
X0150885Y0248561D01*
X0149661Y0248054D01*
X0148170Y0246563D01*
X0147363Y0244615D01*
X0147363Y0242507D01*
X0148170Y0240559D01*
X0149661Y0239068D01*
X0150885Y0238561D01*
X0149661Y0238054D01*
X0148170Y0236563D01*
X0147879Y0235861D01*
X0133994Y0235861D01*
X0115206Y0217073D01*
X0115206Y0153420D01*
X0059008Y0153420D01*
X0058904Y0153672D01*
X0057617Y0154959D01*
X0055935Y0155656D01*
X0054115Y0155656D01*
X0053104Y0155237D01*
X0053104Y0156767D01*
X0054115Y0156349D01*
X0055935Y0156349D01*
X0057617Y0157045D01*
X0058904Y0158332D01*
X0059600Y0160013D01*
X0059600Y0161833D01*
X0058904Y0163515D01*
X0058874Y0163545D01*
X0103852Y0163545D01*
X0113152Y0172845D01*
X0113152Y0328305D01*
X0118832Y0337993D01*
X0356120Y0337993D01*
X0384851Y0309262D01*
X0384851Y0216135D01*
X0384545Y0216009D01*
X0383251Y0214715D01*
X0382551Y0213024D01*
X0382551Y0205594D01*
X0383251Y0203903D01*
X0384545Y0202609D01*
X0386236Y0201909D01*
X0388066Y0201909D01*
X0389757Y0202609D01*
X0391051Y0203903D01*
X0391751Y0205594D01*
X0391751Y0213024D01*
X0391051Y0214715D01*
X0389757Y0216009D01*
X0389451Y0216135D01*
X0389451Y0310776D01*
X0394851Y0305376D01*
X0394851Y0216135D01*
X0394545Y0216009D01*
X0393251Y0214715D01*
X0392551Y0213024D01*
X0392551Y0205594D01*
X0393251Y0203903D01*
X0394545Y0202609D01*
X0396236Y0201909D01*
X0398066Y0201909D01*
X0399757Y0202609D01*
X0401051Y0203903D01*
X0401751Y0205594D01*
X0401751Y0213024D01*
X0401051Y0214715D01*
X0399757Y0216009D01*
X0399451Y0216135D01*
X0399451Y0306552D01*
X0422301Y0283702D01*
X0424641Y0283702D01*
X0424611Y0283672D01*
X0423915Y0281991D01*
X0423915Y0280171D01*
X0424611Y0278489D01*
X0425898Y0277202D01*
X0427580Y0276506D01*
X0429400Y0276506D01*
X0430411Y0276925D01*
X0430411Y0275250D01*
X0431107Y0273568D01*
X0432394Y0272281D01*
X0434076Y0271585D01*
X0435896Y0271585D01*
X0437577Y0272281D01*
X0438864Y0273568D01*
X0439561Y0275250D01*
X0439561Y0277070D01*
X0438864Y0278751D01*
X0437577Y0280038D01*
X0435896Y0280734D01*
X0434076Y0280734D01*
X0433065Y0280315D01*
X0433065Y0281846D01*
X0434076Y0281427D01*
X0435896Y0281427D01*
X0437577Y0282124D01*
X0438864Y0283411D01*
X0438985Y0283702D01*
X0440663Y0283702D01*
X0443301Y0286340D01*
X0444648Y0287687D01*
X0444648Y0304711D01*
X0443967Y0305392D01*
X0446302Y0307727D01*
X0446302Y0317348D01*
X0444954Y0318696D01*
X0440899Y0322751D01*
X0438834Y0322751D01*
X0438864Y0322781D01*
X0439561Y0324462D01*
X0439561Y0326282D01*
X0438864Y0327964D01*
X0437577Y0329250D01*
X0435896Y0329947D01*
X0434076Y0329947D01*
X0433065Y0329528D01*
X0433065Y0331059D01*
X0434076Y0330640D01*
X0435896Y0330640D01*
X0437577Y0331336D01*
X0438864Y0332623D01*
X0438985Y0332915D01*
X0448206Y0332915D01*
X0450087Y0331034D01*
X0450087Y0171640D01*
X0446592Y0168145D01*
X0438985Y0168145D01*
X0438864Y0168436D01*
X0437577Y0169723D01*
X0435896Y0170419D01*
X0434076Y0170419D01*
X0432394Y0169723D01*
X0431107Y0168436D01*
X0430411Y0166755D01*
X0430411Y0165079D01*
X0429400Y0165498D01*
X0427580Y0165498D01*
X0425898Y0164802D01*
X0424611Y0163515D01*
X0423915Y0161833D01*
X0423915Y0160013D01*
X0424611Y0158332D01*
X0424641Y0158302D01*
X0422340Y0158302D01*
X0358425Y0094387D01*
X0357078Y0093040D01*
X0357078Y0065224D01*
X0358425Y0063877D01*
X0379112Y0043190D01*
X0385357Y0043190D01*
X0385478Y0042899D01*
X0386764Y0041612D01*
X0388446Y0040915D01*
X0390266Y0040915D01*
X0391947Y0041612D01*
X0393234Y0042899D01*
X0393931Y0044580D01*
X0393931Y0046400D01*
X0393512Y0047412D01*
X0395043Y0047412D01*
X0394624Y0046400D01*
X0394624Y0044580D01*
X0395320Y0042899D01*
X0396607Y0041612D01*
X0396898Y0041491D01*
X0396898Y0034734D01*
X0398482Y0033151D01*
X0396949Y0034684D02*
X0306897Y0034684D01*
X0306897Y0035201D02*
X0303909Y0038189D01*
X0299684Y0038189D01*
X0296784Y0035289D01*
X0293032Y0035289D01*
X0288997Y0039324D01*
X0288997Y0060448D01*
X0289912Y0060828D01*
X0291460Y0062375D01*
X0292297Y0064396D01*
X0292297Y0066584D01*
X0291460Y0068606D01*
X0289912Y0070153D01*
X0287891Y0070990D01*
X0285703Y0070990D01*
X0283681Y0070153D01*
X0282134Y0068606D01*
X0281718Y0067601D01*
X0281302Y0068606D01*
X0279755Y0070153D01*
X0277733Y0070990D01*
X0275545Y0070990D01*
X0273524Y0070153D01*
X0271977Y0068606D01*
X0271139Y0066584D01*
X0271139Y0064396D01*
X0271977Y0062375D01*
X0273524Y0060828D01*
X0275545Y0059990D01*
X0277733Y0059990D01*
X0279755Y0060828D01*
X0281302Y0062375D01*
X0281718Y0063379D01*
X0282134Y0062375D01*
X0283681Y0060828D01*
X0284597Y0060448D01*
X0284597Y0037501D01*
X0291209Y0030889D01*
X0296784Y0030889D01*
X0299684Y0027989D01*
X0303909Y0027989D01*
X0306897Y0030976D01*
X0306897Y0035201D01*
X0306216Y0035882D02*
X0396898Y0035882D01*
X0396898Y0037081D02*
X0305017Y0037081D01*
X0306897Y0031088D02*
X0480115Y0031088D01*
X0480115Y0029890D02*
X0305810Y0029890D01*
X0304612Y0028691D02*
X0480115Y0028691D01*
X0480115Y0027493D02*
X0304322Y0027493D01*
X0303826Y0027989D02*
X0301997Y0027989D01*
X0301997Y0023289D01*
X0301597Y0023289D01*
X0301597Y0027989D01*
X0299767Y0027989D01*
X0296897Y0025118D01*
X0296897Y0023289D01*
X0301597Y0023289D01*
X0301597Y0022889D01*
X0296897Y0022889D01*
X0296897Y0021059D01*
X0299767Y0018189D01*
X0301597Y0018189D01*
X0301597Y0022889D01*
X0301997Y0022889D01*
X0301997Y0023289D01*
X0306697Y0023289D01*
X0306697Y0025118D01*
X0303826Y0027989D01*
X0301997Y0027493D02*
X0301597Y0027493D01*
X0301597Y0026294D02*
X0301997Y0026294D01*
X0301997Y0025096D02*
X0301597Y0025096D01*
X0301597Y0023897D02*
X0301997Y0023897D01*
X0301997Y0022889D02*
X0306697Y0022889D01*
X0306697Y0021059D01*
X0303826Y0018189D01*
X0301997Y0018189D01*
X0301997Y0022889D01*
X0301997Y0022699D02*
X0301597Y0022699D01*
X0301597Y0021500D02*
X0301997Y0021500D01*
X0301997Y0020302D02*
X0301597Y0020302D01*
X0301597Y0019103D02*
X0301997Y0019103D01*
X0304741Y0019103D02*
X0480115Y0019103D01*
X0480115Y0017905D02*
X0003400Y0017905D01*
X0003400Y0019103D02*
X0178774Y0019103D01*
X0179688Y0018189D02*
X0176818Y0021059D01*
X0176818Y0022889D01*
X0181518Y0022889D01*
X0181518Y0023289D01*
X0181518Y0027989D01*
X0179688Y0027989D01*
X0176818Y0025118D01*
X0176818Y0023289D01*
X0181518Y0023289D01*
X0181918Y0023289D01*
X0181918Y0027989D01*
X0183748Y0027989D01*
X0186618Y0025118D01*
X0186618Y0023289D01*
X0181918Y0023289D01*
X0181918Y0022889D01*
X0186618Y0022889D01*
X0186618Y0021059D01*
X0183748Y0018189D01*
X0181918Y0018189D01*
X0181918Y0022889D01*
X0181518Y0022889D01*
X0181518Y0018189D01*
X0179688Y0018189D01*
X0181518Y0019103D02*
X0181918Y0019103D01*
X0181918Y0020302D02*
X0181518Y0020302D01*
X0181518Y0021500D02*
X0181918Y0021500D01*
X0181918Y0022699D02*
X0181518Y0022699D01*
X0181518Y0023897D02*
X0181918Y0023897D01*
X0181918Y0025096D02*
X0181518Y0025096D01*
X0181518Y0026294D02*
X0181918Y0026294D01*
X0181918Y0027493D02*
X0181518Y0027493D01*
X0179606Y0027989D02*
X0183831Y0027989D01*
X0186818Y0030976D01*
X0186818Y0035201D01*
X0183831Y0038189D01*
X0179606Y0038189D01*
X0176706Y0035289D01*
X0173032Y0035289D01*
X0168918Y0039402D01*
X0168918Y0060448D01*
X0169834Y0060828D01*
X0171381Y0062375D01*
X0172218Y0064396D01*
X0172218Y0066584D01*
X0171381Y0068606D01*
X0169834Y0070153D01*
X0167812Y0070990D01*
X0165624Y0070990D01*
X0163603Y0070153D01*
X0162055Y0068606D01*
X0161218Y0066584D01*
X0161218Y0064396D01*
X0162055Y0062375D01*
X0163603Y0060828D01*
X0164518Y0060448D01*
X0164518Y0037580D01*
X0171209Y0030889D01*
X0176706Y0030889D01*
X0179606Y0027989D01*
X0179193Y0027493D02*
X0064232Y0027493D01*
X0065431Y0028691D02*
X0178903Y0028691D01*
X0177705Y0029890D02*
X0066629Y0029890D01*
X0066931Y0031088D02*
X0171010Y0031088D01*
X0169811Y0032287D02*
X0066931Y0032287D01*
X0066931Y0033485D02*
X0077911Y0033485D01*
X0076713Y0034684D02*
X0066931Y0034684D01*
X0066931Y0035882D02*
X0075514Y0035882D01*
X0074316Y0037081D02*
X0066931Y0037081D01*
X0066931Y0038279D02*
X0073117Y0038279D01*
X0072174Y0039478D02*
X0066931Y0039478D01*
X0066931Y0040676D02*
X0072174Y0040676D01*
X0071620Y0041875D02*
X0067486Y0041875D01*
X0068582Y0043073D02*
X0070523Y0043073D01*
X0070027Y0044272D02*
X0069079Y0044272D01*
X0069206Y0045470D02*
X0069899Y0045470D01*
X0070011Y0046669D02*
X0069095Y0046669D01*
X0065397Y0050065D02*
X0063866Y0050065D01*
X0064285Y0051076D01*
X0064285Y0052896D01*
X0063589Y0054578D01*
X0062302Y0055865D01*
X0060620Y0056561D01*
X0058800Y0056561D01*
X0057119Y0055865D01*
X0055832Y0054578D01*
X0055135Y0052896D01*
X0055135Y0051076D01*
X0055554Y0050065D01*
X0054024Y0050065D01*
X0054443Y0051076D01*
X0054443Y0052896D01*
X0053746Y0054578D01*
X0052459Y0055865D01*
X0050778Y0056561D01*
X0048958Y0056561D01*
X0047276Y0055865D01*
X0045989Y0054578D01*
X0045293Y0052896D01*
X0045293Y0051076D01*
X0045712Y0050065D01*
X0044181Y0050065D01*
X0044600Y0051076D01*
X0044600Y0052896D01*
X0043904Y0054578D01*
X0042617Y0055865D01*
X0040935Y0056561D01*
X0039115Y0056561D01*
X0037434Y0055865D01*
X0036147Y0054578D01*
X0035450Y0052896D01*
X0035450Y0051076D01*
X0035869Y0050065D01*
X0034194Y0050065D01*
X0032513Y0049369D01*
X0031226Y0048082D01*
X0030529Y0046400D01*
X0030529Y0044580D01*
X0031226Y0042899D01*
X0032513Y0041612D01*
X0034194Y0040915D01*
X0036014Y0040915D01*
X0037695Y0041612D01*
X0038982Y0042899D01*
X0039679Y0044580D01*
X0039679Y0046400D01*
X0039260Y0047412D01*
X0040791Y0047412D01*
X0040372Y0046400D01*
X0040372Y0044580D01*
X0041068Y0042899D01*
X0042355Y0041612D01*
X0044036Y0040915D01*
X0045856Y0040915D01*
X0047538Y0041612D01*
X0048825Y0042899D01*
X0049521Y0044580D01*
X0049521Y0046400D01*
X0049102Y0047412D01*
X0050633Y0047412D01*
X0050214Y0046400D01*
X0050214Y0044580D01*
X0050911Y0042899D01*
X0052198Y0041612D01*
X0053879Y0040915D01*
X0055699Y0040915D01*
X0057380Y0041612D01*
X0057430Y0041661D01*
X0057430Y0032472D01*
X0054126Y0029168D01*
X0015317Y0029168D01*
X0015317Y0249616D01*
X0026962Y0261261D01*
X0067879Y0261261D01*
X0068170Y0260559D01*
X0069661Y0259068D01*
X0070885Y0258561D01*
X0069661Y0258054D01*
X0068170Y0256563D01*
X0067363Y0254615D01*
X0067363Y0252507D01*
X0068170Y0250559D01*
X0069661Y0249068D01*
X0070885Y0248561D01*
X0069661Y0248054D01*
X0068170Y0246563D01*
X0067363Y0244615D01*
X0067363Y0242507D01*
X0068170Y0240559D01*
X0069661Y0239068D01*
X0070885Y0238561D01*
X0069661Y0238054D01*
X0068170Y0236563D01*
X0067879Y0235861D01*
X0064939Y0235861D01*
X0052091Y0223014D01*
X0051763Y0223342D01*
X0049741Y0224179D01*
X0047553Y0224179D01*
X0045532Y0223342D01*
X0043985Y0221795D01*
X0043147Y0219773D01*
X0043147Y0217585D01*
X0043985Y0215564D01*
X0045532Y0214017D01*
X0047553Y0213179D01*
X0049741Y0213179D01*
X0051763Y0214017D01*
X0053310Y0215564D01*
X0054147Y0217585D01*
X0054147Y0218564D01*
X0066844Y0231261D01*
X0067879Y0231261D01*
X0068170Y0230559D01*
X0069661Y0229068D01*
X0070885Y0228561D01*
X0069661Y0228054D01*
X0068170Y0226563D01*
X0067363Y0224615D01*
X0067363Y0222507D01*
X0068170Y0220559D01*
X0069661Y0219068D01*
X0070885Y0218561D01*
X0069661Y0218054D01*
X0068170Y0216563D01*
X0067363Y0214615D01*
X0067363Y0212507D01*
X0068170Y0210559D01*
X0069661Y0209068D01*
X0071609Y0208261D01*
X0073717Y0208261D01*
X0075665Y0209068D01*
X0077156Y0210559D01*
X0077963Y0212507D01*
X0077963Y0214615D01*
X0077156Y0216563D01*
X0075665Y0218054D01*
X0074441Y0218561D01*
X0075665Y0219068D01*
X0077156Y0220559D01*
X0077963Y0222507D01*
X0077963Y0224615D01*
X0077156Y0226563D01*
X0075665Y0228054D01*
X0074441Y0228561D01*
X0075665Y0229068D01*
X0077156Y0230559D01*
X0077963Y0232507D01*
X0077963Y0234615D01*
X0077156Y0236563D01*
X0075665Y0238054D01*
X0074441Y0238561D01*
X0075665Y0239068D01*
X0077156Y0240559D01*
X0077595Y0241618D01*
X0079757Y0243781D01*
X0081105Y0245128D01*
X0081105Y0276561D01*
X0077994Y0279671D01*
X0077131Y0280534D01*
X0077156Y0280559D01*
X0077963Y0282507D01*
X0077963Y0284615D01*
X0077156Y0286563D01*
X0075665Y0288054D01*
X0074441Y0288561D01*
X0075665Y0289068D01*
X0077156Y0290559D01*
X0077963Y0292507D01*
X0077963Y0294615D01*
X0077156Y0296563D01*
X0075665Y0298054D01*
X0074441Y0298561D01*
X0075665Y0299068D01*
X0077156Y0300559D01*
X0077963Y0302507D01*
X0077963Y0304615D01*
X0077156Y0306563D01*
X0075665Y0308054D01*
X0074441Y0308561D01*
X0075665Y0309068D01*
X0077156Y0310559D01*
X0077963Y0312507D01*
X0077963Y0314615D01*
X0077156Y0316563D01*
X0075665Y0318054D01*
X0074441Y0318561D01*
X0075665Y0319068D01*
X0077156Y0320559D01*
X0077963Y0322507D01*
X0077963Y0324615D01*
X0077156Y0326563D01*
X0075665Y0328054D01*
X0073717Y0328861D01*
X0071609Y0328861D01*
X0069661Y0328054D01*
X0068170Y0326563D01*
X0067363Y0324615D01*
X0067363Y0322507D01*
X0068170Y0320559D01*
X0069661Y0319068D01*
X0070885Y0318561D01*
X0069661Y0318054D01*
X0068170Y0316563D01*
X0067363Y0314615D01*
X0067363Y0312507D01*
X0068170Y0310559D01*
X0069661Y0309068D01*
X0070885Y0308561D01*
X0069661Y0308054D01*
X0068170Y0306563D01*
X0067363Y0304615D01*
X0067363Y0302507D01*
X0068170Y0300559D01*
X0069661Y0299068D01*
X0070885Y0298561D01*
X0069661Y0298054D01*
X0068170Y0296563D01*
X0067363Y0294615D01*
X0067363Y0292507D01*
X0068170Y0290559D01*
X0069661Y0289068D01*
X0070885Y0288561D01*
X0069661Y0288054D01*
X0068170Y0286563D01*
X0067363Y0284615D01*
X0067363Y0282507D01*
X0068166Y0280569D01*
X0067267Y0279671D01*
X0061981Y0274385D01*
X0052746Y0274385D01*
X0053104Y0275250D01*
X0053104Y0276925D01*
X0054115Y0276506D01*
X0055935Y0276506D01*
X0057617Y0277202D01*
X0058904Y0278489D01*
X0059600Y0280171D01*
X0059600Y0281991D01*
X0058904Y0283672D01*
X0057617Y0284959D01*
X0055935Y0285656D01*
X0054115Y0285656D01*
X0053104Y0285237D01*
X0053104Y0286767D01*
X0054115Y0286349D01*
X0055935Y0286349D01*
X0057617Y0287045D01*
X0058904Y0288332D01*
X0059024Y0288623D01*
X0059954Y0288623D01*
X0061302Y0289971D01*
X0061726Y0290395D01*
X0063073Y0291742D01*
X0063073Y0328805D01*
X0061726Y0330152D01*
X0061553Y0330325D01*
X0070676Y0342718D01*
X0094926Y0342718D01*
X0083613Y0328184D01*
X0083040Y0327611D01*
X0083040Y0327448D01*
X0082940Y0327320D01*
X0083040Y0326516D01*
X0083040Y0213569D01*
X0082686Y0213215D01*
X0032695Y0163223D01*
X0031947Y0163223D01*
X0022725Y0154002D01*
X0022725Y0095561D01*
X0065099Y0053188D01*
X0064978Y0052896D01*
X0064978Y0051076D01*
X0065397Y0050065D01*
X0065314Y0050264D02*
X0063949Y0050264D01*
X0064285Y0051463D02*
X0064978Y0051463D01*
X0064978Y0052662D02*
X0064285Y0052662D01*
X0064426Y0053860D02*
X0063886Y0053860D01*
X0063228Y0055059D02*
X0063108Y0055059D01*
X0062029Y0056257D02*
X0061354Y0056257D01*
X0060831Y0057456D02*
X0015317Y0057456D01*
X0015317Y0058654D02*
X0059632Y0058654D01*
X0058434Y0059853D02*
X0015317Y0059853D01*
X0015317Y0061051D02*
X0057235Y0061051D01*
X0056037Y0062250D02*
X0015317Y0062250D01*
X0015317Y0063448D02*
X0054838Y0063448D01*
X0053640Y0064647D02*
X0015317Y0064647D01*
X0015317Y0065845D02*
X0052441Y0065845D01*
X0051243Y0067044D02*
X0015317Y0067044D01*
X0015317Y0068242D02*
X0050044Y0068242D01*
X0048846Y0069441D02*
X0015317Y0069441D01*
X0015317Y0070639D02*
X0047647Y0070639D01*
X0046449Y0071838D02*
X0015317Y0071838D01*
X0015317Y0073036D02*
X0045250Y0073036D01*
X0044052Y0074235D02*
X0015317Y0074235D01*
X0015317Y0075433D02*
X0042853Y0075433D01*
X0041655Y0076632D02*
X0015317Y0076632D01*
X0015317Y0077830D02*
X0040456Y0077830D01*
X0039258Y0079029D02*
X0015317Y0079029D01*
X0015317Y0080227D02*
X0038059Y0080227D01*
X0036861Y0081426D02*
X0015317Y0081426D01*
X0015317Y0082624D02*
X0035662Y0082624D01*
X0034464Y0083823D02*
X0015317Y0083823D01*
X0015317Y0085021D02*
X0033265Y0085021D01*
X0032067Y0086220D02*
X0015317Y0086220D01*
X0015317Y0087418D02*
X0030868Y0087418D01*
X0029670Y0088617D02*
X0015317Y0088617D01*
X0015317Y0089815D02*
X0028471Y0089815D01*
X0027273Y0091014D02*
X0015317Y0091014D01*
X0015317Y0092212D02*
X0026074Y0092212D01*
X0024875Y0093411D02*
X0015317Y0093411D01*
X0015317Y0094609D02*
X0023677Y0094609D01*
X0022725Y0095808D02*
X0015317Y0095808D01*
X0015317Y0097006D02*
X0022725Y0097006D01*
X0022725Y0098205D02*
X0015317Y0098205D01*
X0015317Y0099403D02*
X0022725Y0099403D01*
X0022725Y0100602D02*
X0015317Y0100602D01*
X0015317Y0101800D02*
X0022725Y0101800D01*
X0022725Y0102999D02*
X0015317Y0102999D01*
X0015317Y0104198D02*
X0022725Y0104198D01*
X0022725Y0105396D02*
X0015317Y0105396D01*
X0015317Y0106595D02*
X0022725Y0106595D01*
X0022725Y0107793D02*
X0015317Y0107793D01*
X0015317Y0108992D02*
X0022725Y0108992D01*
X0022725Y0110190D02*
X0015317Y0110190D01*
X0015317Y0111389D02*
X0022725Y0111389D01*
X0022725Y0112587D02*
X0015317Y0112587D01*
X0015317Y0113786D02*
X0022725Y0113786D01*
X0022725Y0114984D02*
X0015317Y0114984D01*
X0015317Y0116183D02*
X0022725Y0116183D01*
X0022725Y0117381D02*
X0015317Y0117381D01*
X0015317Y0118580D02*
X0022725Y0118580D01*
X0022725Y0119778D02*
X0015317Y0119778D01*
X0015317Y0120977D02*
X0022725Y0120977D01*
X0022725Y0122175D02*
X0015317Y0122175D01*
X0015317Y0123374D02*
X0022725Y0123374D01*
X0022725Y0124572D02*
X0015317Y0124572D01*
X0015317Y0125771D02*
X0022725Y0125771D01*
X0022725Y0126969D02*
X0015317Y0126969D01*
X0015317Y0128168D02*
X0022725Y0128168D01*
X0022725Y0129366D02*
X0015317Y0129366D01*
X0015317Y0130565D02*
X0022725Y0130565D01*
X0022725Y0131763D02*
X0015317Y0131763D01*
X0015317Y0132962D02*
X0022725Y0132962D01*
X0022725Y0134160D02*
X0015317Y0134160D01*
X0015317Y0135359D02*
X0022725Y0135359D01*
X0022725Y0136557D02*
X0015317Y0136557D01*
X0015317Y0137756D02*
X0022725Y0137756D01*
X0022725Y0138954D02*
X0015317Y0138954D01*
X0015317Y0140153D02*
X0022725Y0140153D01*
X0022725Y0141351D02*
X0015317Y0141351D01*
X0015317Y0142550D02*
X0022725Y0142550D01*
X0022725Y0143748D02*
X0015317Y0143748D01*
X0015317Y0144947D02*
X0022725Y0144947D01*
X0022725Y0146145D02*
X0015317Y0146145D01*
X0015317Y0147344D02*
X0022725Y0147344D01*
X0022725Y0148542D02*
X0015317Y0148542D01*
X0015317Y0149741D02*
X0022725Y0149741D01*
X0022725Y0150939D02*
X0015317Y0150939D01*
X0015317Y0152138D02*
X0022725Y0152138D01*
X0022725Y0153336D02*
X0015317Y0153336D01*
X0015317Y0154535D02*
X0023258Y0154535D01*
X0024457Y0155733D02*
X0015317Y0155733D01*
X0015317Y0156932D02*
X0025655Y0156932D01*
X0026854Y0158131D02*
X0015317Y0158131D01*
X0015317Y0159329D02*
X0028052Y0159329D01*
X0029251Y0160528D02*
X0015317Y0160528D01*
X0015317Y0161726D02*
X0030449Y0161726D01*
X0031648Y0162925D02*
X0015317Y0162925D01*
X0015317Y0164123D02*
X0033594Y0164123D01*
X0034793Y0165322D02*
X0015317Y0165322D01*
X0015317Y0166520D02*
X0035991Y0166520D01*
X0037190Y0167719D02*
X0015317Y0167719D01*
X0015317Y0168917D02*
X0038388Y0168917D01*
X0039587Y0170116D02*
X0015317Y0170116D01*
X0015317Y0171314D02*
X0040785Y0171314D01*
X0041984Y0172513D02*
X0015317Y0172513D01*
X0015317Y0173711D02*
X0043182Y0173711D01*
X0044381Y0174910D02*
X0015317Y0174910D01*
X0015317Y0176108D02*
X0045579Y0176108D01*
X0046778Y0177307D02*
X0015317Y0177307D01*
X0015317Y0178505D02*
X0047976Y0178505D01*
X0049175Y0179704D02*
X0015317Y0179704D01*
X0015317Y0180902D02*
X0050373Y0180902D01*
X0051572Y0182101D02*
X0015317Y0182101D01*
X0015317Y0183299D02*
X0052770Y0183299D01*
X0053969Y0184498D02*
X0015317Y0184498D01*
X0015317Y0185696D02*
X0055168Y0185696D01*
X0056366Y0186895D02*
X0015317Y0186895D01*
X0015317Y0188093D02*
X0057565Y0188093D01*
X0058763Y0189292D02*
X0015317Y0189292D01*
X0015317Y0190490D02*
X0034761Y0190490D01*
X0034634Y0190543D02*
X0036472Y0189782D01*
X0038461Y0189782D01*
X0040298Y0190543D01*
X0041705Y0191949D01*
X0042466Y0193787D01*
X0042466Y0195776D01*
X0041705Y0197614D01*
X0040298Y0199020D01*
X0038461Y0199782D01*
X0036472Y0199782D01*
X0034634Y0199020D01*
X0033227Y0197614D01*
X0032466Y0195776D01*
X0032466Y0193787D01*
X0033227Y0191949D01*
X0034634Y0190543D01*
X0033488Y0191689D02*
X0015317Y0191689D01*
X0015317Y0192887D02*
X0032839Y0192887D01*
X0032466Y0194086D02*
X0015317Y0194086D01*
X0015317Y0195284D02*
X0032466Y0195284D01*
X0032759Y0196483D02*
X0015317Y0196483D01*
X0015317Y0197681D02*
X0033295Y0197681D01*
X0034493Y0198880D02*
X0015317Y0198880D01*
X0015317Y0200078D02*
X0069550Y0200078D01*
X0068351Y0198880D02*
X0049992Y0198880D01*
X0049982Y0198887D02*
X0049309Y0199230D01*
X0048590Y0199463D01*
X0047866Y0199578D01*
X0047866Y0195182D01*
X0047066Y0195182D01*
X0047066Y0199578D01*
X0046342Y0199463D01*
X0045624Y0199230D01*
X0044950Y0198887D01*
X0044339Y0198443D01*
X0043805Y0197909D01*
X0043361Y0197297D01*
X0043018Y0196624D01*
X0042784Y0195906D01*
X0042670Y0195182D01*
X0047066Y0195182D01*
X0047066Y0194382D01*
X0042670Y0194382D01*
X0042784Y0193658D01*
X0043018Y0192939D01*
X0043361Y0192266D01*
X0043805Y0191655D01*
X0044339Y0191120D01*
X0044950Y0190676D01*
X0045624Y0190333D01*
X0046342Y0190100D01*
X0047066Y0189985D01*
X0047066Y0194382D01*
X0047866Y0194382D01*
X0047866Y0195182D01*
X0052263Y0195182D01*
X0052148Y0195906D01*
X0051914Y0196624D01*
X0051571Y0197297D01*
X0051127Y0197909D01*
X0050593Y0198443D01*
X0049982Y0198887D01*
X0051292Y0197681D02*
X0067153Y0197681D01*
X0065954Y0196483D02*
X0051960Y0196483D01*
X0052246Y0195284D02*
X0064756Y0195284D01*
X0063557Y0194086D02*
X0052216Y0194086D01*
X0052263Y0194382D02*
X0047866Y0194382D01*
X0047866Y0189985D01*
X0048590Y0190100D01*
X0049309Y0190333D01*
X0049982Y0190676D01*
X0050593Y0191120D01*
X0051127Y0191655D01*
X0051571Y0192266D01*
X0051914Y0192939D01*
X0052148Y0193658D01*
X0052263Y0194382D01*
X0051888Y0192887D02*
X0062359Y0192887D01*
X0061160Y0191689D02*
X0051152Y0191689D01*
X0049617Y0190490D02*
X0059962Y0190490D01*
X0047866Y0190490D02*
X0047066Y0190490D01*
X0047066Y0191689D02*
X0047866Y0191689D01*
X0047866Y0192887D02*
X0047066Y0192887D01*
X0047066Y0194086D02*
X0047866Y0194086D01*
X0047866Y0195284D02*
X0047066Y0195284D01*
X0047066Y0196483D02*
X0047866Y0196483D01*
X0047866Y0197681D02*
X0047066Y0197681D01*
X0047066Y0198880D02*
X0047866Y0198880D01*
X0044941Y0198880D02*
X0040439Y0198880D01*
X0041637Y0197681D02*
X0043640Y0197681D01*
X0042972Y0196483D02*
X0042173Y0196483D01*
X0042466Y0195284D02*
X0042686Y0195284D01*
X0042716Y0194086D02*
X0042466Y0194086D01*
X0042093Y0192887D02*
X0043044Y0192887D01*
X0043780Y0191689D02*
X0041444Y0191689D01*
X0040172Y0190490D02*
X0045315Y0190490D01*
X0070748Y0201277D02*
X0015317Y0201277D01*
X0015317Y0202475D02*
X0071947Y0202475D01*
X0073145Y0203674D02*
X0015317Y0203674D01*
X0015317Y0204872D02*
X0074344Y0204872D01*
X0075542Y0206071D02*
X0015317Y0206071D01*
X0015317Y0207269D02*
X0076741Y0207269D01*
X0077939Y0208468D02*
X0074217Y0208468D01*
X0076264Y0209666D02*
X0079138Y0209666D01*
X0080336Y0210865D02*
X0077283Y0210865D01*
X0077779Y0212064D02*
X0081535Y0212064D01*
X0082733Y0213262D02*
X0077963Y0213262D01*
X0077963Y0214461D02*
X0083040Y0214461D01*
X0083040Y0215659D02*
X0077531Y0215659D01*
X0076862Y0216858D02*
X0083040Y0216858D01*
X0083040Y0218056D02*
X0075661Y0218056D01*
X0075852Y0219255D02*
X0083040Y0219255D01*
X0083040Y0220453D02*
X0077050Y0220453D01*
X0077609Y0221652D02*
X0083040Y0221652D01*
X0083040Y0222850D02*
X0077963Y0222850D01*
X0077963Y0224049D02*
X0083040Y0224049D01*
X0083040Y0225247D02*
X0077701Y0225247D01*
X0077205Y0226446D02*
X0083040Y0226446D01*
X0083040Y0227644D02*
X0076075Y0227644D01*
X0075121Y0228843D02*
X0083040Y0228843D01*
X0083040Y0230041D02*
X0076638Y0230041D01*
X0077438Y0231240D02*
X0083040Y0231240D01*
X0083040Y0232438D02*
X0077935Y0232438D01*
X0077963Y0233637D02*
X0083040Y0233637D01*
X0083040Y0234835D02*
X0077872Y0234835D01*
X0077375Y0236034D02*
X0083040Y0236034D01*
X0083040Y0237232D02*
X0076487Y0237232D01*
X0074756Y0238431D02*
X0083040Y0238431D01*
X0083040Y0239629D02*
X0076226Y0239629D01*
X0077267Y0240828D02*
X0083040Y0240828D01*
X0083040Y0242026D02*
X0078003Y0242026D01*
X0079201Y0243225D02*
X0083040Y0243225D01*
X0083040Y0244423D02*
X0080400Y0244423D01*
X0081105Y0245622D02*
X0083040Y0245622D01*
X0083040Y0246820D02*
X0081105Y0246820D01*
X0081105Y0248019D02*
X0083040Y0248019D01*
X0083040Y0249217D02*
X0081105Y0249217D01*
X0081105Y0250416D02*
X0083040Y0250416D01*
X0083040Y0251614D02*
X0081105Y0251614D01*
X0081105Y0252813D02*
X0083040Y0252813D01*
X0083040Y0254011D02*
X0081105Y0254011D01*
X0081105Y0255210D02*
X0083040Y0255210D01*
X0083040Y0256408D02*
X0081105Y0256408D01*
X0081105Y0257607D02*
X0083040Y0257607D01*
X0083040Y0258805D02*
X0081105Y0258805D01*
X0081105Y0260004D02*
X0083040Y0260004D01*
X0083040Y0261202D02*
X0081105Y0261202D01*
X0081105Y0262401D02*
X0083040Y0262401D01*
X0083040Y0263600D02*
X0081105Y0263600D01*
X0081105Y0264798D02*
X0083040Y0264798D01*
X0083040Y0265997D02*
X0081105Y0265997D01*
X0081105Y0267195D02*
X0083040Y0267195D01*
X0083040Y0268394D02*
X0081105Y0268394D01*
X0081105Y0269592D02*
X0083040Y0269592D01*
X0083040Y0270791D02*
X0081105Y0270791D01*
X0081105Y0271989D02*
X0083040Y0271989D01*
X0083040Y0273188D02*
X0081105Y0273188D01*
X0081105Y0274386D02*
X0083040Y0274386D01*
X0083040Y0275585D02*
X0081105Y0275585D01*
X0080883Y0276783D02*
X0083040Y0276783D01*
X0083040Y0277982D02*
X0079684Y0277982D01*
X0078486Y0279180D02*
X0083040Y0279180D01*
X0083040Y0280379D02*
X0077287Y0280379D01*
X0077578Y0281577D02*
X0083040Y0281577D01*
X0083040Y0282776D02*
X0077963Y0282776D01*
X0077963Y0283974D02*
X0083040Y0283974D01*
X0083040Y0285173D02*
X0077732Y0285173D01*
X0077236Y0286371D02*
X0083040Y0286371D01*
X0083040Y0287570D02*
X0076150Y0287570D01*
X0074942Y0288768D02*
X0083040Y0288768D01*
X0083040Y0289967D02*
X0076564Y0289967D01*
X0077407Y0291165D02*
X0083040Y0291165D01*
X0083040Y0292364D02*
X0077904Y0292364D01*
X0077963Y0293562D02*
X0083040Y0293562D01*
X0083040Y0294761D02*
X0077903Y0294761D01*
X0077406Y0295959D02*
X0083040Y0295959D01*
X0083040Y0297158D02*
X0076562Y0297158D01*
X0074936Y0298356D02*
X0083040Y0298356D01*
X0083040Y0299555D02*
X0076152Y0299555D01*
X0077237Y0300753D02*
X0083040Y0300753D01*
X0083040Y0301952D02*
X0077733Y0301952D01*
X0077963Y0303150D02*
X0083040Y0303150D01*
X0083040Y0304349D02*
X0077963Y0304349D01*
X0077577Y0305547D02*
X0083040Y0305547D01*
X0083040Y0306746D02*
X0076974Y0306746D01*
X0075775Y0307944D02*
X0083040Y0307944D01*
X0083040Y0309143D02*
X0075740Y0309143D01*
X0076939Y0310341D02*
X0083040Y0310341D01*
X0083040Y0311540D02*
X0077562Y0311540D01*
X0077963Y0312738D02*
X0083040Y0312738D01*
X0083040Y0313937D02*
X0077963Y0313937D01*
X0077748Y0315135D02*
X0083040Y0315135D01*
X0083040Y0316334D02*
X0077251Y0316334D01*
X0076187Y0317533D02*
X0083040Y0317533D01*
X0083040Y0318731D02*
X0074852Y0318731D01*
X0076527Y0319930D02*
X0083040Y0319930D01*
X0083040Y0321128D02*
X0077392Y0321128D01*
X0077888Y0322327D02*
X0083040Y0322327D01*
X0083040Y0323525D02*
X0077963Y0323525D01*
X0077918Y0324724D02*
X0083040Y0324724D01*
X0083040Y0325922D02*
X0077422Y0325922D01*
X0076599Y0327121D02*
X0082965Y0327121D01*
X0083718Y0328319D02*
X0075026Y0328319D01*
X0070300Y0328319D02*
X0063073Y0328319D01*
X0063073Y0327121D02*
X0068727Y0327121D01*
X0067904Y0325922D02*
X0063073Y0325922D01*
X0063073Y0324724D02*
X0067408Y0324724D01*
X0067363Y0323525D02*
X0063073Y0323525D01*
X0063073Y0322327D02*
X0067438Y0322327D01*
X0067934Y0321128D02*
X0063073Y0321128D01*
X0063073Y0319930D02*
X0068799Y0319930D01*
X0070474Y0318731D02*
X0063073Y0318731D01*
X0063073Y0317533D02*
X0069139Y0317533D01*
X0068075Y0316334D02*
X0063073Y0316334D01*
X0063073Y0315135D02*
X0067578Y0315135D01*
X0067363Y0313937D02*
X0063073Y0313937D01*
X0063073Y0312738D02*
X0067363Y0312738D01*
X0067763Y0311540D02*
X0063073Y0311540D01*
X0063073Y0310341D02*
X0068387Y0310341D01*
X0069586Y0309143D02*
X0063073Y0309143D01*
X0063073Y0307944D02*
X0069551Y0307944D01*
X0068352Y0306746D02*
X0063073Y0306746D01*
X0063073Y0305547D02*
X0067749Y0305547D01*
X0067363Y0304349D02*
X0063073Y0304349D01*
X0063073Y0303150D02*
X0067363Y0303150D01*
X0067593Y0301952D02*
X0063073Y0301952D01*
X0063073Y0300753D02*
X0068089Y0300753D01*
X0069174Y0299555D02*
X0063073Y0299555D01*
X0063073Y0298356D02*
X0070390Y0298356D01*
X0068764Y0297158D02*
X0063073Y0297158D01*
X0063073Y0295959D02*
X0067920Y0295959D01*
X0067423Y0294761D02*
X0063073Y0294761D01*
X0063073Y0293562D02*
X0067363Y0293562D01*
X0067422Y0292364D02*
X0063073Y0292364D01*
X0062496Y0291165D02*
X0067919Y0291165D01*
X0068762Y0289967D02*
X0061298Y0289967D01*
X0061302Y0289971D02*
X0061302Y0289971D01*
X0061726Y0290395D02*
X0061726Y0290395D01*
X0060099Y0288768D02*
X0070384Y0288768D01*
X0069176Y0287570D02*
X0058141Y0287570D01*
X0055990Y0286371D02*
X0068090Y0286371D01*
X0067594Y0285173D02*
X0057101Y0285173D01*
X0058602Y0283974D02*
X0067363Y0283974D01*
X0067363Y0282776D02*
X0059275Y0282776D01*
X0059600Y0281577D02*
X0067748Y0281577D01*
X0067975Y0280379D02*
X0059600Y0280379D01*
X0059190Y0279180D02*
X0066776Y0279180D01*
X0065578Y0277982D02*
X0058396Y0277982D01*
X0056604Y0276783D02*
X0064379Y0276783D01*
X0063181Y0275585D02*
X0053104Y0275585D01*
X0053104Y0276783D02*
X0053446Y0276783D01*
X0052746Y0274386D02*
X0061982Y0274386D01*
X0064892Y0270791D02*
X0066640Y0270791D01*
X0066091Y0271989D02*
X0067577Y0271989D01*
X0067363Y0273188D02*
X0067289Y0273188D01*
X0065441Y0269592D02*
X0003400Y0269592D01*
X0003400Y0268394D02*
X0020345Y0268394D01*
X0019147Y0267195D02*
X0003400Y0267195D01*
X0003400Y0265997D02*
X0017948Y0265997D01*
X0016750Y0264798D02*
X0003400Y0264798D01*
X0003400Y0263600D02*
X0015551Y0263600D01*
X0014353Y0262401D02*
X0003400Y0262401D01*
X0003400Y0261202D02*
X0013154Y0261202D01*
X0011956Y0260004D02*
X0003400Y0260004D01*
X0003400Y0258805D02*
X0010757Y0258805D01*
X0009559Y0257607D02*
X0003400Y0257607D01*
X0003400Y0256408D02*
X0008360Y0256408D01*
X0007161Y0255210D02*
X0003400Y0255210D01*
X0003400Y0254011D02*
X0005963Y0254011D01*
X0005757Y0252813D02*
X0003400Y0252813D01*
X0003400Y0251614D02*
X0005757Y0251614D01*
X0005757Y0250416D02*
X0003400Y0250416D01*
X0003400Y0249217D02*
X0005757Y0249217D01*
X0005757Y0248019D02*
X0003400Y0248019D01*
X0003400Y0246820D02*
X0005757Y0246820D01*
X0005757Y0245622D02*
X0003400Y0245622D01*
X0003400Y0244423D02*
X0005757Y0244423D01*
X0005757Y0243225D02*
X0003400Y0243225D01*
X0003400Y0242026D02*
X0005757Y0242026D01*
X0005757Y0240828D02*
X0003400Y0240828D01*
X0003400Y0239629D02*
X0005757Y0239629D01*
X0005757Y0238431D02*
X0003400Y0238431D01*
X0003400Y0237232D02*
X0005757Y0237232D01*
X0005757Y0236034D02*
X0003400Y0236034D01*
X0003400Y0234835D02*
X0005757Y0234835D01*
X0005757Y0233637D02*
X0003400Y0233637D01*
X0003400Y0232438D02*
X0005757Y0232438D01*
X0005757Y0231240D02*
X0003400Y0231240D01*
X0003400Y0230041D02*
X0005757Y0230041D01*
X0005757Y0228843D02*
X0003400Y0228843D01*
X0003400Y0227644D02*
X0005757Y0227644D01*
X0005757Y0226446D02*
X0003400Y0226446D01*
X0003400Y0225247D02*
X0005757Y0225247D01*
X0005757Y0224049D02*
X0003400Y0224049D01*
X0003400Y0222850D02*
X0005757Y0222850D01*
X0005757Y0221652D02*
X0003400Y0221652D01*
X0003400Y0220453D02*
X0005757Y0220453D01*
X0005757Y0219255D02*
X0003400Y0219255D01*
X0003400Y0218056D02*
X0005757Y0218056D01*
X0005757Y0216858D02*
X0003400Y0216858D01*
X0003400Y0215659D02*
X0005757Y0215659D01*
X0005757Y0214461D02*
X0003400Y0214461D01*
X0003400Y0213262D02*
X0005757Y0213262D01*
X0005757Y0212064D02*
X0003400Y0212064D01*
X0003400Y0210865D02*
X0005757Y0210865D01*
X0005757Y0209666D02*
X0003400Y0209666D01*
X0003400Y0208468D02*
X0005757Y0208468D01*
X0005757Y0207269D02*
X0003400Y0207269D01*
X0003400Y0206071D02*
X0005757Y0206071D01*
X0005757Y0204872D02*
X0003400Y0204872D01*
X0003400Y0203674D02*
X0005757Y0203674D01*
X0005757Y0202475D02*
X0003400Y0202475D01*
X0003400Y0201277D02*
X0005757Y0201277D01*
X0005757Y0200078D02*
X0003400Y0200078D01*
X0003400Y0198880D02*
X0005757Y0198880D01*
X0005757Y0197681D02*
X0003400Y0197681D01*
X0003400Y0196483D02*
X0005757Y0196483D01*
X0005757Y0195284D02*
X0003400Y0195284D01*
X0003400Y0194086D02*
X0005757Y0194086D01*
X0005757Y0192887D02*
X0003400Y0192887D01*
X0003400Y0191689D02*
X0005757Y0191689D01*
X0005757Y0190490D02*
X0003400Y0190490D01*
X0003400Y0189292D02*
X0005757Y0189292D01*
X0005757Y0188093D02*
X0003400Y0188093D01*
X0003400Y0186895D02*
X0005757Y0186895D01*
X0005757Y0185696D02*
X0003400Y0185696D01*
X0003400Y0184498D02*
X0005757Y0184498D01*
X0005757Y0183299D02*
X0003400Y0183299D01*
X0003400Y0182101D02*
X0005757Y0182101D01*
X0005757Y0180902D02*
X0003400Y0180902D01*
X0003400Y0179704D02*
X0005757Y0179704D01*
X0005757Y0178505D02*
X0003400Y0178505D01*
X0003400Y0177307D02*
X0005757Y0177307D01*
X0005757Y0176108D02*
X0003400Y0176108D01*
X0003400Y0174910D02*
X0005757Y0174910D01*
X0005757Y0173711D02*
X0003400Y0173711D01*
X0003400Y0172513D02*
X0005757Y0172513D01*
X0005757Y0171314D02*
X0003400Y0171314D01*
X0003400Y0170116D02*
X0005757Y0170116D01*
X0005757Y0168917D02*
X0003400Y0168917D01*
X0003400Y0167719D02*
X0005757Y0167719D01*
X0005757Y0166520D02*
X0003400Y0166520D01*
X0003400Y0165322D02*
X0005757Y0165322D01*
X0005757Y0164123D02*
X0003400Y0164123D01*
X0003400Y0162925D02*
X0005757Y0162925D01*
X0005757Y0161726D02*
X0003400Y0161726D01*
X0003400Y0160528D02*
X0005757Y0160528D01*
X0005757Y0159329D02*
X0003400Y0159329D01*
X0003400Y0158131D02*
X0005757Y0158131D01*
X0005757Y0156932D02*
X0003400Y0156932D01*
X0003400Y0155733D02*
X0005757Y0155733D01*
X0005757Y0154535D02*
X0003400Y0154535D01*
X0003400Y0153336D02*
X0005757Y0153336D01*
X0005757Y0152138D02*
X0003400Y0152138D01*
X0003400Y0150939D02*
X0005757Y0150939D01*
X0005757Y0149741D02*
X0003400Y0149741D01*
X0003400Y0148542D02*
X0005757Y0148542D01*
X0005757Y0147344D02*
X0003400Y0147344D01*
X0003400Y0146145D02*
X0005757Y0146145D01*
X0005757Y0144947D02*
X0003400Y0144947D01*
X0003400Y0143748D02*
X0005757Y0143748D01*
X0005757Y0142550D02*
X0003400Y0142550D01*
X0003400Y0141351D02*
X0005757Y0141351D01*
X0005757Y0140153D02*
X0003400Y0140153D01*
X0003400Y0138954D02*
X0005757Y0138954D01*
X0005757Y0137756D02*
X0003400Y0137756D01*
X0003400Y0136557D02*
X0005757Y0136557D01*
X0005757Y0135359D02*
X0003400Y0135359D01*
X0003400Y0134160D02*
X0005757Y0134160D01*
X0005757Y0132962D02*
X0003400Y0132962D01*
X0003400Y0131763D02*
X0005757Y0131763D01*
X0005757Y0130565D02*
X0003400Y0130565D01*
X0003400Y0129366D02*
X0005757Y0129366D01*
X0005757Y0128168D02*
X0003400Y0128168D01*
X0003400Y0126969D02*
X0005757Y0126969D01*
X0005757Y0125771D02*
X0003400Y0125771D01*
X0003400Y0124572D02*
X0005757Y0124572D01*
X0005757Y0123374D02*
X0003400Y0123374D01*
X0003400Y0122175D02*
X0005757Y0122175D01*
X0005757Y0120977D02*
X0003400Y0120977D01*
X0003400Y0119778D02*
X0005757Y0119778D01*
X0005757Y0118580D02*
X0003400Y0118580D01*
X0003400Y0117381D02*
X0005757Y0117381D01*
X0005757Y0116183D02*
X0003400Y0116183D01*
X0003400Y0114984D02*
X0005757Y0114984D01*
X0005757Y0113786D02*
X0003400Y0113786D01*
X0003400Y0112587D02*
X0005757Y0112587D01*
X0005757Y0111389D02*
X0003400Y0111389D01*
X0003400Y0110190D02*
X0005757Y0110190D01*
X0005757Y0108992D02*
X0003400Y0108992D01*
X0003400Y0107793D02*
X0005757Y0107793D01*
X0005757Y0106595D02*
X0003400Y0106595D01*
X0003400Y0105396D02*
X0005757Y0105396D01*
X0005757Y0104198D02*
X0003400Y0104198D01*
X0003400Y0102999D02*
X0005757Y0102999D01*
X0005757Y0101800D02*
X0003400Y0101800D01*
X0003400Y0100602D02*
X0005757Y0100602D01*
X0005757Y0099403D02*
X0003400Y0099403D01*
X0003400Y0098205D02*
X0005757Y0098205D01*
X0005757Y0097006D02*
X0003400Y0097006D01*
X0003400Y0095808D02*
X0005757Y0095808D01*
X0005757Y0094609D02*
X0003400Y0094609D01*
X0003400Y0093411D02*
X0005757Y0093411D01*
X0005757Y0092212D02*
X0003400Y0092212D01*
X0003400Y0091014D02*
X0005757Y0091014D01*
X0005757Y0089815D02*
X0003400Y0089815D01*
X0003400Y0088617D02*
X0005757Y0088617D01*
X0005757Y0087418D02*
X0003400Y0087418D01*
X0003400Y0086220D02*
X0005757Y0086220D01*
X0005757Y0085021D02*
X0003400Y0085021D01*
X0003400Y0083823D02*
X0005757Y0083823D01*
X0005757Y0082624D02*
X0003400Y0082624D01*
X0003400Y0081426D02*
X0005757Y0081426D01*
X0005757Y0080227D02*
X0003400Y0080227D01*
X0003400Y0079029D02*
X0005757Y0079029D01*
X0005757Y0077830D02*
X0003400Y0077830D01*
X0003400Y0076632D02*
X0005757Y0076632D01*
X0005757Y0075433D02*
X0003400Y0075433D01*
X0003400Y0074235D02*
X0005757Y0074235D01*
X0005757Y0073036D02*
X0003400Y0073036D01*
X0003400Y0071838D02*
X0005757Y0071838D01*
X0005757Y0070639D02*
X0003400Y0070639D01*
X0003400Y0069441D02*
X0005757Y0069441D01*
X0005757Y0068242D02*
X0003400Y0068242D01*
X0003400Y0067044D02*
X0005757Y0067044D01*
X0005757Y0065845D02*
X0003400Y0065845D01*
X0003400Y0064647D02*
X0005757Y0064647D01*
X0005757Y0063448D02*
X0003400Y0063448D01*
X0003400Y0062250D02*
X0005757Y0062250D01*
X0005757Y0061051D02*
X0003400Y0061051D01*
X0003400Y0059853D02*
X0005757Y0059853D01*
X0005757Y0058654D02*
X0003400Y0058654D01*
X0003400Y0057456D02*
X0005757Y0057456D01*
X0005757Y0056257D02*
X0003400Y0056257D01*
X0003400Y0055059D02*
X0005757Y0055059D01*
X0005757Y0053860D02*
X0003400Y0053860D01*
X0003400Y0052662D02*
X0005757Y0052662D01*
X0005757Y0051463D02*
X0003400Y0051463D01*
X0003400Y0050264D02*
X0005757Y0050264D01*
X0005757Y0049066D02*
X0003400Y0049066D01*
X0003400Y0047867D02*
X0005757Y0047867D01*
X0005757Y0046669D02*
X0003400Y0046669D01*
X0003400Y0045470D02*
X0005757Y0045470D01*
X0005757Y0044272D02*
X0003400Y0044272D01*
X0003400Y0043073D02*
X0005757Y0043073D01*
X0005757Y0041875D02*
X0003400Y0041875D01*
X0003400Y0040676D02*
X0005757Y0040676D01*
X0005757Y0039478D02*
X0003400Y0039478D01*
X0003400Y0038279D02*
X0005757Y0038279D01*
X0005757Y0037081D02*
X0003400Y0037081D01*
X0003400Y0035882D02*
X0005757Y0035882D01*
X0005757Y0034684D02*
X0003400Y0034684D01*
X0003400Y0033485D02*
X0005757Y0033485D01*
X0005757Y0032287D02*
X0003400Y0032287D01*
X0003400Y0031088D02*
X0005757Y0031088D01*
X0005757Y0029890D02*
X0003400Y0029890D01*
X0003400Y0028691D02*
X0005757Y0028691D01*
X0005757Y0027493D02*
X0003400Y0027493D01*
X0003400Y0026294D02*
X0005757Y0026294D01*
X0005757Y0025096D02*
X0003400Y0025096D01*
X0003400Y0023897D02*
X0005757Y0023897D01*
X0005757Y0022699D02*
X0003400Y0022699D01*
X0003400Y0021500D02*
X0006378Y0021500D01*
X0003400Y0020302D02*
X0177575Y0020302D01*
X0176818Y0021500D02*
X0058239Y0021500D01*
X0059438Y0022699D02*
X0176818Y0022699D01*
X0176818Y0023897D02*
X0060636Y0023897D01*
X0061835Y0025096D02*
X0176818Y0025096D01*
X0177994Y0026294D02*
X0063034Y0026294D01*
X0057245Y0032287D02*
X0015317Y0032287D01*
X0015317Y0033485D02*
X0057430Y0033485D01*
X0057430Y0034684D02*
X0015317Y0034684D01*
X0015317Y0035882D02*
X0057430Y0035882D01*
X0057430Y0037081D02*
X0015317Y0037081D01*
X0015317Y0038279D02*
X0057430Y0038279D01*
X0057430Y0039478D02*
X0015317Y0039478D01*
X0015317Y0040676D02*
X0057430Y0040676D01*
X0051935Y0041875D02*
X0047801Y0041875D01*
X0048897Y0043073D02*
X0050838Y0043073D01*
X0050342Y0044272D02*
X0049394Y0044272D01*
X0049521Y0045470D02*
X0050214Y0045470D01*
X0050325Y0046669D02*
X0049410Y0046669D01*
X0045629Y0050264D02*
X0044264Y0050264D01*
X0044600Y0051463D02*
X0045293Y0051463D01*
X0045293Y0052662D02*
X0044600Y0052662D01*
X0044201Y0053860D02*
X0045692Y0053860D01*
X0046470Y0055059D02*
X0043423Y0055059D01*
X0041669Y0056257D02*
X0048224Y0056257D01*
X0051512Y0056257D02*
X0058066Y0056257D01*
X0056313Y0055059D02*
X0053265Y0055059D01*
X0054043Y0053860D02*
X0055535Y0053860D01*
X0055135Y0052662D02*
X0054443Y0052662D01*
X0054443Y0051463D02*
X0055135Y0051463D01*
X0055472Y0050264D02*
X0054106Y0050264D01*
X0040483Y0046669D02*
X0039567Y0046669D01*
X0039679Y0045470D02*
X0040372Y0045470D01*
X0040499Y0044272D02*
X0039551Y0044272D01*
X0039055Y0043073D02*
X0040996Y0043073D01*
X0042092Y0041875D02*
X0037958Y0041875D01*
X0032250Y0041875D02*
X0015317Y0041875D01*
X0015317Y0043073D02*
X0031153Y0043073D01*
X0030657Y0044272D02*
X0015317Y0044272D01*
X0015317Y0045470D02*
X0030529Y0045470D01*
X0030640Y0046669D02*
X0015317Y0046669D01*
X0015317Y0047867D02*
X0031137Y0047867D01*
X0032210Y0049066D02*
X0015317Y0049066D01*
X0015317Y0050264D02*
X0035787Y0050264D01*
X0035450Y0051463D02*
X0015317Y0051463D01*
X0015317Y0052662D02*
X0035450Y0052662D01*
X0035850Y0053860D02*
X0015317Y0053860D01*
X0015317Y0055059D02*
X0036628Y0055059D01*
X0038381Y0056257D02*
X0015317Y0056257D01*
X0015317Y0031088D02*
X0056047Y0031088D01*
X0054848Y0029890D02*
X0015317Y0029890D01*
X0003400Y0016706D02*
X0480115Y0016706D01*
X0480115Y0020302D02*
X0305940Y0020302D01*
X0306697Y0021500D02*
X0480115Y0021500D01*
X0480115Y0022699D02*
X0306697Y0022699D01*
X0306697Y0023897D02*
X0480115Y0023897D01*
X0480115Y0025096D02*
X0306697Y0025096D01*
X0305521Y0026294D02*
X0480115Y0026294D01*
X0480115Y0034684D02*
X0446620Y0034684D01*
X0447818Y0035882D02*
X0480115Y0035882D01*
X0480115Y0037081D02*
X0449017Y0037081D01*
X0450215Y0038279D02*
X0480115Y0038279D01*
X0480115Y0039478D02*
X0451414Y0039478D01*
X0452612Y0040676D02*
X0480115Y0040676D01*
X0480115Y0041875D02*
X0453811Y0041875D01*
X0454916Y0043073D02*
X0480115Y0043073D01*
X0480115Y0044272D02*
X0456115Y0044272D01*
X0457313Y0045470D02*
X0480115Y0045470D01*
X0480115Y0046669D02*
X0458512Y0046669D01*
X0459246Y0047403D02*
X0459246Y0047403D01*
X0459710Y0047867D02*
X0480115Y0047867D01*
X0480115Y0049066D02*
X0460593Y0049066D01*
X0460593Y0050264D02*
X0480115Y0050264D01*
X0480115Y0051463D02*
X0460593Y0051463D01*
X0460593Y0052662D02*
X0480115Y0052662D01*
X0480115Y0053860D02*
X0460593Y0053860D01*
X0460593Y0055059D02*
X0480115Y0055059D01*
X0480115Y0056257D02*
X0460593Y0056257D01*
X0460593Y0057456D02*
X0480115Y0057456D01*
X0480115Y0058654D02*
X0460593Y0058654D01*
X0460593Y0059853D02*
X0480115Y0059853D01*
X0480115Y0061051D02*
X0460593Y0061051D01*
X0460593Y0062250D02*
X0480115Y0062250D01*
X0480115Y0063448D02*
X0460593Y0063448D01*
X0460593Y0064647D02*
X0480115Y0064647D01*
X0480115Y0065845D02*
X0460593Y0065845D01*
X0460593Y0067044D02*
X0480115Y0067044D01*
X0480115Y0068242D02*
X0460593Y0068242D01*
X0460593Y0069441D02*
X0480115Y0069441D01*
X0480115Y0070639D02*
X0460593Y0070639D01*
X0460593Y0071838D02*
X0480115Y0071838D01*
X0480115Y0073036D02*
X0460593Y0073036D01*
X0460593Y0074235D02*
X0480115Y0074235D01*
X0480115Y0075433D02*
X0460593Y0075433D01*
X0460593Y0076632D02*
X0480115Y0076632D01*
X0480115Y0077830D02*
X0460593Y0077830D01*
X0460593Y0079029D02*
X0480115Y0079029D01*
X0480115Y0080227D02*
X0460593Y0080227D01*
X0460593Y0081426D02*
X0480115Y0081426D01*
X0480115Y0082624D02*
X0460593Y0082624D01*
X0460593Y0083823D02*
X0480115Y0083823D01*
X0480115Y0085021D02*
X0460593Y0085021D01*
X0460593Y0086220D02*
X0480115Y0086220D01*
X0480115Y0087418D02*
X0460593Y0087418D01*
X0460593Y0088617D02*
X0480115Y0088617D01*
X0480115Y0089815D02*
X0460593Y0089815D01*
X0460593Y0091014D02*
X0480115Y0091014D01*
X0480115Y0092212D02*
X0460593Y0092212D01*
X0460593Y0093411D02*
X0480115Y0093411D01*
X0480115Y0094609D02*
X0460593Y0094609D01*
X0460593Y0095808D02*
X0480115Y0095808D01*
X0480115Y0097006D02*
X0460593Y0097006D01*
X0460593Y0098205D02*
X0480115Y0098205D01*
X0480115Y0099403D02*
X0460593Y0099403D01*
X0460593Y0100602D02*
X0480115Y0100602D01*
X0480115Y0101800D02*
X0460593Y0101800D01*
X0460593Y0102999D02*
X0480115Y0102999D01*
X0480115Y0104198D02*
X0460593Y0104198D01*
X0460593Y0105396D02*
X0480115Y0105396D01*
X0480115Y0106595D02*
X0460593Y0106595D01*
X0460593Y0107793D02*
X0480115Y0107793D01*
X0480115Y0108992D02*
X0460593Y0108992D01*
X0460593Y0110190D02*
X0480115Y0110190D01*
X0480115Y0111389D02*
X0460593Y0111389D01*
X0460593Y0112587D02*
X0480115Y0112587D01*
X0480115Y0113786D02*
X0460593Y0113786D01*
X0460593Y0114984D02*
X0480115Y0114984D01*
X0480115Y0116183D02*
X0460593Y0116183D01*
X0460593Y0117381D02*
X0480115Y0117381D01*
X0480115Y0118580D02*
X0460593Y0118580D01*
X0460593Y0119778D02*
X0480115Y0119778D01*
X0480115Y0120977D02*
X0460593Y0120977D01*
X0460593Y0122175D02*
X0480115Y0122175D01*
X0480115Y0123374D02*
X0460593Y0123374D01*
X0460593Y0124572D02*
X0480115Y0124572D01*
X0480115Y0125771D02*
X0460593Y0125771D01*
X0460593Y0126969D02*
X0480115Y0126969D01*
X0480115Y0128168D02*
X0460593Y0128168D01*
X0460593Y0129366D02*
X0480115Y0129366D01*
X0480115Y0130565D02*
X0460593Y0130565D01*
X0460593Y0131763D02*
X0480115Y0131763D01*
X0480115Y0132962D02*
X0460593Y0132962D01*
X0460593Y0134160D02*
X0480115Y0134160D01*
X0480115Y0135359D02*
X0460593Y0135359D01*
X0460593Y0136557D02*
X0480115Y0136557D01*
X0480115Y0137756D02*
X0460593Y0137756D01*
X0460593Y0138954D02*
X0480115Y0138954D01*
X0480115Y0140153D02*
X0460593Y0140153D01*
X0460593Y0141351D02*
X0480115Y0141351D01*
X0480115Y0142550D02*
X0460593Y0142550D01*
X0460616Y0143748D02*
X0480115Y0143748D01*
X0480115Y0144947D02*
X0460593Y0144947D01*
X0459685Y0146145D02*
X0480115Y0146145D01*
X0480115Y0147344D02*
X0458370Y0147344D01*
X0457071Y0148542D02*
X0480115Y0148542D01*
X0480115Y0149741D02*
X0455773Y0149741D01*
X0454474Y0150939D02*
X0480115Y0150939D01*
X0480115Y0152138D02*
X0453176Y0152138D01*
X0451877Y0153336D02*
X0480115Y0153336D01*
X0480115Y0154535D02*
X0450579Y0154535D01*
X0449280Y0155733D02*
X0480115Y0155733D01*
X0480115Y0156932D02*
X0447982Y0156932D01*
X0446683Y0158131D02*
X0480115Y0158131D01*
X0480115Y0159329D02*
X0445384Y0159329D01*
X0444086Y0160528D02*
X0480115Y0160528D01*
X0480115Y0161726D02*
X0442787Y0161726D01*
X0441513Y0162925D02*
X0480115Y0162925D01*
X0480115Y0164123D02*
X0449076Y0164123D01*
X0450275Y0165322D02*
X0480115Y0165322D01*
X0480115Y0166520D02*
X0451473Y0166520D01*
X0452672Y0167719D02*
X0480115Y0167719D01*
X0480115Y0168917D02*
X0453870Y0168917D01*
X0454687Y0170116D02*
X0480115Y0170116D01*
X0480115Y0171314D02*
X0454687Y0171314D01*
X0454687Y0172513D02*
X0480115Y0172513D01*
X0480115Y0173711D02*
X0454687Y0173711D01*
X0454687Y0174910D02*
X0480115Y0174910D01*
X0480115Y0176108D02*
X0454687Y0176108D01*
X0454687Y0177307D02*
X0480115Y0177307D01*
X0480115Y0178505D02*
X0454687Y0178505D01*
X0454687Y0179704D02*
X0480115Y0179704D01*
X0480115Y0180902D02*
X0454687Y0180902D01*
X0454687Y0182101D02*
X0480115Y0182101D01*
X0480115Y0183299D02*
X0454687Y0183299D01*
X0454687Y0184498D02*
X0480115Y0184498D01*
X0480115Y0185696D02*
X0454687Y0185696D01*
X0454687Y0186895D02*
X0480115Y0186895D01*
X0480115Y0188093D02*
X0454687Y0188093D01*
X0454687Y0189292D02*
X0480115Y0189292D01*
X0480115Y0190490D02*
X0454687Y0190490D01*
X0454687Y0191689D02*
X0480115Y0191689D01*
X0480115Y0192887D02*
X0454687Y0192887D01*
X0454687Y0194086D02*
X0480115Y0194086D01*
X0480115Y0195284D02*
X0454687Y0195284D01*
X0454687Y0196483D02*
X0480115Y0196483D01*
X0480115Y0197681D02*
X0454687Y0197681D01*
X0454687Y0198880D02*
X0480115Y0198880D01*
X0480115Y0200078D02*
X0454687Y0200078D01*
X0454687Y0201277D02*
X0480115Y0201277D01*
X0480115Y0202475D02*
X0454687Y0202475D01*
X0454687Y0203674D02*
X0480115Y0203674D01*
X0480115Y0204872D02*
X0454687Y0204872D01*
X0454687Y0206071D02*
X0480115Y0206071D01*
X0480115Y0207269D02*
X0454687Y0207269D01*
X0454687Y0208468D02*
X0480115Y0208468D01*
X0480115Y0209666D02*
X0454687Y0209666D01*
X0454687Y0210865D02*
X0480115Y0210865D01*
X0480115Y0212064D02*
X0454687Y0212064D01*
X0454687Y0213262D02*
X0480115Y0213262D01*
X0480115Y0214461D02*
X0454687Y0214461D01*
X0454687Y0215659D02*
X0480115Y0215659D01*
X0480115Y0216858D02*
X0454687Y0216858D01*
X0454687Y0218056D02*
X0480115Y0218056D01*
X0480115Y0219255D02*
X0454687Y0219255D01*
X0454687Y0220453D02*
X0480115Y0220453D01*
X0480115Y0221652D02*
X0454687Y0221652D01*
X0454687Y0222850D02*
X0480115Y0222850D01*
X0480115Y0224049D02*
X0454687Y0224049D01*
X0454687Y0225247D02*
X0480115Y0225247D01*
X0480115Y0226446D02*
X0454687Y0226446D01*
X0454687Y0227644D02*
X0480115Y0227644D01*
X0480115Y0228843D02*
X0454687Y0228843D01*
X0454687Y0230041D02*
X0480115Y0230041D01*
X0480115Y0231240D02*
X0454687Y0231240D01*
X0454687Y0232438D02*
X0480115Y0232438D01*
X0480115Y0233637D02*
X0454687Y0233637D01*
X0454687Y0234835D02*
X0480115Y0234835D01*
X0480115Y0236034D02*
X0454687Y0236034D01*
X0454687Y0237232D02*
X0480115Y0237232D01*
X0480115Y0238431D02*
X0454687Y0238431D01*
X0454687Y0239629D02*
X0480115Y0239629D01*
X0480115Y0240828D02*
X0454687Y0240828D01*
X0454687Y0242026D02*
X0480115Y0242026D01*
X0480115Y0243225D02*
X0454687Y0243225D01*
X0454687Y0244423D02*
X0480115Y0244423D01*
X0480115Y0245622D02*
X0454687Y0245622D01*
X0454687Y0246820D02*
X0480115Y0246820D01*
X0480115Y0248019D02*
X0454687Y0248019D01*
X0454687Y0249217D02*
X0480115Y0249217D01*
X0480115Y0250416D02*
X0454687Y0250416D01*
X0454687Y0251614D02*
X0480115Y0251614D01*
X0480115Y0252813D02*
X0454687Y0252813D01*
X0454687Y0254011D02*
X0480115Y0254011D01*
X0480115Y0255210D02*
X0454687Y0255210D01*
X0454687Y0256408D02*
X0480115Y0256408D01*
X0480115Y0257607D02*
X0454687Y0257607D01*
X0454687Y0258805D02*
X0480115Y0258805D01*
X0480115Y0260004D02*
X0454687Y0260004D01*
X0454687Y0261202D02*
X0480115Y0261202D01*
X0480115Y0262401D02*
X0454687Y0262401D01*
X0454687Y0263600D02*
X0480115Y0263600D01*
X0480115Y0264798D02*
X0454687Y0264798D01*
X0454687Y0265997D02*
X0480115Y0265997D01*
X0480115Y0267195D02*
X0454687Y0267195D01*
X0454687Y0268394D02*
X0480115Y0268394D01*
X0480115Y0269592D02*
X0454687Y0269592D01*
X0454687Y0270791D02*
X0480115Y0270791D01*
X0480115Y0271989D02*
X0454687Y0271989D01*
X0454687Y0273188D02*
X0480115Y0273188D01*
X0480115Y0274386D02*
X0454687Y0274386D01*
X0454687Y0275585D02*
X0480115Y0275585D01*
X0480115Y0276783D02*
X0454687Y0276783D01*
X0454687Y0277982D02*
X0480115Y0277982D01*
X0480115Y0279180D02*
X0454687Y0279180D01*
X0454687Y0280379D02*
X0480115Y0280379D01*
X0480115Y0281577D02*
X0454687Y0281577D01*
X0454687Y0282776D02*
X0480115Y0282776D01*
X0480115Y0283974D02*
X0454687Y0283974D01*
X0454687Y0285173D02*
X0480115Y0285173D01*
X0480115Y0286371D02*
X0454687Y0286371D01*
X0454687Y0287570D02*
X0480115Y0287570D01*
X0480115Y0288768D02*
X0454687Y0288768D01*
X0454687Y0289967D02*
X0480115Y0289967D01*
X0480115Y0291165D02*
X0454687Y0291165D01*
X0454687Y0292364D02*
X0480115Y0292364D01*
X0480115Y0293562D02*
X0454687Y0293562D01*
X0454687Y0294761D02*
X0480115Y0294761D01*
X0480115Y0295959D02*
X0454687Y0295959D01*
X0454687Y0297158D02*
X0480115Y0297158D01*
X0480115Y0298356D02*
X0454687Y0298356D01*
X0454687Y0299555D02*
X0480115Y0299555D01*
X0480115Y0300753D02*
X0454687Y0300753D01*
X0454687Y0301952D02*
X0480115Y0301952D01*
X0480115Y0303150D02*
X0454687Y0303150D01*
X0454687Y0304349D02*
X0480115Y0304349D01*
X0480115Y0305547D02*
X0454687Y0305547D01*
X0454687Y0306746D02*
X0480115Y0306746D01*
X0480115Y0307944D02*
X0454687Y0307944D01*
X0454687Y0309143D02*
X0480115Y0309143D01*
X0480115Y0310341D02*
X0454687Y0310341D01*
X0454687Y0311540D02*
X0480115Y0311540D01*
X0480115Y0312738D02*
X0454687Y0312738D01*
X0454687Y0313937D02*
X0480115Y0313937D01*
X0480115Y0315135D02*
X0454687Y0315135D01*
X0454687Y0316334D02*
X0480115Y0316334D01*
X0480115Y0317533D02*
X0454687Y0317533D01*
X0454687Y0318731D02*
X0480115Y0318731D01*
X0480115Y0319930D02*
X0454687Y0319930D01*
X0454687Y0321128D02*
X0480115Y0321128D01*
X0480115Y0322327D02*
X0454687Y0322327D01*
X0454687Y0323525D02*
X0480115Y0323525D01*
X0480115Y0324724D02*
X0454687Y0324724D01*
X0454687Y0325922D02*
X0480115Y0325922D01*
X0480115Y0327121D02*
X0454687Y0327121D01*
X0454687Y0328319D02*
X0480115Y0328319D01*
X0480115Y0329518D02*
X0454687Y0329518D01*
X0454687Y0330716D02*
X0480115Y0330716D01*
X0480115Y0331915D02*
X0454687Y0331915D01*
X0454513Y0333113D02*
X0480115Y0333113D01*
X0480115Y0334312D02*
X0453315Y0334312D01*
X0453340Y0334286D02*
X0453340Y0334286D01*
X0452116Y0335510D02*
X0480115Y0335510D01*
X0480115Y0336709D02*
X0450918Y0336709D01*
X0449206Y0331915D02*
X0438156Y0331915D01*
X0436080Y0330716D02*
X0450087Y0330716D01*
X0450087Y0329518D02*
X0436932Y0329518D01*
X0438509Y0328319D02*
X0450087Y0328319D01*
X0450087Y0327121D02*
X0439213Y0327121D01*
X0439561Y0325922D02*
X0450087Y0325922D01*
X0450087Y0324724D02*
X0439561Y0324724D01*
X0439172Y0323525D02*
X0450087Y0323525D01*
X0450087Y0322327D02*
X0441323Y0322327D01*
X0442522Y0321128D02*
X0450087Y0321128D01*
X0450087Y0319930D02*
X0443720Y0319930D01*
X0444919Y0318731D02*
X0450087Y0318731D01*
X0450087Y0317533D02*
X0446117Y0317533D01*
X0446302Y0316334D02*
X0450087Y0316334D01*
X0450087Y0315135D02*
X0446302Y0315135D01*
X0446302Y0313937D02*
X0450087Y0313937D01*
X0450087Y0312738D02*
X0446302Y0312738D01*
X0446302Y0311540D02*
X0450087Y0311540D01*
X0450087Y0310341D02*
X0446302Y0310341D01*
X0446302Y0309143D02*
X0450087Y0309143D01*
X0450087Y0307944D02*
X0446302Y0307944D01*
X0445321Y0306746D02*
X0450087Y0306746D01*
X0450087Y0305547D02*
X0444122Y0305547D01*
X0444648Y0304349D02*
X0450087Y0304349D01*
X0450087Y0303150D02*
X0444648Y0303150D01*
X0444648Y0301952D02*
X0450087Y0301952D01*
X0450087Y0300753D02*
X0444648Y0300753D01*
X0444648Y0299555D02*
X0450087Y0299555D01*
X0450087Y0298356D02*
X0444648Y0298356D01*
X0444648Y0297158D02*
X0450087Y0297158D01*
X0450087Y0295959D02*
X0444648Y0295959D01*
X0444648Y0294761D02*
X0450087Y0294761D01*
X0450087Y0293562D02*
X0444648Y0293562D01*
X0444648Y0292364D02*
X0450087Y0292364D01*
X0450087Y0291165D02*
X0444648Y0291165D01*
X0444648Y0289967D02*
X0450087Y0289967D01*
X0450087Y0288768D02*
X0444648Y0288768D01*
X0444531Y0287570D02*
X0450087Y0287570D01*
X0450087Y0286371D02*
X0443332Y0286371D01*
X0442134Y0285173D02*
X0450087Y0285173D01*
X0450087Y0283974D02*
X0440935Y0283974D01*
X0438229Y0282776D02*
X0450087Y0282776D01*
X0450087Y0281577D02*
X0436258Y0281577D01*
X0436754Y0280379D02*
X0450087Y0280379D01*
X0450087Y0279180D02*
X0438435Y0279180D01*
X0439183Y0277982D02*
X0450087Y0277982D01*
X0450087Y0276783D02*
X0439561Y0276783D01*
X0439561Y0275585D02*
X0450087Y0275585D01*
X0450087Y0274386D02*
X0439203Y0274386D01*
X0438484Y0273188D02*
X0450087Y0273188D01*
X0450087Y0271989D02*
X0436872Y0271989D01*
X0433100Y0271989D02*
X0399451Y0271989D01*
X0399451Y0270791D02*
X0450087Y0270791D01*
X0450087Y0269592D02*
X0399451Y0269592D01*
X0399451Y0268394D02*
X0450087Y0268394D01*
X0450087Y0267195D02*
X0399451Y0267195D01*
X0399451Y0265997D02*
X0450087Y0265997D01*
X0450087Y0264798D02*
X0399451Y0264798D01*
X0399451Y0263600D02*
X0450087Y0263600D01*
X0450087Y0262401D02*
X0399451Y0262401D01*
X0399451Y0261202D02*
X0450087Y0261202D01*
X0450087Y0260004D02*
X0399451Y0260004D01*
X0399451Y0258805D02*
X0450087Y0258805D01*
X0450087Y0257607D02*
X0399451Y0257607D01*
X0399451Y0256408D02*
X0450087Y0256408D01*
X0450087Y0255210D02*
X0399451Y0255210D01*
X0399451Y0254011D02*
X0450087Y0254011D01*
X0450087Y0252813D02*
X0399451Y0252813D01*
X0399451Y0251614D02*
X0450087Y0251614D01*
X0450087Y0250416D02*
X0399451Y0250416D01*
X0399451Y0249217D02*
X0450087Y0249217D01*
X0450087Y0248019D02*
X0399451Y0248019D01*
X0399451Y0246820D02*
X0450087Y0246820D01*
X0450087Y0245622D02*
X0399451Y0245622D01*
X0399451Y0244423D02*
X0450087Y0244423D01*
X0450087Y0243225D02*
X0399451Y0243225D01*
X0399451Y0242026D02*
X0450087Y0242026D01*
X0450087Y0240828D02*
X0399451Y0240828D01*
X0399451Y0239629D02*
X0450087Y0239629D01*
X0450087Y0238431D02*
X0399451Y0238431D01*
X0399451Y0237232D02*
X0450087Y0237232D01*
X0450087Y0236034D02*
X0399451Y0236034D01*
X0399451Y0234835D02*
X0450087Y0234835D01*
X0450087Y0233637D02*
X0399451Y0233637D01*
X0399451Y0232438D02*
X0450087Y0232438D01*
X0450087Y0231240D02*
X0399451Y0231240D01*
X0399451Y0230041D02*
X0450087Y0230041D01*
X0450087Y0228843D02*
X0399451Y0228843D01*
X0399451Y0227644D02*
X0450087Y0227644D01*
X0450087Y0226446D02*
X0399451Y0226446D01*
X0399451Y0225247D02*
X0450087Y0225247D01*
X0450087Y0224049D02*
X0399451Y0224049D01*
X0399451Y0222850D02*
X0450087Y0222850D01*
X0450087Y0221652D02*
X0399451Y0221652D01*
X0399451Y0220453D02*
X0450087Y0220453D01*
X0450087Y0219255D02*
X0399451Y0219255D01*
X0399451Y0218056D02*
X0450087Y0218056D01*
X0450087Y0216858D02*
X0399451Y0216858D01*
X0400107Y0215659D02*
X0404196Y0215659D01*
X0403146Y0214461D02*
X0401156Y0214461D01*
X0401653Y0213262D02*
X0402650Y0213262D01*
X0402551Y0212064D02*
X0401751Y0212064D01*
X0401751Y0210865D02*
X0402551Y0210865D01*
X0402551Y0209666D02*
X0401751Y0209666D01*
X0401751Y0208468D02*
X0402551Y0208468D01*
X0402551Y0207269D02*
X0401751Y0207269D01*
X0401751Y0206071D02*
X0402551Y0206071D01*
X0402850Y0204872D02*
X0401452Y0204872D01*
X0400821Y0203674D02*
X0403481Y0203674D01*
X0404869Y0202475D02*
X0399433Y0202475D01*
X0394869Y0202475D02*
X0389433Y0202475D01*
X0390821Y0203674D02*
X0393481Y0203674D01*
X0392850Y0204872D02*
X0391452Y0204872D01*
X0391751Y0206071D02*
X0392551Y0206071D01*
X0392551Y0207269D02*
X0391751Y0207269D01*
X0391751Y0208468D02*
X0392551Y0208468D01*
X0392551Y0209666D02*
X0391751Y0209666D01*
X0391751Y0210865D02*
X0392551Y0210865D01*
X0392551Y0212064D02*
X0391751Y0212064D01*
X0391653Y0213262D02*
X0392650Y0213262D01*
X0393146Y0214461D02*
X0391156Y0214461D01*
X0390107Y0215659D02*
X0394196Y0215659D01*
X0394851Y0216858D02*
X0389451Y0216858D01*
X0389451Y0218056D02*
X0394851Y0218056D01*
X0394851Y0219255D02*
X0389451Y0219255D01*
X0389451Y0220453D02*
X0394851Y0220453D01*
X0394851Y0221652D02*
X0389451Y0221652D01*
X0389451Y0222850D02*
X0394851Y0222850D01*
X0394851Y0224049D02*
X0389451Y0224049D01*
X0389451Y0225247D02*
X0394851Y0225247D01*
X0394851Y0226446D02*
X0389451Y0226446D01*
X0389451Y0227644D02*
X0394851Y0227644D01*
X0394851Y0228843D02*
X0389451Y0228843D01*
X0389451Y0230041D02*
X0394851Y0230041D01*
X0394851Y0231240D02*
X0389451Y0231240D01*
X0389451Y0232438D02*
X0394851Y0232438D01*
X0394851Y0233637D02*
X0389451Y0233637D01*
X0389451Y0234835D02*
X0394851Y0234835D01*
X0394851Y0236034D02*
X0389451Y0236034D01*
X0389451Y0237232D02*
X0394851Y0237232D01*
X0394851Y0238431D02*
X0389451Y0238431D01*
X0389451Y0239629D02*
X0394851Y0239629D01*
X0394851Y0240828D02*
X0389451Y0240828D01*
X0389451Y0242026D02*
X0394851Y0242026D01*
X0394851Y0243225D02*
X0389451Y0243225D01*
X0389451Y0244423D02*
X0394851Y0244423D01*
X0394851Y0245622D02*
X0389451Y0245622D01*
X0389451Y0246820D02*
X0394851Y0246820D01*
X0394851Y0248019D02*
X0389451Y0248019D01*
X0389451Y0249217D02*
X0394851Y0249217D01*
X0394851Y0250416D02*
X0389451Y0250416D01*
X0389451Y0251614D02*
X0394851Y0251614D01*
X0394851Y0252813D02*
X0389451Y0252813D01*
X0389451Y0254011D02*
X0394851Y0254011D01*
X0394851Y0255210D02*
X0389451Y0255210D01*
X0389451Y0256408D02*
X0394851Y0256408D01*
X0394851Y0257607D02*
X0389451Y0257607D01*
X0389451Y0258805D02*
X0394851Y0258805D01*
X0394851Y0260004D02*
X0389451Y0260004D01*
X0389451Y0261202D02*
X0394851Y0261202D01*
X0394851Y0262401D02*
X0389451Y0262401D01*
X0389451Y0263600D02*
X0394851Y0263600D01*
X0394851Y0264798D02*
X0389451Y0264798D01*
X0389451Y0265997D02*
X0394851Y0265997D01*
X0394851Y0267195D02*
X0389451Y0267195D01*
X0389451Y0268394D02*
X0394851Y0268394D01*
X0394851Y0269592D02*
X0389451Y0269592D01*
X0389451Y0270791D02*
X0394851Y0270791D01*
X0394851Y0271989D02*
X0389451Y0271989D01*
X0389451Y0273188D02*
X0394851Y0273188D01*
X0394851Y0274386D02*
X0389451Y0274386D01*
X0389451Y0275585D02*
X0394851Y0275585D01*
X0394851Y0276783D02*
X0389451Y0276783D01*
X0389451Y0277982D02*
X0394851Y0277982D01*
X0394851Y0279180D02*
X0389451Y0279180D01*
X0389451Y0280379D02*
X0394851Y0280379D01*
X0394851Y0281577D02*
X0389451Y0281577D01*
X0389451Y0282776D02*
X0394851Y0282776D01*
X0394851Y0283974D02*
X0389451Y0283974D01*
X0389451Y0285173D02*
X0394851Y0285173D01*
X0394851Y0286371D02*
X0389451Y0286371D01*
X0389451Y0287570D02*
X0394851Y0287570D01*
X0394851Y0288768D02*
X0389451Y0288768D01*
X0389451Y0289967D02*
X0394851Y0289967D01*
X0394851Y0291165D02*
X0389451Y0291165D01*
X0389451Y0292364D02*
X0394851Y0292364D01*
X0394851Y0293562D02*
X0389451Y0293562D01*
X0389451Y0294761D02*
X0394851Y0294761D01*
X0394851Y0295959D02*
X0389451Y0295959D01*
X0389451Y0297158D02*
X0394851Y0297158D01*
X0394851Y0298356D02*
X0389451Y0298356D01*
X0389451Y0299555D02*
X0394851Y0299555D01*
X0394851Y0300753D02*
X0389451Y0300753D01*
X0389451Y0301952D02*
X0394851Y0301952D01*
X0394851Y0303150D02*
X0389451Y0303150D01*
X0389451Y0304349D02*
X0394851Y0304349D01*
X0394679Y0305547D02*
X0389451Y0305547D01*
X0389451Y0306746D02*
X0393481Y0306746D01*
X0392282Y0307944D02*
X0389451Y0307944D01*
X0389451Y0309143D02*
X0391084Y0309143D01*
X0389885Y0310341D02*
X0389451Y0310341D01*
X0384851Y0309143D02*
X0155740Y0309143D01*
X0155775Y0307944D02*
X0384851Y0307944D01*
X0384851Y0306746D02*
X0156974Y0306746D01*
X0157577Y0305547D02*
X0384851Y0305547D01*
X0384851Y0304349D02*
X0157963Y0304349D01*
X0157963Y0303150D02*
X0384851Y0303150D01*
X0384851Y0301952D02*
X0157733Y0301952D01*
X0157237Y0300753D02*
X0384851Y0300753D01*
X0384851Y0299555D02*
X0328385Y0299555D01*
X0328254Y0299609D02*
X0325946Y0299609D01*
X0323815Y0298726D01*
X0322183Y0297095D01*
X0321476Y0295387D01*
X0321290Y0295959D01*
X0320890Y0296744D01*
X0320371Y0297457D01*
X0319748Y0298081D01*
X0319035Y0298599D01*
X0318250Y0298999D01*
X0317411Y0299271D01*
X0316541Y0299409D01*
X0316500Y0299409D01*
X0316500Y0294209D01*
X0315700Y0294209D01*
X0315700Y0293409D01*
X0316500Y0293409D01*
X0316500Y0288209D01*
X0316541Y0288209D01*
X0317411Y0288347D01*
X0318250Y0288619D01*
X0319035Y0289020D01*
X0319748Y0289538D01*
X0320371Y0290161D01*
X0320890Y0290874D01*
X0321290Y0291659D01*
X0321476Y0292232D01*
X0322183Y0290524D01*
X0323815Y0288892D01*
X0325946Y0288009D01*
X0328254Y0288009D01*
X0330385Y0288892D01*
X0332017Y0290524D01*
X0332900Y0292655D01*
X0332900Y0294963D01*
X0332017Y0297095D01*
X0330385Y0298726D01*
X0328254Y0299609D01*
X0325815Y0299555D02*
X0156152Y0299555D01*
X0154936Y0298356D02*
X0312831Y0298356D01*
X0313165Y0298599D02*
X0312452Y0298081D01*
X0311829Y0297457D01*
X0311310Y0296744D01*
X0310910Y0295959D01*
X0310638Y0295120D01*
X0310500Y0294250D01*
X0310500Y0294209D01*
X0315700Y0294209D01*
X0315700Y0299409D01*
X0315659Y0299409D01*
X0314789Y0299271D01*
X0313950Y0298999D01*
X0313165Y0298599D01*
X0311611Y0297158D02*
X0156562Y0297158D01*
X0157406Y0295959D02*
X0310911Y0295959D01*
X0310581Y0294761D02*
X0270385Y0294761D01*
X0271584Y0293562D02*
X0315700Y0293562D01*
X0315700Y0293409D02*
X0310500Y0293409D01*
X0310500Y0293368D01*
X0310638Y0292498D01*
X0310910Y0291659D01*
X0311310Y0290874D01*
X0311829Y0290161D01*
X0312452Y0289538D01*
X0313165Y0289020D01*
X0313950Y0288619D01*
X0314789Y0288347D01*
X0315659Y0288209D01*
X0315700Y0288209D01*
X0315700Y0293409D01*
X0315700Y0292364D02*
X0316500Y0292364D01*
X0316500Y0291165D02*
X0315700Y0291165D01*
X0315700Y0289967D02*
X0316500Y0289967D01*
X0316500Y0288768D02*
X0315700Y0288768D01*
X0313658Y0288768D02*
X0276378Y0288768D01*
X0277576Y0287570D02*
X0384851Y0287570D01*
X0384851Y0288768D02*
X0330086Y0288768D01*
X0331460Y0289967D02*
X0384851Y0289967D01*
X0384851Y0291165D02*
X0332283Y0291165D01*
X0332779Y0292364D02*
X0384851Y0292364D01*
X0384851Y0293562D02*
X0332900Y0293562D01*
X0332900Y0294761D02*
X0384851Y0294761D01*
X0384851Y0295959D02*
X0332487Y0295959D01*
X0331954Y0297158D02*
X0384851Y0297158D01*
X0384851Y0298356D02*
X0330755Y0298356D01*
X0323445Y0298356D02*
X0319369Y0298356D01*
X0320589Y0297158D02*
X0322246Y0297158D01*
X0321713Y0295959D02*
X0321289Y0295959D01*
X0316500Y0295959D02*
X0315700Y0295959D01*
X0315700Y0294761D02*
X0316500Y0294761D01*
X0316500Y0297158D02*
X0315700Y0297158D01*
X0315700Y0298356D02*
X0316500Y0298356D01*
X0310681Y0292364D02*
X0272782Y0292364D01*
X0273981Y0291165D02*
X0311162Y0291165D01*
X0312023Y0289967D02*
X0275179Y0289967D01*
X0278775Y0286371D02*
X0384851Y0286371D01*
X0384851Y0285173D02*
X0279451Y0285173D01*
X0279451Y0283974D02*
X0384851Y0283974D01*
X0384851Y0282776D02*
X0279451Y0282776D01*
X0279451Y0281577D02*
X0384851Y0281577D01*
X0384851Y0280379D02*
X0279451Y0280379D01*
X0279451Y0279180D02*
X0384851Y0279180D01*
X0384851Y0277982D02*
X0279451Y0277982D01*
X0279451Y0276783D02*
X0384851Y0276783D01*
X0384851Y0275585D02*
X0279451Y0275585D01*
X0279451Y0274386D02*
X0314939Y0274386D01*
X0315037Y0274457D02*
X0314419Y0274009D01*
X0313879Y0273469D01*
X0313431Y0272851D01*
X0313084Y0272171D01*
X0312848Y0271445D01*
X0312729Y0270691D01*
X0312729Y0270398D01*
X0317490Y0270398D01*
X0317490Y0275159D01*
X0317197Y0275159D01*
X0316443Y0275040D01*
X0315717Y0274804D01*
X0315037Y0274457D01*
X0313675Y0273188D02*
X0279451Y0273188D01*
X0279451Y0271989D02*
X0313025Y0271989D01*
X0312745Y0270791D02*
X0279451Y0270791D01*
X0279451Y0269592D02*
X0312782Y0269592D01*
X0312729Y0269927D02*
X0312848Y0269173D01*
X0313084Y0268447D01*
X0313431Y0267767D01*
X0313879Y0267150D01*
X0314419Y0266610D01*
X0315037Y0266161D01*
X0315717Y0265814D01*
X0316443Y0265579D01*
X0317197Y0265459D01*
X0317490Y0265459D01*
X0317490Y0270220D01*
X0317668Y0270220D01*
X0317668Y0265459D01*
X0317960Y0265459D01*
X0318714Y0265579D01*
X0319440Y0265814D01*
X0320121Y0266161D01*
X0320738Y0266610D01*
X0321278Y0267150D01*
X0321727Y0267767D01*
X0322073Y0268447D01*
X0322309Y0269173D01*
X0322371Y0269565D01*
X0322371Y0266314D01*
X0323426Y0265259D01*
X0331417Y0265259D01*
X0332471Y0266314D01*
X0332471Y0274305D01*
X0331417Y0275359D01*
X0323426Y0275359D01*
X0322371Y0274305D01*
X0322371Y0271054D01*
X0322309Y0271445D01*
X0322073Y0272171D01*
X0321727Y0272851D01*
X0321278Y0273469D01*
X0320738Y0274009D01*
X0320121Y0274457D01*
X0319440Y0274804D01*
X0318714Y0275040D01*
X0317960Y0275159D01*
X0317668Y0275159D01*
X0317668Y0270398D01*
X0317490Y0270398D01*
X0317490Y0270220D01*
X0312729Y0270220D01*
X0312729Y0269927D01*
X0313111Y0268394D02*
X0279451Y0268394D01*
X0279451Y0267195D02*
X0313846Y0267195D01*
X0315360Y0265997D02*
X0279451Y0265997D01*
X0279451Y0264798D02*
X0384851Y0264798D01*
X0384851Y0263600D02*
X0279451Y0263600D01*
X0279451Y0262401D02*
X0384851Y0262401D01*
X0384851Y0261202D02*
X0279451Y0261202D01*
X0279451Y0260004D02*
X0384851Y0260004D01*
X0384851Y0258805D02*
X0279451Y0258805D01*
X0279451Y0257607D02*
X0384851Y0257607D01*
X0384851Y0256408D02*
X0279451Y0256408D01*
X0279451Y0255210D02*
X0384851Y0255210D01*
X0384851Y0254011D02*
X0279451Y0254011D01*
X0279451Y0252813D02*
X0384851Y0252813D01*
X0384851Y0251614D02*
X0330497Y0251614D01*
X0330385Y0251726D02*
X0332017Y0250095D01*
X0332900Y0247963D01*
X0332900Y0245655D01*
X0332017Y0243524D01*
X0330385Y0241892D01*
X0328254Y0241009D01*
X0325946Y0241009D01*
X0323815Y0241892D01*
X0322183Y0243524D01*
X0321476Y0245232D01*
X0321290Y0244659D01*
X0320890Y0243874D01*
X0320371Y0243161D01*
X0319748Y0242538D01*
X0319035Y0242020D01*
X0318250Y0241619D01*
X0317411Y0241347D01*
X0316541Y0241209D01*
X0316500Y0241209D01*
X0316500Y0246409D01*
X0315700Y0246409D01*
X0315700Y0241209D01*
X0315659Y0241209D01*
X0314789Y0241347D01*
X0313950Y0241619D01*
X0313165Y0242020D01*
X0312452Y0242538D01*
X0311829Y0243161D01*
X0311310Y0243874D01*
X0310910Y0244659D01*
X0310638Y0245498D01*
X0310500Y0246368D01*
X0310500Y0246409D01*
X0315700Y0246409D01*
X0315700Y0247209D01*
X0310500Y0247209D01*
X0310500Y0247250D01*
X0310638Y0248120D01*
X0310910Y0248959D01*
X0311310Y0249744D01*
X0311829Y0250457D01*
X0312452Y0251081D01*
X0313165Y0251599D01*
X0313950Y0251999D01*
X0314789Y0252271D01*
X0315659Y0252409D01*
X0315700Y0252409D01*
X0315700Y0247209D01*
X0316500Y0247209D01*
X0316500Y0252409D01*
X0316541Y0252409D01*
X0317411Y0252271D01*
X0318250Y0251999D01*
X0319035Y0251599D01*
X0319748Y0251081D01*
X0320371Y0250457D01*
X0320890Y0249744D01*
X0321290Y0248959D01*
X0321476Y0248387D01*
X0322183Y0250095D01*
X0323815Y0251726D01*
X0325946Y0252609D01*
X0328254Y0252609D01*
X0330385Y0251726D01*
X0331696Y0250416D02*
X0384851Y0250416D01*
X0384851Y0249217D02*
X0332380Y0249217D01*
X0332877Y0248019D02*
X0384851Y0248019D01*
X0384851Y0246820D02*
X0332900Y0246820D01*
X0332886Y0245622D02*
X0384851Y0245622D01*
X0384851Y0244423D02*
X0332390Y0244423D01*
X0331718Y0243225D02*
X0384851Y0243225D01*
X0384851Y0242026D02*
X0330520Y0242026D01*
X0323680Y0242026D02*
X0319044Y0242026D01*
X0320418Y0243225D02*
X0322482Y0243225D01*
X0321810Y0244423D02*
X0321169Y0244423D01*
X0316500Y0244423D02*
X0315700Y0244423D01*
X0315700Y0243225D02*
X0316500Y0243225D01*
X0316500Y0242026D02*
X0315700Y0242026D01*
X0313156Y0242026D02*
X0279451Y0242026D01*
X0279451Y0240828D02*
X0384851Y0240828D01*
X0384851Y0239629D02*
X0279451Y0239629D01*
X0279451Y0238431D02*
X0384851Y0238431D01*
X0384851Y0237232D02*
X0279451Y0237232D01*
X0279451Y0236034D02*
X0384851Y0236034D01*
X0384851Y0234835D02*
X0279451Y0234835D01*
X0279451Y0233637D02*
X0384851Y0233637D01*
X0384851Y0232438D02*
X0279451Y0232438D01*
X0279451Y0231240D02*
X0384851Y0231240D01*
X0384851Y0230041D02*
X0279451Y0230041D01*
X0279451Y0228843D02*
X0384851Y0228843D01*
X0384851Y0227644D02*
X0279451Y0227644D01*
X0279451Y0226446D02*
X0384851Y0226446D01*
X0384851Y0225247D02*
X0279451Y0225247D01*
X0279451Y0224049D02*
X0384851Y0224049D01*
X0384851Y0222850D02*
X0279451Y0222850D01*
X0279451Y0221652D02*
X0384851Y0221652D01*
X0384851Y0220453D02*
X0279451Y0220453D01*
X0279451Y0219255D02*
X0384851Y0219255D01*
X0384851Y0218056D02*
X0279451Y0218056D01*
X0279451Y0216858D02*
X0384851Y0216858D01*
X0384196Y0215659D02*
X0380107Y0215659D01*
X0381156Y0214461D02*
X0383146Y0214461D01*
X0382650Y0213262D02*
X0381653Y0213262D01*
X0381751Y0212064D02*
X0382551Y0212064D01*
X0382551Y0210865D02*
X0381751Y0210865D01*
X0381751Y0209666D02*
X0382551Y0209666D01*
X0382551Y0208468D02*
X0381751Y0208468D01*
X0381751Y0207269D02*
X0382551Y0207269D01*
X0382551Y0206071D02*
X0381751Y0206071D01*
X0381452Y0204872D02*
X0382850Y0204872D01*
X0383481Y0203674D02*
X0380821Y0203674D01*
X0379451Y0202475D02*
X0384869Y0202475D01*
X0379451Y0201277D02*
X0414377Y0201277D01*
X0414377Y0202475D02*
X0409433Y0202475D01*
X0410821Y0203674D02*
X0414283Y0203674D01*
X0413084Y0204872D02*
X0411452Y0204872D01*
X0411751Y0206071D02*
X0411885Y0206071D01*
X0414795Y0209666D02*
X0450087Y0209666D01*
X0450087Y0208468D02*
X0415994Y0208468D01*
X0417192Y0207269D02*
X0450087Y0207269D01*
X0450087Y0206071D02*
X0418391Y0206071D01*
X0418977Y0204872D02*
X0450087Y0204872D01*
X0450087Y0203674D02*
X0418977Y0203674D01*
X0418977Y0202475D02*
X0450087Y0202475D01*
X0450087Y0201277D02*
X0418977Y0201277D01*
X0418977Y0200078D02*
X0450087Y0200078D01*
X0450087Y0198880D02*
X0418977Y0198880D01*
X0418977Y0197681D02*
X0450087Y0197681D01*
X0450087Y0196483D02*
X0418977Y0196483D01*
X0418977Y0195284D02*
X0450087Y0195284D01*
X0450087Y0194086D02*
X0418977Y0194086D01*
X0418977Y0192887D02*
X0450087Y0192887D01*
X0450087Y0191689D02*
X0418977Y0191689D01*
X0418977Y0190490D02*
X0450087Y0190490D01*
X0450087Y0189292D02*
X0418977Y0189292D01*
X0418977Y0188093D02*
X0450087Y0188093D01*
X0450087Y0186895D02*
X0418977Y0186895D01*
X0418977Y0185696D02*
X0450087Y0185696D01*
X0450087Y0184498D02*
X0418977Y0184498D01*
X0418977Y0183299D02*
X0450087Y0183299D01*
X0450087Y0182101D02*
X0418977Y0182101D01*
X0418977Y0180902D02*
X0450087Y0180902D01*
X0450087Y0179704D02*
X0418977Y0179704D01*
X0418977Y0178505D02*
X0450087Y0178505D01*
X0450087Y0177307D02*
X0418977Y0177307D01*
X0418977Y0176108D02*
X0450087Y0176108D01*
X0450087Y0174910D02*
X0418977Y0174910D01*
X0418977Y0173711D02*
X0450087Y0173711D01*
X0450087Y0172513D02*
X0418977Y0172513D01*
X0418977Y0171314D02*
X0449762Y0171314D01*
X0448563Y0170116D02*
X0436629Y0170116D01*
X0438383Y0168917D02*
X0447365Y0168917D01*
X0433343Y0170116D02*
X0418977Y0170116D01*
X0418977Y0168917D02*
X0431589Y0168917D01*
X0430810Y0167719D02*
X0418977Y0167719D01*
X0418977Y0166520D02*
X0430411Y0166520D01*
X0430411Y0165322D02*
X0429826Y0165322D01*
X0427154Y0165322D02*
X0418977Y0165322D01*
X0418977Y0164123D02*
X0425220Y0164123D01*
X0424367Y0162925D02*
X0418977Y0162925D01*
X0418977Y0161726D02*
X0423915Y0161726D01*
X0423915Y0160528D02*
X0418977Y0160528D01*
X0418836Y0159329D02*
X0424198Y0159329D01*
X0422169Y0158131D02*
X0417639Y0158131D01*
X0416442Y0156932D02*
X0420970Y0156932D01*
X0419772Y0155733D02*
X0415245Y0155733D01*
X0414048Y0154535D02*
X0418573Y0154535D01*
X0417375Y0153336D02*
X0412851Y0153336D01*
X0411654Y0152138D02*
X0416176Y0152138D01*
X0414978Y0150939D02*
X0410457Y0150939D01*
X0409260Y0149741D02*
X0413779Y0149741D01*
X0412581Y0148542D02*
X0408063Y0148542D01*
X0406866Y0147344D02*
X0411382Y0147344D01*
X0410184Y0146145D02*
X0405669Y0146145D01*
X0404472Y0144947D02*
X0408985Y0144947D01*
X0407787Y0143748D02*
X0403275Y0143748D01*
X0402078Y0142550D02*
X0406588Y0142550D01*
X0405390Y0141351D02*
X0400881Y0141351D01*
X0399684Y0140153D02*
X0404191Y0140153D01*
X0402992Y0138954D02*
X0398488Y0138954D01*
X0397291Y0137756D02*
X0401794Y0137756D01*
X0400595Y0136557D02*
X0396094Y0136557D01*
X0394897Y0135359D02*
X0399397Y0135359D01*
X0398198Y0134160D02*
X0393700Y0134160D01*
X0392503Y0132962D02*
X0397000Y0132962D01*
X0395801Y0131763D02*
X0391306Y0131763D01*
X0390109Y0130565D02*
X0394603Y0130565D01*
X0393404Y0129366D02*
X0388912Y0129366D01*
X0387715Y0128168D02*
X0392206Y0128168D01*
X0391007Y0126969D02*
X0386518Y0126969D01*
X0385321Y0125771D02*
X0389809Y0125771D01*
X0388610Y0124572D02*
X0384124Y0124572D01*
X0382927Y0123374D02*
X0387412Y0123374D01*
X0386213Y0122175D02*
X0381730Y0122175D01*
X0380533Y0120977D02*
X0385015Y0120977D01*
X0383816Y0119778D02*
X0379336Y0119778D01*
X0378139Y0118580D02*
X0382618Y0118580D01*
X0381419Y0117381D02*
X0376942Y0117381D01*
X0375745Y0116183D02*
X0380221Y0116183D01*
X0379022Y0114984D02*
X0374549Y0114984D01*
X0373352Y0113786D02*
X0377824Y0113786D01*
X0376625Y0112587D02*
X0372155Y0112587D01*
X0370958Y0111389D02*
X0375427Y0111389D01*
X0374228Y0110190D02*
X0369761Y0110190D01*
X0368564Y0108992D02*
X0373030Y0108992D01*
X0371831Y0107793D02*
X0367367Y0107793D01*
X0366170Y0106595D02*
X0370633Y0106595D01*
X0369434Y0105396D02*
X0364973Y0105396D01*
X0363776Y0104198D02*
X0368236Y0104198D01*
X0367037Y0102999D02*
X0362579Y0102999D01*
X0361382Y0101800D02*
X0365839Y0101800D01*
X0364640Y0100602D02*
X0360185Y0100602D01*
X0358988Y0099403D02*
X0363442Y0099403D01*
X0362243Y0098205D02*
X0357791Y0098205D01*
X0356594Y0097006D02*
X0361045Y0097006D01*
X0359846Y0095808D02*
X0355397Y0095808D01*
X0354200Y0094609D02*
X0358648Y0094609D01*
X0357449Y0093411D02*
X0353003Y0093411D01*
X0351806Y0092212D02*
X0357078Y0092212D01*
X0357078Y0091014D02*
X0350610Y0091014D01*
X0349413Y0089815D02*
X0357078Y0089815D01*
X0357078Y0088617D02*
X0348216Y0088617D01*
X0347019Y0087418D02*
X0357078Y0087418D01*
X0357078Y0086220D02*
X0345822Y0086220D01*
X0344625Y0085021D02*
X0357078Y0085021D01*
X0357078Y0083823D02*
X0343428Y0083823D01*
X0342231Y0082624D02*
X0357078Y0082624D01*
X0357078Y0081426D02*
X0341034Y0081426D01*
X0339837Y0080227D02*
X0357078Y0080227D01*
X0357078Y0079029D02*
X0338640Y0079029D01*
X0337443Y0077830D02*
X0357078Y0077830D01*
X0357078Y0076632D02*
X0336246Y0076632D01*
X0335049Y0075433D02*
X0357078Y0075433D01*
X0357078Y0074235D02*
X0333852Y0074235D01*
X0332655Y0073036D02*
X0357078Y0073036D01*
X0357078Y0071838D02*
X0158287Y0071838D01*
X0157088Y0070639D02*
X0164777Y0070639D01*
X0162890Y0069441D02*
X0155890Y0069441D01*
X0154691Y0068242D02*
X0161905Y0068242D01*
X0161408Y0067044D02*
X0153493Y0067044D01*
X0152294Y0065845D02*
X0161218Y0065845D01*
X0161218Y0064647D02*
X0151096Y0064647D01*
X0149897Y0063448D02*
X0161611Y0063448D01*
X0162181Y0062250D02*
X0148699Y0062250D01*
X0147500Y0061051D02*
X0163379Y0061051D01*
X0164518Y0059853D02*
X0146302Y0059853D01*
X0145103Y0058654D02*
X0164518Y0058654D01*
X0164518Y0057456D02*
X0143905Y0057456D01*
X0142706Y0056257D02*
X0164518Y0056257D01*
X0164518Y0055059D02*
X0141508Y0055059D01*
X0140309Y0053860D02*
X0164518Y0053860D01*
X0164518Y0052662D02*
X0139111Y0052662D01*
X0137912Y0051463D02*
X0164518Y0051463D01*
X0164518Y0050264D02*
X0136714Y0050264D01*
X0135515Y0049066D02*
X0164518Y0049066D01*
X0164518Y0047867D02*
X0134317Y0047867D01*
X0133118Y0046669D02*
X0164518Y0046669D01*
X0164518Y0045470D02*
X0131919Y0045470D01*
X0130721Y0044272D02*
X0164518Y0044272D01*
X0164518Y0043073D02*
X0129522Y0043073D01*
X0128324Y0041875D02*
X0164518Y0041875D01*
X0164518Y0040676D02*
X0127125Y0040676D01*
X0125927Y0039478D02*
X0164518Y0039478D01*
X0164518Y0038279D02*
X0124728Y0038279D01*
X0123530Y0037081D02*
X0165017Y0037081D01*
X0166216Y0035882D02*
X0122331Y0035882D01*
X0121133Y0034684D02*
X0167414Y0034684D01*
X0168613Y0033485D02*
X0119934Y0033485D01*
X0118223Y0038279D02*
X0116106Y0038279D01*
X0117305Y0039478D02*
X0119422Y0039478D01*
X0118503Y0040676D02*
X0120620Y0040676D01*
X0119702Y0041875D02*
X0121819Y0041875D01*
X0120900Y0043073D02*
X0123017Y0043073D01*
X0122099Y0044272D02*
X0124216Y0044272D01*
X0123297Y0045470D02*
X0125414Y0045470D01*
X0124496Y0046669D02*
X0126613Y0046669D01*
X0125694Y0047867D02*
X0127811Y0047867D01*
X0126893Y0049066D02*
X0129010Y0049066D01*
X0128091Y0050264D02*
X0130208Y0050264D01*
X0129290Y0051463D02*
X0131407Y0051463D01*
X0130488Y0052662D02*
X0132605Y0052662D01*
X0131687Y0053860D02*
X0133804Y0053860D01*
X0132886Y0055059D02*
X0135002Y0055059D01*
X0134084Y0056257D02*
X0136201Y0056257D01*
X0135283Y0057456D02*
X0137399Y0057456D01*
X0136481Y0058654D02*
X0138598Y0058654D01*
X0137680Y0059853D02*
X0139796Y0059853D01*
X0138878Y0061051D02*
X0140995Y0061051D01*
X0140077Y0062250D02*
X0142193Y0062250D01*
X0141275Y0063448D02*
X0143392Y0063448D01*
X0142474Y0064647D02*
X0144590Y0064647D01*
X0143672Y0065845D02*
X0145789Y0065845D01*
X0144871Y0067044D02*
X0146987Y0067044D01*
X0146069Y0068242D02*
X0148186Y0068242D01*
X0147268Y0069441D02*
X0149384Y0069441D01*
X0148466Y0070639D02*
X0150583Y0070639D01*
X0149665Y0071838D02*
X0151781Y0071838D01*
X0150863Y0073036D02*
X0152980Y0073036D01*
X0152062Y0074235D02*
X0154178Y0074235D01*
X0153260Y0075433D02*
X0155377Y0075433D01*
X0154459Y0076632D02*
X0156575Y0076632D01*
X0152747Y0081426D02*
X0111458Y0081426D01*
X0110259Y0080227D02*
X0151549Y0080227D01*
X0150350Y0079029D02*
X0109060Y0079029D01*
X0107862Y0077830D02*
X0149152Y0077830D01*
X0147953Y0076632D02*
X0106663Y0076632D01*
X0105465Y0075433D02*
X0146755Y0075433D01*
X0145556Y0074235D02*
X0104266Y0074235D01*
X0103068Y0073036D02*
X0144358Y0073036D01*
X0143159Y0071838D02*
X0101869Y0071838D01*
X0100671Y0070639D02*
X0141961Y0070639D01*
X0140762Y0069441D02*
X0099472Y0069441D01*
X0098274Y0068242D02*
X0139564Y0068242D01*
X0138365Y0067044D02*
X0097075Y0067044D01*
X0095877Y0065845D02*
X0137167Y0065845D01*
X0135968Y0064647D02*
X0094678Y0064647D01*
X0093480Y0063448D02*
X0134770Y0063448D01*
X0133571Y0062250D02*
X0092281Y0062250D01*
X0091083Y0061051D02*
X0132373Y0061051D01*
X0131174Y0059853D02*
X0089884Y0059853D01*
X0088686Y0058654D02*
X0129976Y0058654D01*
X0128777Y0057456D02*
X0087487Y0057456D01*
X0087594Y0056257D02*
X0086617Y0056257D01*
X0090882Y0056257D02*
X0127579Y0056257D01*
X0126380Y0055059D02*
X0092635Y0055059D01*
X0093413Y0053860D02*
X0125182Y0053860D01*
X0123983Y0052662D02*
X0093813Y0052662D01*
X0093813Y0051463D02*
X0122785Y0051463D01*
X0121586Y0050264D02*
X0093476Y0050264D01*
X0097053Y0049066D02*
X0120388Y0049066D01*
X0119189Y0047867D02*
X0098126Y0047867D01*
X0098623Y0046669D02*
X0117991Y0046669D01*
X0116792Y0045470D02*
X0098734Y0045470D01*
X0098606Y0044272D02*
X0115594Y0044272D01*
X0114395Y0043073D02*
X0098110Y0043073D01*
X0097013Y0041875D02*
X0113197Y0041875D01*
X0086974Y0063448D02*
X0081695Y0063448D01*
X0081695Y0062250D02*
X0085776Y0062250D01*
X0084577Y0061051D02*
X0081695Y0061051D01*
X0081695Y0059853D02*
X0083379Y0059853D01*
X0082180Y0058654D02*
X0081695Y0058654D01*
X0081695Y0057456D02*
X0082017Y0057456D01*
X0082017Y0056257D02*
X0081695Y0056257D01*
X0081695Y0064647D02*
X0088173Y0064647D01*
X0089371Y0065845D02*
X0081695Y0065845D01*
X0081695Y0067044D02*
X0090570Y0067044D01*
X0091769Y0068242D02*
X0081695Y0068242D01*
X0081695Y0069441D02*
X0092967Y0069441D01*
X0094166Y0070639D02*
X0081695Y0070639D01*
X0081695Y0071838D02*
X0095364Y0071838D01*
X0096563Y0073036D02*
X0081695Y0073036D01*
X0081695Y0074235D02*
X0097761Y0074235D01*
X0098960Y0075433D02*
X0081695Y0075433D01*
X0081695Y0076632D02*
X0100158Y0076632D01*
X0101357Y0077830D02*
X0081695Y0077830D01*
X0081695Y0079029D02*
X0102555Y0079029D01*
X0103754Y0080227D02*
X0081695Y0080227D01*
X0081695Y0081426D02*
X0104952Y0081426D01*
X0106151Y0082624D02*
X0081695Y0082624D01*
X0081695Y0083823D02*
X0107349Y0083823D01*
X0108548Y0085021D02*
X0081695Y0085021D01*
X0081695Y0086220D02*
X0109746Y0086220D01*
X0107311Y0087418D02*
X0081695Y0087418D01*
X0081695Y0088617D02*
X0106113Y0088617D01*
X0104914Y0089815D02*
X0081695Y0089815D01*
X0081695Y0091014D02*
X0103716Y0091014D01*
X0102517Y0092212D02*
X0081695Y0092212D01*
X0081695Y0093411D02*
X0101319Y0093411D01*
X0100120Y0094609D02*
X0081695Y0094609D01*
X0081695Y0095808D02*
X0098922Y0095808D01*
X0097723Y0097006D02*
X0081695Y0097006D01*
X0081695Y0098205D02*
X0096525Y0098205D01*
X0095326Y0099403D02*
X0081695Y0099403D01*
X0081695Y0100602D02*
X0094128Y0100602D01*
X0092929Y0101800D02*
X0081695Y0101800D01*
X0081695Y0102999D02*
X0091731Y0102999D01*
X0090532Y0104198D02*
X0081695Y0104198D01*
X0081695Y0105396D02*
X0089334Y0105396D01*
X0088135Y0106595D02*
X0081695Y0106595D01*
X0081695Y0107793D02*
X0086937Y0107793D01*
X0085738Y0108992D02*
X0081695Y0108992D01*
X0081695Y0110190D02*
X0084540Y0110190D01*
X0083341Y0111389D02*
X0081041Y0111389D01*
X0082143Y0112587D02*
X0079842Y0112587D01*
X0080944Y0113786D02*
X0078644Y0113786D01*
X0079746Y0114984D02*
X0077445Y0114984D01*
X0078547Y0116183D02*
X0076247Y0116183D01*
X0077348Y0117381D02*
X0075048Y0117381D01*
X0076150Y0118580D02*
X0073850Y0118580D01*
X0074951Y0119778D02*
X0059242Y0119778D01*
X0059600Y0120977D02*
X0073753Y0120977D01*
X0072554Y0122175D02*
X0059600Y0122175D01*
X0059223Y0123374D02*
X0071356Y0123374D01*
X0070157Y0124572D02*
X0058476Y0124572D01*
X0056798Y0125771D02*
X0068959Y0125771D01*
X0067760Y0126969D02*
X0056293Y0126969D01*
X0058267Y0128168D02*
X0066562Y0128168D01*
X0069472Y0131763D02*
X0227750Y0131763D01*
X0227750Y0130565D02*
X0070670Y0130565D01*
X0071869Y0129366D02*
X0227995Y0129366D01*
X0227750Y0130082D02*
X0229268Y0125660D01*
X0232139Y0121971D01*
X0236053Y0119414D01*
X0240585Y0118266D01*
X0245244Y0118652D01*
X0249525Y0120530D01*
X0252965Y0123697D01*
X0255190Y0127808D01*
X0255190Y0127808D01*
X0255959Y0132419D01*
X0255190Y0137031D01*
X0252965Y0141142D01*
X0249525Y0144308D01*
X0245244Y0146186D01*
X0240585Y0146572D01*
X0240585Y0146572D01*
X0236053Y0145425D01*
X0232139Y0142868D01*
X0232139Y0142868D01*
X0232139Y0142868D01*
X0229268Y0139179D01*
X0227750Y0134757D01*
X0227750Y0130082D01*
X0228407Y0128168D02*
X0073067Y0128168D01*
X0074266Y0126969D02*
X0228818Y0126969D01*
X0229230Y0125771D02*
X0075464Y0125771D01*
X0076663Y0124572D02*
X0230114Y0124572D01*
X0229268Y0125660D02*
X0229268Y0125660D01*
X0231047Y0123374D02*
X0077861Y0123374D01*
X0079060Y0122175D02*
X0231980Y0122175D01*
X0232139Y0121971D02*
X0232139Y0121971D01*
X0233661Y0120977D02*
X0080258Y0120977D01*
X0081457Y0119778D02*
X0235495Y0119778D01*
X0236053Y0119414D02*
X0236053Y0119414D01*
X0239347Y0118580D02*
X0082655Y0118580D01*
X0083854Y0117381D02*
X0337236Y0117381D01*
X0338434Y0118580D02*
X0244366Y0118580D01*
X0245244Y0118652D02*
X0245244Y0118652D01*
X0247810Y0119778D02*
X0339633Y0119778D01*
X0340831Y0120977D02*
X0250010Y0120977D01*
X0249525Y0120530D02*
X0249525Y0120530D01*
X0251312Y0122175D02*
X0342030Y0122175D01*
X0343228Y0123374D02*
X0252614Y0123374D01*
X0252965Y0123697D02*
X0252965Y0123697D01*
X0253438Y0124572D02*
X0344427Y0124572D01*
X0345625Y0125771D02*
X0254087Y0125771D01*
X0254736Y0126969D02*
X0346824Y0126969D01*
X0348022Y0128168D02*
X0255250Y0128168D01*
X0255450Y0129366D02*
X0349221Y0129366D01*
X0350419Y0130565D02*
X0255650Y0130565D01*
X0255850Y0131763D02*
X0351618Y0131763D01*
X0352816Y0132962D02*
X0255869Y0132962D01*
X0255669Y0134160D02*
X0354015Y0134160D01*
X0355214Y0135359D02*
X0255469Y0135359D01*
X0255269Y0136557D02*
X0356412Y0136557D01*
X0357611Y0137756D02*
X0254797Y0137756D01*
X0255190Y0137031D02*
X0255190Y0137031D01*
X0254149Y0138954D02*
X0358809Y0138954D01*
X0360008Y0140153D02*
X0253500Y0140153D01*
X0252965Y0141142D02*
X0252965Y0141142D01*
X0252737Y0141351D02*
X0361206Y0141351D01*
X0362405Y0142550D02*
X0251435Y0142550D01*
X0250133Y0143748D02*
X0363603Y0143748D01*
X0364802Y0144947D02*
X0248070Y0144947D01*
X0249525Y0144308D02*
X0249525Y0144308D01*
X0245337Y0146145D02*
X0366000Y0146145D01*
X0367199Y0147344D02*
X0136577Y0147344D01*
X0136577Y0148542D02*
X0368397Y0148542D01*
X0369596Y0149741D02*
X0136577Y0149741D01*
X0136577Y0150939D02*
X0369800Y0150939D01*
X0369800Y0152138D02*
X0136577Y0152138D01*
X0136577Y0153336D02*
X0369800Y0153336D01*
X0369800Y0154535D02*
X0136577Y0154535D01*
X0136577Y0155733D02*
X0207664Y0155733D01*
X0205706Y0156932D02*
X0136577Y0156932D01*
X0136577Y0158131D02*
X0204773Y0158131D01*
X0204741Y0162809D02*
X0157376Y0162809D01*
X0151924Y0168261D01*
X0153717Y0168261D01*
X0155665Y0169068D01*
X0157156Y0170559D01*
X0157963Y0172507D01*
X0157963Y0174615D01*
X0157156Y0176563D01*
X0155665Y0178054D01*
X0154441Y0178561D01*
X0155665Y0179068D01*
X0157156Y0180559D01*
X0157528Y0181458D01*
X0157528Y0175719D01*
X0165038Y0168209D01*
X0204741Y0168209D01*
X0204961Y0167677D01*
X0206368Y0166270D01*
X0208205Y0165509D01*
X0206368Y0164748D01*
X0204961Y0163341D01*
X0204741Y0162809D01*
X0204789Y0162925D02*
X0157261Y0162925D01*
X0156062Y0164123D02*
X0205743Y0164123D01*
X0207753Y0165322D02*
X0154864Y0165322D01*
X0153665Y0166520D02*
X0206118Y0166520D01*
X0204944Y0167719D02*
X0152467Y0167719D01*
X0155301Y0168917D02*
X0164330Y0168917D01*
X0163131Y0170116D02*
X0156713Y0170116D01*
X0157469Y0171314D02*
X0161933Y0171314D01*
X0160734Y0172513D02*
X0157963Y0172513D01*
X0157963Y0173711D02*
X0159536Y0173711D01*
X0158337Y0174910D02*
X0157841Y0174910D01*
X0157528Y0176108D02*
X0157345Y0176108D01*
X0157528Y0177307D02*
X0156413Y0177307D01*
X0157528Y0178505D02*
X0154576Y0178505D01*
X0156301Y0179704D02*
X0157528Y0179704D01*
X0157528Y0180902D02*
X0157298Y0180902D01*
X0162128Y0180902D02*
X0272751Y0180902D01*
X0272751Y0179704D02*
X0257949Y0179704D01*
X0257694Y0179809D02*
X0255506Y0179809D01*
X0253484Y0178972D01*
X0251937Y0177425D01*
X0251100Y0175403D01*
X0251100Y0173215D01*
X0251937Y0171194D01*
X0253484Y0169646D01*
X0255506Y0168809D01*
X0257694Y0168809D01*
X0259715Y0169646D01*
X0261263Y0171194D01*
X0262100Y0173215D01*
X0262100Y0175403D01*
X0261263Y0177425D01*
X0259715Y0178972D01*
X0257694Y0179809D01*
X0255251Y0179704D02*
X0227949Y0179704D01*
X0227694Y0179809D02*
X0225506Y0179809D01*
X0223484Y0178972D01*
X0221937Y0177425D01*
X0221100Y0175403D01*
X0221100Y0173215D01*
X0221937Y0171194D01*
X0223484Y0169646D01*
X0225506Y0168809D01*
X0227694Y0168809D01*
X0229715Y0169646D01*
X0231263Y0171194D01*
X0232100Y0173215D01*
X0232100Y0175403D01*
X0231263Y0177425D01*
X0229715Y0178972D01*
X0227694Y0179809D01*
X0225251Y0179704D02*
X0162128Y0179704D01*
X0162128Y0178505D02*
X0223018Y0178505D01*
X0221888Y0177307D02*
X0162446Y0177307D01*
X0163644Y0176108D02*
X0221392Y0176108D01*
X0221100Y0174910D02*
X0211642Y0174910D01*
X0213069Y0173711D02*
X0221100Y0173711D01*
X0221391Y0172513D02*
X0213782Y0172513D01*
X0214200Y0171314D02*
X0221887Y0171314D01*
X0223015Y0170116D02*
X0214200Y0170116D01*
X0213952Y0168917D02*
X0225245Y0168917D01*
X0227955Y0168917D02*
X0255245Y0168917D01*
X0253015Y0170116D02*
X0230185Y0170116D01*
X0231313Y0171314D02*
X0251887Y0171314D01*
X0251391Y0172513D02*
X0231809Y0172513D01*
X0232100Y0173711D02*
X0251100Y0173711D01*
X0251100Y0174910D02*
X0232100Y0174910D01*
X0231808Y0176108D02*
X0251392Y0176108D01*
X0251888Y0177307D02*
X0231312Y0177307D01*
X0230182Y0178505D02*
X0253018Y0178505D01*
X0260182Y0178505D02*
X0272751Y0178505D01*
X0272751Y0179109D02*
X0272751Y0176163D01*
X0272860Y0175479D01*
X0273074Y0174820D01*
X0273388Y0174203D01*
X0273795Y0173643D01*
X0274285Y0173153D01*
X0274845Y0172746D01*
X0275462Y0172432D01*
X0276121Y0172217D01*
X0276805Y0172109D01*
X0276951Y0172109D01*
X0276951Y0179109D01*
X0272751Y0179109D01*
X0272751Y0179509D02*
X0276951Y0179509D01*
X0276951Y0179109D01*
X0277351Y0179109D01*
X0277351Y0172109D01*
X0277497Y0172109D01*
X0278182Y0172217D01*
X0278840Y0172432D01*
X0279457Y0172746D01*
X0280018Y0173153D01*
X0280507Y0173643D01*
X0280914Y0174203D01*
X0281229Y0174820D01*
X0281443Y0175479D01*
X0281551Y0176163D01*
X0281551Y0179109D01*
X0277351Y0179109D01*
X0277351Y0179509D01*
X0276951Y0179509D01*
X0276951Y0186509D01*
X0276805Y0186509D01*
X0276121Y0186401D01*
X0275462Y0186187D01*
X0274845Y0185872D01*
X0274285Y0185465D01*
X0273795Y0184976D01*
X0273388Y0184415D01*
X0273074Y0183798D01*
X0272860Y0183139D01*
X0272751Y0182455D01*
X0272751Y0179509D01*
X0272751Y0177307D02*
X0261312Y0177307D01*
X0261808Y0176108D02*
X0272760Y0176108D01*
X0273044Y0174910D02*
X0262100Y0174910D01*
X0262100Y0173711D02*
X0273745Y0173711D01*
X0275303Y0172513D02*
X0261809Y0172513D01*
X0261313Y0171314D02*
X0369800Y0171314D01*
X0369800Y0170116D02*
X0260185Y0170116D01*
X0257955Y0168917D02*
X0369800Y0168917D01*
X0369800Y0167719D02*
X0213456Y0167719D01*
X0212282Y0166520D02*
X0369800Y0166520D01*
X0369800Y0165322D02*
X0210647Y0165322D01*
X0210195Y0165509D02*
X0208205Y0165509D01*
X0210195Y0165509D01*
X0212657Y0164123D02*
X0369800Y0164123D01*
X0369800Y0162925D02*
X0213611Y0162925D01*
X0214108Y0161726D02*
X0369800Y0161726D01*
X0369800Y0160528D02*
X0214200Y0160528D01*
X0214123Y0159329D02*
X0369800Y0159329D01*
X0369800Y0158131D02*
X0213627Y0158131D01*
X0212694Y0156932D02*
X0369800Y0156932D01*
X0369800Y0155733D02*
X0210736Y0155733D01*
X0230026Y0140153D02*
X0134318Y0140153D01*
X0133120Y0138954D02*
X0229191Y0138954D01*
X0229268Y0139179D02*
X0229268Y0139179D01*
X0228779Y0137756D02*
X0058012Y0137756D01*
X0057412Y0135359D02*
X0227956Y0135359D01*
X0227750Y0134160D02*
X0058730Y0134160D01*
X0053104Y0136557D02*
X0228368Y0136557D01*
X0227750Y0132962D02*
X0068273Y0132962D01*
X0053757Y0126969D02*
X0053104Y0126969D01*
X0053104Y0125771D02*
X0053253Y0125771D01*
X0085052Y0116183D02*
X0336037Y0116183D01*
X0334839Y0114984D02*
X0086251Y0114984D01*
X0087449Y0113786D02*
X0333640Y0113786D01*
X0332442Y0112587D02*
X0088648Y0112587D01*
X0089846Y0111389D02*
X0331243Y0111389D01*
X0330045Y0110190D02*
X0091045Y0110190D01*
X0092243Y0108992D02*
X0328846Y0108992D01*
X0327648Y0107793D02*
X0093442Y0107793D01*
X0094640Y0106595D02*
X0326449Y0106595D01*
X0325251Y0105396D02*
X0095839Y0105396D01*
X0097037Y0104198D02*
X0324052Y0104198D01*
X0322854Y0102999D02*
X0098236Y0102999D01*
X0099434Y0101800D02*
X0321655Y0101800D01*
X0320457Y0100602D02*
X0100633Y0100602D01*
X0101832Y0099403D02*
X0319258Y0099403D01*
X0318060Y0098205D02*
X0103030Y0098205D01*
X0104229Y0097006D02*
X0316861Y0097006D01*
X0315663Y0095808D02*
X0105427Y0095808D01*
X0106626Y0094609D02*
X0314464Y0094609D01*
X0313266Y0093411D02*
X0107824Y0093411D01*
X0109023Y0092212D02*
X0312067Y0092212D01*
X0316175Y0089815D02*
X0320463Y0089815D01*
X0319262Y0088617D02*
X0314977Y0088617D01*
X0313778Y0087418D02*
X0318060Y0087418D01*
X0317374Y0091014D02*
X0321665Y0091014D01*
X0322866Y0092212D02*
X0318572Y0092212D01*
X0319771Y0093411D02*
X0324068Y0093411D01*
X0325270Y0094609D02*
X0320969Y0094609D01*
X0322168Y0095808D02*
X0326471Y0095808D01*
X0327673Y0097006D02*
X0323366Y0097006D01*
X0324565Y0098205D02*
X0328874Y0098205D01*
X0330076Y0099403D02*
X0325764Y0099403D01*
X0326962Y0100602D02*
X0331277Y0100602D01*
X0332479Y0101800D02*
X0328161Y0101800D01*
X0329359Y0102999D02*
X0333680Y0102999D01*
X0334882Y0104198D02*
X0330558Y0104198D01*
X0331756Y0105396D02*
X0336084Y0105396D01*
X0337285Y0106595D02*
X0332955Y0106595D01*
X0334153Y0107793D02*
X0338487Y0107793D01*
X0339688Y0108992D02*
X0335352Y0108992D01*
X0336550Y0110190D02*
X0340890Y0110190D01*
X0342091Y0111389D02*
X0337749Y0111389D01*
X0338947Y0112587D02*
X0343293Y0112587D01*
X0344495Y0113786D02*
X0340146Y0113786D01*
X0341344Y0114984D02*
X0345696Y0114984D01*
X0346898Y0116183D02*
X0342543Y0116183D01*
X0343741Y0117381D02*
X0348099Y0117381D01*
X0349301Y0118580D02*
X0344940Y0118580D01*
X0346138Y0119778D02*
X0350502Y0119778D01*
X0351704Y0120977D02*
X0347337Y0120977D01*
X0348535Y0122175D02*
X0352905Y0122175D01*
X0354107Y0123374D02*
X0349734Y0123374D01*
X0350932Y0124572D02*
X0355308Y0124572D01*
X0356510Y0125771D02*
X0352131Y0125771D01*
X0353329Y0126969D02*
X0357712Y0126969D01*
X0358913Y0128168D02*
X0354528Y0128168D01*
X0355726Y0129366D02*
X0360115Y0129366D01*
X0361316Y0130565D02*
X0356925Y0130565D01*
X0358123Y0131763D02*
X0362518Y0131763D01*
X0363719Y0132962D02*
X0359322Y0132962D01*
X0360520Y0134160D02*
X0364921Y0134160D01*
X0366122Y0135359D02*
X0361719Y0135359D01*
X0362917Y0136557D02*
X0367324Y0136557D01*
X0368526Y0137756D02*
X0364116Y0137756D01*
X0365314Y0138954D02*
X0369727Y0138954D01*
X0370929Y0140153D02*
X0366513Y0140153D01*
X0367711Y0141351D02*
X0372130Y0141351D01*
X0373332Y0142550D02*
X0368910Y0142550D01*
X0370108Y0143748D02*
X0374533Y0143748D01*
X0375735Y0144947D02*
X0371307Y0144947D01*
X0372505Y0146145D02*
X0376936Y0146145D01*
X0378138Y0147344D02*
X0373704Y0147344D01*
X0374400Y0148542D02*
X0379340Y0148542D01*
X0380541Y0149741D02*
X0374400Y0149741D01*
X0374400Y0150939D02*
X0381743Y0150939D01*
X0382944Y0152138D02*
X0374400Y0152138D01*
X0374400Y0153336D02*
X0384146Y0153336D01*
X0385347Y0154535D02*
X0374400Y0154535D01*
X0374400Y0155733D02*
X0386549Y0155733D01*
X0387749Y0156932D02*
X0374400Y0156932D01*
X0374400Y0158131D02*
X0388947Y0158131D01*
X0390146Y0159329D02*
X0374400Y0159329D01*
X0374400Y0160528D02*
X0391344Y0160528D01*
X0392543Y0161726D02*
X0374400Y0161726D01*
X0374400Y0162925D02*
X0393741Y0162925D01*
X0394851Y0164123D02*
X0374400Y0164123D01*
X0374400Y0165322D02*
X0394851Y0165322D01*
X0394851Y0166520D02*
X0374400Y0166520D01*
X0374400Y0167719D02*
X0394851Y0167719D01*
X0394851Y0168917D02*
X0374400Y0168917D01*
X0374400Y0170116D02*
X0394851Y0170116D01*
X0394851Y0171314D02*
X0374400Y0171314D01*
X0374400Y0172513D02*
X0374779Y0172513D01*
X0379523Y0172513D02*
X0384779Y0172513D01*
X0384545Y0172609D02*
X0386236Y0171909D01*
X0388066Y0171909D01*
X0389757Y0172609D01*
X0391051Y0173903D01*
X0391751Y0175594D01*
X0391751Y0183024D01*
X0391051Y0184715D01*
X0389757Y0186009D01*
X0388066Y0186709D01*
X0386236Y0186709D01*
X0384545Y0186009D01*
X0383251Y0184715D01*
X0382551Y0183024D01*
X0382551Y0175594D01*
X0383251Y0173903D01*
X0384545Y0172609D01*
X0383444Y0173711D02*
X0380859Y0173711D01*
X0381468Y0174910D02*
X0382835Y0174910D01*
X0382551Y0176108D02*
X0381751Y0176108D01*
X0381751Y0177307D02*
X0382551Y0177307D01*
X0382551Y0178505D02*
X0381751Y0178505D01*
X0381751Y0179704D02*
X0382551Y0179704D01*
X0382551Y0180902D02*
X0381751Y0180902D01*
X0381751Y0182101D02*
X0382551Y0182101D01*
X0382665Y0183299D02*
X0381637Y0183299D01*
X0381141Y0184498D02*
X0383162Y0184498D01*
X0384233Y0185696D02*
X0380069Y0185696D01*
X0374400Y0186895D02*
X0414377Y0186895D01*
X0414377Y0188093D02*
X0374400Y0188093D01*
X0374400Y0189292D02*
X0414377Y0189292D01*
X0414377Y0190490D02*
X0374400Y0190490D01*
X0374400Y0191689D02*
X0414377Y0191689D01*
X0414377Y0192887D02*
X0374400Y0192887D01*
X0374400Y0194086D02*
X0414377Y0194086D01*
X0414377Y0195284D02*
X0374400Y0195284D01*
X0374926Y0196483D02*
X0414377Y0196483D01*
X0414377Y0197681D02*
X0376125Y0197681D01*
X0377323Y0198880D02*
X0414377Y0198880D01*
X0414377Y0200078D02*
X0378522Y0200078D01*
X0374414Y0202475D02*
X0369433Y0202475D01*
X0369757Y0202609D02*
X0371051Y0203903D01*
X0371751Y0205594D01*
X0371751Y0213024D01*
X0371051Y0214715D01*
X0369757Y0216009D01*
X0368066Y0216709D01*
X0366236Y0216709D01*
X0364545Y0216009D01*
X0363251Y0214715D01*
X0362551Y0213024D01*
X0362551Y0205594D01*
X0363251Y0203903D01*
X0364545Y0202609D01*
X0366236Y0201909D01*
X0368066Y0201909D01*
X0369757Y0202609D01*
X0370821Y0203674D02*
X0373481Y0203674D01*
X0372850Y0204872D02*
X0371452Y0204872D01*
X0371751Y0206071D02*
X0372551Y0206071D01*
X0372551Y0207269D02*
X0371751Y0207269D01*
X0371751Y0208468D02*
X0372551Y0208468D01*
X0372551Y0209666D02*
X0371751Y0209666D01*
X0371751Y0210865D02*
X0372551Y0210865D01*
X0372551Y0212064D02*
X0371751Y0212064D01*
X0371653Y0213262D02*
X0372650Y0213262D01*
X0373146Y0214461D02*
X0371156Y0214461D01*
X0370107Y0215659D02*
X0374196Y0215659D01*
X0364196Y0215659D02*
X0360107Y0215659D01*
X0359757Y0216009D02*
X0358066Y0216709D01*
X0356236Y0216709D01*
X0354545Y0216009D01*
X0353251Y0214715D01*
X0352551Y0213024D01*
X0352551Y0205594D01*
X0353251Y0203903D01*
X0354545Y0202609D01*
X0356236Y0201909D01*
X0358066Y0201909D01*
X0359757Y0202609D01*
X0361051Y0203903D01*
X0361751Y0205594D01*
X0361751Y0213024D01*
X0361051Y0214715D01*
X0359757Y0216009D01*
X0361156Y0214461D02*
X0363146Y0214461D01*
X0362650Y0213262D02*
X0361653Y0213262D01*
X0361751Y0212064D02*
X0362551Y0212064D01*
X0362551Y0210865D02*
X0361751Y0210865D01*
X0361751Y0209666D02*
X0362551Y0209666D01*
X0362551Y0208468D02*
X0361751Y0208468D01*
X0361751Y0207269D02*
X0362551Y0207269D01*
X0362551Y0206071D02*
X0361751Y0206071D01*
X0361452Y0204872D02*
X0362850Y0204872D01*
X0363481Y0203674D02*
X0360821Y0203674D01*
X0359433Y0202475D02*
X0364869Y0202475D01*
X0370818Y0198880D02*
X0298872Y0198880D01*
X0299451Y0200078D02*
X0372017Y0200078D01*
X0373215Y0201277D02*
X0299451Y0201277D01*
X0299451Y0202475D02*
X0304869Y0202475D01*
X0304545Y0202609D02*
X0306236Y0201909D01*
X0308066Y0201909D01*
X0309757Y0202609D01*
X0311051Y0203903D01*
X0311751Y0205594D01*
X0311751Y0213024D01*
X0311051Y0214715D01*
X0309757Y0216009D01*
X0308066Y0216709D01*
X0306236Y0216709D01*
X0304545Y0216009D01*
X0303251Y0214715D01*
X0302551Y0213024D01*
X0302551Y0205594D01*
X0303251Y0203903D01*
X0304545Y0202609D01*
X0303481Y0203674D02*
X0300821Y0203674D01*
X0301452Y0204872D02*
X0302850Y0204872D01*
X0302551Y0206071D02*
X0301751Y0206071D01*
X0301751Y0207269D02*
X0302551Y0207269D01*
X0302551Y0208468D02*
X0301751Y0208468D01*
X0301751Y0209666D02*
X0302551Y0209666D01*
X0302551Y0210865D02*
X0301751Y0210865D01*
X0301751Y0212064D02*
X0302551Y0212064D01*
X0302650Y0213262D02*
X0301653Y0213262D01*
X0301156Y0214461D02*
X0303146Y0214461D01*
X0304196Y0215659D02*
X0300107Y0215659D01*
X0294196Y0215659D02*
X0290107Y0215659D01*
X0291156Y0214461D02*
X0293146Y0214461D01*
X0292650Y0213262D02*
X0291653Y0213262D01*
X0291751Y0212064D02*
X0292551Y0212064D01*
X0292551Y0210865D02*
X0291751Y0210865D01*
X0291751Y0209666D02*
X0292551Y0209666D01*
X0292551Y0208468D02*
X0291751Y0208468D01*
X0291751Y0207269D02*
X0292551Y0207269D01*
X0292551Y0206071D02*
X0291751Y0206071D01*
X0291452Y0204872D02*
X0292850Y0204872D01*
X0293481Y0203674D02*
X0290821Y0203674D01*
X0289433Y0202475D02*
X0294851Y0202475D01*
X0294764Y0201277D02*
X0287096Y0201277D01*
X0285898Y0200078D02*
X0293565Y0200078D01*
X0296475Y0196483D02*
X0369800Y0196483D01*
X0369800Y0197681D02*
X0297674Y0197681D01*
X0295277Y0195284D02*
X0369800Y0195284D01*
X0369800Y0194086D02*
X0162128Y0194086D01*
X0162128Y0195284D02*
X0168908Y0195284D01*
X0167709Y0196483D02*
X0162128Y0196483D01*
X0162128Y0197681D02*
X0166511Y0197681D01*
X0165312Y0198880D02*
X0162128Y0198880D01*
X0162128Y0200078D02*
X0164113Y0200078D01*
X0163001Y0201277D02*
X0162128Y0201277D01*
X0162128Y0202475D02*
X0163001Y0202475D01*
X0163001Y0203674D02*
X0162128Y0203674D01*
X0162128Y0204872D02*
X0163001Y0204872D01*
X0163001Y0206071D02*
X0162128Y0206071D01*
X0162128Y0207269D02*
X0163001Y0207269D01*
X0163001Y0208468D02*
X0162128Y0208468D01*
X0162128Y0209666D02*
X0163001Y0209666D01*
X0163001Y0210865D02*
X0162128Y0210865D01*
X0162128Y0212064D02*
X0163001Y0212064D01*
X0163001Y0213262D02*
X0162128Y0213262D01*
X0162128Y0214461D02*
X0163001Y0214461D01*
X0163001Y0215659D02*
X0162128Y0215659D01*
X0162128Y0216858D02*
X0163001Y0216858D01*
X0163001Y0218056D02*
X0162128Y0218056D01*
X0162128Y0219255D02*
X0163001Y0219255D01*
X0163001Y0220453D02*
X0162128Y0220453D01*
X0162128Y0221652D02*
X0163001Y0221652D01*
X0163001Y0222850D02*
X0162128Y0222850D01*
X0162128Y0224049D02*
X0163001Y0224049D01*
X0163001Y0225247D02*
X0162128Y0225247D01*
X0162128Y0226446D02*
X0163001Y0226446D01*
X0163001Y0227644D02*
X0162128Y0227644D01*
X0162128Y0228843D02*
X0163001Y0228843D01*
X0163001Y0230041D02*
X0162128Y0230041D01*
X0162128Y0231240D02*
X0163001Y0231240D01*
X0163001Y0232438D02*
X0162128Y0232438D01*
X0162128Y0233637D02*
X0163001Y0233637D01*
X0163001Y0234835D02*
X0162128Y0234835D01*
X0162128Y0236034D02*
X0163001Y0236034D01*
X0163001Y0237232D02*
X0162128Y0237232D01*
X0162128Y0238431D02*
X0163001Y0238431D01*
X0163001Y0239629D02*
X0162128Y0239629D01*
X0162128Y0240828D02*
X0163001Y0240828D01*
X0163001Y0242026D02*
X0162128Y0242026D01*
X0162128Y0243225D02*
X0163001Y0243225D01*
X0163001Y0244423D02*
X0162128Y0244423D01*
X0162128Y0245622D02*
X0163001Y0245622D01*
X0163001Y0246820D02*
X0162128Y0246820D01*
X0162128Y0248019D02*
X0163001Y0248019D01*
X0163001Y0249217D02*
X0162128Y0249217D01*
X0162128Y0250416D02*
X0163001Y0250416D01*
X0163001Y0251614D02*
X0162128Y0251614D01*
X0162128Y0252813D02*
X0163001Y0252813D01*
X0163001Y0254011D02*
X0162128Y0254011D01*
X0162128Y0255210D02*
X0163001Y0255210D01*
X0163001Y0256408D02*
X0162128Y0256408D01*
X0162128Y0257607D02*
X0163001Y0257607D01*
X0163001Y0258805D02*
X0162128Y0258805D01*
X0162128Y0260004D02*
X0163001Y0260004D01*
X0163001Y0261202D02*
X0162128Y0261202D01*
X0161761Y0262401D02*
X0163001Y0262401D01*
X0163001Y0263600D02*
X0160562Y0263600D01*
X0159364Y0264798D02*
X0163001Y0264798D01*
X0163001Y0265997D02*
X0157391Y0265997D01*
X0156524Y0267195D02*
X0163001Y0267195D01*
X0163001Y0268394D02*
X0154846Y0268394D01*
X0156189Y0269592D02*
X0162356Y0269592D01*
X0161157Y0270791D02*
X0157252Y0270791D01*
X0150480Y0268394D02*
X0113152Y0268394D01*
X0113152Y0269592D02*
X0149137Y0269592D01*
X0148074Y0270791D02*
X0113152Y0270791D01*
X0113152Y0271989D02*
X0147577Y0271989D01*
X0147363Y0273188D02*
X0113152Y0273188D01*
X0113152Y0274386D02*
X0147363Y0274386D01*
X0147764Y0275585D02*
X0113152Y0275585D01*
X0113152Y0276783D02*
X0148390Y0276783D01*
X0149588Y0277982D02*
X0113152Y0277982D01*
X0113152Y0279180D02*
X0149549Y0279180D01*
X0148350Y0280379D02*
X0113152Y0280379D01*
X0113152Y0281577D02*
X0147748Y0281577D01*
X0147363Y0282776D02*
X0113152Y0282776D01*
X0113152Y0283974D02*
X0147363Y0283974D01*
X0147594Y0285173D02*
X0113152Y0285173D01*
X0113152Y0286371D02*
X0148090Y0286371D01*
X0149176Y0287570D02*
X0113152Y0287570D01*
X0113152Y0288768D02*
X0150384Y0288768D01*
X0148762Y0289967D02*
X0113152Y0289967D01*
X0113152Y0291165D02*
X0147919Y0291165D01*
X0147422Y0292364D02*
X0113152Y0292364D01*
X0113152Y0293562D02*
X0147363Y0293562D01*
X0147423Y0294761D02*
X0113152Y0294761D01*
X0113152Y0295959D02*
X0147920Y0295959D01*
X0148764Y0297158D02*
X0113152Y0297158D01*
X0113152Y0298356D02*
X0150390Y0298356D01*
X0149174Y0299555D02*
X0113152Y0299555D01*
X0113152Y0300753D02*
X0148089Y0300753D01*
X0147593Y0301952D02*
X0113152Y0301952D01*
X0113152Y0303150D02*
X0147363Y0303150D01*
X0147363Y0304349D02*
X0113152Y0304349D01*
X0113152Y0305547D02*
X0147749Y0305547D01*
X0148352Y0306746D02*
X0113152Y0306746D01*
X0113152Y0307944D02*
X0149551Y0307944D01*
X0149586Y0309143D02*
X0113152Y0309143D01*
X0113152Y0310341D02*
X0148387Y0310341D01*
X0147763Y0311540D02*
X0113152Y0311540D01*
X0113152Y0312738D02*
X0147363Y0312738D01*
X0147363Y0313937D02*
X0113152Y0313937D01*
X0113152Y0315135D02*
X0147578Y0315135D01*
X0148075Y0316334D02*
X0113152Y0316334D01*
X0113152Y0317533D02*
X0149139Y0317533D01*
X0150474Y0318731D02*
X0113152Y0318731D01*
X0113152Y0319930D02*
X0148799Y0319930D01*
X0147934Y0321128D02*
X0113152Y0321128D01*
X0113152Y0322327D02*
X0147438Y0322327D01*
X0147363Y0323525D02*
X0113152Y0323525D01*
X0113152Y0324724D02*
X0147408Y0324724D01*
X0147904Y0325922D02*
X0113152Y0325922D01*
X0113152Y0327121D02*
X0148727Y0327121D01*
X0150300Y0328319D02*
X0113160Y0328319D01*
X0113863Y0329518D02*
X0364596Y0329518D01*
X0365794Y0328319D02*
X0155026Y0328319D01*
X0156599Y0327121D02*
X0366993Y0327121D01*
X0368191Y0325922D02*
X0157422Y0325922D01*
X0157918Y0324724D02*
X0369390Y0324724D01*
X0370588Y0323525D02*
X0157963Y0323525D01*
X0157888Y0322327D02*
X0371787Y0322327D01*
X0372985Y0321128D02*
X0157392Y0321128D01*
X0156527Y0319930D02*
X0374184Y0319930D01*
X0375382Y0318731D02*
X0154852Y0318731D01*
X0156187Y0317533D02*
X0376581Y0317533D01*
X0377779Y0316334D02*
X0157251Y0316334D01*
X0157748Y0315135D02*
X0378978Y0315135D01*
X0380176Y0313937D02*
X0157963Y0313937D01*
X0157963Y0312738D02*
X0381375Y0312738D01*
X0382573Y0311540D02*
X0157562Y0311540D01*
X0156939Y0310341D02*
X0383772Y0310341D01*
X0399451Y0305547D02*
X0400456Y0305547D01*
X0399451Y0304349D02*
X0401654Y0304349D01*
X0402853Y0303150D02*
X0399451Y0303150D01*
X0399451Y0301952D02*
X0404051Y0301952D01*
X0405250Y0300753D02*
X0399451Y0300753D01*
X0399451Y0299555D02*
X0406448Y0299555D01*
X0407647Y0298356D02*
X0399451Y0298356D01*
X0399451Y0297158D02*
X0408845Y0297158D01*
X0410044Y0295959D02*
X0399451Y0295959D01*
X0399451Y0294761D02*
X0411242Y0294761D01*
X0412441Y0293562D02*
X0399451Y0293562D01*
X0399451Y0292364D02*
X0413639Y0292364D01*
X0414838Y0291165D02*
X0399451Y0291165D01*
X0399451Y0289967D02*
X0416036Y0289967D01*
X0417235Y0288768D02*
X0399451Y0288768D01*
X0399451Y0287570D02*
X0418433Y0287570D01*
X0419632Y0286371D02*
X0399451Y0286371D01*
X0399451Y0285173D02*
X0420830Y0285173D01*
X0422029Y0283974D02*
X0399451Y0283974D01*
X0399451Y0282776D02*
X0424240Y0282776D01*
X0423915Y0281577D02*
X0399451Y0281577D01*
X0399451Y0280379D02*
X0423915Y0280379D01*
X0424325Y0279180D02*
X0399451Y0279180D01*
X0399451Y0277982D02*
X0425119Y0277982D01*
X0426911Y0276783D02*
X0399451Y0276783D01*
X0399451Y0275585D02*
X0430411Y0275585D01*
X0430411Y0276783D02*
X0430069Y0276783D01*
X0430769Y0274386D02*
X0399451Y0274386D01*
X0399451Y0273188D02*
X0431488Y0273188D01*
X0433065Y0280379D02*
X0433217Y0280379D01*
X0433065Y0281577D02*
X0433714Y0281577D01*
X0384851Y0274386D02*
X0332390Y0274386D01*
X0332471Y0273188D02*
X0384851Y0273188D01*
X0384851Y0271989D02*
X0332471Y0271989D01*
X0332471Y0270791D02*
X0384851Y0270791D01*
X0384851Y0269592D02*
X0332471Y0269592D01*
X0332471Y0268394D02*
X0384851Y0268394D01*
X0384851Y0267195D02*
X0332471Y0267195D01*
X0332154Y0265997D02*
X0384851Y0265997D01*
X0324114Y0288768D02*
X0318542Y0288768D01*
X0320177Y0289967D02*
X0322740Y0289967D01*
X0321917Y0291165D02*
X0321038Y0291165D01*
X0320219Y0274386D02*
X0322453Y0274386D01*
X0322371Y0273188D02*
X0321482Y0273188D01*
X0322132Y0271989D02*
X0322371Y0271989D01*
X0322371Y0268394D02*
X0322046Y0268394D01*
X0322371Y0267195D02*
X0321311Y0267195D01*
X0322688Y0265997D02*
X0319798Y0265997D01*
X0317668Y0265997D02*
X0317490Y0265997D01*
X0317490Y0267195D02*
X0317668Y0267195D01*
X0317668Y0268394D02*
X0317490Y0268394D01*
X0317490Y0269592D02*
X0317668Y0269592D01*
X0317668Y0270791D02*
X0317490Y0270791D01*
X0317490Y0271989D02*
X0317668Y0271989D01*
X0317668Y0273188D02*
X0317490Y0273188D01*
X0317490Y0274386D02*
X0317668Y0274386D01*
X0316500Y0251614D02*
X0315700Y0251614D01*
X0315700Y0250416D02*
X0316500Y0250416D01*
X0316500Y0249217D02*
X0315700Y0249217D01*
X0315700Y0248019D02*
X0316500Y0248019D01*
X0315700Y0246820D02*
X0279451Y0246820D01*
X0279451Y0245622D02*
X0310618Y0245622D01*
X0311031Y0244423D02*
X0279451Y0244423D01*
X0279451Y0243225D02*
X0311782Y0243225D01*
X0315700Y0245622D02*
X0316500Y0245622D01*
X0321158Y0249217D02*
X0321820Y0249217D01*
X0322504Y0250416D02*
X0320402Y0250416D01*
X0319004Y0251614D02*
X0323703Y0251614D01*
X0313196Y0251614D02*
X0279451Y0251614D01*
X0279451Y0250416D02*
X0311798Y0250416D01*
X0311042Y0249217D02*
X0279451Y0249217D01*
X0279451Y0248019D02*
X0310622Y0248019D01*
X0316121Y0216401D02*
X0315462Y0216187D01*
X0314845Y0215872D01*
X0314285Y0215465D01*
X0313795Y0214976D01*
X0313388Y0214415D01*
X0313074Y0213798D01*
X0312860Y0213139D01*
X0312751Y0212455D01*
X0312751Y0209509D01*
X0316951Y0209509D01*
X0316951Y0209109D01*
X0312751Y0209109D01*
X0312751Y0206163D01*
X0312860Y0205479D01*
X0313074Y0204820D01*
X0313388Y0204203D01*
X0313795Y0203643D01*
X0314285Y0203153D01*
X0314845Y0202746D01*
X0315462Y0202432D01*
X0316121Y0202217D01*
X0316805Y0202109D01*
X0316951Y0202109D01*
X0316951Y0209109D01*
X0317351Y0209109D01*
X0317351Y0202109D01*
X0317497Y0202109D01*
X0318182Y0202217D01*
X0318840Y0202432D01*
X0319457Y0202746D01*
X0320018Y0203153D01*
X0320507Y0203643D01*
X0320914Y0204203D01*
X0321229Y0204820D01*
X0321443Y0205479D01*
X0321551Y0206163D01*
X0321551Y0209109D01*
X0317351Y0209109D01*
X0317351Y0209509D01*
X0316951Y0209509D01*
X0316951Y0216509D01*
X0316805Y0216509D01*
X0316121Y0216401D01*
X0316951Y0215659D02*
X0317351Y0215659D01*
X0317351Y0216509D02*
X0317351Y0209509D01*
X0321551Y0209509D01*
X0321551Y0212455D01*
X0321443Y0213139D01*
X0321229Y0213798D01*
X0320914Y0214415D01*
X0320507Y0214976D01*
X0320018Y0215465D01*
X0319457Y0215872D01*
X0318840Y0216187D01*
X0318182Y0216401D01*
X0317497Y0216509D01*
X0317351Y0216509D01*
X0317351Y0214461D02*
X0316951Y0214461D01*
X0316951Y0213262D02*
X0317351Y0213262D01*
X0317351Y0212064D02*
X0316951Y0212064D01*
X0316951Y0210865D02*
X0317351Y0210865D01*
X0317351Y0209666D02*
X0316951Y0209666D01*
X0316951Y0208468D02*
X0317351Y0208468D01*
X0317351Y0207269D02*
X0316951Y0207269D01*
X0316951Y0206071D02*
X0317351Y0206071D01*
X0317351Y0204872D02*
X0316951Y0204872D01*
X0316951Y0203674D02*
X0317351Y0203674D01*
X0317351Y0202475D02*
X0316951Y0202475D01*
X0315376Y0202475D02*
X0309433Y0202475D01*
X0310821Y0203674D02*
X0313772Y0203674D01*
X0313057Y0204872D02*
X0311452Y0204872D01*
X0311751Y0206071D02*
X0312766Y0206071D01*
X0312751Y0207269D02*
X0311751Y0207269D01*
X0311751Y0208468D02*
X0312751Y0208468D01*
X0312751Y0209666D02*
X0311751Y0209666D01*
X0311751Y0210865D02*
X0312751Y0210865D01*
X0312751Y0212064D02*
X0311751Y0212064D01*
X0311653Y0213262D02*
X0312899Y0213262D01*
X0313421Y0214461D02*
X0311156Y0214461D01*
X0310107Y0215659D02*
X0314551Y0215659D01*
X0319751Y0215659D02*
X0324196Y0215659D01*
X0324545Y0216009D02*
X0323251Y0214715D01*
X0322551Y0213024D01*
X0322551Y0205594D01*
X0323251Y0203903D01*
X0324545Y0202609D01*
X0326236Y0201909D01*
X0328066Y0201909D01*
X0329757Y0202609D01*
X0331051Y0203903D01*
X0331751Y0205594D01*
X0331751Y0213024D01*
X0331051Y0214715D01*
X0329757Y0216009D01*
X0328066Y0216709D01*
X0326236Y0216709D01*
X0324545Y0216009D01*
X0323146Y0214461D02*
X0320881Y0214461D01*
X0321403Y0213262D02*
X0322650Y0213262D01*
X0322551Y0212064D02*
X0321551Y0212064D01*
X0321551Y0210865D02*
X0322551Y0210865D01*
X0322551Y0209666D02*
X0321551Y0209666D01*
X0321551Y0208468D02*
X0322551Y0208468D01*
X0322551Y0207269D02*
X0321551Y0207269D01*
X0321537Y0206071D02*
X0322551Y0206071D01*
X0322850Y0204872D02*
X0321246Y0204872D01*
X0320530Y0203674D02*
X0323481Y0203674D01*
X0324869Y0202475D02*
X0318926Y0202475D01*
X0329433Y0202475D02*
X0334869Y0202475D01*
X0334545Y0202609D02*
X0336236Y0201909D01*
X0338066Y0201909D01*
X0339757Y0202609D01*
X0341051Y0203903D01*
X0341751Y0205594D01*
X0341751Y0213024D01*
X0341051Y0214715D01*
X0339757Y0216009D01*
X0338066Y0216709D01*
X0336236Y0216709D01*
X0334545Y0216009D01*
X0333251Y0214715D01*
X0332551Y0213024D01*
X0332551Y0205594D01*
X0333251Y0203903D01*
X0334545Y0202609D01*
X0333481Y0203674D02*
X0330821Y0203674D01*
X0331452Y0204872D02*
X0332850Y0204872D01*
X0332551Y0206071D02*
X0331751Y0206071D01*
X0331751Y0207269D02*
X0332551Y0207269D01*
X0332551Y0208468D02*
X0331751Y0208468D01*
X0331751Y0209666D02*
X0332551Y0209666D01*
X0332551Y0210865D02*
X0331751Y0210865D01*
X0331751Y0212064D02*
X0332551Y0212064D01*
X0332650Y0213262D02*
X0331653Y0213262D01*
X0331156Y0214461D02*
X0333146Y0214461D01*
X0334196Y0215659D02*
X0330107Y0215659D01*
X0340107Y0215659D02*
X0344196Y0215659D01*
X0344545Y0216009D02*
X0343251Y0214715D01*
X0342551Y0213024D01*
X0342551Y0205594D01*
X0343251Y0203903D01*
X0344545Y0202609D01*
X0346236Y0201909D01*
X0348066Y0201909D01*
X0349757Y0202609D01*
X0351051Y0203903D01*
X0351751Y0205594D01*
X0351751Y0213024D01*
X0351051Y0214715D01*
X0349757Y0216009D01*
X0348066Y0216709D01*
X0346236Y0216709D01*
X0344545Y0216009D01*
X0343146Y0214461D02*
X0341156Y0214461D01*
X0341653Y0213262D02*
X0342650Y0213262D01*
X0342551Y0212064D02*
X0341751Y0212064D01*
X0341751Y0210865D02*
X0342551Y0210865D01*
X0342551Y0209666D02*
X0341751Y0209666D01*
X0341751Y0208468D02*
X0342551Y0208468D01*
X0342551Y0207269D02*
X0341751Y0207269D01*
X0341751Y0206071D02*
X0342551Y0206071D01*
X0342850Y0204872D02*
X0341452Y0204872D01*
X0340821Y0203674D02*
X0343481Y0203674D01*
X0344869Y0202475D02*
X0339433Y0202475D01*
X0349433Y0202475D02*
X0354869Y0202475D01*
X0353481Y0203674D02*
X0350821Y0203674D01*
X0351452Y0204872D02*
X0352850Y0204872D01*
X0352551Y0206071D02*
X0351751Y0206071D01*
X0351751Y0207269D02*
X0352551Y0207269D01*
X0352551Y0208468D02*
X0351751Y0208468D01*
X0351751Y0209666D02*
X0352551Y0209666D01*
X0352551Y0210865D02*
X0351751Y0210865D01*
X0351751Y0212064D02*
X0352551Y0212064D01*
X0352650Y0213262D02*
X0351653Y0213262D01*
X0351156Y0214461D02*
X0353146Y0214461D01*
X0354196Y0215659D02*
X0350107Y0215659D01*
X0369800Y0192887D02*
X0162128Y0192887D01*
X0162128Y0191689D02*
X0369800Y0191689D01*
X0369800Y0190490D02*
X0162128Y0190490D01*
X0162128Y0189292D02*
X0369800Y0189292D01*
X0369800Y0188093D02*
X0162128Y0188093D01*
X0162128Y0186895D02*
X0369800Y0186895D01*
X0364233Y0185696D02*
X0360069Y0185696D01*
X0359757Y0186009D02*
X0358066Y0186709D01*
X0356236Y0186709D01*
X0354545Y0186009D01*
X0353251Y0184715D01*
X0352551Y0183024D01*
X0352551Y0175594D01*
X0353251Y0173903D01*
X0354545Y0172609D01*
X0356236Y0171909D01*
X0358066Y0171909D01*
X0359757Y0172609D01*
X0361051Y0173903D01*
X0361751Y0175594D01*
X0361751Y0183024D01*
X0361051Y0184715D01*
X0359757Y0186009D01*
X0361141Y0184498D02*
X0363162Y0184498D01*
X0362665Y0183299D02*
X0361637Y0183299D01*
X0361751Y0182101D02*
X0362551Y0182101D01*
X0362551Y0180902D02*
X0361751Y0180902D01*
X0361751Y0179704D02*
X0362551Y0179704D01*
X0362551Y0178505D02*
X0361751Y0178505D01*
X0361751Y0177307D02*
X0362551Y0177307D01*
X0362551Y0176108D02*
X0361751Y0176108D01*
X0361468Y0174910D02*
X0362835Y0174910D01*
X0363444Y0173711D02*
X0360859Y0173711D01*
X0359523Y0172513D02*
X0364779Y0172513D01*
X0369523Y0172513D02*
X0369800Y0172513D01*
X0354779Y0172513D02*
X0349523Y0172513D01*
X0349757Y0172609D02*
X0351051Y0173903D01*
X0351751Y0175594D01*
X0351751Y0183024D01*
X0351051Y0184715D01*
X0349757Y0186009D01*
X0348066Y0186709D01*
X0346236Y0186709D01*
X0344545Y0186009D01*
X0343251Y0184715D01*
X0342551Y0183024D01*
X0342551Y0175594D01*
X0343251Y0173903D01*
X0344545Y0172609D01*
X0346236Y0171909D01*
X0348066Y0171909D01*
X0349757Y0172609D01*
X0350859Y0173711D02*
X0353444Y0173711D01*
X0352835Y0174910D02*
X0351468Y0174910D01*
X0351751Y0176108D02*
X0352551Y0176108D01*
X0352551Y0177307D02*
X0351751Y0177307D01*
X0351751Y0178505D02*
X0352551Y0178505D01*
X0352551Y0179704D02*
X0351751Y0179704D01*
X0351751Y0180902D02*
X0352551Y0180902D01*
X0352551Y0182101D02*
X0351751Y0182101D01*
X0351637Y0183299D02*
X0352665Y0183299D01*
X0353162Y0184498D02*
X0351141Y0184498D01*
X0350069Y0185696D02*
X0354233Y0185696D01*
X0344233Y0185696D02*
X0340069Y0185696D01*
X0339757Y0186009D02*
X0338066Y0186709D01*
X0336236Y0186709D01*
X0334545Y0186009D01*
X0333251Y0184715D01*
X0332551Y0183024D01*
X0332551Y0175594D01*
X0333251Y0173903D01*
X0334545Y0172609D01*
X0336236Y0171909D01*
X0338066Y0171909D01*
X0339757Y0172609D01*
X0341051Y0173903D01*
X0341751Y0175594D01*
X0341751Y0183024D01*
X0341051Y0184715D01*
X0339757Y0186009D01*
X0341141Y0184498D02*
X0343162Y0184498D01*
X0342665Y0183299D02*
X0341637Y0183299D01*
X0341751Y0182101D02*
X0342551Y0182101D01*
X0342551Y0180902D02*
X0341751Y0180902D01*
X0341751Y0179704D02*
X0342551Y0179704D01*
X0342551Y0178505D02*
X0341751Y0178505D01*
X0341751Y0177307D02*
X0342551Y0177307D01*
X0342551Y0176108D02*
X0341751Y0176108D01*
X0341468Y0174910D02*
X0342835Y0174910D01*
X0343444Y0173711D02*
X0340859Y0173711D01*
X0339523Y0172513D02*
X0344779Y0172513D01*
X0334779Y0172513D02*
X0329523Y0172513D01*
X0329757Y0172609D02*
X0331051Y0173903D01*
X0331751Y0175594D01*
X0331751Y0183024D01*
X0331051Y0184715D01*
X0329757Y0186009D01*
X0328066Y0186709D01*
X0326236Y0186709D01*
X0324545Y0186009D01*
X0323251Y0184715D01*
X0322551Y0183024D01*
X0322551Y0175594D01*
X0323251Y0173903D01*
X0324545Y0172609D01*
X0326236Y0171909D01*
X0328066Y0171909D01*
X0329757Y0172609D01*
X0330859Y0173711D02*
X0333444Y0173711D01*
X0332835Y0174910D02*
X0331468Y0174910D01*
X0331751Y0176108D02*
X0332551Y0176108D01*
X0332551Y0177307D02*
X0331751Y0177307D01*
X0331751Y0178505D02*
X0332551Y0178505D01*
X0332551Y0179704D02*
X0331751Y0179704D01*
X0331751Y0180902D02*
X0332551Y0180902D01*
X0332551Y0182101D02*
X0331751Y0182101D01*
X0331637Y0183299D02*
X0332665Y0183299D01*
X0333162Y0184498D02*
X0331141Y0184498D01*
X0330069Y0185696D02*
X0334233Y0185696D01*
X0324233Y0185696D02*
X0320069Y0185696D01*
X0319757Y0186009D02*
X0318066Y0186709D01*
X0316236Y0186709D01*
X0314545Y0186009D01*
X0313251Y0184715D01*
X0312551Y0183024D01*
X0312551Y0175594D01*
X0313251Y0173903D01*
X0314545Y0172609D01*
X0316236Y0171909D01*
X0318066Y0171909D01*
X0319757Y0172609D01*
X0321051Y0173903D01*
X0321751Y0175594D01*
X0321751Y0183024D01*
X0321051Y0184715D01*
X0319757Y0186009D01*
X0321141Y0184498D02*
X0323162Y0184498D01*
X0322665Y0183299D02*
X0321637Y0183299D01*
X0321751Y0182101D02*
X0322551Y0182101D01*
X0322551Y0180902D02*
X0321751Y0180902D01*
X0321751Y0179704D02*
X0322551Y0179704D01*
X0322551Y0178505D02*
X0321751Y0178505D01*
X0321751Y0177307D02*
X0322551Y0177307D01*
X0322551Y0176108D02*
X0321751Y0176108D01*
X0321468Y0174910D02*
X0322835Y0174910D01*
X0323444Y0173711D02*
X0320859Y0173711D01*
X0319523Y0172513D02*
X0324779Y0172513D01*
X0314779Y0172513D02*
X0309523Y0172513D01*
X0309757Y0172609D02*
X0311051Y0173903D01*
X0311751Y0175594D01*
X0311751Y0183024D01*
X0311051Y0184715D01*
X0309757Y0186009D01*
X0308066Y0186709D01*
X0306236Y0186709D01*
X0304545Y0186009D01*
X0303251Y0184715D01*
X0302551Y0183024D01*
X0302551Y0175594D01*
X0303251Y0173903D01*
X0304545Y0172609D01*
X0306236Y0171909D01*
X0308066Y0171909D01*
X0309757Y0172609D01*
X0310859Y0173711D02*
X0313444Y0173711D01*
X0312835Y0174910D02*
X0311468Y0174910D01*
X0311751Y0176108D02*
X0312551Y0176108D01*
X0312551Y0177307D02*
X0311751Y0177307D01*
X0311751Y0178505D02*
X0312551Y0178505D01*
X0312551Y0179704D02*
X0311751Y0179704D01*
X0311751Y0180902D02*
X0312551Y0180902D01*
X0312551Y0182101D02*
X0311751Y0182101D01*
X0311637Y0183299D02*
X0312665Y0183299D01*
X0313162Y0184498D02*
X0311141Y0184498D01*
X0310069Y0185696D02*
X0314233Y0185696D01*
X0304233Y0185696D02*
X0299700Y0185696D01*
X0299457Y0185872D02*
X0298840Y0186187D01*
X0298182Y0186401D01*
X0297497Y0186509D01*
X0297351Y0186509D01*
X0297351Y0179509D01*
X0296951Y0179509D01*
X0296951Y0179109D01*
X0292751Y0179109D01*
X0292751Y0176163D01*
X0292860Y0175479D01*
X0293074Y0174820D01*
X0293388Y0174203D01*
X0293795Y0173643D01*
X0294285Y0173153D01*
X0294845Y0172746D01*
X0295462Y0172432D01*
X0296121Y0172217D01*
X0296805Y0172109D01*
X0296951Y0172109D01*
X0296951Y0179109D01*
X0297351Y0179109D01*
X0297351Y0172109D01*
X0297497Y0172109D01*
X0298182Y0172217D01*
X0298840Y0172432D01*
X0299457Y0172746D01*
X0300018Y0173153D01*
X0300507Y0173643D01*
X0300914Y0174203D01*
X0301229Y0174820D01*
X0301443Y0175479D01*
X0301551Y0176163D01*
X0301551Y0179109D01*
X0297351Y0179109D01*
X0297351Y0179509D01*
X0301551Y0179509D01*
X0301551Y0182455D01*
X0301443Y0183139D01*
X0301229Y0183798D01*
X0300914Y0184415D01*
X0300507Y0184976D01*
X0300018Y0185465D01*
X0299457Y0185872D01*
X0300854Y0184498D02*
X0303162Y0184498D01*
X0302665Y0183299D02*
X0301391Y0183299D01*
X0301551Y0182101D02*
X0302551Y0182101D01*
X0302551Y0180902D02*
X0301551Y0180902D01*
X0301551Y0179704D02*
X0302551Y0179704D01*
X0302551Y0178505D02*
X0301551Y0178505D01*
X0301551Y0177307D02*
X0302551Y0177307D01*
X0302551Y0176108D02*
X0301543Y0176108D01*
X0301258Y0174910D02*
X0302835Y0174910D01*
X0303444Y0173711D02*
X0300557Y0173711D01*
X0298999Y0172513D02*
X0304779Y0172513D01*
X0297351Y0172513D02*
X0296951Y0172513D01*
X0296951Y0173711D02*
X0297351Y0173711D01*
X0297351Y0174910D02*
X0296951Y0174910D01*
X0296951Y0176108D02*
X0297351Y0176108D01*
X0297351Y0177307D02*
X0296951Y0177307D01*
X0296951Y0178505D02*
X0297351Y0178505D01*
X0296951Y0179509D02*
X0292751Y0179509D01*
X0292751Y0182455D01*
X0292860Y0183139D01*
X0293074Y0183798D01*
X0293388Y0184415D01*
X0293795Y0184976D01*
X0294285Y0185465D01*
X0294845Y0185872D01*
X0295462Y0186187D01*
X0296121Y0186401D01*
X0296805Y0186509D01*
X0296951Y0186509D01*
X0296951Y0179509D01*
X0296951Y0179704D02*
X0297351Y0179704D01*
X0297351Y0180902D02*
X0296951Y0180902D01*
X0296951Y0182101D02*
X0297351Y0182101D01*
X0297351Y0183299D02*
X0296951Y0183299D01*
X0296951Y0184498D02*
X0297351Y0184498D01*
X0297351Y0185696D02*
X0296951Y0185696D01*
X0294603Y0185696D02*
X0289700Y0185696D01*
X0289457Y0185872D02*
X0288840Y0186187D01*
X0288182Y0186401D01*
X0287497Y0186509D01*
X0287351Y0186509D01*
X0287351Y0179509D01*
X0286951Y0179509D01*
X0286951Y0179109D01*
X0282751Y0179109D01*
X0282751Y0176163D01*
X0282860Y0175479D01*
X0283074Y0174820D01*
X0283388Y0174203D01*
X0283795Y0173643D01*
X0284285Y0173153D01*
X0284845Y0172746D01*
X0285462Y0172432D01*
X0286121Y0172217D01*
X0286805Y0172109D01*
X0286951Y0172109D01*
X0286951Y0179109D01*
X0287351Y0179109D01*
X0287351Y0172109D01*
X0287497Y0172109D01*
X0288182Y0172217D01*
X0288840Y0172432D01*
X0289457Y0172746D01*
X0290018Y0173153D01*
X0290507Y0173643D01*
X0290914Y0174203D01*
X0291229Y0174820D01*
X0291443Y0175479D01*
X0291551Y0176163D01*
X0291551Y0179109D01*
X0287351Y0179109D01*
X0287351Y0179509D01*
X0291551Y0179509D01*
X0291551Y0182455D01*
X0291443Y0183139D01*
X0291229Y0183798D01*
X0290914Y0184415D01*
X0290507Y0184976D01*
X0290018Y0185465D01*
X0289457Y0185872D01*
X0290854Y0184498D02*
X0293448Y0184498D01*
X0292911Y0183299D02*
X0291391Y0183299D01*
X0291551Y0182101D02*
X0292751Y0182101D01*
X0292751Y0180902D02*
X0291551Y0180902D01*
X0291551Y0179704D02*
X0292751Y0179704D01*
X0292751Y0178505D02*
X0291551Y0178505D01*
X0291551Y0177307D02*
X0292751Y0177307D01*
X0292760Y0176108D02*
X0291543Y0176108D01*
X0291258Y0174910D02*
X0293044Y0174910D01*
X0293745Y0173711D02*
X0290557Y0173711D01*
X0288999Y0172513D02*
X0295303Y0172513D01*
X0287351Y0172513D02*
X0286951Y0172513D01*
X0286951Y0173711D02*
X0287351Y0173711D01*
X0287351Y0174910D02*
X0286951Y0174910D01*
X0286951Y0176108D02*
X0287351Y0176108D01*
X0287351Y0177307D02*
X0286951Y0177307D01*
X0286951Y0178505D02*
X0287351Y0178505D01*
X0286951Y0179509D02*
X0282751Y0179509D01*
X0282751Y0182455D01*
X0282860Y0183139D01*
X0283074Y0183798D01*
X0283388Y0184415D01*
X0283795Y0184976D01*
X0284285Y0185465D01*
X0284845Y0185872D01*
X0285462Y0186187D01*
X0286121Y0186401D01*
X0286805Y0186509D01*
X0286951Y0186509D01*
X0286951Y0179509D01*
X0286951Y0179704D02*
X0287351Y0179704D01*
X0287351Y0180902D02*
X0286951Y0180902D01*
X0286951Y0182101D02*
X0287351Y0182101D01*
X0287351Y0183299D02*
X0286951Y0183299D01*
X0286951Y0184498D02*
X0287351Y0184498D01*
X0287351Y0185696D02*
X0286951Y0185696D01*
X0284603Y0185696D02*
X0279700Y0185696D01*
X0279457Y0185872D02*
X0278840Y0186187D01*
X0278182Y0186401D01*
X0277497Y0186509D01*
X0277351Y0186509D01*
X0277351Y0179509D01*
X0281551Y0179509D01*
X0281551Y0182455D01*
X0281443Y0183139D01*
X0281229Y0183798D01*
X0280914Y0184415D01*
X0280507Y0184976D01*
X0280018Y0185465D01*
X0279457Y0185872D01*
X0280854Y0184498D02*
X0283448Y0184498D01*
X0282911Y0183299D02*
X0281391Y0183299D01*
X0281551Y0182101D02*
X0282751Y0182101D01*
X0282751Y0180902D02*
X0281551Y0180902D01*
X0281551Y0179704D02*
X0282751Y0179704D01*
X0282751Y0178505D02*
X0281551Y0178505D01*
X0281551Y0177307D02*
X0282751Y0177307D01*
X0282760Y0176108D02*
X0281543Y0176108D01*
X0281258Y0174910D02*
X0283044Y0174910D01*
X0283745Y0173711D02*
X0280557Y0173711D01*
X0278999Y0172513D02*
X0285303Y0172513D01*
X0277351Y0172513D02*
X0276951Y0172513D01*
X0276951Y0173711D02*
X0277351Y0173711D01*
X0277351Y0174910D02*
X0276951Y0174910D01*
X0276951Y0176108D02*
X0277351Y0176108D01*
X0277351Y0177307D02*
X0276951Y0177307D01*
X0276951Y0178505D02*
X0277351Y0178505D01*
X0277351Y0179704D02*
X0276951Y0179704D01*
X0276951Y0180902D02*
X0277351Y0180902D01*
X0277351Y0182101D02*
X0276951Y0182101D01*
X0276951Y0183299D02*
X0277351Y0183299D01*
X0277351Y0184498D02*
X0276951Y0184498D01*
X0276951Y0185696D02*
X0277351Y0185696D01*
X0274603Y0185696D02*
X0162128Y0185696D01*
X0162128Y0184498D02*
X0273448Y0184498D01*
X0272911Y0183299D02*
X0162128Y0183299D01*
X0162128Y0182101D02*
X0272751Y0182101D01*
X0281452Y0204872D02*
X0282850Y0204872D01*
X0282551Y0206071D02*
X0281751Y0206071D01*
X0281751Y0207269D02*
X0282551Y0207269D01*
X0282551Y0208468D02*
X0281751Y0208468D01*
X0281751Y0209666D02*
X0282551Y0209666D01*
X0282551Y0210865D02*
X0281751Y0210865D01*
X0281751Y0212064D02*
X0282551Y0212064D01*
X0282650Y0213262D02*
X0281653Y0213262D01*
X0281156Y0214461D02*
X0283146Y0214461D01*
X0284196Y0215659D02*
X0280107Y0215659D01*
X0206758Y0174910D02*
X0164843Y0174910D01*
X0166041Y0173711D02*
X0205331Y0173711D01*
X0236053Y0145425D02*
X0236053Y0145425D01*
X0235321Y0144947D02*
X0136577Y0144947D01*
X0136577Y0146145D02*
X0238898Y0146145D01*
X0233487Y0143748D02*
X0136577Y0143748D01*
X0136577Y0142550D02*
X0231892Y0142550D01*
X0230959Y0141351D02*
X0135517Y0141351D01*
X0136577Y0159329D02*
X0154351Y0159329D01*
X0153153Y0160528D02*
X0136577Y0160528D01*
X0136577Y0161726D02*
X0151954Y0161726D01*
X0150756Y0162925D02*
X0136577Y0162925D01*
X0136577Y0164123D02*
X0149557Y0164123D01*
X0148359Y0165322D02*
X0136577Y0165322D01*
X0136577Y0166520D02*
X0147160Y0166520D01*
X0145961Y0167719D02*
X0136577Y0167719D01*
X0136577Y0168917D02*
X0144763Y0168917D01*
X0143985Y0170116D02*
X0136577Y0170116D01*
X0136577Y0171314D02*
X0143985Y0171314D01*
X0143985Y0172513D02*
X0136577Y0172513D01*
X0136577Y0173711D02*
X0143985Y0173711D01*
X0143985Y0174910D02*
X0136577Y0174910D01*
X0136577Y0176108D02*
X0143985Y0176108D01*
X0143985Y0177307D02*
X0136577Y0177307D01*
X0136577Y0178505D02*
X0143985Y0178505D01*
X0143985Y0179704D02*
X0136577Y0179704D01*
X0136577Y0180902D02*
X0143985Y0180902D01*
X0143985Y0182101D02*
X0136577Y0182101D01*
X0136577Y0183299D02*
X0145172Y0183299D01*
X0146371Y0184498D02*
X0136577Y0184498D01*
X0136577Y0185696D02*
X0147569Y0185696D01*
X0148501Y0186895D02*
X0136577Y0186895D01*
X0136577Y0188093D02*
X0149755Y0188093D01*
X0149437Y0189292D02*
X0136577Y0189292D01*
X0136577Y0190490D02*
X0148238Y0190490D01*
X0147702Y0191689D02*
X0136577Y0191689D01*
X0136577Y0192887D02*
X0147363Y0192887D01*
X0147363Y0194086D02*
X0136577Y0194086D01*
X0136577Y0195284D02*
X0147640Y0195284D01*
X0148137Y0196483D02*
X0136577Y0196483D01*
X0136577Y0197681D02*
X0149288Y0197681D01*
X0150617Y0198880D02*
X0136577Y0198880D01*
X0136577Y0200078D02*
X0148933Y0200078D01*
X0148103Y0201277D02*
X0136577Y0201277D01*
X0136577Y0202475D02*
X0147671Y0202475D01*
X0147727Y0204872D02*
X0136577Y0204872D01*
X0136577Y0203674D02*
X0152279Y0203674D01*
X0148218Y0206071D02*
X0136654Y0206071D01*
X0137852Y0207269D02*
X0149159Y0207269D01*
X0151109Y0208468D02*
X0139051Y0208468D01*
X0140249Y0209666D02*
X0149062Y0209666D01*
X0128174Y0230041D02*
X0113152Y0230041D01*
X0113152Y0228843D02*
X0126975Y0228843D01*
X0125777Y0227644D02*
X0113152Y0227644D01*
X0113152Y0226446D02*
X0124578Y0226446D01*
X0123380Y0225247D02*
X0113152Y0225247D01*
X0113152Y0224049D02*
X0122181Y0224049D01*
X0120983Y0222850D02*
X0113152Y0222850D01*
X0113152Y0221652D02*
X0119784Y0221652D01*
X0118586Y0220453D02*
X0113152Y0220453D01*
X0113152Y0219255D02*
X0117387Y0219255D01*
X0116189Y0218056D02*
X0113152Y0218056D01*
X0113152Y0216858D02*
X0115206Y0216858D01*
X0115206Y0215659D02*
X0113152Y0215659D01*
X0113152Y0214461D02*
X0115206Y0214461D01*
X0115206Y0213262D02*
X0113152Y0213262D01*
X0113152Y0212064D02*
X0115206Y0212064D01*
X0115206Y0210865D02*
X0113152Y0210865D01*
X0113152Y0209666D02*
X0115206Y0209666D01*
X0115206Y0208468D02*
X0113152Y0208468D01*
X0113152Y0207269D02*
X0115206Y0207269D01*
X0115206Y0206071D02*
X0113152Y0206071D01*
X0113152Y0204872D02*
X0115206Y0204872D01*
X0115206Y0203674D02*
X0113152Y0203674D01*
X0113152Y0202475D02*
X0115206Y0202475D01*
X0115206Y0201277D02*
X0113152Y0201277D01*
X0113152Y0200078D02*
X0115206Y0200078D01*
X0115206Y0198880D02*
X0113152Y0198880D01*
X0113152Y0197681D02*
X0115206Y0197681D01*
X0115206Y0196483D02*
X0113152Y0196483D01*
X0113152Y0195284D02*
X0115206Y0195284D01*
X0115206Y0194086D02*
X0113152Y0194086D01*
X0113152Y0192887D02*
X0115206Y0192887D01*
X0115206Y0191689D02*
X0113152Y0191689D01*
X0113152Y0190490D02*
X0115206Y0190490D01*
X0115206Y0189292D02*
X0113152Y0189292D01*
X0113152Y0188093D02*
X0115206Y0188093D01*
X0115206Y0186895D02*
X0113152Y0186895D01*
X0113152Y0185696D02*
X0115206Y0185696D01*
X0115206Y0184498D02*
X0113152Y0184498D01*
X0113152Y0183299D02*
X0115206Y0183299D01*
X0115206Y0182101D02*
X0113152Y0182101D01*
X0113152Y0180902D02*
X0115206Y0180902D01*
X0115206Y0179704D02*
X0113152Y0179704D01*
X0113152Y0178505D02*
X0115206Y0178505D01*
X0115206Y0177307D02*
X0113152Y0177307D01*
X0113152Y0176108D02*
X0115206Y0176108D01*
X0115206Y0174910D02*
X0113152Y0174910D01*
X0113152Y0173711D02*
X0115206Y0173711D01*
X0115206Y0172513D02*
X0112820Y0172513D01*
X0111621Y0171314D02*
X0115206Y0171314D01*
X0115206Y0170116D02*
X0110423Y0170116D01*
X0109224Y0168917D02*
X0115206Y0168917D01*
X0115206Y0167719D02*
X0108026Y0167719D01*
X0106827Y0166520D02*
X0115206Y0166520D01*
X0115206Y0165322D02*
X0105629Y0165322D01*
X0104430Y0164123D02*
X0115206Y0164123D01*
X0115206Y0162925D02*
X0059148Y0162925D01*
X0059600Y0161726D02*
X0115206Y0161726D01*
X0115206Y0160528D02*
X0059600Y0160528D01*
X0059317Y0159329D02*
X0115206Y0159329D01*
X0115206Y0158131D02*
X0058702Y0158131D01*
X0057344Y0156932D02*
X0115206Y0156932D01*
X0115206Y0155733D02*
X0053104Y0155733D01*
X0058041Y0154535D02*
X0115206Y0154535D01*
X0071109Y0208468D02*
X0015317Y0208468D01*
X0015317Y0209666D02*
X0069062Y0209666D01*
X0068043Y0210865D02*
X0015317Y0210865D01*
X0015317Y0212064D02*
X0067547Y0212064D01*
X0067363Y0213262D02*
X0049941Y0213262D01*
X0052207Y0214461D02*
X0067363Y0214461D01*
X0067795Y0215659D02*
X0053349Y0215659D01*
X0053846Y0216858D02*
X0068464Y0216858D01*
X0069665Y0218056D02*
X0054147Y0218056D01*
X0054837Y0219255D02*
X0069474Y0219255D01*
X0068276Y0220453D02*
X0056036Y0220453D01*
X0057234Y0221652D02*
X0067717Y0221652D01*
X0067363Y0222850D02*
X0058433Y0222850D01*
X0059632Y0224049D02*
X0067363Y0224049D01*
X0067625Y0225247D02*
X0060830Y0225247D01*
X0062029Y0226446D02*
X0068121Y0226446D01*
X0069251Y0227644D02*
X0063227Y0227644D01*
X0064426Y0228843D02*
X0070205Y0228843D01*
X0068688Y0230041D02*
X0065624Y0230041D01*
X0066823Y0231240D02*
X0067888Y0231240D01*
X0067951Y0236034D02*
X0015317Y0236034D01*
X0015317Y0237232D02*
X0068839Y0237232D01*
X0070570Y0238431D02*
X0015317Y0238431D01*
X0015317Y0239629D02*
X0069099Y0239629D01*
X0068058Y0240828D02*
X0015317Y0240828D01*
X0015317Y0242026D02*
X0067562Y0242026D01*
X0067363Y0243225D02*
X0049851Y0243225D01*
X0049741Y0243179D02*
X0051763Y0244017D01*
X0053310Y0245564D01*
X0054147Y0247585D01*
X0054147Y0249773D01*
X0053310Y0251795D01*
X0051763Y0253342D01*
X0049741Y0254179D01*
X0047553Y0254179D01*
X0045532Y0253342D01*
X0043985Y0251795D01*
X0043647Y0250979D01*
X0037860Y0250979D01*
X0037523Y0251795D01*
X0035975Y0253342D01*
X0033954Y0254179D01*
X0031766Y0254179D01*
X0029744Y0253342D01*
X0028197Y0251795D01*
X0027360Y0249773D01*
X0027360Y0247585D01*
X0028197Y0245564D01*
X0029744Y0244017D01*
X0031766Y0243179D01*
X0033954Y0243179D01*
X0035975Y0244017D01*
X0037523Y0245564D01*
X0037860Y0246379D01*
X0043647Y0246379D01*
X0043985Y0245564D01*
X0045532Y0244017D01*
X0047553Y0243179D01*
X0049741Y0243179D01*
X0047443Y0243225D02*
X0034064Y0243225D01*
X0031656Y0243225D02*
X0015317Y0243225D01*
X0015317Y0244423D02*
X0029338Y0244423D01*
X0028173Y0245622D02*
X0015317Y0245622D01*
X0015317Y0246820D02*
X0027677Y0246820D01*
X0027360Y0248019D02*
X0015317Y0248019D01*
X0015317Y0249217D02*
X0027360Y0249217D01*
X0027626Y0250416D02*
X0016117Y0250416D01*
X0017315Y0251614D02*
X0028122Y0251614D01*
X0029215Y0252813D02*
X0018514Y0252813D01*
X0019712Y0254011D02*
X0031361Y0254011D01*
X0034359Y0254011D02*
X0047148Y0254011D01*
X0045003Y0252813D02*
X0036504Y0252813D01*
X0037597Y0251614D02*
X0043910Y0251614D01*
X0043960Y0245622D02*
X0037547Y0245622D01*
X0036382Y0244423D02*
X0045125Y0244423D01*
X0052170Y0244423D02*
X0067363Y0244423D01*
X0067780Y0245622D02*
X0053334Y0245622D01*
X0053830Y0246820D02*
X0068427Y0246820D01*
X0069625Y0248019D02*
X0054147Y0248019D01*
X0054147Y0249217D02*
X0069511Y0249217D01*
X0068313Y0250416D02*
X0053881Y0250416D01*
X0053385Y0251614D02*
X0067733Y0251614D01*
X0067363Y0252813D02*
X0052292Y0252813D01*
X0050146Y0254011D02*
X0067363Y0254011D01*
X0067609Y0255210D02*
X0020911Y0255210D01*
X0022109Y0256408D02*
X0068106Y0256408D01*
X0069213Y0257607D02*
X0023308Y0257607D01*
X0024506Y0258805D02*
X0070295Y0258805D01*
X0068725Y0260004D02*
X0025705Y0260004D01*
X0026903Y0261202D02*
X0067903Y0261202D01*
X0063913Y0234835D02*
X0015317Y0234835D01*
X0015317Y0233637D02*
X0062714Y0233637D01*
X0061516Y0232438D02*
X0015317Y0232438D01*
X0015317Y0231240D02*
X0060317Y0231240D01*
X0059119Y0230041D02*
X0015317Y0230041D01*
X0015317Y0228843D02*
X0057920Y0228843D01*
X0056722Y0227644D02*
X0015317Y0227644D01*
X0015317Y0226446D02*
X0055523Y0226446D01*
X0054325Y0225247D02*
X0015317Y0225247D01*
X0015317Y0224049D02*
X0047238Y0224049D01*
X0045040Y0222850D02*
X0036136Y0222850D01*
X0036313Y0222722D02*
X0035638Y0223212D01*
X0034894Y0223591D01*
X0034101Y0223849D01*
X0033277Y0223979D01*
X0033146Y0223979D01*
X0033146Y0218965D01*
X0038160Y0218965D01*
X0038160Y0219096D01*
X0038029Y0219920D01*
X0037772Y0220714D01*
X0037393Y0221457D01*
X0036902Y0222132D01*
X0036313Y0222722D01*
X0037251Y0221652D02*
X0043925Y0221652D01*
X0043429Y0220453D02*
X0037856Y0220453D01*
X0038135Y0219255D02*
X0043147Y0219255D01*
X0043147Y0218056D02*
X0038127Y0218056D01*
X0038160Y0218262D02*
X0038160Y0218393D01*
X0033146Y0218393D01*
X0033146Y0218965D01*
X0032574Y0218965D01*
X0032574Y0218393D01*
X0033146Y0218393D01*
X0033146Y0213379D01*
X0033277Y0213379D01*
X0034101Y0213510D01*
X0034894Y0213768D01*
X0035638Y0214146D01*
X0036313Y0214637D01*
X0036902Y0215227D01*
X0037393Y0215901D01*
X0037772Y0216645D01*
X0038029Y0217438D01*
X0038160Y0218262D01*
X0037841Y0216858D02*
X0043449Y0216858D01*
X0043945Y0215659D02*
X0037217Y0215659D01*
X0036070Y0214461D02*
X0045088Y0214461D01*
X0047353Y0213262D02*
X0015317Y0213262D01*
X0015317Y0214461D02*
X0029649Y0214461D01*
X0029407Y0214637D02*
X0030082Y0214146D01*
X0030825Y0213768D01*
X0031619Y0213510D01*
X0032443Y0213379D01*
X0032574Y0213379D01*
X0032574Y0218393D01*
X0027560Y0218393D01*
X0027560Y0218262D01*
X0027690Y0217438D01*
X0027948Y0216645D01*
X0028327Y0215901D01*
X0028817Y0215227D01*
X0029407Y0214637D01*
X0028503Y0215659D02*
X0015317Y0215659D01*
X0015317Y0216858D02*
X0027879Y0216858D01*
X0027592Y0218056D02*
X0015317Y0218056D01*
X0015317Y0219255D02*
X0027585Y0219255D01*
X0027560Y0219096D02*
X0027560Y0218965D01*
X0032574Y0218965D01*
X0032574Y0223979D01*
X0032443Y0223979D01*
X0031619Y0223849D01*
X0030825Y0223591D01*
X0030082Y0223212D01*
X0029407Y0222722D01*
X0028817Y0222132D01*
X0028327Y0221457D01*
X0027948Y0220714D01*
X0027690Y0219920D01*
X0027560Y0219096D01*
X0027863Y0220453D02*
X0015317Y0220453D01*
X0015317Y0221652D02*
X0028468Y0221652D01*
X0029584Y0222850D02*
X0015317Y0222850D01*
X0032574Y0222850D02*
X0033146Y0222850D01*
X0033146Y0221652D02*
X0032574Y0221652D01*
X0032574Y0220453D02*
X0033146Y0220453D01*
X0033146Y0219255D02*
X0032574Y0219255D01*
X0032574Y0218056D02*
X0033146Y0218056D01*
X0033146Y0216858D02*
X0032574Y0216858D01*
X0032574Y0215659D02*
X0033146Y0215659D01*
X0033146Y0214461D02*
X0032574Y0214461D01*
X0050057Y0224049D02*
X0053126Y0224049D01*
X0037993Y0270791D02*
X0003400Y0270791D01*
X0003400Y0271989D02*
X0036794Y0271989D01*
X0035596Y0273188D02*
X0003400Y0273188D01*
X0003400Y0274386D02*
X0034397Y0274386D01*
X0033199Y0275585D02*
X0003400Y0275585D01*
X0003400Y0276783D02*
X0032657Y0276783D01*
X0032657Y0277982D02*
X0003400Y0277982D01*
X0003400Y0279180D02*
X0032657Y0279180D01*
X0032657Y0280379D02*
X0003400Y0280379D01*
X0003400Y0281577D02*
X0032657Y0281577D01*
X0032657Y0282776D02*
X0003400Y0282776D01*
X0003400Y0283974D02*
X0032657Y0283974D01*
X0032657Y0285173D02*
X0003400Y0285173D01*
X0003400Y0286371D02*
X0032657Y0286371D01*
X0032657Y0287570D02*
X0003400Y0287570D01*
X0003400Y0288768D02*
X0032657Y0288768D01*
X0032657Y0289967D02*
X0003400Y0289967D01*
X0003400Y0291165D02*
X0032657Y0291165D01*
X0032657Y0292364D02*
X0003400Y0292364D01*
X0003400Y0293562D02*
X0032657Y0293562D01*
X0032657Y0294761D02*
X0003400Y0294761D01*
X0003400Y0295959D02*
X0032657Y0295959D01*
X0032657Y0297158D02*
X0003400Y0297158D01*
X0003400Y0298356D02*
X0032657Y0298356D01*
X0033382Y0299555D02*
X0003400Y0299555D01*
X0003400Y0300753D02*
X0034580Y0300753D01*
X0035779Y0301952D02*
X0003400Y0301952D01*
X0003400Y0303150D02*
X0036977Y0303150D01*
X0038176Y0304349D02*
X0003400Y0304349D01*
X0003400Y0305547D02*
X0039374Y0305547D01*
X0040573Y0306746D02*
X0003400Y0306746D01*
X0003400Y0307944D02*
X0041771Y0307944D01*
X0042970Y0309143D02*
X0003400Y0309143D01*
X0003400Y0310341D02*
X0044168Y0310341D01*
X0045367Y0311540D02*
X0003400Y0311540D01*
X0003400Y0312738D02*
X0044851Y0312738D01*
X0036357Y0313937D02*
X0003400Y0313937D01*
X0003400Y0315135D02*
X0035159Y0315135D01*
X0033960Y0316334D02*
X0003400Y0316334D01*
X0003400Y0317533D02*
X0032762Y0317533D01*
X0032410Y0318731D02*
X0003400Y0318731D01*
X0003400Y0319930D02*
X0032410Y0319930D01*
X0032410Y0321128D02*
X0003400Y0321128D01*
X0003400Y0322327D02*
X0032410Y0322327D01*
X0032410Y0323525D02*
X0003400Y0323525D01*
X0003400Y0324724D02*
X0032410Y0324724D01*
X0032410Y0325922D02*
X0003400Y0325922D01*
X0003400Y0327121D02*
X0032410Y0327121D01*
X0032410Y0328319D02*
X0003400Y0328319D01*
X0003400Y0329518D02*
X0032410Y0329518D01*
X0032410Y0330716D02*
X0003400Y0330716D01*
X0003400Y0331915D02*
X0032410Y0331915D01*
X0032410Y0333113D02*
X0003400Y0333113D01*
X0003400Y0334312D02*
X0032410Y0334312D01*
X0032410Y0335510D02*
X0003400Y0335510D01*
X0003400Y0336709D02*
X0032410Y0336709D01*
X0032410Y0337907D02*
X0003400Y0337907D01*
X0003400Y0339106D02*
X0032410Y0339106D01*
X0032410Y0340304D02*
X0003400Y0340304D01*
X0003400Y0341503D02*
X0032302Y0341503D01*
X0033101Y0342701D02*
X0003400Y0342701D01*
X0003400Y0343900D02*
X0033971Y0343900D01*
X0034840Y0345098D02*
X0003400Y0345098D01*
X0003400Y0346297D02*
X0035709Y0346297D01*
X0036578Y0347495D02*
X0003400Y0347495D01*
X0003400Y0348694D02*
X0037447Y0348694D01*
X0038317Y0349892D02*
X0003400Y0349892D01*
X0003400Y0351091D02*
X0039145Y0351091D01*
X0064488Y0334312D02*
X0088383Y0334312D01*
X0089316Y0335510D02*
X0065370Y0335510D01*
X0066253Y0336709D02*
X0090248Y0336709D01*
X0091181Y0337907D02*
X0067135Y0337907D01*
X0068017Y0339106D02*
X0092114Y0339106D01*
X0093047Y0340304D02*
X0068899Y0340304D01*
X0069782Y0341503D02*
X0093980Y0341503D01*
X0094913Y0342701D02*
X0070664Y0342701D01*
X0063606Y0333113D02*
X0087450Y0333113D01*
X0086517Y0331915D02*
X0062723Y0331915D01*
X0061841Y0330716D02*
X0085584Y0330716D01*
X0084651Y0329518D02*
X0062361Y0329518D01*
X0114565Y0330716D02*
X0363397Y0330716D01*
X0362198Y0331915D02*
X0115268Y0331915D01*
X0115971Y0333113D02*
X0361000Y0333113D01*
X0359801Y0334312D02*
X0116673Y0334312D01*
X0117376Y0335510D02*
X0358603Y0335510D01*
X0357404Y0336709D02*
X0118078Y0336709D01*
X0118781Y0337907D02*
X0356206Y0337907D01*
X0373228Y0351091D02*
X0480115Y0351091D01*
X0480115Y0349892D02*
X0374427Y0349892D01*
X0375625Y0348694D02*
X0480115Y0348694D01*
X0480115Y0347495D02*
X0376824Y0347495D01*
X0378023Y0346297D02*
X0480115Y0346297D01*
X0480115Y0345098D02*
X0379221Y0345098D01*
X0380420Y0343900D02*
X0480115Y0343900D01*
X0480115Y0342701D02*
X0381618Y0342701D01*
X0382817Y0341503D02*
X0480115Y0341503D01*
X0480115Y0340304D02*
X0384015Y0340304D01*
X0385214Y0339106D02*
X0432425Y0339106D01*
X0431209Y0337907D02*
X0386412Y0337907D01*
X0387611Y0336709D02*
X0430653Y0336709D01*
X0430411Y0335510D02*
X0388809Y0335510D01*
X0390008Y0334312D02*
X0426236Y0334312D01*
X0424840Y0333113D02*
X0391206Y0333113D01*
X0433065Y0330716D02*
X0433892Y0330716D01*
X0438763Y0337907D02*
X0480115Y0337907D01*
X0480115Y0339106D02*
X0437547Y0339106D01*
X0450087Y0215659D02*
X0410107Y0215659D01*
X0411156Y0214461D02*
X0450087Y0214461D01*
X0450087Y0213262D02*
X0411653Y0213262D01*
X0411751Y0212064D02*
X0450087Y0212064D01*
X0450087Y0210865D02*
X0413597Y0210865D01*
X0414377Y0185696D02*
X0410069Y0185696D01*
X0411141Y0184498D02*
X0414377Y0184498D01*
X0414377Y0183299D02*
X0411637Y0183299D01*
X0411751Y0182101D02*
X0414377Y0182101D01*
X0414377Y0180902D02*
X0411751Y0180902D01*
X0411751Y0179704D02*
X0414377Y0179704D01*
X0414377Y0178505D02*
X0411751Y0178505D01*
X0411751Y0177307D02*
X0414377Y0177307D01*
X0414377Y0176108D02*
X0411751Y0176108D01*
X0411468Y0174910D02*
X0414377Y0174910D01*
X0414377Y0173711D02*
X0410859Y0173711D01*
X0409523Y0172513D02*
X0414377Y0172513D01*
X0414377Y0171314D02*
X0409451Y0171314D01*
X0409451Y0170116D02*
X0414377Y0170116D01*
X0414377Y0168917D02*
X0409451Y0168917D01*
X0409451Y0167719D02*
X0414377Y0167719D01*
X0414377Y0166520D02*
X0409451Y0166520D01*
X0409451Y0165322D02*
X0414377Y0165322D01*
X0414377Y0164123D02*
X0409451Y0164123D01*
X0409451Y0162925D02*
X0414377Y0162925D01*
X0414377Y0161726D02*
X0409451Y0161726D01*
X0408871Y0160528D02*
X0413532Y0160528D01*
X0412335Y0159329D02*
X0407673Y0159329D01*
X0406474Y0158131D02*
X0411138Y0158131D01*
X0409941Y0156932D02*
X0405276Y0156932D01*
X0404078Y0155733D02*
X0408744Y0155733D01*
X0407547Y0154535D02*
X0402879Y0154535D01*
X0401681Y0153336D02*
X0406350Y0153336D01*
X0405153Y0152138D02*
X0400483Y0152138D01*
X0399284Y0150939D02*
X0403956Y0150939D01*
X0402759Y0149741D02*
X0398086Y0149741D01*
X0396888Y0148542D02*
X0401562Y0148542D01*
X0400365Y0147344D02*
X0395689Y0147344D01*
X0394491Y0146145D02*
X0399168Y0146145D01*
X0397971Y0144947D02*
X0393293Y0144947D01*
X0392094Y0143748D02*
X0396774Y0143748D01*
X0395577Y0142550D02*
X0390896Y0142550D01*
X0389698Y0141351D02*
X0394380Y0141351D01*
X0393183Y0140153D02*
X0388499Y0140153D01*
X0387301Y0138954D02*
X0391986Y0138954D01*
X0390789Y0137756D02*
X0386103Y0137756D01*
X0384904Y0136557D02*
X0389593Y0136557D01*
X0388396Y0135359D02*
X0383706Y0135359D01*
X0382508Y0134160D02*
X0387199Y0134160D01*
X0386002Y0132962D02*
X0381309Y0132962D01*
X0380111Y0131763D02*
X0384805Y0131763D01*
X0383608Y0130565D02*
X0378913Y0130565D01*
X0377715Y0129366D02*
X0382411Y0129366D01*
X0381214Y0128168D02*
X0376516Y0128168D01*
X0375318Y0126969D02*
X0380017Y0126969D01*
X0378820Y0125771D02*
X0374120Y0125771D01*
X0372921Y0124572D02*
X0377623Y0124572D01*
X0376426Y0123374D02*
X0371723Y0123374D01*
X0370525Y0122175D02*
X0375229Y0122175D01*
X0374032Y0120977D02*
X0369326Y0120977D01*
X0368128Y0119778D02*
X0372835Y0119778D01*
X0371638Y0118580D02*
X0366930Y0118580D01*
X0365731Y0117381D02*
X0370441Y0117381D01*
X0369244Y0116183D02*
X0364533Y0116183D01*
X0363335Y0114984D02*
X0368047Y0114984D01*
X0366850Y0113786D02*
X0362136Y0113786D01*
X0360938Y0112587D02*
X0365654Y0112587D01*
X0364457Y0111389D02*
X0359740Y0111389D01*
X0358541Y0110190D02*
X0363260Y0110190D01*
X0362063Y0108992D02*
X0357343Y0108992D01*
X0356145Y0107793D02*
X0360866Y0107793D01*
X0359669Y0106595D02*
X0354946Y0106595D01*
X0353748Y0105396D02*
X0358472Y0105396D01*
X0357275Y0104198D02*
X0352550Y0104198D01*
X0351351Y0102999D02*
X0356078Y0102999D01*
X0354881Y0101800D02*
X0350153Y0101800D01*
X0348955Y0100602D02*
X0353684Y0100602D01*
X0352487Y0099403D02*
X0347756Y0099403D01*
X0346558Y0098205D02*
X0351290Y0098205D01*
X0350093Y0097006D02*
X0345360Y0097006D01*
X0344161Y0095808D02*
X0348896Y0095808D01*
X0347699Y0094609D02*
X0342963Y0094609D01*
X0341765Y0093411D02*
X0346502Y0093411D01*
X0345305Y0092212D02*
X0340566Y0092212D01*
X0339368Y0091014D02*
X0344108Y0091014D01*
X0342912Y0089815D02*
X0338170Y0089815D01*
X0336971Y0088617D02*
X0341715Y0088617D01*
X0340518Y0087418D02*
X0335773Y0087418D01*
X0334575Y0086220D02*
X0339321Y0086220D01*
X0338124Y0085021D02*
X0333376Y0085021D01*
X0332178Y0083823D02*
X0336927Y0083823D01*
X0335730Y0082624D02*
X0330980Y0082624D01*
X0329781Y0081426D02*
X0334533Y0081426D01*
X0333336Y0080227D02*
X0328583Y0080227D01*
X0327385Y0079029D02*
X0332139Y0079029D01*
X0330942Y0077830D02*
X0326186Y0077830D01*
X0325602Y0077245D02*
X0325602Y0077245D01*
X0325602Y0077245D01*
X0326949Y0078593D02*
X0326949Y0078593D01*
X0323696Y0077245D02*
X0323696Y0077245D01*
X0319912Y0070153D02*
X0317891Y0070990D01*
X0315703Y0070990D01*
X0313681Y0070153D01*
X0312134Y0068606D01*
X0311297Y0066584D01*
X0311297Y0064396D01*
X0312134Y0062375D01*
X0313681Y0060828D01*
X0315703Y0059990D01*
X0317891Y0059990D01*
X0319912Y0060828D01*
X0321460Y0062375D01*
X0322297Y0064396D01*
X0322297Y0066584D01*
X0321460Y0068606D01*
X0319912Y0070153D01*
X0320625Y0069441D02*
X0357078Y0069441D01*
X0357078Y0070639D02*
X0318738Y0070639D01*
X0321610Y0068242D02*
X0357078Y0068242D01*
X0357078Y0067044D02*
X0322107Y0067044D01*
X0322297Y0065845D02*
X0357078Y0065845D01*
X0357655Y0064647D02*
X0322297Y0064647D01*
X0321904Y0063448D02*
X0358854Y0063448D01*
X0360053Y0062250D02*
X0321334Y0062250D01*
X0320136Y0061051D02*
X0361251Y0061051D01*
X0362450Y0059853D02*
X0288997Y0059853D01*
X0288997Y0058654D02*
X0363648Y0058654D01*
X0364847Y0057456D02*
X0288997Y0057456D01*
X0288997Y0056257D02*
X0366045Y0056257D01*
X0367244Y0055059D02*
X0288997Y0055059D01*
X0288997Y0053860D02*
X0368442Y0053860D01*
X0369641Y0052662D02*
X0288997Y0052662D01*
X0288997Y0051463D02*
X0370839Y0051463D01*
X0372038Y0050264D02*
X0288997Y0050264D01*
X0288997Y0049066D02*
X0373236Y0049066D01*
X0374435Y0047867D02*
X0288997Y0047867D01*
X0288997Y0046669D02*
X0375633Y0046669D01*
X0376832Y0045470D02*
X0288997Y0045470D01*
X0288997Y0044272D02*
X0378030Y0044272D01*
X0385405Y0043073D02*
X0288997Y0043073D01*
X0288997Y0041875D02*
X0386501Y0041875D01*
X0392210Y0041875D02*
X0396344Y0041875D01*
X0396898Y0040676D02*
X0288997Y0040676D01*
X0288997Y0039478D02*
X0396898Y0039478D01*
X0396898Y0038279D02*
X0290041Y0038279D01*
X0291240Y0037081D02*
X0298577Y0037081D01*
X0297378Y0035882D02*
X0292438Y0035882D01*
X0289811Y0032287D02*
X0266739Y0032287D01*
X0266739Y0033485D02*
X0288613Y0033485D01*
X0287414Y0034684D02*
X0266739Y0034684D01*
X0266739Y0035201D02*
X0263752Y0038189D01*
X0259527Y0038189D01*
X0256627Y0035289D01*
X0253332Y0035289D01*
X0248839Y0039781D01*
X0248839Y0060448D01*
X0249755Y0060828D01*
X0251302Y0062375D01*
X0252139Y0064396D01*
X0252139Y0066584D01*
X0251302Y0068606D01*
X0249755Y0070153D01*
X0247733Y0070990D01*
X0245545Y0070990D01*
X0243524Y0070153D01*
X0241977Y0068606D01*
X0241757Y0068076D01*
X0241538Y0068606D01*
X0239991Y0070153D01*
X0237970Y0070990D01*
X0235782Y0070990D01*
X0233760Y0070153D01*
X0232213Y0068606D01*
X0231376Y0066584D01*
X0231376Y0064396D01*
X0232213Y0062375D01*
X0233760Y0060828D01*
X0235782Y0059990D01*
X0237970Y0059990D01*
X0239991Y0060828D01*
X0241538Y0062375D01*
X0241757Y0062904D01*
X0241977Y0062375D01*
X0243524Y0060828D01*
X0244439Y0060448D01*
X0244439Y0037959D01*
X0251509Y0030889D01*
X0256627Y0030889D01*
X0259527Y0027989D01*
X0263752Y0027989D01*
X0266739Y0030976D01*
X0266739Y0035201D01*
X0266058Y0035882D02*
X0286216Y0035882D01*
X0285017Y0037081D02*
X0264860Y0037081D01*
X0258419Y0037081D02*
X0251540Y0037081D01*
X0252738Y0035882D02*
X0257221Y0035882D01*
X0257626Y0029890D02*
X0225889Y0029890D01*
X0226976Y0030976D02*
X0223988Y0027989D01*
X0219763Y0027989D01*
X0216863Y0030889D01*
X0210256Y0030889D01*
X0208967Y0032177D01*
X0204124Y0037020D01*
X0204124Y0060677D01*
X0203760Y0060828D01*
X0202213Y0062375D01*
X0201797Y0063379D01*
X0201381Y0062375D01*
X0199834Y0060828D01*
X0197812Y0059990D01*
X0195624Y0059990D01*
X0193603Y0060828D01*
X0192055Y0062375D01*
X0191218Y0064396D01*
X0191218Y0066584D01*
X0192055Y0068606D01*
X0193603Y0070153D01*
X0195624Y0070990D01*
X0197812Y0070990D01*
X0199834Y0070153D01*
X0201381Y0068606D01*
X0201797Y0067601D01*
X0202213Y0068606D01*
X0203760Y0070153D01*
X0205782Y0070990D01*
X0207970Y0070990D01*
X0209991Y0070153D01*
X0211538Y0068606D01*
X0212376Y0066584D01*
X0212376Y0064396D01*
X0211538Y0062375D01*
X0209991Y0060828D01*
X0208524Y0060220D01*
X0208524Y0038842D01*
X0212078Y0035289D01*
X0216863Y0035289D01*
X0219763Y0038189D01*
X0223988Y0038189D01*
X0226976Y0035201D01*
X0226976Y0030976D01*
X0226976Y0031088D02*
X0251310Y0031088D01*
X0250111Y0032287D02*
X0226976Y0032287D01*
X0226976Y0033485D02*
X0248913Y0033485D01*
X0247714Y0034684D02*
X0226976Y0034684D01*
X0226294Y0035882D02*
X0246516Y0035882D01*
X0245317Y0037081D02*
X0225096Y0037081D01*
X0218655Y0037081D02*
X0210286Y0037081D01*
X0209087Y0038279D02*
X0244439Y0038279D01*
X0244439Y0039478D02*
X0208524Y0039478D01*
X0208524Y0040676D02*
X0244439Y0040676D01*
X0244439Y0041875D02*
X0208524Y0041875D01*
X0208524Y0043073D02*
X0244439Y0043073D01*
X0244439Y0044272D02*
X0208524Y0044272D01*
X0208524Y0045470D02*
X0244439Y0045470D01*
X0244439Y0046669D02*
X0208524Y0046669D01*
X0208524Y0047867D02*
X0244439Y0047867D01*
X0244439Y0049066D02*
X0208524Y0049066D01*
X0208524Y0050264D02*
X0244439Y0050264D01*
X0244439Y0051463D02*
X0208524Y0051463D01*
X0208524Y0052662D02*
X0244439Y0052662D01*
X0244439Y0053860D02*
X0208524Y0053860D01*
X0208524Y0055059D02*
X0244439Y0055059D01*
X0244439Y0056257D02*
X0208524Y0056257D01*
X0208524Y0057456D02*
X0244439Y0057456D01*
X0244439Y0058654D02*
X0208524Y0058654D01*
X0208524Y0059853D02*
X0244439Y0059853D01*
X0243300Y0061051D02*
X0240215Y0061051D01*
X0241413Y0062250D02*
X0242102Y0062250D01*
X0248839Y0059853D02*
X0284597Y0059853D01*
X0284597Y0058654D02*
X0248839Y0058654D01*
X0248839Y0057456D02*
X0284597Y0057456D01*
X0284597Y0056257D02*
X0248839Y0056257D01*
X0248839Y0055059D02*
X0284597Y0055059D01*
X0284597Y0053860D02*
X0248839Y0053860D01*
X0248839Y0052662D02*
X0284597Y0052662D01*
X0284597Y0051463D02*
X0248839Y0051463D01*
X0248839Y0050264D02*
X0284597Y0050264D01*
X0284597Y0049066D02*
X0248839Y0049066D01*
X0248839Y0047867D02*
X0284597Y0047867D01*
X0284597Y0046669D02*
X0248839Y0046669D01*
X0248839Y0045470D02*
X0284597Y0045470D01*
X0284597Y0044272D02*
X0248839Y0044272D01*
X0248839Y0043073D02*
X0284597Y0043073D01*
X0284597Y0041875D02*
X0248839Y0041875D01*
X0248839Y0040676D02*
X0284597Y0040676D01*
X0284597Y0039478D02*
X0249143Y0039478D01*
X0250341Y0038279D02*
X0284597Y0038279D01*
X0291010Y0031088D02*
X0266739Y0031088D01*
X0265653Y0029890D02*
X0297783Y0029890D01*
X0298982Y0028691D02*
X0264454Y0028691D01*
X0263669Y0027989D02*
X0261839Y0027989D01*
X0261839Y0023289D01*
X0261439Y0023289D01*
X0261439Y0022889D01*
X0256739Y0022889D01*
X0256739Y0021059D01*
X0259610Y0018189D01*
X0261439Y0018189D01*
X0261439Y0022889D01*
X0261839Y0022889D01*
X0261839Y0018189D01*
X0263669Y0018189D01*
X0266539Y0021059D01*
X0266539Y0022889D01*
X0261839Y0022889D01*
X0261839Y0023289D01*
X0266539Y0023289D01*
X0266539Y0025118D01*
X0263669Y0027989D01*
X0264165Y0027493D02*
X0299271Y0027493D01*
X0298073Y0026294D02*
X0265363Y0026294D01*
X0266539Y0025096D02*
X0296897Y0025096D01*
X0296897Y0023897D02*
X0266539Y0023897D01*
X0266539Y0022699D02*
X0296897Y0022699D01*
X0296897Y0021500D02*
X0266539Y0021500D01*
X0265782Y0020302D02*
X0297654Y0020302D01*
X0298853Y0019103D02*
X0264584Y0019103D01*
X0261839Y0019103D02*
X0261439Y0019103D01*
X0261439Y0020302D02*
X0261839Y0020302D01*
X0261839Y0021500D02*
X0261439Y0021500D01*
X0261439Y0022699D02*
X0261839Y0022699D01*
X0261439Y0023289D02*
X0256739Y0023289D01*
X0256739Y0025118D01*
X0259610Y0027989D01*
X0261439Y0027989D01*
X0261439Y0023289D01*
X0261439Y0023897D02*
X0261839Y0023897D01*
X0261839Y0025096D02*
X0261439Y0025096D01*
X0261439Y0026294D02*
X0261839Y0026294D01*
X0261839Y0027493D02*
X0261439Y0027493D01*
X0259114Y0027493D02*
X0224401Y0027493D01*
X0223905Y0027989D02*
X0222076Y0027989D01*
X0222076Y0023289D01*
X0226776Y0023289D01*
X0226776Y0025118D01*
X0223905Y0027989D01*
X0224691Y0028691D02*
X0258824Y0028691D01*
X0257915Y0026294D02*
X0225600Y0026294D01*
X0226776Y0025096D02*
X0256739Y0025096D01*
X0256739Y0023897D02*
X0226776Y0023897D01*
X0226776Y0022889D02*
X0222076Y0022889D01*
X0222076Y0023289D01*
X0221676Y0023289D01*
X0221676Y0027989D01*
X0219846Y0027989D01*
X0216976Y0025118D01*
X0216976Y0023289D01*
X0221676Y0023289D01*
X0221676Y0022889D01*
X0216976Y0022889D01*
X0216976Y0021059D01*
X0219846Y0018189D01*
X0221676Y0018189D01*
X0221676Y0022889D01*
X0222076Y0022889D01*
X0222076Y0018189D01*
X0223905Y0018189D01*
X0226776Y0021059D01*
X0226776Y0022889D01*
X0226776Y0022699D02*
X0256739Y0022699D01*
X0256739Y0021500D02*
X0226776Y0021500D01*
X0226018Y0020302D02*
X0257497Y0020302D01*
X0258695Y0019103D02*
X0224820Y0019103D01*
X0222076Y0019103D02*
X0221676Y0019103D01*
X0221676Y0020302D02*
X0222076Y0020302D01*
X0222076Y0021500D02*
X0221676Y0021500D01*
X0221676Y0022699D02*
X0222076Y0022699D01*
X0222076Y0023897D02*
X0221676Y0023897D01*
X0221676Y0025096D02*
X0222076Y0025096D01*
X0222076Y0026294D02*
X0221676Y0026294D01*
X0221676Y0027493D02*
X0222076Y0027493D01*
X0219350Y0027493D02*
X0184244Y0027493D01*
X0184533Y0028691D02*
X0219060Y0028691D01*
X0217862Y0029890D02*
X0185732Y0029890D01*
X0186818Y0031088D02*
X0210056Y0031088D01*
X0208858Y0032287D02*
X0186818Y0032287D01*
X0186818Y0033485D02*
X0207659Y0033485D01*
X0206460Y0034684D02*
X0186818Y0034684D01*
X0186137Y0035882D02*
X0205262Y0035882D01*
X0204124Y0037081D02*
X0184938Y0037081D01*
X0178498Y0037081D02*
X0171240Y0037081D01*
X0172438Y0035882D02*
X0177299Y0035882D01*
X0170041Y0038279D02*
X0204124Y0038279D01*
X0204124Y0039478D02*
X0168918Y0039478D01*
X0168918Y0040676D02*
X0204124Y0040676D01*
X0204124Y0041875D02*
X0168918Y0041875D01*
X0168918Y0043073D02*
X0204124Y0043073D01*
X0204124Y0044272D02*
X0168918Y0044272D01*
X0168918Y0045470D02*
X0204124Y0045470D01*
X0204124Y0046669D02*
X0168918Y0046669D01*
X0168918Y0047867D02*
X0204124Y0047867D01*
X0204124Y0049066D02*
X0168918Y0049066D01*
X0168918Y0050264D02*
X0204124Y0050264D01*
X0204124Y0051463D02*
X0168918Y0051463D01*
X0168918Y0052662D02*
X0204124Y0052662D01*
X0204124Y0053860D02*
X0168918Y0053860D01*
X0168918Y0055059D02*
X0204124Y0055059D01*
X0204124Y0056257D02*
X0168918Y0056257D01*
X0168918Y0057456D02*
X0204124Y0057456D01*
X0204124Y0058654D02*
X0168918Y0058654D01*
X0168918Y0059853D02*
X0204124Y0059853D01*
X0203537Y0061051D02*
X0200057Y0061051D01*
X0201256Y0062250D02*
X0202338Y0062250D01*
X0202062Y0068242D02*
X0201531Y0068242D01*
X0200546Y0069441D02*
X0203048Y0069441D01*
X0204934Y0070639D02*
X0198660Y0070639D01*
X0194777Y0070639D02*
X0168660Y0070639D01*
X0170546Y0069441D02*
X0192890Y0069441D01*
X0191905Y0068242D02*
X0171531Y0068242D01*
X0172028Y0067044D02*
X0191408Y0067044D01*
X0191218Y0065845D02*
X0172218Y0065845D01*
X0172218Y0064647D02*
X0191218Y0064647D01*
X0191611Y0063448D02*
X0171825Y0063448D01*
X0171256Y0062250D02*
X0192181Y0062250D01*
X0193379Y0061051D02*
X0170057Y0061051D01*
X0208817Y0070639D02*
X0234934Y0070639D01*
X0233048Y0069441D02*
X0210703Y0069441D01*
X0211689Y0068242D02*
X0232062Y0068242D01*
X0231566Y0067044D02*
X0212185Y0067044D01*
X0212376Y0065845D02*
X0231376Y0065845D01*
X0231376Y0064647D02*
X0212376Y0064647D01*
X0211983Y0063448D02*
X0231768Y0063448D01*
X0232338Y0062250D02*
X0211413Y0062250D01*
X0210215Y0061051D02*
X0233537Y0061051D01*
X0241689Y0068242D02*
X0241826Y0068242D01*
X0242812Y0069441D02*
X0240703Y0069441D01*
X0238817Y0070639D02*
X0244698Y0070639D01*
X0248581Y0070639D02*
X0274698Y0070639D01*
X0272812Y0069441D02*
X0250467Y0069441D01*
X0251453Y0068242D02*
X0271826Y0068242D01*
X0271330Y0067044D02*
X0251949Y0067044D01*
X0252139Y0065845D02*
X0271139Y0065845D01*
X0271139Y0064647D02*
X0252139Y0064647D01*
X0251747Y0063448D02*
X0271532Y0063448D01*
X0272102Y0062250D02*
X0251177Y0062250D01*
X0249978Y0061051D02*
X0273300Y0061051D01*
X0279978Y0061051D02*
X0283458Y0061051D01*
X0282259Y0062250D02*
X0281177Y0062250D01*
X0281453Y0068242D02*
X0281984Y0068242D01*
X0282969Y0069441D02*
X0280467Y0069441D01*
X0278581Y0070639D02*
X0284855Y0070639D01*
X0288738Y0070639D02*
X0314855Y0070639D01*
X0312969Y0069441D02*
X0290625Y0069441D01*
X0291610Y0068242D02*
X0311984Y0068242D01*
X0311487Y0067044D02*
X0292107Y0067044D01*
X0292297Y0065845D02*
X0311297Y0065845D01*
X0311297Y0064647D02*
X0292297Y0064647D01*
X0291904Y0063448D02*
X0311690Y0063448D01*
X0312259Y0062250D02*
X0291334Y0062250D01*
X0290136Y0061051D02*
X0313458Y0061051D01*
X0319768Y0082624D02*
X0324475Y0082624D01*
X0325673Y0083823D02*
X0320969Y0083823D01*
X0322171Y0085021D02*
X0326872Y0085021D01*
X0328070Y0086220D02*
X0323372Y0086220D01*
X0324574Y0087418D02*
X0329268Y0087418D01*
X0330466Y0088617D02*
X0325775Y0088617D01*
X0326977Y0089815D02*
X0331665Y0089815D01*
X0332863Y0091014D02*
X0328179Y0091014D01*
X0329380Y0092212D02*
X0334061Y0092212D01*
X0335260Y0093411D02*
X0330582Y0093411D01*
X0331783Y0094609D02*
X0336458Y0094609D01*
X0337656Y0095808D02*
X0332985Y0095808D01*
X0334186Y0097006D02*
X0338855Y0097006D01*
X0340053Y0098205D02*
X0335388Y0098205D01*
X0336589Y0099403D02*
X0341251Y0099403D01*
X0342450Y0100602D02*
X0337791Y0100602D01*
X0338993Y0101800D02*
X0343648Y0101800D01*
X0344846Y0102999D02*
X0340194Y0102999D01*
X0341396Y0104198D02*
X0346045Y0104198D01*
X0347243Y0105396D02*
X0342597Y0105396D01*
X0343799Y0106595D02*
X0348441Y0106595D01*
X0349640Y0107793D02*
X0345000Y0107793D01*
X0346202Y0108992D02*
X0350838Y0108992D01*
X0352036Y0110190D02*
X0347403Y0110190D01*
X0348605Y0111389D02*
X0353235Y0111389D01*
X0354433Y0112587D02*
X0349807Y0112587D01*
X0351008Y0113786D02*
X0355631Y0113786D01*
X0356830Y0114984D02*
X0352210Y0114984D01*
X0353411Y0116183D02*
X0358028Y0116183D01*
X0359226Y0117381D02*
X0354613Y0117381D01*
X0355814Y0118580D02*
X0360425Y0118580D01*
X0361623Y0119778D02*
X0357016Y0119778D01*
X0358217Y0120977D02*
X0362821Y0120977D01*
X0364020Y0122175D02*
X0359419Y0122175D01*
X0360621Y0123374D02*
X0365218Y0123374D01*
X0366416Y0124572D02*
X0361822Y0124572D01*
X0363024Y0125771D02*
X0367615Y0125771D01*
X0368813Y0126969D02*
X0364225Y0126969D01*
X0365427Y0128168D02*
X0370011Y0128168D01*
X0371210Y0129366D02*
X0366628Y0129366D01*
X0367830Y0130565D02*
X0372408Y0130565D01*
X0373606Y0131763D02*
X0369031Y0131763D01*
X0370233Y0132962D02*
X0374805Y0132962D01*
X0376003Y0134160D02*
X0371435Y0134160D01*
X0372636Y0135359D02*
X0377201Y0135359D01*
X0378400Y0136557D02*
X0373838Y0136557D01*
X0375039Y0137756D02*
X0379598Y0137756D01*
X0380796Y0138954D02*
X0376241Y0138954D01*
X0377442Y0140153D02*
X0381995Y0140153D01*
X0383193Y0141351D02*
X0378644Y0141351D01*
X0379845Y0142550D02*
X0384391Y0142550D01*
X0385590Y0143748D02*
X0381047Y0143748D01*
X0382249Y0144947D02*
X0386788Y0144947D01*
X0387986Y0146145D02*
X0383450Y0146145D01*
X0384652Y0147344D02*
X0389185Y0147344D01*
X0390383Y0148542D02*
X0385853Y0148542D01*
X0387055Y0149741D02*
X0391581Y0149741D01*
X0392780Y0150939D02*
X0388256Y0150939D01*
X0389458Y0152138D02*
X0393978Y0152138D01*
X0395176Y0153336D02*
X0390659Y0153336D01*
X0391857Y0154535D02*
X0396375Y0154535D01*
X0397573Y0155733D02*
X0393056Y0155733D01*
X0394254Y0156932D02*
X0398771Y0156932D01*
X0399970Y0158131D02*
X0395453Y0158131D01*
X0396651Y0159329D02*
X0401168Y0159329D01*
X0402366Y0160528D02*
X0397850Y0160528D01*
X0399048Y0161726D02*
X0403565Y0161726D01*
X0403791Y0161952D02*
X0403791Y0161952D01*
X0404763Y0162925D02*
X0399451Y0162925D01*
X0399451Y0164123D02*
X0404851Y0164123D01*
X0404851Y0165322D02*
X0399451Y0165322D01*
X0399451Y0166520D02*
X0404851Y0166520D01*
X0404851Y0167719D02*
X0399451Y0167719D01*
X0399451Y0168917D02*
X0404851Y0168917D01*
X0404851Y0170116D02*
X0399451Y0170116D01*
X0399451Y0171314D02*
X0404851Y0171314D01*
X0404779Y0172513D02*
X0399523Y0172513D01*
X0400859Y0173711D02*
X0403444Y0173711D01*
X0402835Y0174910D02*
X0401468Y0174910D01*
X0401751Y0176108D02*
X0402551Y0176108D01*
X0402551Y0177307D02*
X0401751Y0177307D01*
X0401751Y0178505D02*
X0402551Y0178505D01*
X0402551Y0179704D02*
X0401751Y0179704D01*
X0401751Y0180902D02*
X0402551Y0180902D01*
X0402551Y0182101D02*
X0401751Y0182101D01*
X0401637Y0183299D02*
X0402665Y0183299D01*
X0403162Y0184498D02*
X0401141Y0184498D01*
X0400069Y0185696D02*
X0404233Y0185696D01*
X0394233Y0185696D02*
X0390069Y0185696D01*
X0391141Y0184498D02*
X0393162Y0184498D01*
X0392665Y0183299D02*
X0391637Y0183299D01*
X0391751Y0182101D02*
X0392551Y0182101D01*
X0392551Y0180902D02*
X0391751Y0180902D01*
X0391751Y0179704D02*
X0392551Y0179704D01*
X0392551Y0178505D02*
X0391751Y0178505D01*
X0391751Y0177307D02*
X0392551Y0177307D01*
X0392551Y0176108D02*
X0391751Y0176108D01*
X0391468Y0174910D02*
X0392835Y0174910D01*
X0393444Y0173711D02*
X0390859Y0173711D01*
X0389523Y0172513D02*
X0394779Y0172513D01*
X0245244Y0146186D02*
X0245244Y0146186D01*
X0240585Y0118266D02*
X0240585Y0118266D01*
X0217457Y0035882D02*
X0211485Y0035882D01*
X0218152Y0026294D02*
X0185442Y0026294D01*
X0186618Y0025096D02*
X0216976Y0025096D01*
X0216976Y0023897D02*
X0186618Y0023897D01*
X0186618Y0022699D02*
X0216976Y0022699D01*
X0216976Y0021500D02*
X0186618Y0021500D01*
X0185861Y0020302D02*
X0217733Y0020302D01*
X0218931Y0019103D02*
X0184662Y0019103D01*
X0393307Y0043073D02*
X0395248Y0043073D01*
X0394751Y0044272D02*
X0393803Y0044272D01*
X0393931Y0045470D02*
X0394624Y0045470D01*
X0394735Y0046669D02*
X0393819Y0046669D01*
X0147951Y0236034D02*
X0113152Y0236034D01*
X0113152Y0237232D02*
X0148839Y0237232D01*
X0150570Y0238431D02*
X0113152Y0238431D01*
X0113152Y0239629D02*
X0149099Y0239629D01*
X0148058Y0240828D02*
X0113152Y0240828D01*
X0113152Y0242026D02*
X0147562Y0242026D01*
X0147363Y0243225D02*
X0113152Y0243225D01*
X0113152Y0244423D02*
X0147363Y0244423D01*
X0147780Y0245622D02*
X0113152Y0245622D01*
X0113152Y0246820D02*
X0148427Y0246820D01*
X0149625Y0248019D02*
X0113152Y0248019D01*
X0113152Y0249217D02*
X0149511Y0249217D01*
X0148313Y0250416D02*
X0113152Y0250416D01*
X0113152Y0251614D02*
X0147733Y0251614D01*
X0147363Y0252813D02*
X0113152Y0252813D01*
X0113152Y0254011D02*
X0147363Y0254011D01*
X0147609Y0255210D02*
X0113152Y0255210D01*
X0113152Y0256408D02*
X0148106Y0256408D01*
X0149213Y0257607D02*
X0113152Y0257607D01*
X0113152Y0258805D02*
X0150295Y0258805D01*
X0148725Y0260004D02*
X0113152Y0260004D01*
X0113152Y0261202D02*
X0147903Y0261202D01*
X0147407Y0262401D02*
X0113152Y0262401D01*
X0113152Y0263600D02*
X0147363Y0263600D01*
X0147439Y0264798D02*
X0113152Y0264798D01*
X0113152Y0265997D02*
X0147935Y0265997D01*
X0148802Y0267195D02*
X0113152Y0267195D01*
X0113152Y0234835D02*
X0132968Y0234835D01*
X0131769Y0233637D02*
X0113152Y0233637D01*
X0113152Y0232438D02*
X0130571Y0232438D01*
X0129372Y0231240D02*
X0113152Y0231240D01*
X0054060Y0286371D02*
X0053104Y0286371D01*
D22*
X0166718Y0065490D02*
X0166718Y0038491D01*
X0172120Y0033089D01*
X0181718Y0033089D01*
X0206324Y0037931D02*
X0211167Y0033089D01*
X0221876Y0033089D01*
X0206324Y0037931D02*
X0206324Y0064939D01*
X0206876Y0065490D01*
X0246639Y0065490D02*
X0246639Y0038870D01*
X0252420Y0033089D01*
X0261639Y0033089D01*
X0286797Y0038412D02*
X0292120Y0033089D01*
X0301797Y0033089D01*
X0286797Y0038412D02*
X0286797Y0065490D01*
M02*
