%
M48
M72
T01C0.02000
T02C0.02756
T03C0.03150
T04C0.03200
T05C0.03543
T06C0.03937
T07C0.04000
T08C0.16142
T09C0.25197
%
T01
X123647Y84309
X130729Y79545
X137820Y74609
X116561Y94309
X306600Y89309
X347100Y323758
X357200Y329270
X367200Y334782
T02
X327421Y270309
X317579Y270309
T03
X50852Y45490
X55773Y51986
X60694Y45490
X65616Y51986
X70537Y45490
X75458Y51986
X80380Y45490
X85301Y51986
X90222Y45490
X95143Y51986
X100065Y45490
X104986Y51986
X109907Y45490
X48529Y106789
X55025Y111711
X48529Y116632
X55025Y121553
X48529Y126475
X55025Y131396
X48529Y136317
X55025Y141238
X48529Y146160
X55025Y151081
X48529Y156002
X55025Y160923
X48529Y165845
X64277Y276160
X70773Y281081
X64277Y286002
X70773Y290923
X64277Y295845
X70773Y300766
X64277Y305687
X70773Y310608
X64277Y315530
X70773Y320451
X64277Y325372
X70773Y330293
X64277Y335215
X412742Y330293
X419238Y335215
X419238Y325372
X412742Y320451
X419238Y315530
X412742Y310608
X419238Y305687
X412742Y300766
X419238Y295845
X412742Y290923
X419238Y286002
X412742Y281081
X419238Y276160
X434986Y165845
X428490Y160923
X434986Y156002
X428490Y151081
X434986Y146160
X428490Y141238
X434986Y136317
X428490Y131396
X434986Y126475
X428490Y121553
X434986Y116632
X428490Y111711
X434986Y106789
X427742Y51986
X432663Y45490
X422820Y45490
X417899Y51986
X412978Y45490
X408057Y51986
X403135Y45490
X398214Y51986
X393293Y45490
X388372Y51986
X383450Y45490
X378529Y51986
X373608Y45490
T04
X301797Y33089
X301797Y23089
X261639Y23089
X261639Y33089
X221876Y33089
X221876Y23089
X181718Y23089
X181718Y33089
X277151Y179309
X287151Y179309
X297151Y179309
X307151Y179309
X317151Y179309
X327151Y179309
X337151Y179309
X347151Y179309
X357151Y179309
X367151Y179309
X377151Y179309
X387151Y179309
X397151Y179309
X407151Y179309
X407151Y209309
X397151Y209309
X387151Y209309
X377151Y209309
X367151Y209309
X357151Y209309
X347151Y209309
X337151Y209309
X327151Y209309
X317151Y209309
X307151Y209309
X297151Y209309
X287151Y209309
X277151Y209309
T05
X256600Y174309
X226600Y174309
X173800Y174209
X173600Y186909
X173600Y198609
X143600Y198609
X143600Y186909
X143800Y174209
X72600Y196309
X52600Y196309
X52600Y226309
X72600Y226309
X166718Y65490
X196718Y65490
X206876Y65490
X236876Y65490
X246639Y65490
X276639Y65490
X286797Y65490
X316797Y65490
T06
X185301Y113600
X185301Y123600
X185301Y133600
X185301Y143600
X185301Y153600
X185301Y163600
X185301Y173600
X185301Y183600
X185301Y193600
X185301Y203600
X185301Y213600
X185301Y223600
X185301Y233600
X185301Y243600
X185301Y253600
X185301Y263600
X105301Y263600
X105301Y253600
X105301Y243600
X105301Y233600
X105301Y223600
X105301Y213600
X105301Y203600
X105301Y193600
X105301Y183600
X105301Y173600
X105301Y163600
X105301Y153600
T07
X81600Y164309
X81600Y174309
X209200Y170509
X209200Y160509
X209200Y193609
X209200Y203609
X316100Y246809
X327100Y246809
X327100Y293809
X316100Y293809
T08
X241757Y132419
T09
X241757Y256435
M30
